<svg width="24" height="24" viewBox="0 0 24 24" fill="none" xmlns="http://www.w3.org/2000/svg">
<path fill-rule="evenodd" clip-rule="evenodd" d="M9 4.8457C9 4.29342 9.44772 3.8457 10 3.8457H21C21.5523 3.8457 22 4.29342 22 4.8457V6.69153C22 7.24381 21.5523 7.69153 21 7.69153H10C9.44772 7.69153 9 7.24381 9 6.69153V4.8457ZM9 10.6144C9 10.0622 9.44772 9.61444 10 9.61444H21C21.5523 9.61444 22 10.0622 22 10.6144V12.4603C22 13.0125 21.5523 13.4603 21 13.4603H10C9.44772 13.4603 9 13.0125 9 12.4603V10.6144ZM10 15.3832C9.44772 15.3832 9 15.8309 9 16.3832V18.229C9 18.7813 9.44772 19.229 10 19.229H21C21.5523 19.229 22 18.7813 22 18.229V16.3832C22 15.8309 21.5523 15.3832 21 15.3832H10Z" fill="#4A4B68"/>
<rect opacity="0.3" x="2" y="3.8457" width="5" height="15.3833" rx="1" fill="#4A4B68"/>
</svg>
