<svg width="24" height="25" viewBox="0 0 24 25" fill="none" xmlns="http://www.w3.org/2000/svg">
<path fill-rule="evenodd" clip-rule="evenodd" d="M22.1638 18.4834C22.478 18.8036 23.0222 18.5801 23.0207 18.1315L23.004 13.3541V5.63101C23.004 4.20923 21.8729 3.05664 20.4777 3.05664H8.68818C7.29294 3.05664 6.16187 4.20923 6.16187 5.63101V9.17077H13C14.6569 9.17077 16 10.5139 16 12.1708V15.9285H19.6565L22.1638 18.4834Z" fill="#4A4B68"/>
<path opacity="0.3" fill-rule="evenodd" clip-rule="evenodd" d="M1.98505 18.3421V13.247C1.98505 12.1214 2.88048 11.209 3.98505 11.209H11.985C13.0896 11.209 13.985 12.1214 13.985 13.247V18.3421C13.985 19.4677 13.0896 20.3802 11.985 20.3802H4.10078L2.86031 21.5901C2.54357 21.899 2.0112 21.6746 2.0112 21.2321V18.6726C1.99399 18.565 1.98505 18.4546 1.98505 18.3421ZM5.99998 14.766C5.99998 14.4899 6.22384 14.266 6.49998 14.266H11.5C11.7761 14.266 12 14.4899 12 14.766V14.7851C12 15.0612 11.7761 15.2851 11.5 15.2851H6.49998C6.22384 15.2851 5.99998 15.0612 5.99998 14.7851V14.766ZM9.49998 16.3041C9.22384 16.3041 8.99998 16.528 8.99998 16.8041V16.8231C8.99998 17.0993 9.22384 17.3231 9.49998 17.3231H11.5C11.7761 17.3231 12 17.0993 12 16.8231V16.8041C12 16.528 11.7761 16.3041 11.5 16.3041H9.49998Z" fill="#4A4B68"/>
</svg>
