<svg width="87" height="87" viewBox="0 0 87 87" fill="none" xmlns="http://www.w3.org/2000/svg">
<ellipse cx="43.5" cy="43.1575" rx="43.5" ry="43.1575" fill="#FFA800" fill-opacity="0.15"/>
<path fill-rule="evenodd" clip-rule="evenodd" d="M60.5212 65.0654H26.4052C24.9391 64.9235 23.5598 64.2771 22.5093 63.2267C21.3128 62.0301 20.6406 60.4076 20.6406 58.7156V39.0569C20.6406 38.8324 20.7882 38.6347 21.0031 38.5707C21.4438 38.4395 21.87 38.2336 22.2639 37.9499L42.623 23.2916C43.125 22.9303 43.8016 22.9303 44.3033 23.2916L64.6624 37.9499C65.0563 38.2336 65.4826 38.4395 65.9232 38.5707C66.1382 38.6347 66.2857 38.8324 66.2857 39.0569V58.7156C66.2857 60.4076 65.6136 62.0301 64.4173 63.2267C63.3666 64.2771 61.9874 64.9235 60.5212 65.0654Z" fill="#FEEED4"/>
<path fill-rule="evenodd" clip-rule="evenodd" d="M29.9519 45.7684C29.9519 45.6234 29.8899 45.4856 29.7815 45.3892C29.6732 45.293 29.5288 45.2477 29.3849 45.2648C27.4452 45.4951 25.9409 47.1449 25.9409 49.1463V67.4616C25.9409 69.6205 27.691 71.3707 29.8499 71.3707H57.0645C59.2234 71.3707 60.9732 69.6205 60.9732 67.4616V49.1463C60.9732 47.1449 59.469 45.4951 57.5292 45.2648C57.3853 45.2477 57.241 45.293 57.1326 45.3892C57.0243 45.4856 56.9622 45.6234 56.9622 45.7684V62.7403C56.9622 63.7518 56.2226 64.6111 55.2226 64.7616C52.6238 65.1531 48.2934 65.805 45.6517 66.2028C44.1969 66.4219 42.7175 66.4219 41.2624 66.2028C38.6208 65.805 34.2904 65.1531 31.6918 64.7616C30.6915 64.6111 29.9519 63.7518 29.9519 62.7403V45.7684Z" fill="#0083DA"/>
<path fill-rule="evenodd" clip-rule="evenodd" d="M28.9399 45.3444V64.2905C28.9399 65.9128 30.1265 67.2915 31.7308 67.533C34.517 67.9527 39.1598 68.6516 41.992 69.0781C43.6592 69.3291 45.3545 69.3291 47.0216 69.0781C49.8539 68.6516 54.4966 67.9527 57.2829 67.533C58.8872 67.2915 60.0737 65.9128 60.0737 64.2905V46.6485C59.45 45.8987 58.551 45.3857 57.5317 45.2648C57.3878 45.2477 57.2434 45.293 57.1351 45.3892C57.0268 45.4856 56.9647 45.6234 56.9647 45.7684V62.7403C56.9647 63.7518 56.2251 64.6111 55.225 64.7616C52.6262 65.153 48.2958 65.805 45.6542 66.2028C44.1994 66.4219 42.7199 66.4219 41.2649 66.2028C38.6232 65.805 34.2928 65.153 31.6943 64.7616C30.694 64.6111 29.9544 63.7518 29.9544 62.7403V45.7684C29.9544 45.6234 29.8923 45.4856 29.784 45.3892C29.6756 45.293 29.5313 45.2477 29.3874 45.2648C29.2352 45.2828 29.086 45.3095 28.9399 45.3444Z" fill="#0170C2"/>
<path fill-rule="evenodd" clip-rule="evenodd" d="M22.8495 38.7668L43.2086 24.1084C43.3564 24.002 43.5555 24.002 43.7033 24.1082C43.7033 24.1084 64.0627 38.7668 64.0627 38.7668C66.41 40.4568 69.688 39.9231 71.378 37.5756C73.068 35.2283 72.5343 31.9505 70.187 30.2603C70.187 30.2603 56.3391 20.29 49.8277 15.6019C46.0219 12.8617 40.8903 12.8617 37.0843 15.6019L16.7249 30.2603C14.3776 31.9505 13.844 35.2283 15.534 37.5756C17.2242 39.9231 20.502 40.4568 22.8495 38.7668Z" fill="#7C4438"/>
<path fill-rule="evenodd" clip-rule="evenodd" d="M57.9791 44.3049C57.9791 43.4142 57.5908 42.5677 56.9157 41.9869C56.2407 41.4058 55.346 41.1479 54.4652 41.2804C52.8609 41.5221 50.8196 41.8293 48.9276 42.1144C45.3027 42.6602 41.6164 42.6602 37.9917 42.1144C36.0994 41.8293 34.0581 41.5221 32.4538 41.2804C31.5733 41.1479 30.6784 41.4058 30.0033 41.9869C29.3282 42.5677 28.9399 43.4142 28.9399 44.3049C28.9399 49.1081 28.9399 58.4825 28.9399 62.7387C28.9399 64.2519 30.0466 65.5378 31.5431 65.763C34.1419 66.1544 38.4723 66.8064 41.1139 67.2042C42.6688 67.4384 44.2502 67.4384 45.8051 67.2042C48.4468 66.8064 52.7774 66.1544 55.376 65.763C56.8724 65.5378 57.9791 64.2519 57.9791 62.7387C57.9791 58.4825 57.9791 49.1081 57.9791 44.3049Z" fill="#F0F3FA"/>
<path fill-rule="evenodd" clip-rule="evenodd" d="M54.2057 47.3678L46.7456 48.2932C46.4678 48.3277 46.2701 48.5811 46.3047 48.8589C46.339 49.1367 46.5925 49.3344 46.8705 49.2998L54.3306 48.3745C54.6084 48.3399 54.8061 48.0865 54.7715 47.8087C54.7372 47.5309 54.4835 47.3332 54.2057 47.3678Z" fill="#432F33"/>
<path fill-rule="evenodd" clip-rule="evenodd" d="M54.2057 53.2235L46.7456 54.1491C46.4678 54.1834 46.2701 54.4371 46.3047 54.7148C46.339 54.9926 46.5925 55.19 46.8705 55.1557L54.3306 54.2301C54.6084 54.1958 54.8061 53.9421 54.7715 53.6644C54.7372 53.3866 54.4835 53.1892 54.2057 53.2235Z" fill="#432F33"/>
<path fill-rule="evenodd" clip-rule="evenodd" d="M54.2057 59.0792L46.7456 60.0048C46.4678 60.0391 46.2701 60.2928 46.3047 60.5705C46.339 60.8483 46.5925 61.0457 46.8705 61.0114L54.3306 60.0858C54.6084 60.0515 54.8061 59.7981 54.7715 59.5201C54.7372 59.2423 54.4835 59.0449 54.2057 59.0792Z" fill="#432F33"/>
<path fill-rule="evenodd" clip-rule="evenodd" d="M32.5903 48.3745L40.0507 49.2998C40.3285 49.3344 40.5819 49.1367 40.6165 48.8589C40.6508 48.5811 40.4534 48.3277 40.1756 48.2932L32.7152 47.3678C32.4374 47.3332 32.184 47.5309 32.1494 47.8087C32.1149 48.0865 32.3125 48.3399 32.5903 48.3745Z" fill="#432F33"/>
<path fill-rule="evenodd" clip-rule="evenodd" d="M32.5903 54.2301L40.0507 55.1557C40.3285 55.19 40.5819 54.9926 40.6165 54.7148C40.6508 54.4371 40.4534 54.1834 40.1756 54.1491L32.7152 53.2235C32.4374 53.1892 32.184 53.3866 32.1494 53.6644C32.1149 53.9421 32.3125 54.1958 32.5903 54.2301Z" fill="#432F33"/>
<path fill-rule="evenodd" clip-rule="evenodd" d="M32.5903 60.0858L40.0507 61.0114C40.3285 61.0457 40.5819 60.8483 40.6165 60.5705C40.6508 60.2928 40.4534 60.0391 40.1756 60.0048L32.7152 59.0792C32.4374 59.0449 32.184 59.2423 32.1494 59.5201C32.1149 59.7981 32.3125 60.0515 32.5903 60.0858Z" fill="#432F33"/>
<path fill-rule="evenodd" clip-rule="evenodd" d="M43.9671 66.8333V43.0311C43.9671 42.7512 43.7397 42.5238 43.4597 42.5238C43.1798 42.5238 42.9526 42.7512 42.9526 43.0311V66.8333C42.9526 67.1133 43.1798 67.3404 43.4597 67.3404C43.7397 67.3404 43.9671 67.1133 43.9671 66.8333Z" fill="#432F33"/>
<path fill-rule="evenodd" clip-rule="evenodd" d="M57.9791 44.3049C57.9791 43.4142 57.5908 42.5677 56.9157 41.9869C56.2407 41.4058 55.346 41.1479 54.4652 41.2804C52.8609 41.5221 50.8196 41.8293 48.9276 42.1144C45.3027 42.6602 41.6164 42.6602 37.9917 42.1144C36.0994 41.8293 34.0581 41.5221 32.4538 41.2804C31.5733 41.1479 30.6784 41.4058 30.0033 41.9869C29.3282 42.5677 28.9399 43.4142 28.9399 44.3049C28.9399 49.1081 28.9399 58.4825 28.9399 62.7387C28.9399 64.2519 30.0466 65.5378 31.5431 65.763C34.1419 66.1544 38.4723 66.8064 41.1139 67.2042C42.6688 67.4384 44.2502 67.4384 45.8051 67.2042C48.4468 66.8064 52.7774 66.1544 55.376 65.763C56.8724 65.5378 57.9791 64.2519 57.9791 62.7387C57.9791 58.4825 57.9791 49.1081 57.9791 44.3049ZM56.9647 44.3049C56.9647 49.1081 56.9647 58.4825 56.9647 62.7387C56.9647 63.7502 56.2251 64.6095 55.225 64.76C52.6262 65.1514 48.2958 65.8034 45.6542 66.2012C44.1994 66.4203 42.7199 66.4203 41.2649 66.2012C38.6232 65.8034 34.2928 65.1514 31.6943 64.76C30.694 64.6095 29.9544 63.7502 29.9544 62.7387C29.9544 58.4825 29.9544 49.1081 29.9544 44.3049C29.9544 43.7097 30.2139 43.144 30.665 42.7557C31.1161 42.3674 31.7142 42.195 32.3029 42.2836C33.9072 42.5251 35.9485 42.8326 37.8406 43.1174C41.5655 43.6783 45.3535 43.6783 49.0785 43.1174C50.9708 42.8326 53.0119 42.5251 54.6162 42.2836C55.2048 42.195 55.803 42.3674 56.2541 42.7557C56.7054 43.144 56.9647 43.7097 56.9647 44.3049Z" fill="#432F33"/>
<path fill-rule="evenodd" clip-rule="evenodd" d="M29.9519 45.7684C29.9519 45.6234 29.8899 45.4856 29.7815 45.3892C29.6732 45.293 29.5288 45.2477 29.3849 45.2648C27.4452 45.4951 25.9409 47.1449 25.9409 49.1463V67.4616C25.9409 69.6205 27.691 71.3707 29.8499 71.3707H57.0645C59.2234 71.3707 60.9732 69.6205 60.9732 67.4616V49.1463C60.9732 47.1449 59.469 45.4951 57.5292 45.2648C57.3853 45.2477 57.241 45.293 57.1326 45.3892C57.0243 45.4856 56.9622 45.6234 56.9622 45.7684V62.7403C56.9622 63.7518 56.2226 64.6111 55.2226 64.7616C52.6238 65.1531 48.2934 65.805 45.6517 66.2028C44.1969 66.4219 42.7175 66.4219 41.2624 66.2028C38.6208 65.805 34.2904 65.1531 31.6918 64.7616C30.6915 64.6111 29.9519 63.7518 29.9519 62.7403V45.7684ZM28.9375 46.3982V62.7403C28.9375 64.2535 30.0442 65.5394 31.5407 65.7646C34.1394 66.156 38.4699 66.808 41.1115 67.2058C42.6664 67.44 44.2478 67.44 45.8027 67.2058C48.4443 66.808 52.775 66.156 55.3735 65.7646C56.87 65.5394 57.9767 64.2535 57.9767 62.7403V46.3982C59.1284 46.7802 59.959 47.8662 59.959 49.1463V67.4616C59.959 69.0604 58.6629 70.3565 57.0645 70.3565H29.8499C28.2512 70.3565 26.9554 69.0604 26.9554 67.4616V49.1463C26.9554 47.8662 27.786 46.78 28.9377 46.3982H28.9375Z" fill="#432F33"/>
<path fill-rule="evenodd" clip-rule="evenodd" d="M22.8495 38.7668L43.2086 24.1084C43.3564 24.002 43.5555 24.002 43.7033 24.1082C43.7033 24.1084 64.0627 38.7668 64.0627 38.7668C66.41 40.4568 69.688 39.9231 71.378 37.5756C73.068 35.2283 72.5343 31.9505 70.187 30.2603C70.187 30.2603 56.3391 20.29 49.8277 15.6019C46.0219 12.8617 40.8903 12.8617 37.0843 15.6019L16.7249 30.2603C14.3776 31.9505 13.844 35.2283 15.534 37.5756C17.2242 39.9231 20.502 40.4568 22.8495 38.7668ZM22.2567 37.9434C20.3637 39.3065 17.7201 38.8761 16.3573 36.983C14.9942 35.09 15.4247 32.4464 17.3177 31.0836L37.6768 16.4253C41.1289 13.9399 45.7831 13.9399 49.2351 16.4253C55.7463 21.1133 69.5942 31.0836 69.5942 31.0836C71.4875 32.4464 71.9177 35.09 70.5549 36.983C69.1918 38.8761 66.5483 39.3065 64.6552 37.9434L44.2961 23.2851C43.7944 22.9238 43.1178 22.9238 42.6158 23.2851L22.2567 37.9434Z" fill="#432F33"/>
<path fill-rule="evenodd" clip-rule="evenodd" d="M60.5212 65.0654C61.9874 64.9235 63.3666 64.2771 64.4173 63.2267C65.6136 62.0301 66.2857 60.4076 66.2857 58.7156V39.0569C66.2857 38.8324 66.1382 38.6347 65.9232 38.5707C65.4826 38.4395 65.0563 38.2336 64.6624 37.9499L44.3033 23.2916C43.8016 22.9303 43.125 22.9303 42.623 23.2916L22.2639 37.9499C21.87 38.2336 21.4438 38.4395 21.0031 38.5707C20.7882 38.6347 20.6406 38.8324 20.6406 39.0569V58.7156C20.6406 60.4076 21.3128 62.0301 22.5093 63.2267C23.5598 64.2771 24.9391 64.9235 26.4052 65.0654C26.6839 65.0924 26.932 64.8882 26.959 64.6094C26.986 64.3309 26.7815 64.0829 26.503 64.0558C25.27 63.9363 24.11 63.3929 23.2265 62.5092C22.2203 61.5031 21.6551 60.1385 21.6551 58.7156V39.4203C22.0726 39.2619 22.4769 39.0467 22.8567 38.7733L43.2158 24.1149C43.3636 24.0085 43.5627 24.0085 43.7105 24.1147C43.7105 24.1149 64.0699 38.7733 64.0699 38.7733C64.4496 39.0467 64.8538 39.2616 65.2715 39.4203C65.2713 39.4203 65.2713 58.7156 65.2713 58.7156C65.2713 60.1385 64.706 61.5031 63.6998 62.5092C62.8164 63.3929 61.6564 63.9363 60.4233 64.0558C60.1448 64.0829 59.9406 64.3309 59.9673 64.6094C59.9944 64.8882 60.2424 65.0924 60.5212 65.0654Z" fill="#432F33"/>
</svg>
