<svg width="87" height="87" viewBox="0 0 87 87" fill="none" xmlns="http://www.w3.org/2000/svg">
<ellipse cx="43.5" cy="43.1575" rx="43.5" ry="43.1575" fill="#78A2D2" fill-opacity="0.3"/>
<path d="M43.1749 65.6C55.2009 65.6 64.9499 55.851 64.9499 43.825C64.9499 31.799 55.2009 22.05 43.1749 22.05C31.1489 22.05 21.3999 31.799 21.3999 43.825C21.3999 55.851 31.1489 65.6 43.1749 65.6Z" fill="#78A2D2"/>
<path d="M43.1749 65.6C39.7163 65.6 37.6499 54.5286 37.6499 43.825C37.6499 33.1215 39.7163 22.05 43.1749 22.05C46.6336 22.05 48.6999 33.1215 48.6999 43.825C48.6999 54.5286 46.6336 65.6 43.1749 65.6ZM43.1749 22.7C40.8206 22.7 38.2999 31.189 38.2999 43.825C38.2999 56.461 40.8206 64.95 43.1749 64.95C45.5292 64.95 48.0499 56.461 48.0499 43.825C48.0499 31.189 45.5292 22.7 43.1749 22.7Z" fill="#1F212B"/>
<path d="M43.175 66.25C30.81 66.25 20.75 56.19 20.75 43.825C20.75 31.4601 30.81 21.4 43.175 21.4C55.5399 21.4 65.6 31.4601 65.6 43.825C65.6 56.19 55.5399 66.25 43.175 66.25ZM43.175 22.7C31.527 22.7 22.05 32.1764 22.05 43.825C22.05 55.4737 31.527 64.95 43.175 64.95C54.823 64.95 64.3 55.4737 64.3 43.825C64.3 32.1764 54.823 22.7 43.175 22.7Z" fill="#1F212B"/>
<path d="M56.1751 44.15H21.6438C21.4644 44.15 21.3188 44.0044 21.3188 43.825C21.3188 43.6456 21.4644 43.5 21.6438 43.5H56.1751C56.3545 43.5 56.5001 43.6456 56.5001 43.825C56.5001 44.0044 56.3545 44.15 56.1751 44.15Z" fill="#1F212B"/>
<path d="M49.0251 31.8H25.3001C25.1207 31.8 24.9751 31.6544 24.9751 31.475C24.9751 31.2956 25.1207 31.15 25.3001 31.15H49.0251C49.2045 31.15 49.3501 31.2956 49.3501 31.475C49.3501 31.6544 49.2045 31.8 49.0251 31.8Z" fill="#1F212B"/>
<path d="M61.0501 56.5H25.3001C25.1207 56.5 24.9751 56.3544 24.9751 56.175C24.9751 55.9956 25.1207 55.85 25.3001 55.85H61.0501C61.2295 55.85 61.3751 55.9956 61.3751 56.175C61.3751 56.3544 61.2295 56.5 61.0501 56.5Z" fill="#1F212B"/>
<path d="M70.1304 28.5234C70.1304 35.7 60.3902 45.45 60.3902 45.45C60.3902 45.45 50.6499 35.7 50.6499 28.5234C50.6499 23.1537 55.0114 18.8 60.3902 18.8C65.7689 18.8 70.1304 23.1537 70.1304 28.5234Z" fill="#F15B6C"/>
<path d="M60.3903 46.1C60.2174 46.1 60.0522 46.0318 59.93 45.9096C59.5251 45.5033 50 35.8846 50 28.5234C50 22.8034 54.6611 18.15 60.3903 18.15C66.1194 18.15 70.7805 22.8034 70.7805 28.5234C70.7805 35.8846 61.2554 45.5033 60.8505 45.9096C60.7283 46.0318 60.5625 46.1 60.3903 46.1ZM60.3903 19.45C55.3775 19.45 51.3 23.5203 51.3 28.5234C51.3 34.4702 58.4825 42.4873 60.3903 44.5121C62.298 42.4873 69.4805 34.4702 69.4805 28.5234C69.4805 23.5203 65.4024 19.45 60.3903 19.45Z" fill="#1F212B"/>
<path d="M60.3902 23.0081C57.3398 23.0081 54.8652 25.4781 54.8652 28.524C54.8652 31.5699 57.3398 34.0399 60.3902 34.0399C63.4407 34.0399 65.9152 31.5699 65.9152 28.524C65.9152 25.4781 63.4407 23.0081 60.3902 23.0081Z" fill="#FEFDEF"/>
<path d="M60.4 34.4C57.1747 34.4 54.55 31.7759 54.55 28.55C54.55 25.324 57.1747 22.7 60.4 22.7C63.6253 22.7 66.25 25.324 66.25 28.55C66.25 31.7759 63.6253 34.4 60.4 34.4ZM60.4 23.35C57.5329 23.35 55.2 25.6828 55.2 28.55C55.2 31.4171 57.5329 33.75 60.4 33.75C63.2672 33.75 65.6 31.4171 65.6 28.55C65.6 25.6828 63.2672 23.35 60.4 23.35Z" fill="#1F212B"/>
<path d="M43.1749 65.6C34.7522 65.6 27.8999 55.8318 27.8999 43.825C27.8999 31.8182 34.7522 22.05 43.1749 22.05C43.3543 22.05 43.4999 22.1956 43.4999 22.375C43.4999 22.5544 43.3543 22.7 43.1749 22.7C35.1104 22.7 28.5499 32.1764 28.5499 43.825C28.5499 55.4737 35.1104 64.95 43.1749 64.95C50.557 64.95 56.7963 56.9739 57.6881 46.3977C57.7031 46.2196 57.8636 46.0935 58.0391 46.1013C58.2178 46.1163 58.3505 46.2736 58.3355 46.4523C57.4158 57.3684 50.8976 65.6 43.1749 65.6Z" fill="#1F212B"/>
<path d="M60.4001 36.35C56.099 36.35 52.6001 32.8511 52.6001 28.55C52.6001 24.249 56.099 20.75 60.4001 20.75C61.457 20.75 62.484 20.9593 63.4525 21.3733C63.6176 21.4435 63.6943 21.6346 63.6241 21.7997C63.5539 21.9655 63.3608 22.0409 63.1977 21.9713C62.3098 21.5924 61.3686 21.4 60.4001 21.4C56.4578 21.4 53.2501 24.6078 53.2501 28.55C53.2501 32.4923 56.4578 35.7 60.4001 35.7C64.2338 35.7 67.3674 32.6957 67.5338 28.8614C67.5416 28.682 67.6983 28.5617 67.8725 28.55C68.0519 28.5585 68.191 28.7099 68.1832 28.8886C68.0018 33.0727 64.5835 36.35 60.4001 36.35Z" fill="#1F212B"/>
<path d="M66.0536 24C65.9626 24 65.8722 23.9617 65.8079 23.8876C65.4003 23.4144 64.9401 23.0016 64.4409 22.6578C64.2934 22.5557 64.2557 22.3536 64.3577 22.206C64.4598 22.0578 64.6619 22.0208 64.8101 22.1222C65.3548 22.4972 65.856 22.9483 66.2999 23.4625C66.4176 23.5983 66.402 23.8037 66.2661 23.9214C66.2044 23.974 66.129 24 66.0536 24Z" fill="#1F212B"/>
<path d="M67.5182 26.6C67.381 26.6 67.253 26.5122 67.2088 26.3738C67.1412 26.1619 67.0625 25.9545 66.9767 25.7517C66.9065 25.5866 66.9832 25.3955 67.1483 25.326C67.3141 25.2551 67.5045 25.3325 67.5747 25.4982C67.669 25.7192 67.7535 25.9454 67.8276 26.1762C67.8822 26.3471 67.7879 26.5298 67.6176 26.585C67.5845 26.5948 67.5507 26.6 67.5182 26.6Z" fill="#1F212B"/>
</svg>
