<svg width="87" height="87" viewBox="0 0 87 87" fill="none" xmlns="http://www.w3.org/2000/svg">
<ellipse cx="43.5" cy="43.1575" rx="43.5" ry="43.1575" fill="#BCEA63" fill-opacity="0.3"/>
<path d="M47.0218 42.7282V35.7561H40.0497V42.7282H34.5747C33.2772 42.7282 32.2222 43.7833 32.2222 45.0807V70.5309H54.8636V45.0807C54.8636 43.7833 53.8085 42.7282 52.511 42.7282H47.0218Z" fill="#EDD2AE" stroke="#111010" stroke-width="1.25427" stroke-miterlimit="10" stroke-linecap="round" stroke-linejoin="round"/>
<path d="M43.543 40.4896C38.4672 40.4896 34.3467 36.3691 34.3467 31.2933V27.0017C34.3467 21.9259 38.4672 17.8054 43.543 17.8054C48.6187 17.8054 52.7393 21.9259 52.7393 27.0017V31.2933C52.7393 36.3691 48.6187 40.4896 43.543 40.4896Z" fill="#F7DDC1"/>
<path opacity="0.1" d="M45.439 39.0068C44.8259 39.1494 44.1986 39.235 43.5427 39.235" stroke="#111010" stroke-width="2.50856" stroke-miterlimit="10" stroke-linecap="round" stroke-linejoin="round"/>
<path opacity="0.1" d="M51.4844 27.0017V31.2933C51.4844 33.5888 50.5006 35.6705 48.9465 37.1105" stroke="#111010" stroke-width="2.50856" stroke-miterlimit="10" stroke-linecap="round" stroke-linejoin="round"/>
<path d="M52.4112 33.7314C51.3418 37.6238 47.7774 40.4896 43.5428 40.4896C39.3225 40.4896 35.7723 37.6523 34.6887 33.7885" stroke="black" stroke-width="1.25427" stroke-miterlimit="10" stroke-linecap="round" stroke-linejoin="round"/>
<path d="M38.3814 23.3375C38.3529 23.5799 42.4306 25.1055 42.7728 25.2481C45.382 26.3031 47.8914 26.6026 50.6716 26.902C52.4824 27.1016 53.566 26.9875 54.1363 26.8449C54.4927 26.7594 54.8492 26.6026 55.1058 26.3317C55.5193 25.9039 55.5906 25.4192 55.3767 25.0057C55.0488 24.3783 54.6924 23.6797 54.6211 23.5514C53.9652 22.4821 53.2095 21.4697 52.2258 20.6713C51.0851 19.7588 49.8162 19.1315 48.4759 18.5897C48.3334 18.5326 47.4636 18.3045 46.6795 18.1334C46.1947 18.0336 46.1662 17.335 46.6509 17.2067H46.6652C46.8078 17.1781 46.9789 17.1639 47.1357 17.1639C47.3638 17.1639 47.4494 16.8645 47.264 16.7504C47.207 16.7219 47.1642 16.6934 47.1215 16.6649C46.0379 16.1516 44.4695 16.3084 43.3004 16.3797C42.4021 16.4225 41.5039 16.5365 40.6199 16.7076C39.9498 16.836 37.5972 17.4205 37.4261 17.2637C37.2123 17.0498 37.0982 16.6078 36.7988 16.6078C36.1002 16.6078 34.9025 18.8748 34.7599 19.1457C34.2894 20.0297 33.8047 21.2987 33.6763 22.4821C33.5908 23.2947 33.5908 24.1074 33.6336 24.9201C33.6763 25.961 34.8597 26.5455 35.7009 25.9182C35.9006 25.7756 36.1144 25.6045 36.3568 25.4049C38.3244 23.7795 38.3814 23.3375 38.3814 23.3375Z" fill="#27485B"/>
<path d="M50.9854 19.8159C50.187 19.3312 49.3315 18.9462 48.4618 18.5755C48.3192 18.5185 47.4495 18.2904 46.6653 18.1193C46.1805 18.0195 46.152 17.3208 46.6368 17.1925H46.651C46.7936 17.164 46.9647 17.1497 47.1215 17.1497C47.3497 17.1497 47.4352 16.8503 47.2499 16.7363C47.1928 16.7077 47.15 16.6792 47.1073 16.6507C46.0237 16.1374 44.4553 16.2943 43.2862 16.3655C42.3879 16.4083 41.4897 16.5224 40.6057 16.6935" stroke="#111010" stroke-width="1.25427" stroke-miterlimit="10" stroke-linecap="round" stroke-linejoin="round"/>
<path d="M36.3284 25.405C38.3102 23.7796 38.3815 23.3376 38.3815 23.3376C38.353 23.58 42.4307 25.1056 42.7729 25.2482C45.3821 26.3033 47.8915 26.6027 50.6717 26.9021" stroke="#111010" stroke-width="1.25427" stroke-miterlimit="10" stroke-linecap="round" stroke-linejoin="round"/>
<path d="M55.163 43.5552C54.4358 42.9564 53.5519 42.6998 52.6821 42.7425C52.6251 42.7425 52.5681 42.7283 52.511 42.7283H47.036C47.036 44.6531 45.4819 46.2072 43.5571 46.2072C41.6323 46.2072 40.0782 44.6531 40.0782 42.7283H34.6032C34.5462 42.7283 34.4892 42.7283 34.4321 42.7425C33.5624 42.6998 32.6784 42.9564 31.9513 43.5552C31.8229 43.6693 28.7005 46.2214 25.6636 49.6576L30.939 54.7048C30.9532 54.6906 30.9675 54.6763 30.9675 54.6621C31.3952 54.1773 31.823 53.7068 32.2507 53.2648V70.5595H54.8921V53.2505C55.3198 53.6925 55.7476 54.163 56.1753 54.6478C56.1896 54.6621 56.2038 54.6763 56.2038 54.6906L61.4792 49.6433C58.428 46.2072 55.3056 43.655 55.163 43.5552Z" fill="#BCEA63"/>
<path opacity="0.8" d="M32.5786 46.2783C33.1489 45.7793 33.4911 45.4941 33.5054 45.4941" stroke="white" stroke-width="1.25427" stroke-miterlimit="10" stroke-linecap="round" stroke-linejoin="round"/>
<path opacity="0.8" d="M35.6155 45.2375H37.7827" stroke="white" stroke-width="1.25427" stroke-miterlimit="10" stroke-linecap="round" stroke-linejoin="round"/>
<path d="M61.4507 49.6431C61.0515 49.1869 60.638 48.7449 60.2388 48.3171" stroke="#111010" stroke-width="1.25427" stroke-miterlimit="10" stroke-linecap="round" stroke-linejoin="round"/>
<path d="M30.939 54.6475C31.3667 54.1627 31.7944 53.6922 32.2222 53.2502V70.545H54.8636V53.2502C55.2913 53.6922 55.719 54.1627 56.1468 54.6475C56.161 54.6618 56.1753 54.676 56.1753 54.6903" stroke="#111010" stroke-width="1.25427" stroke-miterlimit="10" stroke-linecap="round" stroke-linejoin="round"/>
<path d="M56.774 44.9382C55.8473 44.097 55.2342 43.598 55.1771 43.5552C54.45 42.9564 53.566 42.6998 52.6963 42.7425C52.6393 42.7425 52.5822 42.7283 52.5252 42.7283H47.0502C47.0502 44.6531 45.4961 46.2072 43.5713 46.2072C41.6465 46.2072 40.0924 44.6531 40.0924 42.7283H34.6174C34.5604 42.7283 34.5033 42.7283 34.4463 42.7425C33.5766 42.6998 32.6926 42.9564 31.9654 43.5552C31.8371 43.6693 28.7146 46.2214 25.6777 49.6576" stroke="#111010" stroke-width="1.25427" stroke-miterlimit="10" stroke-linecap="round" stroke-linejoin="round"/>
<path d="M58.5991 46.6633C58.485 46.5635 58.3852 46.4494 58.2854 46.3496" stroke="#111010" stroke-width="1.25427" stroke-miterlimit="10" stroke-linecap="round" stroke-linejoin="round"/>
<path d="M41.946 63.4591C41.2759 61.5628 39.1942 60.5648 37.2979 61.2207C37.2694 61.2349 34.8171 62.0761 32.0796 62.5039C30.6681 62.7177 29.2993 63.1882 27.8735 63.231C27.7024 63.231 27.5171 63.231 27.3602 63.1597C27.1179 63.0457 26.961 62.789 26.904 62.5324C26.5476 61.1494 27.2034 59.8376 27.902 58.6828C28.7575 57.257 29.8268 55.9453 30.9104 54.6906L25.635 49.6433C25.5923 49.6861 25.5638 49.7289 25.521 49.7716C20.8159 55.1183 18.9054 59.6238 19.6468 63.5447C20.0745 65.7832 21.3434 67.5511 23.2968 68.6775C25.0362 69.6755 27.2034 70.032 29.3849 70.032C33.8903 70.032 38.4956 68.5349 39.7075 68.1072C41.6038 67.4371 42.6161 65.3554 41.946 63.4591Z" fill="#F7DDC1"/>
<path d="M26.5476 50.513L25.635 49.6433C25.5923 49.6861 25.5638 49.7289 25.521 49.7716C20.8159 55.1183 18.9054 59.6238 19.6468 63.5447C20.0745 65.7832 21.3434 67.5511 23.2968 68.6775C24.5372 69.3904 25.9772 69.7753 27.5028 69.9322" stroke="#111010" stroke-width="1.25427" stroke-miterlimit="10" stroke-linecap="round" stroke-linejoin="round"/>
<path d="M27.3603 63.1596C27.1179 63.0456 26.9611 62.7889 26.904 62.5323C26.7044 61.7481 26.8185 61.0067 27.0894 60.2795" stroke="#111010" stroke-width="1.25427" stroke-miterlimit="10" stroke-linecap="round" stroke-linejoin="round"/>
<path d="M45.1396 63.4591C45.8097 61.5628 47.8914 60.5648 49.7877 61.2207C49.8162 61.2349 52.2685 62.0761 55.006 62.5039C56.4176 62.7177 57.7863 63.1882 59.2121 63.231C59.3832 63.231 59.5685 63.231 59.7254 63.1597C59.9677 63.0457 60.1246 62.789 60.1816 62.5324C60.5381 61.1494 59.8822 59.8376 59.1836 58.6828C58.3281 57.257 57.2588 55.9453 56.1752 54.6906L61.4506 49.6433C61.4933 49.6861 61.5219 49.7289 61.5646 49.7716C66.2697 55.1183 68.1802 59.6238 67.4388 63.5447C67.0111 65.7832 65.7422 67.5511 63.7888 68.6775C62.0494 69.6755 59.8822 70.032 57.7008 70.032C53.1953 70.032 48.59 68.5349 47.3781 68.1072C45.4818 67.4371 44.4838 65.3554 45.1396 63.4591Z" fill="#F7DDC1"/>
<path d="M60.923 50.1566L61.4648 49.6433C61.5076 49.6861 61.5361 49.7289 61.5789 49.7716C66.2839 55.1183 68.1945 59.6238 67.4531 63.5447C67.0253 65.7832 65.7564 67.5511 63.8031 68.6775C62.5626 69.3904 61.1083 69.7753 59.5828 69.9322" stroke="#111010" stroke-width="1.25427" stroke-miterlimit="10" stroke-linecap="round" stroke-linejoin="round"/>
<path d="M60.1959 62.5323C60.3955 61.7481 60.2814 61.0067 60.0105 60.2795" stroke="#111010" stroke-width="1.25427" stroke-miterlimit="10" stroke-linecap="round" stroke-linejoin="round"/>
<path d="M47.3781 68.107C45.4818 67.4368 44.4838 65.3552 45.1396 63.4589C45.8097 61.5626 47.8914 60.5646 49.7877 61.2204C49.8162 61.2347 52.2685 62.0759 55.006 62.5036" stroke="#111010" stroke-width="1.25427" stroke-miterlimit="10" stroke-linecap="round" stroke-linejoin="round"/>
<path opacity="0.1" d="M64.7727 56.387C66.1272 58.9534 66.5977 61.2489 66.1985 63.3163" stroke="#111010" stroke-width="2.50856" stroke-miterlimit="10" stroke-linecap="round" stroke-linejoin="round"/>
<path opacity="0.1" d="M64.4163 66.667C64.0456 67.0234 63.6321 67.3229 63.1616 67.5938" stroke="#111010" stroke-width="2.50856" stroke-miterlimit="10" stroke-linecap="round" stroke-linejoin="round"/>
<path d="M57.2447 68.6489H29.8412L28.2871 50.5129H58.7988L57.2447 68.6489Z" fill="#D4DBED"/>
<path d="M48.9465 50.5129H49.4313" stroke="#111010" stroke-width="1.25427" stroke-miterlimit="10" stroke-linecap="round" stroke-linejoin="round"/>
<path d="M51.784 50.5129H58.7988L57.2447 68.6489H29.8412L28.2871 50.5129H46.5941" stroke="#111010" stroke-width="1.25427" stroke-miterlimit="10" stroke-linecap="round" stroke-linejoin="round"/>
<path opacity="0.8" d="M33.6765 53.0222H35.3589" stroke="white" stroke-width="1.25427" stroke-miterlimit="10" stroke-linecap="round" stroke-linejoin="round"/>
<path opacity="0.8" d="M37.7542 53.0222H43.5143" stroke="white" stroke-width="1.25427" stroke-miterlimit="10" stroke-linecap="round" stroke-linejoin="round"/>
<path opacity="0.1" d="M50.5006 67.3943H49.6309" stroke="#111010" stroke-width="2.50856" stroke-miterlimit="10" stroke-linecap="round" stroke-linejoin="round"/>
<path opacity="0.1" d="M57.4442 51.7676L56.0897 67.3941H54.5071" stroke="#111010" stroke-width="2.50856" stroke-miterlimit="10" stroke-linecap="round" stroke-linejoin="round"/>
<path d="M57.2446 68.6487H29.8411V70.7161H57.2446V68.6487Z" fill="#AEB8D1" stroke="#111010" stroke-width="1.25427" stroke-miterlimit="10" stroke-linecap="round" stroke-linejoin="round"/>
<path d="M43.5428 61.1634C44.5901 61.1634 45.4391 60.3144 45.4391 59.2671C45.4391 58.2198 44.5901 57.3708 43.5428 57.3708C42.4955 57.3708 41.6465 58.2198 41.6465 59.2671C41.6465 60.3144 42.4955 61.1634 43.5428 61.1634Z" fill="#ECFBE6" stroke="#111010" stroke-width="1.25427" stroke-miterlimit="10" stroke-linecap="round" stroke-linejoin="round"/>
<path d="M54.7066 26.2888H52.739V31.607H54.7066C55.5621 31.607 56.2607 30.9083 56.2607 30.0529V27.8572C56.2607 26.9875 55.5621 26.2888 54.7066 26.2888Z" fill="#E3200C" stroke="#111010" stroke-width="1.25427" stroke-miterlimit="10" stroke-linecap="round" stroke-linejoin="round"/>
<path d="M32.3791 26.2888H34.3466V31.607H32.3791C31.5236 31.607 30.825 30.9083 30.825 30.0529V27.8572C30.825 26.9875 31.5236 26.2888 32.3791 26.2888Z" fill="#E3200C" stroke="#111010" stroke-width="1.25427" stroke-miterlimit="10" stroke-linecap="round" stroke-linejoin="round"/>
<path d="M47.4066 14.9682C46.2089 14.5119 44.8972 14.2695 43.5427 14.2695C37.4404 14.2695 32.4929 19.217 32.4929 25.3193V25.9895" stroke="#111010" stroke-width="1.25427" stroke-miterlimit="10" stroke-linecap="round" stroke-linejoin="round"/>
<path d="M50.0585 16.3939C49.8589 16.2514 49.6593 16.1088 49.4597 15.9805" stroke="#111010" stroke-width="1.25427" stroke-miterlimit="10" stroke-linecap="round" stroke-linejoin="round"/>
<path d="M54.5925 25.9895V25.3193C54.5925 22.4678 53.5089 19.8586 51.741 17.9053" stroke="#111010" stroke-width="1.25427" stroke-miterlimit="10" stroke-linecap="round" stroke-linejoin="round"/>
<path d="M46.6794 30.6233V31.7924" stroke="#111010" stroke-width="1.25427" stroke-miterlimit="10" stroke-linecap="round" stroke-linejoin="round"/>
<path d="M40.406 30.6233V31.7924" stroke="#111010" stroke-width="1.25427" stroke-miterlimit="10" stroke-linecap="round" stroke-linejoin="round"/>
</svg>
