<svg width="18" height="16" viewBox="0 0 18 16" fill="none" xmlns="http://www.w3.org/2000/svg">
<path d="M4.176 2.16652C4.17577 2.60855 3.9958 3.03239 3.67567 3.34479C3.35554 3.6572 2.92148 3.83258 2.46898 3.83236C2.01648 3.83214 1.5826 3.65633 1.26279 3.34361C0.942984 3.0309 0.763446 2.60688 0.763672 2.16486C0.763898 1.72283 0.943871 1.29899 1.264 0.98659C1.58413 0.674185 2.01818 0.498803 2.47069 0.499024C2.92319 0.499245 3.35707 0.675051 3.67688 0.987768C3.99668 1.30049 4.17622 1.7245 4.176 2.16652ZM4.22718 5.06652H0.814857V15.4999H4.22718V5.06652ZM9.61865 5.06652H6.22339V15.4999H9.58453V10.0249C9.58453 6.97486 13.6537 6.69152 13.6537 10.0249V15.4999H17.0234V8.89152C17.0234 3.74986 11.0006 3.94152 9.58453 6.46652L9.61865 5.06652Z" fill="white"/>
</svg>
