<svg width="18" height="18" viewBox="0 0 18 18" fill="none" xmlns="http://www.w3.org/2000/svg">
<path d="M9.32231 0.666504C11.6401 0.666504 11.9293 0.674837 12.8387 0.716504C13.7472 0.758171 14.3657 0.897337 14.91 1.104C15.473 1.31567 15.9473 1.60234 16.4216 2.06484C16.8554 2.48142 17.1911 2.98533 17.4052 3.5415C17.616 4.07234 17.7593 4.67734 17.8019 5.56484C17.842 6.45317 17.8531 6.73567 17.8531 8.99984C17.8531 11.264 17.8446 11.5465 17.8019 12.4348C17.7593 13.3223 17.616 13.9265 17.4052 14.4582C17.1917 15.0147 16.856 15.5187 16.4216 15.9348C15.9951 16.3584 15.4793 16.6863 14.91 16.8957C14.3666 17.1015 13.7472 17.2415 12.8387 17.2832C11.9293 17.3223 11.6401 17.3332 9.32231 17.3332C7.00449 17.3332 6.7153 17.3248 5.80591 17.2832C4.89738 17.2415 4.2789 17.1015 3.73463 16.8957C3.16505 16.6869 2.64911 16.359 2.22297 15.9348C1.7891 15.5183 1.45344 15.0144 1.23937 14.4582C1.02781 13.9273 0.885343 13.3223 0.842689 12.4348C0.802594 11.5465 0.791504 11.264 0.791504 8.99984C0.791504 6.73567 0.800035 6.45317 0.842689 5.56484C0.885343 4.6765 1.02781 4.07317 1.23937 3.5415C1.45284 2.98499 1.78859 2.48094 2.22297 2.06484C2.64923 1.64086 3.16514 1.31295 3.73463 1.104C4.2789 0.897337 4.89653 0.758171 5.80591 0.716504C6.7153 0.677337 7.00449 0.666504 9.32231 0.666504ZM9.32231 4.83317C8.19105 4.83317 7.10613 5.27216 6.30621 6.05356C5.5063 6.83496 5.05691 7.89477 5.05691 8.99984C5.05691 10.1049 5.5063 11.1647 6.30621 11.9461C7.10613 12.7275 8.19105 13.1665 9.32231 13.1665C10.4536 13.1665 11.5385 12.7275 12.3384 11.9461C13.1383 11.1647 13.5877 10.1049 13.5877 8.99984C13.5877 7.89477 13.1383 6.83496 12.3384 6.05356C11.5385 5.27216 10.4536 4.83317 9.32231 4.83317ZM14.8673 4.62484C14.8673 4.34857 14.755 4.08362 14.555 3.88827C14.355 3.69292 14.0838 3.58317 13.801 3.58317C13.5182 3.58317 13.2469 3.69292 13.047 3.88827C12.847 4.08362 12.7346 4.34857 12.7346 4.62484C12.7346 4.9011 12.847 5.16606 13.047 5.36141C13.2469 5.55676 13.5182 5.6665 13.801 5.6665C14.0838 5.6665 14.355 5.55676 14.555 5.36141C14.755 5.16606 14.8673 4.9011 14.8673 4.62484ZM9.32231 6.49984C10.0011 6.49984 10.652 6.76323 11.132 7.23207C11.6119 7.70091 11.8816 8.3368 11.8816 8.99984C11.8816 9.66288 11.6119 10.2988 11.132 10.7676C10.652 11.2364 10.0011 11.4998 9.32231 11.4998C8.64356 11.4998 7.9926 11.2364 7.51265 10.7676C7.0327 10.2988 6.76307 9.66288 6.76307 8.99984C6.76307 8.3368 7.0327 7.70091 7.51265 7.23207C7.9926 6.76323 8.64356 6.49984 9.32231 6.49984Z" fill="white"/>
</svg>
