<svg width="19" height="14" viewBox="0 0 19 14" fill="none" xmlns="http://www.w3.org/2000/svg">
<path d="M18.0338 1.71327C17.3826 1.99468 16.6919 2.1795 15.9847 2.26161C16.7301 1.82613 17.288 1.14078 17.5544 0.333272C16.8549 0.739939 16.088 1.02494 15.2886 1.17911C14.7517 0.617921 14.04 0.245741 13.2642 0.120426C12.4884 -0.00488923 11.692 0.123681 10.9987 0.48615C10.3054 0.848618 9.75418 1.42467 9.43063 2.12477C9.10708 2.82486 9.02937 3.60976 9.20958 4.35744C7.791 4.28798 6.40323 3.92787 5.13637 3.30049C3.86951 2.67311 2.75187 1.79248 1.85603 0.715772C1.53893 1.24781 1.37229 1.85263 1.37319 2.46827C1.37319 3.6766 2.00276 4.7441 2.95992 5.3691C2.39348 5.35169 1.83951 5.20226 1.34418 4.93327V4.9766C1.34435 5.78135 1.62942 6.56128 2.15106 7.18415C2.67271 7.80702 3.39881 8.2345 4.20627 8.3941C3.68044 8.5333 3.12909 8.55382 2.59394 8.4541C2.8216 9.1468 3.26532 9.7526 3.86298 10.1867C4.46063 10.6208 5.1823 10.8614 5.92693 10.8749C5.18686 11.4427 4.3395 11.8624 3.43327 12.1101C2.52705 12.3577 1.57974 12.4285 0.645508 12.3183C2.27634 13.3428 4.17478 13.8867 6.11375 13.8849C12.6765 13.8849 16.2654 8.5741 16.2654 3.96827C16.2654 3.81827 16.2611 3.6666 16.2543 3.51827C16.9529 3.02508 17.5558 2.41412 18.0347 1.71411L18.0338 1.71327Z" fill="white"/>
</svg>
