<svg width="19" height="16" viewBox="0 0 19 16" fill="none" xmlns="http://www.w3.org/2000/svg">
<path d="M1.04312 4.91768C0.803403 4.57352 0.828143 4.57352 1.32293 4.14935C2.37392 3.24768 3.3652 2.26102 4.51004 1.47268C5.54653 0.762684 6.92084 0.304351 7.86009 1.43352C8.72511 2.47435 8.74558 4.05185 8.96482 5.30852C9.18407 6.61185 9.39392 7.94518 9.86141 9.19185C9.99108 9.54268 10.2393 10.206 10.6872 10.2619C11.2656 10.3393 11.8542 9.34852 12.1229 8.97852C12.8199 7.99518 13.7651 6.67102 13.6457 5.40685C13.528 4.06352 12.0436 4.31602 11.1154 4.63685C11.2647 3.12935 12.7005 1.43435 14.0842 0.861851C15.5515 0.266851 17.7319 0.276851 18.469 1.89268C19.2564 3.64435 18.5483 5.67852 17.691 7.26602C16.7552 8.98935 15.5506 10.5844 14.2633 12.0744C13.1279 13.3977 11.7843 14.8494 10.0917 15.4819C8.15781 16.2019 7.01212 14.7985 6.35355 13.1735C5.6344 11.4044 5.27696 9.41852 4.75828 7.57602C4.5399 6.79768 4.28056 5.91185 3.76274 5.26935C3.0871 4.44018 2.31933 5.21935 1.65222 5.66685C1.42274 5.44435 1.23336 5.16102 1.04312 4.91768Z" fill="white"/>
</svg>
