<svg width="18" height="18" viewBox="0 0 18 18" fill="none" xmlns="http://www.w3.org/2000/svg">
<path d="M10.6191 0.745268C8.57793 0.47098 6.50408 0.927394 4.7805 2.03023C3.05692 3.13307 1.80002 4.80785 1.24189 6.74532C0.683769 8.68279 0.86211 10.7521 1.74399 12.5711C2.62586 14.3902 4.15171 15.8361 6.03979 16.6419C5.98873 16.0018 6.0356 15.3578 6.17884 14.7311C6.33666 14.0319 7.28443 10.1786 7.28443 10.1786C7.09571 9.76535 7.00139 9.3169 7.00804 8.86444C7.00804 7.62694 7.73913 6.7036 8.64851 6.7036C8.81188 6.70128 8.97385 6.73335 9.1234 6.79763C9.27295 6.86191 9.40658 6.95689 9.5152 7.07612C9.62382 7.19535 9.70488 7.33603 9.75287 7.48859C9.80087 7.64116 9.81467 7.80203 9.79334 7.96027C9.79334 8.71027 9.30026 9.84527 9.04263 10.9103C8.99172 11.1056 8.98849 11.3099 9.0332 11.5066C9.07792 11.7034 9.16932 11.8871 9.30006 12.0431C9.43079 12.199 9.5972 12.3227 9.78586 12.4043C9.97453 12.4859 10.1802 12.523 10.3862 12.5128C12.0054 12.5128 13.0905 10.4869 13.0905 8.09527C13.0905 6.26193 11.8476 4.8886 9.55619 4.8886C9.00798 4.86779 8.46116 4.95604 7.94893 5.14798C7.4367 5.33992 6.96974 5.63156 6.57642 6.00518C6.1831 6.37879 5.87161 6.8266 5.66087 7.32141C5.45013 7.81622 5.34454 8.34771 5.3505 8.8836C5.32608 9.47804 5.5224 10.0611 5.9033 10.5253C5.97447 10.5772 6.02644 10.6503 6.05137 10.7335C6.0763 10.8168 6.07283 10.9058 6.0415 10.9869C6.00225 11.1403 5.9033 11.5061 5.86406 11.6403C5.85589 11.6858 5.83691 11.7288 5.80862 11.7658C5.78034 11.8028 5.74356 11.8328 5.70123 11.8534C5.6589 11.874 5.61221 11.8846 5.56493 11.8843C5.51764 11.8841 5.47108 11.873 5.42898 11.8519C4.24832 11.3903 3.69211 10.1211 3.69211 8.67194C3.69211 6.29944 5.72586 3.45943 9.79505 3.45943C13.0333 3.45943 15.1865 5.7736 15.1865 8.2486C15.1865 11.5061 13.3294 13.9553 10.585 13.9553C10.1748 13.9681 9.76798 13.8796 9.40206 13.6982C9.03615 13.5167 8.72299 13.248 8.49154 12.9169C8.49154 12.9169 7.99846 14.8469 7.90121 15.2119C7.70269 15.8425 7.40976 16.4409 7.03192 16.9878C7.81932 17.2211 8.63742 17.3378 9.45979 17.3344C10.5804 17.3353 11.6901 17.1203 12.7255 16.7016C13.7609 16.2829 14.7016 15.6688 15.4937 14.8945C16.2858 14.1202 16.9137 13.2009 17.3416 12.1892C17.7695 11.1775 17.9889 10.0933 17.9872 8.9986C17.9861 6.9861 17.2397 5.04193 15.8857 3.52508C14.5318 2.00824 12.6617 1.02115 10.6208 0.746101L10.6191 0.745268Z" fill="white"/>
</svg>
