<svg width="18" height="14" viewBox="0 0 18 14" fill="none" xmlns="http://www.w3.org/2000/svg">
<path d="M17.3778 2.41516C17.7677 3.90016 17.7677 7.00016 17.7677 7.00016C17.7677 7.00016 17.7677 10.1002 17.3778 11.5852C17.1611 12.406 16.5273 13.0518 15.7245 13.2702C14.2666 13.6668 9.23686 13.6668 9.23686 13.6668C9.23686 13.6668 4.20966 13.6668 2.74918 13.2702C1.94302 13.0485 1.31004 12.4035 1.09591 11.5852C0.706055 10.1002 0.706055 7.00016 0.706055 7.00016C0.706055 7.00016 0.706055 3.90016 1.09591 2.41516C1.3126 1.59433 1.94643 0.948496 2.74918 0.730163C4.20966 0.333496 9.23686 0.333496 9.23686 0.333496C9.23686 0.333496 14.2666 0.333496 15.7245 0.730163C16.5307 0.951829 17.1637 1.59683 17.3778 2.41516ZM7.5307 9.91683L12.6492 7.00016L7.5307 4.0835V9.91683Z" fill="white"/>
</svg>
