<svg width="44" height="44" viewBox="0 0 44 44" fill="none" xmlns="http://www.w3.org/2000/svg">
<rect width="44" height="44" rx="6" fill="#E1F0FF"/>
<path opacity="0.3" fill-rule="evenodd" clip-rule="evenodd" d="M14.209 16.2917C14.209 18.5929 16.0745 20.4583 18.3757 20.4583C20.6768 20.4583 22.5423 18.5929 22.5423 16.2917C22.5423 13.9905 20.6768 12.125 18.3757 12.125C16.0745 12.125 14.209 13.9905 14.209 16.2917ZM24.6257 20.4583C24.6257 22.1842 26.0248 23.5833 27.7507 23.5833C29.4765 23.5833 30.8757 22.1842 30.8757 20.4583C30.8757 18.7324 29.4765 17.3333 27.7507 17.3333C26.0248 17.3333 24.6257 18.7324 24.6257 20.4583Z" fill="#3699FF"/>
<path fill-rule="evenodd" clip-rule="evenodd" d="M18.3576 22.5417C13.4395 22.5417 9.40444 25.0694 9.00068 30.0409C8.97869 30.3117 9.49658 30.8751 9.75781 30.8751H26.9653C27.7478 30.8751 27.76 30.2454 27.7478 30.0417C27.4426 24.9305 23.345 22.5417 18.3576 22.5417ZM33.4333 30.8751H29.4167C29.4167 28.5304 28.642 26.3666 27.3346 24.6257C30.883 24.6645 33.7804 26.4586 33.9984 30.2501C34.0072 30.4028 33.9984 30.8751 33.4333 30.8751Z" fill="#3699FF"/>
</svg>
