<svg width="44" height="44" viewBox="0 0 44 44" fill="none" xmlns="http://www.w3.org/2000/svg">
<rect width="44" height="44" rx="6" fill="#C9F7F5"/>
<path opacity="0.3" d="M11.4062 26.2643C17.1276 16.3577 24.1049 10.351 33.9049 8.68565C34.0977 8.65124 34.2961 8.66394 34.4829 8.72266C34.6698 8.78138 34.8398 8.88438 34.9783 9.02291C35.1168 9.16143 35.2198 9.33137 35.2785 9.51826C35.3373 9.70515 35.35 9.90346 35.3156 10.0963C33.6502 19.8963 27.6436 26.8737 17.7369 32.595L11.4062 26.2643ZM11.0929 29.1163L9.51156 33.2643C9.44627 33.4355 9.4319 33.6219 9.47017 33.801C9.50845 33.9802 9.59774 34.1444 9.72727 34.2739C9.85681 34.4035 10.0211 34.4928 10.2002 34.531C10.3793 34.5693 10.5657 34.5549 10.7369 34.4897L14.8876 32.907L11.0929 29.1163ZM28.0009 13.9976C27.6053 13.9976 27.2186 14.1149 26.8897 14.3347C26.5609 14.5545 26.3045 14.8668 26.1531 15.2323C26.0018 15.5977 25.9622 15.9999 26.0393 16.3878C26.1165 16.7758 26.307 17.1322 26.5867 17.4119C26.8664 17.6916 27.2227 17.8821 27.6107 17.9592C27.9987 18.0364 28.4008 17.9968 28.7663 17.8454C29.1317 17.694 29.4441 17.4377 29.6638 17.1088C29.8836 16.7799 30.0009 16.3932 30.0009 15.9976C30.0009 15.4672 29.7902 14.9585 29.4151 14.5834C29.04 14.2084 28.5313 13.9976 28.0009 13.9976Z" fill="#1BC5BD"/>
<path d="M11.405 26.2642L8.99566 23.8549C8.87275 23.732 8.77998 23.5823 8.72462 23.4176C8.66926 23.2528 8.65282 23.0775 8.67658 22.9053C8.70035 22.7331 8.76368 22.5688 8.8616 22.4252C8.95953 22.2816 9.08938 22.1626 9.24099 22.0776L18.2037 17.0522C15.5641 19.829 13.2803 22.9234 11.405 26.2642V26.2642ZM17.733 32.5922L20.1423 35.0016C20.2652 35.1245 20.4149 35.2173 20.5797 35.2726C20.7444 35.328 20.9198 35.3444 21.092 35.3206C21.2641 35.2969 21.4285 35.2336 21.5721 35.1356C21.7157 35.0377 21.8346 34.9079 21.9197 34.7562L26.945 25.7922C24.1686 28.4327 21.0741 30.7169 17.733 32.5922V32.5922ZM15.3863 30.2442L22.777 22.8536C22.9834 22.6345 23.0964 22.3437 23.092 22.0427C23.0875 21.7417 22.966 21.4543 22.7531 21.2414C22.5403 21.0286 22.2529 20.907 21.9519 20.9026C21.6509 20.8981 21.36 21.0111 21.141 21.2176L13.7503 28.6082L15.3863 30.2442Z" fill="#1BC5BD"/>
</svg>
