<svg width="44" height="44" viewBox="0 0 44 44" fill="none" xmlns="http://www.w3.org/2000/svg">
<rect width="44" height="44" rx="6" fill="#FFE2E5"/>
<path d="M28.566 11.201V16.6677L22.0327 20.401V12.801L26.6993 10.1344C27.4993 9.73437 28.566 10.2677 28.566 11.201ZM9.36602 24.001L14.0327 26.6677L20.566 22.9344L14.0327 19.201L9.36602 21.8677C8.43268 22.401 8.43268 23.601 9.36602 24.001ZM30.0327 32.2677V26.801L23.4994 23.0677V30.6677L28.166 33.3344C28.966 33.7344 30.0327 33.201 30.0327 32.2677Z" fill="#F64E60"/>
<path opacity="0.3" d="M17.3665 10.1344L22.0332 12.801V20.401L15.4999 16.6677V11.201C15.4999 10.2677 16.5665 9.73437 17.3665 10.1344ZM15.8999 33.3344L20.5665 30.6677V23.0677L14.0332 26.801V32.2677C14.0332 33.201 15.0999 33.7344 15.8999 33.3344ZM34.6999 21.8677L30.0332 19.201L23.4999 22.9344L30.0332 26.6677L34.6999 24.001C35.6332 23.601 35.6332 22.401 34.6999 21.8677Z" fill="#F64E60"/>
</svg>
