<svg width="44" height="44" viewBox="0 0 44 44" fill="none" xmlns="http://www.w3.org/2000/svg">
<rect width="44" height="44" rx="6" fill="#FFF4DE"/>
<path fill-rule="evenodd" clip-rule="evenodd" d="M14.334 12.25C13.7817 12.25 13.334 12.6977 13.334 13.25V30.75C13.334 31.3023 13.7817 31.75 14.334 31.75H15.584C16.1363 31.75 16.584 31.3023 16.584 30.75V13.25C16.584 12.6977 16.1363 12.25 15.584 12.25H14.334ZM19.7507 12.25C19.1984 12.25 18.7507 12.6977 18.7507 13.25V30.75C18.7507 31.3023 19.1984 31.75 19.7507 31.75H21.0007C21.5529 31.75 22.0007 31.3023 22.0007 30.75V13.25C22.0007 12.6977 21.5529 12.25 21.0007 12.25H19.7507Z" fill="#FFA800"/>
<rect opacity="0.3" x="23.5996" y="13.2512" width="3.25" height="19.5" rx="1" transform="rotate(-19 23.5996 13.2512)" fill="#FFA800"/>
</svg>
