<svg width="32" height="32" viewBox="0 0 32 32" fill="none" xmlns="http://www.w3.org/2000/svg">
<path opacity="0.25" d="M5.33268 13.333H10.666V22.6663H13.3327V13.333H18.666V22.6663H21.3327V13.333H26.666V22.6663C28.1388 22.6663 29.3327 23.8602 29.3327 25.333V26.6663C29.3327 28.1391 28.1388 29.333 26.666 29.333H5.33268C3.85992 29.333 2.66602 28.1391 2.66602 26.6663V25.333C2.66602 23.8602 3.85992 22.6663 5.33268 22.6663V13.333Z" fill="#00A3FF"/>
<path d="M2.66602 9.8054C2.66602 8.71499 3.32988 7.73443 4.34231 7.32947L15.009 3.0628C15.6447 2.80849 16.354 2.80849 16.9897 3.0628L27.6564 7.32947C28.6688 7.73443 29.3327 8.71499 29.3327 9.8054V10.6666C29.3327 12.1394 28.1388 13.3333 26.666 13.3333H5.33268C3.85992 13.3333 2.66602 12.1394 2.66602 10.6666V9.8054Z" fill="#00A3FF"/>
</svg>
