<svg width="15" height="21" viewBox="0 0 15 21" fill="none" xmlns="http://www.w3.org/2000/svg">
<path opacity="0.3" d="M7.51562 20.9395C9.24151 20.9395 10.6406 19.5403 10.6406 17.8145C10.6406 16.0886 9.24151 14.6895 7.51562 14.6895C5.78974 14.6895 4.39062 16.0886 4.39062 17.8145C4.39062 19.5403 5.78974 20.9395 7.51562 20.9395Z" fill="white"/>
<path d="M14.806 13.6471V16.7721C14.806 17.3971 14.3893 17.8138 13.7643 17.8138H1.26432C0.639323 17.8138 0.222656 17.3971 0.222656 16.7721V13.6471C1.36849 13.6471 2.30599 12.7096 2.30599 11.5638V8.4388C2.30599 5.9388 4.07682 3.85547 6.47266 3.33463V1.14714C6.47266 0.522135 6.88932 0.105469 7.51432 0.105469C8.13932 0.105469 8.55599 0.522135 8.55599 1.14714V3.33463C10.9518 3.85547 12.7227 5.9388 12.7227 8.4388V11.5638C12.7227 12.7096 13.6602 13.6471 14.806 13.6471ZM6.47266 8.4388C6.47266 7.8138 6.88932 7.39714 7.51432 7.39714C8.13932 7.39714 8.55599 6.98047 8.55599 6.35547C8.55599 5.73047 8.13932 5.3138 7.51432 5.3138C5.74349 5.3138 4.38932 6.66797 4.38932 8.4388C4.38932 9.0638 4.80599 9.48047 5.43099 9.48047C6.05599 9.48047 6.47266 9.0638 6.47266 8.4388Z" fill="white"/>
</svg>
