<svg width="24" height="24" viewBox="0 0 24 24" fill="none" xmlns="http://www.w3.org/2000/svg">
<path fill-rule="evenodd" clip-rule="evenodd" d="M4.00586 9.67171L10.8861 13.644C10.9602 13.6868 11.0379 13.7177 11.117 13.7373V21.4414L4.49656 17.5235C4.19241 17.3435 4.00586 17.0163 4.00586 16.6629V9.67171ZM20.0076 9.56641V16.6632C20.0076 17.0166 19.821 17.3438 19.5169 17.5237L12.8965 21.4417V13.6701C12.9126 13.6621 12.9286 13.6535 12.9444 13.6443L20.0076 9.56641Z" fill="#DADAE1"/>
<path opacity="0.3" fill-rule="evenodd" clip-rule="evenodd" d="M4.2168 7.74804C4.30084 7.64191 4.40691 7.55222 4.53058 7.48635L11.5306 3.75801C11.8244 3.6015 12.1769 3.6015 12.4708 3.75801L19.4708 7.48635C19.5661 7.53713 19.651 7.60206 19.7234 7.67776L12.0486 12.1088C11.9982 12.1379 11.9516 12.1712 11.9092 12.2081C11.8668 12.1712 11.8203 12.1379 11.7698 12.1088L4.2168 7.74804Z" fill="#DADAE1"/>
</svg>
