<svg width="21" height="21" viewBox="0 0 21 21" fill="none" xmlns="http://www.w3.org/2000/svg">
<path opacity="0.25" d="M1.75 4.375C1.75 2.92525 2.92525 1.75 4.375 1.75H16.625C18.0747 1.75 19.25 2.92525 19.25 4.375V12.9127C19.25 13.6089 18.9734 14.2766 18.4812 14.7688L14.7688 18.4812C14.2766 18.9734 13.6089 19.25 12.9127 19.25H4.375C2.92525 19.25 1.75 18.0747 1.75 16.625V4.375Z" fill="#BEBECB"/>
<path d="M19.1606 13.5919C19.2268 13.345 19.0226 13.125 18.767 13.125H14C13.5168 13.125 13.125 13.5168 13.125 14V18.767C13.125 19.0226 13.345 19.2268 13.5919 19.1606C14.0332 19.0424 14.4401 18.8099 14.7688 18.4812L18.4812 14.7688C18.8099 14.4401 19.0424 14.0332 19.1606 13.5919Z" fill="#BEBECB"/>
</svg>
