<svg width="37" height="34" viewBox="0 0 37 34" fill="none" xmlns="http://www.w3.org/2000/svg">
<path d="M16.1061 0.218596L18.3395 0.0851516L20.5728 0.218596L22.7709 0.616814L24.899 1.2735L26.9236 2.17827L28.8126 3.3168L30.5364 4.67108L32.0677 6.21972L33.3824 7.93825L34.4598 9.79954L35.2831 11.7743L35.8392 13.8313L36.1195 15.9382V18.0618L35.8392 20.1687L35.2831 22.2257L34.4598 24.2005L33.3824 26.0617L32.0677 27.7803L30.5364 29.3289L28.8126 30.6832L26.9236 31.8217L24.899 32.7265L22.7709 33.3832L20.5728 33.7814L18.3395 33.9148L16.1061 33.7814L13.908 33.3832L11.7799 32.7265L9.75535 31.8217L7.8663 30.6832L6.14255 29.3289L4.61127 27.7803L3.29655 26.0617L2.2191 24.2004L1.39585 22.2257L0.83973 20.1687L0.55947 18.0618V15.9382L0.83973 13.8313L1.39585 11.7743L2.2191 9.79956L3.29656 7.93825L4.61127 6.21972L6.14255 4.67108L7.8663 3.3168L9.75535 2.17827L11.7799 1.2735L13.908 0.616814L16.1061 0.218596Z" fill="#F5F8FA" stroke="#E4E6EF" stroke-width="0.17"/>
<path d="M23.5079 13.0494L20.3099 15.3337V18.667L23.5079 20.9512C24.611 21.7392 26.1433 20.9506 26.1433 19.595V14.4056C26.1433 13.05 24.611 12.2615 23.5079 13.0494Z" fill="#009EF6"/>
<rect x="9.47662" y="11.167" width="12.5" height="11.6667" rx="2.5" fill="#B8E2F9"/>
</svg>
