<svg width="32" height="32" viewBox="0 0 32 32" fill="none" xmlns="http://www.w3.org/2000/svg">
<rect width="32" height="32" rx="6" fill="#F3F6F9"/>
<path opacity="0.25" d="M9.25 10C9.25 8.75736 10.2574 7.75 11.5 7.75H18.818C19.4148 7.75 19.9871 7.98705 20.409 8.40901L22.091 10.091C22.5129 10.5129 22.75 11.0852 22.75 11.682V22C22.75 23.2426 21.7426 24.25 20.5 24.25H11.5C10.2574 24.25 9.25 23.2426 9.25 22V10Z" fill="#3699FF"/>
<path d="M18.25 8.41885C18.25 8.04946 18.5495 7.75 18.9189 7.75C19.451 7.75 19.9614 7.96141 20.3377 8.33771L22.1623 10.1623C22.5386 10.5386 22.75 11.049 22.75 11.5811C22.75 11.9505 22.4505 12.25 22.0811 12.25H19C18.5858 12.25 18.25 11.9142 18.25 11.5V8.41885Z" fill="#3699FF"/>
<path d="M16.2871 20.4431C16.3755 20.4065 16.4584 20.3522 16.5303 20.2803L18.7803 18.0303C19.0732 17.7374 19.0732 17.2626 18.7803 16.9697C18.4874 16.6768 18.0126 16.6768 17.7197 16.9697L16.75 17.9393V14.5C16.75 14.0858 16.4142 13.75 16 13.75C15.5858 13.75 15.25 14.0858 15.25 14.5V17.9393L14.2803 16.9697C13.9874 16.6768 13.5126 16.6768 13.2197 16.9697C12.9268 17.2626 12.9268 17.7374 13.2197 18.0303L15.4697 20.2803C15.6907 20.5013 16.0152 20.5556 16.2871 20.4431Z" fill="#3699FF"/>
</svg>
