<svg width="14" height="13" viewBox="0 0 14 13" fill="none" xmlns="http://www.w3.org/2000/svg">
<path fill-rule="evenodd" clip-rule="evenodd" d="M7.37104 10.7501L4.47794 12.2711C4.13168 12.4531 3.7034 12.32 3.52136 11.9737C3.44887 11.8358 3.42385 11.6779 3.45019 11.5244L4.00272 8.30283L1.66215 6.02134C1.38202 5.74828 1.37628 5.29982 1.64935 5.01969C1.75808 4.90814 1.90056 4.83554 2.05472 4.81314L5.28931 4.34313L6.73586 1.4121C6.90899 1.06129 7.33372 0.917261 7.68453 1.09039C7.82422 1.15934 7.93729 1.2724 8.00623 1.4121L9.45278 4.34313L12.6874 4.81314C13.0745 4.8694 13.3427 5.22884 13.2865 5.61597C13.2641 5.77013 13.1915 5.91261 13.0799 6.02134L10.7394 8.30283L11.2919 11.5244C11.358 11.9099 11.0991 12.2761 10.7135 12.3422C10.56 12.3686 10.402 12.3436 10.2641 12.2711L7.37104 10.7501Z" fill="white" stroke="#FFA800"/>
</svg>
