<svg width="28" height="28" viewBox="0 0 28 28" fill="none" xmlns="http://www.w3.org/2000/svg">
<path opacity="0.3" fill-rule="evenodd" clip-rule="evenodd" d="M16.1177 2.3335H6.83366C4.69085 2.3335 4.66699 2.48064 4.66699 4.56961V23.4307C4.66699 25.5197 4.69085 25.6668 6.83366 25.6668H21.167C23.3098 25.6668 23.3337 25.5197 23.3337 23.4307V8.66825C23.3337 8.22693 23.1393 7.808 22.8024 7.52299L17.0864 2.68824C16.8156 2.45918 16.4724 2.3335 16.1177 2.3335ZM11.9052 18.0398C12.1288 18.2634 12.4083 18.3752 12.6878 18.3752C12.9673 18.3752 13.2469 18.2634 13.4705 18.0398L17.9427 13.5675C18.3899 13.1203 18.3899 12.4495 17.9427 12.0023C17.4955 11.555 16.8246 11.555 16.3774 12.0023L12.6878 15.6918L11.2344 14.2384C10.843 13.7911 10.1163 13.7911 9.66908 14.2384C9.22185 14.6856 9.22185 15.3564 9.66908 15.8036L11.9052 18.0398Z" fill="#0BB783"/>
<path fill-rule="evenodd" clip-rule="evenodd" d="M12.6872 18.3748C12.4077 18.3748 12.1281 18.263 11.9045 18.0394L9.66842 15.8033C9.2212 15.3561 9.2212 14.6853 9.66842 14.238C10.1156 13.7908 10.8424 13.7908 11.2337 14.238L12.6872 15.6915L16.3768 12.0019C16.824 11.5547 17.4948 11.5547 17.942 12.0019C18.3893 12.4491 18.3893 13.12 17.942 13.5672L13.4698 18.0394C13.2462 18.263 12.9667 18.3748 12.6872 18.3748Z" fill="#0BB783"/>
</svg>
