<svg width="32" height="32" viewBox="0 0 32 32" fill="none" xmlns="http://www.w3.org/2000/svg">
<rect width="32" height="32" rx="6" fill="#F5F8FA"/>
<path d="M13.3137 12.3087C11.5319 13.2284 10.404 14.761 9.84347 15.6956C9.54436 16.1943 9.54436 16.8024 9.84347 17.3012C10.6852 18.7047 12.8066 21.4567 16.5005 21.4567C18.3512 21.4567 19.8071 20.766 20.9052 19.9001L13.3137 12.3087Z" fill="#DADADA"/>
<path d="M21.9421 18.9336C22.4855 18.3409 22.8875 17.7516 23.1576 17.3012C23.4567 16.8024 23.4567 16.1943 23.1576 15.6956C22.3159 14.2921 20.1945 11.54 16.5005 11.54C15.8774 11.54 15.2989 11.6184 14.7639 11.7553L21.9421 18.9336Z" fill="#DADADA"/>
<path d="M15.5846 14.5811C14.8692 14.9231 14.375 15.6535 14.375 16.4993C14.375 17.6729 15.3264 18.6243 16.5 18.6243C17.3458 18.6243 18.0763 18.1301 18.4183 17.4147L15.5846 14.5811Z" fill="#979797"/>
<path fill-rule="evenodd" clip-rule="evenodd" d="M9.62543 9.62251C9.90206 9.34588 10.3505 9.34588 10.6272 9.62251L23.3772 22.3725C23.6538 22.6491 23.6538 23.0976 23.3772 23.3742C23.1005 23.6509 22.6521 23.6509 22.3754 23.3742L9.62543 10.6242C9.34881 10.3476 9.34881 9.89913 9.62543 9.62251Z" fill="#979797"/>
</svg>
