<svg width="22" height="21" viewBox="0 0 22 21" fill="none" xmlns="http://www.w3.org/2000/svg">
<path fill-rule="evenodd" clip-rule="evenodd" d="M8.19141 4.5C8.19141 3.94772 8.63912 3.5 9.19141 3.5H19.0224C19.5747 3.5 20.0224 3.94772 20.0224 4.5V6C20.0224 6.55228 19.5747 7 19.0224 7H9.19141C8.63912 7 8.19141 6.55228 8.19141 6V4.5ZM8.19141 9.75C8.19141 9.19771 8.63912 8.75 9.19141 8.75H19.0224C19.5747 8.75 20.0224 9.19771 20.0224 9.75V11.25C20.0224 11.8023 19.5747 12.25 19.0224 12.25H9.19141C8.63912 12.25 8.19141 11.8023 8.19141 11.25V9.75ZM9.19141 14C8.63912 14 8.19141 14.4477 8.19141 15V16.5C8.19141 17.0523 8.63912 17.5 9.19141 17.5H19.0224C19.5747 17.5 20.0224 17.0523 20.0224 16.5V15C20.0224 14.4477 19.5747 14 19.0224 14H9.19141Z" fill="#B5B5C3"/>
<rect opacity="0.3" x="1.82031" y="3.5" width="4.55039" height="14" rx="1" fill="#B5B5C3"/>
</svg>
