<svg width="28" height="28" viewBox="0 0 28 28" fill="none" xmlns="http://www.w3.org/2000/svg">
<path d="M15.132 21.4682L9.65228 26.9316C9.48827 27.03 9.27499 27.2762 8.83197 27.1449C8.60234 27.0628 8.32338 26.8003 8.27421 26.505V26.4886L6.69916 17.0714L7.9789 16.1035C8.1446 16.2007 11.3068 18.055 11.1124 17.941L15.132 20.3035C15.4437 20.6316 15.4437 21.1402 15.132 21.4682Z" fill="#009AE4"/>
<path d="M27.984 1.80317L23.007 26.5215C22.9578 26.784 22.7609 27.0137 22.4984 27.1121C22.4 27.1613 22.3016 27.1777 22.2031 27.1777C22.0391 27.1777 21.875 27.1285 21.7273 27.0301C21.5623 26.9122 9.47401 18.2777 10.243 18.827C2.92359 15.2012 6.74149 17.1069 0.459375 13.9707C0.164062 13.823 0 13.5277 0 13.216C0.0164063 12.8879 0.196875 12.609 0.492188 12.4777L26.852 0.884417C27.1309 0.769573 27.459 0.802385 27.6887 0.99926C27.7215 1.03207 27.7708 1.08129 27.8036 1.1141C27.9676 1.31098 28.0333 1.55707 27.984 1.80317Z" fill="#25D9F8"/>
<path d="M27.8036 1.11426L11.1125 17.9412L10.243 18.827L8.83203 27.145C8.6024 27.063 8.32344 26.8004 8.27427 26.5052V26.4888L6.69922 17.0716L7.97896 16.1037L27.8036 1.11426Z" fill="#00C0F1"/>
</svg>
