<svg width="29" height="29" viewBox="0 0 29 29" fill="none" xmlns="http://www.w3.org/2000/svg">
<g clip-path="url(#clip0_1118_2283)">
<path d="M21.508 14.984H16.4381C16.2031 14.984 16.0126 14.7934 16.0126 14.5584V13.7553C16.0126 13.6307 16.0671 13.5124 16.1619 13.4315C16.6539 13.0119 16.936 12.4009 16.936 11.7552C16.936 10.5408 15.948 9.55275 14.7336 9.55275C13.5192 9.55275 12.5312 10.5408 12.5312 11.7552C12.5312 12.3692 12.7778 12.9392 13.2256 13.3601C13.3112 13.4406 13.3596 13.5528 13.3596 13.6703V14.5585C13.3596 14.7935 13.1691 14.984 12.9341 14.984H7.49199C7.25695 14.984 7.06641 14.7935 7.06641 14.5585V0.425589C7.06641 0.190543 7.25695 0 7.49199 0H21.508C21.7431 0 21.9336 0.190486 21.9336 0.425589V4.20481H22.1912C22.7547 3.67615 23.5064 3.37631 24.282 3.37631C25.9658 3.37631 27.3356 4.74616 27.3356 6.42992C27.3356 8.11368 25.9658 9.48353 24.282 9.48353C23.4544 9.48353 22.6679 9.14927 22.0943 8.56002H21.9335V14.5585C21.9335 14.7935 21.7431 14.984 21.508 14.984Z" fill="#FF7C48"/>
<path d="M24.282 3.37631C23.5064 3.37631 22.7546 3.67615 22.1911 4.20481H21.9336V0.425589C21.9336 0.190543 21.743 0 21.508 0H14.7336V9.55275C15.948 9.55275 16.936 10.5408 16.936 11.7552C16.936 12.4009 16.6538 13.0119 16.1619 13.4315C16.0671 13.5124 16.0125 13.6307 16.0125 13.7553V14.5584C16.0125 14.7934 16.203 14.984 16.4381 14.984H21.508C21.743 14.984 21.9336 14.7934 21.9336 14.5584V8.55996H22.0943C22.6679 9.14922 23.4544 9.48347 24.2821 9.48347C25.9658 9.48347 27.3357 8.11362 27.3357 6.42986C27.3357 4.7461 25.9658 3.37631 24.282 3.37631Z" fill="#FF415B"/>
<path d="M21.508 28.9997H7.49196C7.25691 28.9997 7.06637 28.8092 7.06637 28.5741V23.6961H6.9057C6.33203 24.2854 5.5456 24.6196 4.71795 24.6196C3.03419 24.6196 1.66434 23.2498 1.66434 21.5661C1.66434 19.8823 3.03419 18.5124 4.71795 18.5124C5.49367 18.5124 6.24535 18.8122 6.80882 19.3409H7.06637V14.558C7.06637 14.3229 7.25691 14.1324 7.49196 14.1324H12.5084V13.8457C11.9798 13.2822 11.68 12.5305 11.68 11.7548C11.68 10.071 13.0498 8.70117 14.7335 8.70117C16.4173 8.70117 17.7872 10.071 17.7872 11.7548C17.7872 12.5824 17.4529 13.3689 16.8637 13.9425V14.1325H21.508C21.743 14.1325 21.9336 14.3229 21.9336 14.558V19.7665C21.9336 20.0016 21.743 20.1921 21.508 20.1921H20.649C20.5316 20.1921 20.4193 20.1436 20.3389 20.058C19.918 19.6103 19.348 19.3637 18.734 19.3637C17.5196 19.3637 16.5315 20.3518 16.5315 21.5662C16.5315 22.7806 17.5196 23.7685 18.734 23.7685C19.3796 23.7685 19.9907 23.4864 20.4103 22.9945C20.4911 22.8997 20.6095 22.8451 20.7341 22.8451H21.5079C21.743 22.8451 21.9335 23.0356 21.9335 23.2707V28.5742C21.9335 28.8092 21.743 28.9997 21.508 28.9997Z" fill="#8EE16A"/>
<path d="M18.734 19.3637C19.348 19.3637 19.918 19.6103 20.3389 20.058C20.4193 20.1436 20.5315 20.1921 20.649 20.1921H21.508C21.743 20.1921 21.9335 20.0016 21.9335 19.7665V14.558C21.9335 14.323 21.743 14.1325 21.508 14.1325H16.8636V13.9425C17.4528 13.3689 17.7871 12.5824 17.7871 11.7548C17.7871 10.071 16.4172 8.70117 14.7335 8.70117V28.9996H21.5079C21.743 28.9996 21.9335 28.8091 21.9335 28.574V23.2705C21.9335 23.0355 21.743 22.8449 21.5079 22.8449H20.7341C20.6095 22.8449 20.4911 22.8995 20.4103 22.9943C19.9906 23.4862 19.3796 23.7684 18.734 23.7684C17.5195 23.7684 16.5315 22.7804 16.5315 21.566C16.5315 20.3518 17.5195 19.3637 18.734 19.3637Z" fill="#00CAB1"/>
</g>
<defs>
<clipPath id="clip0_1118_2283">
<rect width="29" height="29" fill="white"/>
</clipPath>
</defs>
</svg>
