
<svg width="73" height="13" viewBox="0 0 73 13" fill="none" xmlns="http://www.w3.org/2000/svg">
<path fill-rule="evenodd" clip-rule="evenodd" d="M6.50093 10.6504L3.60783 12.1714C3.26156 12.3535 2.83328 12.2203 2.65124 11.8741C2.57875 11.7362 2.55374 11.5783 2.58007 11.4247L3.1326 8.20321L0.792034 5.92172C0.5119 5.64866 0.506168 5.2002 0.779231 4.92007C0.887966 4.80851 1.03044 4.73592 1.1846 4.71352L4.41919 4.24351L5.86574 1.31247C6.03887 0.961668 6.46361 0.817636 6.81441 0.990768C6.9541 1.05971 7.06717 1.17278 7.13612 1.31247L8.58267 4.24351L11.8173 4.71352C12.2044 4.76977 12.4726 5.12921 12.4164 5.51635C12.394 5.67051 12.3214 5.81298 12.2098 5.92172L9.86925 8.20321L10.4218 11.4247C10.4879 11.8103 10.229 12.1765 9.84339 12.2426C9.68985 12.2689 9.53191 12.2439 9.39403 12.1714L6.50093 10.6504Z" fill="#FFA800"/>
<path fill-rule="evenodd" clip-rule="evenodd" d="M21.5009 10.6504L18.6078 12.1714C18.2616 12.3535 17.8333 12.2203 17.6512 11.8741C17.5788 11.7362 17.5537 11.5783 17.5801 11.4247L18.1326 8.20321L15.792 5.92172C15.5119 5.64866 15.5062 5.2002 15.7792 4.92007C15.888 4.80851 16.0304 4.73592 16.1846 4.71352L19.4192 4.24351L20.8657 1.31247C21.0389 0.961668 21.4636 0.817636 21.8144 0.990768C21.9541 1.05971 22.0672 1.17278 22.1361 1.31247L23.5827 4.24351L26.8173 4.71352C27.2044 4.76977 27.4726 5.12921 27.4164 5.51635C27.394 5.67051 27.3214 5.81298 27.2098 5.92172L24.8693 8.20321L25.4218 11.4247C25.4879 11.8103 25.229 12.1765 24.8434 12.2426C24.6898 12.2689 24.5319 12.2439 24.394 12.1714L21.5009 10.6504Z" fill="#FFA800"/>
<path fill-rule="evenodd" clip-rule="evenodd" d="M51.5009 10.6504L48.6078 12.1714C48.2616 12.3535 47.8333 12.2203 47.6512 11.8741C47.5788 11.7362 47.5537 11.5783 47.5801 11.4247L48.1326 8.20321L45.792 5.92172C45.5119 5.64866 45.5062 5.2002 45.7792 4.92007C45.888 4.80851 46.0304 4.73592 46.1846 4.71352L49.4192 4.24351L50.8657 1.31247C51.0389 0.961668 51.4636 0.817636 51.8144 0.990768C51.9541 1.05971 52.0672 1.17278 52.1361 1.31247L53.5827 4.24351L56.8173 4.71352C57.2044 4.76977 57.4726 5.12921 57.4164 5.51635C57.394 5.67051 57.3214 5.81298 57.2098 5.92172L54.8693 8.20321L55.4218 11.4247C55.4879 11.8103 55.229 12.1765 54.8434 12.2426C54.6898 12.2689 54.5319 12.2439 54.394 12.1714L51.5009 10.6504Z" fill="#FFA800"/>
<path fill-rule="evenodd" clip-rule="evenodd" d="M36.5009 10.6504L33.6078 12.1714C33.2616 12.3535 32.8333 12.2203 32.6512 11.8741C32.5788 11.7362 32.5537 11.5783 32.5801 11.4247L33.1326 8.20321L30.792 5.92172C30.5119 5.64866 30.5062 5.2002 30.7792 4.92007C30.888 4.80851 31.0304 4.73592 31.1846 4.71352L34.4192 4.24351L35.8657 1.31247C36.0389 0.961668 36.4636 0.817636 36.8144 0.990768C36.9541 1.05971 37.0672 1.17278 37.1361 1.31247L38.5827 4.24351L41.8173 4.71352C42.2044 4.76977 42.4726 5.12921 42.4164 5.51635C42.394 5.67051 42.3214 5.81298 42.2098 5.92172L39.8693 8.20321L40.4218 11.4247C40.4879 11.8103 40.229 12.1765 39.8434 12.2426C39.6898 12.2689 39.5319 12.2439 39.394 12.1714L36.5009 10.6504Z" fill="#FFA800"/>
<path fill-rule="evenodd" clip-rule="evenodd" d="M66.5009 10.6504L63.6078 12.1714C63.2616 12.3535 62.8333 12.2203 62.6512 11.8741C62.5788 11.7362 62.5537 11.5783 62.5801 11.4247L63.1326 8.20321L60.792 5.92172C60.5119 5.64866 60.5062 5.2002 60.7792 4.92007C60.888 4.80851 61.0304 4.73592 61.1846 4.71352L64.4192 4.24351L65.8657 1.31247C66.0389 0.961668 66.4636 0.817636 66.8144 0.990768C66.9541 1.05971 67.0672 1.17278 67.1361 1.31247L68.5827 4.24351L71.8173 4.71352C72.2044 4.76977 72.4726 5.12921 72.4164 5.51635C72.394 5.67051 72.3214 5.81298 72.2098 5.92172L69.8693 8.20321L70.4218 11.4247C70.4879 11.8103 70.229 12.1765 69.8434 12.2426C69.6898 12.2689 69.5319 12.2439 69.394 12.1714L66.5009 10.6504Z" fill="#FFA800"/>
</svg>
