<svg width="22" height="22" viewBox="0 0 22 22" fill="none" xmlns="http://www.w3.org/2000/svg">
<path fill-rule="evenodd" clip-rule="evenodd" d="M11 16.5002L7.25599 18.4685C6.80789 18.7041 6.25364 18.5318 6.01806 18.0837C5.92425 17.9053 5.89188 17.7009 5.92596 17.5022L6.641 13.3332L3.61203 10.3806C3.2495 10.0273 3.24208 9.4469 3.59546 9.08438C3.73618 8.94002 3.92056 8.84607 4.12006 8.81708L8.30599 8.20883L10.178 4.41573C10.4021 3.96174 10.9517 3.77535 11.4057 3.9994C11.5865 4.08862 11.7328 4.23495 11.822 4.41573L13.694 8.20883L17.88 8.81708C18.381 8.88988 18.7281 9.35504 18.6553 9.85604C18.6263 10.0555 18.5323 10.2399 18.388 10.3806L15.359 13.3332L16.0741 17.5022C16.1596 18.0012 15.8245 18.475 15.3255 18.5606C15.1268 18.5947 14.9225 18.5623 14.744 18.4685L11 16.5002Z" stroke="#7E8299" stroke-width="2"/>
</svg>
