<svg width="13" height="13" viewBox="0 0 13 13" fill="none" xmlns="http://www.w3.org/2000/svg">
<path fill-rule="evenodd" clip-rule="evenodd" d="M6.50093 10.6504L3.60783 12.1714C3.26156 12.3535 2.83328 12.2203 2.65124 11.8741C2.57875 11.7362 2.55374 11.5783 2.58007 11.4247L3.1326 8.20321L0.792034 5.92172C0.5119 5.64866 0.506168 5.2002 0.779231 4.92007C0.887966 4.80851 1.03044 4.73592 1.1846 4.71352L4.41919 4.24351L5.86574 1.31247C6.03887 0.961668 6.46361 0.817636 6.81441 0.990768C6.9541 1.05971 7.06717 1.17278 7.13612 1.31247L8.58267 4.24351L11.8173 4.71352C12.2044 4.76977 12.4726 5.12921 12.4164 5.51635C12.394 5.67051 12.3214 5.81298 12.2098 5.92172L9.86925 8.20321L10.4218 11.4247C10.4879 11.8103 10.229 12.1765 9.84339 12.2426C9.68985 12.2689 9.53191 12.2439 9.39403 12.1714L6.50093 10.6504Z" fill="#FFA800"/>
</svg>
