<svg width="20" height="20" viewBox="0 0 20 20" fill="none" xmlns="http://www.w3.org/2000/svg">
<path d="M14.2633 7.14747C14.2633 3.21279 11.0706 0.0224609 7.13265 0.0224609C3.19483 0.0224609 0.00195312 3.21279 0.00195312 7.14747C0.00195312 11.0821 3.19483 14.2723 7.13265 14.2723C11.0706 14.2723 14.2633 11.0821 14.2633 7.14747ZM7.13265 12.491C4.18358 12.491 1.78468 10.0942 1.78468 7.1475C1.78468 4.20078 4.18358 1.8038 7.13265 1.8038C10.0817 1.8038 12.4807 4.20078 12.4807 7.1475C12.4807 10.0942 10.0817 12.491 7.13265 12.491Z" fill="white"/>
<path d="M18.4928 15.9823L14.1305 11.623C13.4805 12.6331 12.6203 13.4922 11.6094 14.1417L15.9721 18.5009C16.6686 19.1967 17.7978 19.1967 18.4928 18.5009C19.1893 17.8063 19.1893 16.678 18.4928 15.9823Z" fill="white"/>
</svg>
