<svg width="20" height="18" viewBox="0 0 20 18" fill="none" xmlns="http://www.w3.org/2000/svg">
<path fill-rule="evenodd" clip-rule="evenodd" d="M10.0014 15.5L5.57667 17.8262C5.04709 18.1046 4.39207 17.901 4.11366 17.3714C4.00279 17.1606 3.96453 16.919 4.00481 16.6842L4.84986 11.7572L1.27016 8.26782C0.841722 7.8502 0.832956 7.16432 1.25058 6.73588C1.41688 6.56528 1.63479 6.45425 1.87056 6.41999L6.81758 5.70114L9.02995 1.21839C9.29474 0.681862 9.94433 0.461578 10.4809 0.726369C10.6945 0.83181 10.8674 1.00474 10.9729 1.21839L13.1852 5.70114L18.1323 6.41999C18.7244 6.50602 19.1346 7.05575 19.0486 7.64784C19.0143 7.88362 18.9033 8.10152 18.7327 8.26782L15.153 11.7572L15.998 16.6842C16.0992 17.2739 15.7031 17.8339 15.1134 17.9351C14.8786 17.9753 14.637 17.9371 14.4262 17.8262L10.0014 15.5Z" fill="#FFA800"/>
</svg>
