<svg width="13" height="12" viewBox="0 0 13 12" fill="none" xmlns="http://www.w3.org/2000/svg">
<path fill-rule="evenodd" clip-rule="evenodd" d="M6.50093 9.75007L3.60783 11.2711C3.26156 11.4531 2.83328 11.32 2.65124 10.9737C2.57875 10.8358 2.55374 10.6779 2.58007 10.5244L3.1326 7.30283L0.792034 5.02134C0.5119 4.74828 0.506168 4.29982 0.779231 4.01969C0.887966 3.90814 1.03044 3.83554 1.1846 3.81314L4.41919 3.34313L5.86574 0.412097C6.03887 0.0612924 6.46361 -0.0827394 6.81441 0.0903931C6.9541 0.159335 7.06717 0.272405 7.13612 0.412097L8.58267 3.34313L11.8173 3.81314C12.2044 3.8694 12.4726 4.22884 12.4164 4.61597C12.394 4.77013 12.3214 4.91261 12.2098 5.02134L9.86925 7.30283L10.4218 10.5244C10.4879 10.9099 10.229 11.2761 9.84339 11.3422C9.68985 11.3686 9.53191 11.3436 9.39403 11.2711L6.50093 9.75007Z" fill="#FFA800"/>
</svg>
