<svg width="37" height="34" viewBox="0 0 37 34" fill="none" xmlns="http://www.w3.org/2000/svg">
<path d="M16.3741 0.218596L18.6075 0.0851516L20.8408 0.218596L23.0389 0.616814L25.167 1.2735L27.1916 2.17827L29.0806 3.3168L30.8044 4.67108L32.3357 6.21972L33.6504 7.93825L34.7278 9.79954L35.5511 11.7743L36.1072 13.8313L36.3875 15.9382V18.0618L36.1072 20.1687L35.5511 22.2257L34.7278 24.2005L33.6504 26.0617L32.3357 27.7803L30.8044 29.3289L29.0806 30.6832L27.1916 31.8217L25.167 32.7265L23.0389 33.3832L20.8408 33.7814L18.6075 33.9148L16.3741 33.7814L14.176 33.3832L12.0479 32.7265L10.0234 31.8217L8.13431 30.6832L6.41056 29.3289L4.87927 27.7803L3.56456 26.0617L2.48711 24.2004L1.66386 22.2257L1.10774 20.1687L0.827476 18.0618V15.9382L1.10774 13.8313L1.66386 11.7743L2.48711 9.79956L3.56456 7.93825L4.87927 6.21972L6.41056 4.67108L8.13431 3.3168L10.0234 2.17827L12.0479 1.2735L14.176 0.616814L16.3741 0.218596Z" fill="#F5F8FA" stroke="#E4E6EF" stroke-width="0.17"/>
<g clip-path="url(#clip0_1118_2237)">
<path opacity="0.25" d="M26.8469 23.3174L25.1754 24.9048C25.1754 24.9048 20.8321 26.6726 14.6275 20.7801C8.4229 14.8875 10.2843 10.7627 10.2843 10.7627L11.9558 9.17526C12.711 8.45808 13.9599 8.54238 14.6007 9.35378L16.1961 11.3741C16.7202 12.0376 16.6507 12.9661 16.0331 13.5526L14.6275 14.8875C14.6275 14.8875 14.6275 16.066 17.1094 18.423C19.5912 20.7801 20.8321 20.7801 20.8321 20.7801L22.2377 19.4451C22.8553 18.8587 23.833 18.7927 24.5316 19.2903L26.6589 20.8056C27.5133 21.4141 27.6021 22.6002 26.8469 23.3174Z" fill="#009EF6"/>
<path d="M11.9558 9.17488L11.5252 9.58381L15.248 14.2979L16.0331 13.5522C16.6507 12.9657 16.7202 12.0372 16.1961 11.3737L14.6007 9.35339C13.9599 8.54199 12.711 8.45769 11.9558 9.17488Z" fill="#009EF6"/>
<path d="M26.8469 23.317L26.4163 23.726L21.4526 20.1904L22.2377 19.4448C22.8553 18.8583 23.8329 18.7923 24.5316 19.29L26.6589 20.8052C27.5133 21.4137 27.602 22.5998 26.8469 23.317Z" fill="#009EF6"/>
</g>
<defs>
<clipPath id="clip0_1118_2237">
<rect width="21.0592" height="20" fill="white" transform="translate(8.07776 7)"/>
</clipPath>
</defs>
</svg>
