<svg width="37" height="34" viewBox="0 0 37 34" fill="none" xmlns="http://www.w3.org/2000/svg">
<path d="M16.24 0.218596L18.4734 0.0851516L20.7068 0.218596L22.9049 0.616814L25.033 1.2735L27.0575 2.17827L28.9466 3.3168L30.6703 4.67108L32.2016 6.21972L33.5163 7.93825L34.5938 9.79954L35.417 11.7743L35.9731 13.8313L36.2534 15.9382V18.0618L35.9731 20.1687L35.417 22.2257L34.5938 24.2005L33.5163 26.0617L32.2016 27.7803L30.6703 29.3289L28.9466 30.6832L27.0575 31.8217L25.033 32.7265L22.9048 33.3832L20.7068 33.7814L18.4734 33.9148L16.24 33.7814L14.042 33.3832L11.9138 32.7265L9.88929 31.8217L8.00025 30.6832L6.27649 29.3289L4.74521 27.7803L3.4305 26.0617L2.35304 24.2004L1.52979 22.2257L0.973672 20.1687L0.693412 18.0618V15.9382L0.973672 13.8313L1.52979 11.7743L2.35304 9.79956L3.4305 7.93825L4.74521 6.21972L6.27649 4.67108L8.00024 3.3168L9.88929 2.17827L11.9138 1.2735L14.042 0.616814L16.24 0.218596Z" fill="#F5F8FA" stroke="#E4E6EF" stroke-width="0.17"/>
<path opacity="0.25" fill-rule="evenodd" clip-rule="evenodd" d="M12.9408 9.07476C11.4578 9.28906 10.2828 10.3211 10.0282 11.725C9.85072 12.7034 9.69873 13.9464 9.69873 15.3337C9.69873 16.7209 9.85072 17.9639 10.0282 18.9424C10.2468 20.1475 11.1435 21.0786 12.3311 21.4536V24.29C12.3311 24.9352 13.0701 25.3356 13.655 25.0074L19.021 21.996C20.964 21.9658 22.7061 21.7804 24.006 21.5926C25.489 21.3783 26.664 20.3463 26.9186 18.9424C27.0961 17.9639 27.2481 16.7209 27.2481 15.3337C27.2481 13.9464 27.0961 12.7034 26.9186 11.725C26.664 10.3211 25.489 9.28906 24.006 9.07476C22.5851 8.86944 20.6358 8.66699 18.4734 8.66699C16.311 8.66699 14.3617 8.86944 12.9408 9.07476Z" fill="#009EF6"/>
<path fill-rule="evenodd" clip-rule="evenodd" d="M14.0861 12.833C13.6014 12.833 13.2086 13.2061 13.2086 13.6663C13.2086 14.1266 13.6014 14.4997 14.0861 14.4997H22.8607C23.3453 14.4997 23.7382 14.1266 23.7382 13.6663C23.7382 13.2061 23.3453 12.833 22.8607 12.833H14.0861ZM14.0861 16.1663C13.6014 16.1663 13.2086 16.5394 13.2086 16.9997C13.2086 17.4599 13.6014 17.833 14.0861 17.833H17.5959C18.0805 17.833 18.4734 17.4599 18.4734 16.9997C18.4734 16.5394 18.0805 16.1663 17.5959 16.1663H14.0861Z" fill="#009EF6"/>
</svg>
