<svg width="20" height="20" viewBox="0 0 20 20" fill="none" xmlns="http://www.w3.org/2000/svg">
<path opacity="0.25" fill-rule="evenodd" clip-rule="evenodd" d="M5.45088 1.97449C3.62022 2.21626 2.21529 3.62119 1.97351 5.45186C1.80729 6.71039 1.66602 8.28472 1.66602 10.0003C1.66602 11.7159 1.80729 13.2903 1.97351 14.5488C2.21529 16.3795 3.62022 17.7844 5.45088 18.0262C6.70942 18.1924 8.28374 18.3337 9.99935 18.3337C11.715 18.3337 13.2893 18.1924 14.5478 18.0262C16.3785 17.7844 17.7834 16.3795 18.0252 14.5488C18.1914 13.2903 18.3327 11.7159 18.3327 10.0003C18.3327 8.28472 18.1914 6.71039 18.0252 5.45186C17.7834 3.6212 16.3785 2.21626 14.5478 1.97449C13.2893 1.80827 11.715 1.66699 9.99935 1.66699C8.28374 1.66699 6.70942 1.80827 5.45088 1.97449Z" fill="white"/>
<path fill-rule="evenodd" clip-rule="evenodd" d="M10.0007 14.1663C10.4609 14.1663 10.834 13.7932 10.834 13.333V10.833H13.334C13.7942 10.833 14.1673 10.4599 14.1673 9.99967C14.1673 9.53944 13.7942 9.16634 13.334 9.16634H10.834V6.66634C10.834 6.2061 10.4609 5.83301 10.0007 5.83301C9.54041 5.83301 9.16732 6.2061 9.16732 6.66634V9.16634H6.66732C6.20708 9.16634 5.83398 9.53944 5.83398 9.99967C5.83398 10.4599 6.20708 10.833 6.66732 10.833H9.16732V13.333C9.16732 13.7932 9.54041 14.1663 10.0007 14.1663Z" fill="white"/>
</svg>
