<svg width="48" height="50" viewBox="0 0 48 50" fill="none" xmlns="http://www.w3.org/2000/svg">
<path opacity="0.25" d="M6.76367 8.70875C6.76367 5.31842 9.3884 2.57001 12.6262 2.57001H31.6937C33.2485 2.57001 34.7397 3.21677 35.8391 4.368L40.2216 8.957C41.321 10.1082 41.9387 11.6697 41.9387 13.2977V41.4487C41.9387 44.839 39.3139 47.5875 36.0762 47.5875H12.6262C9.3884 47.5875 6.76367 44.839 6.76367 41.4487V8.70875Z" fill="#00A3FF"/>
<path d="M30.2129 4.39486C30.2129 3.38702 30.9931 2.57001 31.9556 2.57001C33.3422 2.57001 34.6721 3.14679 35.6525 4.17347L40.4066 9.15154C41.3871 10.1782 41.9379 11.5707 41.9379 13.0226C41.9379 14.0305 41.1576 14.8475 40.1952 14.8475H32.1671C31.0878 14.8475 30.2129 13.9314 30.2129 12.8012V4.39486Z" fill="#00A3FF"/>
<path d="M23.6018 19.0956C23.3714 19.1955 23.1554 19.3435 22.9681 19.5397L17.1056 25.6784C16.3424 26.4776 16.3424 27.7732 17.1056 28.5723C17.8687 29.3714 19.106 29.3714 19.8692 28.5723L22.3957 25.9267V35.3104C22.3957 36.4405 23.2706 37.3566 24.3499 37.3566C25.4291 37.3566 26.304 36.4405 26.304 35.3104V25.9267L28.8306 28.5723C29.5937 29.3714 30.831 29.3714 31.5942 28.5723C32.3573 27.7732 32.3573 26.4776 31.5942 25.6784L25.7317 19.5397C25.1559 18.9368 24.3102 18.7888 23.6018 19.0956Z" fill="#00A3FF"/>
</svg>
