<svg width="18" height="18" viewBox="0 0 18 18" fill="none" xmlns="http://www.w3.org/2000/svg">
<g clip-path="url(#clip0_4521_5673)">
<path d="M17.8317 5.57487C17.6562 6.37125 17.3578 7.15581 16.9454 7.90659C15.8017 9.98781 13.1204 14.3773 10.0069 16.1408C9.33958 16.5192 8.65198 16.7768 7.95544 16.865L7.92248 16.8691H7.8828C7.72487 16.8691 7.1566 16.8059 6.48231 15.9922C5.69981 15.0481 5.02525 13.4208 4.4769 11.1552L4.47593 11.1504C4.46879 11.1209 3.78119 8.18399 2.74257 6.09714L2.73515 6.08134C2.73337 6.0775 2.54248 5.67142 2.09465 5.67142C1.83771 5.67142 1.54561 5.79982 1.22618 6.05333C0.902907 6.31027 0.442305 6.26385 0.177672 5.94827C-0.0757006 5.64574 -0.0560625 5.20766 0.223677 4.92929C1.01771 4.13882 2.66992 2.49431 3.95079 1.84529C4.0498 1.79503 4.155 1.75122 4.27228 1.71153H4.27269C4.93612 1.48727 5.64474 1.5396 6.26822 1.85834C6.88812 2.17529 7.34199 2.71513 7.54689 3.37857C7.66595 3.76392 7.7603 4.20584 7.82814 4.69267L7.8291 4.70009C7.93333 5.53835 8.16185 7.15622 8.52206 8.57318C9.08058 10.7692 9.58732 11.069 9.68318 11.1065L9.69197 11.1103C9.69307 11.1107 9.71971 11.1216 9.76956 11.1216C9.84152 11.1216 9.92048 11.1083 10.0069 11.0763C10.546 10.8777 11.3699 9.95911 12.5057 7.0789L12.5079 7.0741C12.5111 7.06668 12.5106 7.06668 12.523 7.03578L12.5479 6.97055C12.6097 6.81152 12.644 6.65112 12.6503 6.49374C12.6595 6.26138 12.6286 5.93001 12.4292 5.67169C12.1973 5.37163 11.8082 5.23993 11.2404 5.27124C10.9726 5.28593 10.7229 5.16096 10.5733 4.93739C10.4238 4.71382 10.4039 4.43573 10.5197 4.19321C10.8774 3.4449 11.4937 2.71129 12.2109 2.18051C13.1436 1.49002 14.2524 1.125 15.4174 1.125H15.4213C15.4743 1.12569 16.725 1.1478 17.5008 2.30438C18.0262 3.08826 18.1374 4.18867 17.8317 5.57487Z" fill="#ECECF0"/>
<path d="M17.8307 5.57487C17.6552 6.37125 17.3568 7.15581 16.9444 7.90659C15.8007 9.98781 13.1194 14.3773 10.0059 16.1408V11.0763C10.545 10.8777 11.3689 9.95911 12.5047 7.0789L12.5069 7.0741C12.5101 7.06668 12.5096 7.06668 12.522 7.03578L12.5469 6.97055C12.6087 6.81152 12.643 6.65112 12.6493 6.49374C12.6585 6.26138 12.6276 5.93001 12.4282 5.67169C12.1963 5.37163 11.8072 5.23993 11.2393 5.27124C10.9716 5.28593 10.7219 5.16096 10.5723 4.93739C10.4228 4.71382 10.4029 4.43573 10.5186 4.19321C10.8764 3.4449 11.4927 2.71129 12.2099 2.18051C13.1426 1.49002 14.2514 1.125 15.4164 1.125H15.4203C15.4733 1.12569 16.724 1.1478 17.4998 2.30438C18.0252 3.08826 18.1364 4.18867 17.8307 5.57487Z" fill="#B5B5C3"/>
</g>
<defs>
<clipPath id="clip0_4521_5673">
<rect width="18" height="18" fill="white"/>
</clipPath>
</defs>
</svg>
