<svg width="60" height="60" viewBox="0 0 60 60" fill="none" xmlns="http://www.w3.org/2000/svg">
<g clip-path="url(#clip0_1161_457)">
<path d="M30 0C37.9566 0 45.5871 3.16071 51.2133 8.78679C56.8392 14.4129 60 22.0435 60 30C60 37.9566 56.8392 45.5871 51.2133 51.2133C45.5871 56.8392 37.9566 60 30 60H7.2C5.29044 60 3.45909 59.2413 2.10883 57.8913C0.758568 56.541 0 54.7095 0 52.8V30C0 22.0435 3.16071 14.4129 8.78679 8.78679C14.4129 3.16071 22.0435 0 30 0Z" fill="url(#paint0_linear_1161_457)"/>
<path d="M25.527 54.1682L21.078 50.8682L30.678 37.8512C30.159 37.9202 29.718 37.9742 29.352 38.0072C28.986 38.0402 28.695 38.0582 28.452 38.0582C25.208 38.0582 22.399 36.8252 20.025 34.3592C18.8799 33.194 17.9785 31.8122 17.3733 30.2948C16.768 28.7774 16.4712 27.1546 16.5 25.5212C16.4735 23.7657 16.8085 22.0235 17.4841 20.4029C18.1597 18.7824 19.1614 17.3181 20.427 16.1012C21.6545 14.8359 23.1273 13.8344 24.7553 13.1582C26.3833 12.4819 28.1322 12.145 29.895 12.1682C31.6638 12.1506 33.4185 12.4844 35.0571 13.1503C36.6957 13.8162 38.1857 14.8009 39.4409 16.0472C42.1469 18.6212 43.4999 21.6582 43.4999 25.1582C43.4999 28.2622 42.182 31.6172 39.5459 35.2232L25.527 54.1682ZM22.404 25.0682C22.3912 26.0728 22.5785 27.0699 22.9548 28.0014C23.331 28.9329 23.8889 29.7803 24.5958 30.4943C25.3027 31.208 26.1445 31.7741 27.0723 32.1596C28.0001 32.5451 28.9953 32.7422 30 32.7392C32.0064 32.7449 33.933 31.9541 35.357 30.5408C36.7811 29.1273 37.5863 27.2066 37.5959 25.2002C37.5956 24.2017 37.3976 23.213 37.0139 22.2912C36.6299 21.3693 36.0677 20.5325 35.3591 19.8288C34.6508 19.1251 33.8103 18.5683 32.886 18.1907C31.9614 17.813 30.9717 17.6219 29.973 17.6282C28.9815 17.6124 27.9972 17.7993 27.0805 18.1774C26.1638 18.5556 25.334 19.117 24.642 19.8272C23.929 20.5028 23.3625 21.3177 22.9775 22.2213C22.5925 23.1249 22.3973 24.098 22.404 25.0802V25.0682Z" fill="white"/>
</g>
<defs>
<linearGradient id="paint0_linear_1161_457" x1="0" y1="30" x2="60" y2="30" gradientUnits="userSpaceOnUse">
<stop stop-color="#FF8A11"/>
<stop offset="1" stop-color="#E81894"/>
</linearGradient>
<clipPath id="clip0_1161_457">
<rect width="60" height="60" fill="white"/>
</clipPath>
</defs>
</svg>
