<svg width="20" height="20" viewBox="0 0 20 20" fill="none" xmlns="http://www.w3.org/2000/svg">
<path d="M10.9167 10.9167H9.08333V5.41671H10.9167M10.9167 14.5834H9.08333V12.75H10.9167M9.99999 0.833374C8.79621 0.833374 7.60421 1.07048 6.49206 1.53114C5.37991 1.99181 4.36939 2.66702 3.51818 3.51823C1.7991 5.23731 0.833328 7.56889 0.833328 10C0.833328 12.4312 1.7991 14.7628 3.51818 16.4819C4.36939 17.3331 5.37991 18.0083 6.49206 18.4689C7.60421 18.9296 8.79621 19.1667 9.99999 19.1667C12.4311 19.1667 14.7627 18.2009 16.4818 16.4819C18.2009 14.7628 19.1667 12.4312 19.1667 10C19.1667 8.79626 18.9296 7.60426 18.4689 6.49211C18.0082 5.37996 17.333 4.36943 16.4818 3.51823C15.6306 2.66702 14.6201 1.99181 13.5079 1.53114C12.3958 1.07048 11.2038 0.833374 9.99999 0.833374Z" fill="white"/>
</svg>
