<svg width="22" height="22" viewBox="0 0 22 22" fill="none" xmlns="http://www.w3.org/2000/svg">
<g clip-path="url(#clip0_3854_5527)">
<path d="M16.2189 11C16.2163 10.1783 16.1283 9.35907 15.9561 8.55557H18.1561C18.0428 8.22042 17.906 7.89368 17.7467 7.5778H15.6995C15.3146 6.29205 14.7177 5.07963 13.9333 3.99057C13.4322 3.77986 12.9097 3.62414 12.375 3.52613C13.4495 4.68067 14.2606 6.05472 14.7522 7.55335H11.4583V3.42224H10.5417V7.55946H7.24778C7.74038 6.05811 8.55362 4.68186 9.63112 3.52613C9.0987 3.6225 8.57827 3.77617 8.07889 3.98446C7.29145 5.06895 6.69043 6.2772 6.30056 7.55946H4.24112C4.07891 7.88111 3.94003 8.21401 3.82556 8.55557H6.0439C5.87174 9.35907 5.78367 10.1783 5.78112 11C5.78281 11.8988 5.8853 12.7946 6.08667 13.6706H3.92334C4.04977 14.0131 4.2009 14.346 4.37556 14.6667H6.34945C6.72358 15.8374 7.27822 16.9426 7.99334 17.9422C8.50543 18.1619 9.0404 18.3238 9.58834 18.425C8.59096 17.3371 7.82391 16.0587 7.33334 14.6667H10.5478V18.5411H11.4645V14.6667H14.6667C14.1744 16.0593 13.4053 17.3377 12.4056 18.425C12.9561 18.3203 13.4931 18.1543 14.0067 17.93C14.7207 16.9341 15.2753 15.8332 15.6506 14.6667H17.6061C17.78 14.352 17.9311 14.0252 18.0583 13.6889H15.8889C16.0999 12.8079 16.2106 11.9059 16.2189 11ZM10.5417 13.6706H7.03389C6.60365 11.9887 6.58479 10.2279 6.97889 8.53724H10.5417V13.6706ZM14.9661 13.6706H11.4583V8.55557H15.0211C15.1967 9.35841 15.2827 10.1782 15.2778 11C15.2828 11.8996 15.1781 12.7964 14.9661 13.6706Z" fill="white"/>
<path d="M11 1.22217C9.06615 1.22217 7.17572 1.79562 5.56777 2.87002C3.95982 3.94442 2.70658 5.4715 1.96652 7.25815C1.22647 9.04481 1.03283 11.0108 1.41011 12.9075C1.78739 14.8042 2.71863 16.5464 4.08608 17.9139C5.45353 19.2813 7.19576 20.2126 9.09246 20.5898C10.9892 20.9671 12.9552 20.7735 14.7418 20.0334C16.5285 19.2934 18.0555 18.0401 19.1299 16.4322C20.2043 14.8242 20.7778 12.9338 20.7778 10.9999C20.7778 8.40672 19.7476 5.9197 17.9139 4.08601C16.0803 2.25232 13.5932 1.22217 11 1.22217ZM11 19.5555C9.30788 19.5555 7.65375 19.0537 6.2468 18.1136C4.83985 17.1735 3.74326 15.8373 3.09571 14.274C2.44816 12.7107 2.27873 10.9905 2.60885 9.33084C2.93897 7.67123 3.7538 6.14677 4.95032 4.95025C6.14684 3.75374 7.67129 2.9389 9.33091 2.60878C10.9905 2.27866 12.7108 2.44809 14.2741 3.09564C15.8374 3.74319 17.1736 4.83978 18.1137 6.24673C19.0538 7.65369 19.5556 9.30782 19.5556 10.9999C19.5556 13.269 18.6542 15.4452 17.0497 17.0496C15.4452 18.6541 13.2691 19.5555 11 19.5555Z" fill="white"/>
</g>
<defs>
<clipPath id="clip0_3854_5527">
<rect width="22" height="22" fill="white"/>
</clipPath>
</defs>
</svg>
