<svg width="21" height="21" viewBox="0 0 21 21" fill="none" xmlns="http://www.w3.org/2000/svg">
<path d="M18.8797 4.24651C19.4572 4.82391 19.4666 5.75712 18.901 6.34611L11.3389 14.2213C11.0636 14.508 10.6858 14.6737 10.2884 14.682L7.1081 14.7487L7.17514 11.5532C7.18329 11.1649 7.34175 10.7948 7.61719 10.521L15.3502 2.83217C15.9364 2.24925 16.8838 2.25061 17.4684 2.83521L18.8797 4.24651Z" fill="#BEBECB"/>
<path opacity="0.3" d="M11.2855 1.75C11.7688 1.75 12.1605 2.14175 12.1605 2.625C12.1605 3.10825 11.7688 3.5 11.2855 3.5H5.24805C4.28155 3.5 3.49805 4.2835 3.49805 5.25V15.75C3.49805 16.7165 4.28155 17.5 5.24805 17.5H15.748C16.7145 17.5 17.498 16.7165 17.498 15.75V11.375C17.498 10.8918 17.8898 10.5 18.373 10.5C18.8563 10.5 19.248 10.8918 19.248 11.375V15.75C19.248 17.683 17.681 19.25 15.748 19.25H5.24805C3.31505 19.25 1.74805 17.683 1.74805 15.75V5.25C1.74805 3.317 3.31505 1.75 5.24805 1.75H11.2855Z" fill="#BEBECB"/>
</svg>
