<svg width="16" height="17" viewBox="0 0 16 17" fill="none" xmlns="http://www.w3.org/2000/svg">
<path d="M8 0.5C3.58464 0.5 0 4.08464 0 8.5C0 12.9154 3.58464 16.5 8 16.5C12.4074 16.5 15.9858 12.9282 15.9987 8.52368C15.9995 8.51581 16 8.50791 16 8.5C16 8.4929 15.9997 8.4858 15.999 8.47872C15.9875 4.07312 12.4083 0.5 8 0.5ZM8 0.98C8.0752 0.98 8.14944 0.98336 8.224 0.9856C8.8192 1.13168 9.2888 1.2568 9.42528 1.836C10.0589 2.22832 10.6854 2.57904 11.1246 3.156C10.7747 3.2584 10.261 3.08816 10.3374 2.67088C10.1083 2.98784 9.99024 2.8472 9.67872 2.84256C9.92192 2.896 10.0189 3.39504 10.3334 3.10784C10.7122 3.48704 9.81616 3.66192 9.6272 3.51808C9.14368 3.56288 9.72224 4.05392 9.14192 4.01744C8.68624 4.36848 9.02576 4.9584 8.38192 5.12288C7.5736 5.36336 8.75744 6.4384 7.94976 6.56976C7.91808 6.2264 7.69696 5.61616 7.18624 5.62496C6.69936 5.9672 5.63264 5.37824 5.54288 6.33536C5.19696 6.80176 5.58912 7.7904 6.21408 7.44C6.3328 7.1032 7.3296 6.6568 7.07648 7.30848C6.9752 7.716 6.68384 8.0928 7.26464 7.94944C8.08176 7.98368 7.50224 8.67504 7.78464 9.07312C8.10144 9.25152 8.58528 9.18368 8.90944 9.16848C8.99232 8.62656 9.85344 8.6592 9.90656 8.63808C9.99648 8.41344 10.4258 8.64352 10.3581 8.8888C10.9032 8.87696 10.777 8.556 11.2872 8.7984C11.7016 8.41456 11.3928 9.2464 11.896 9.30432C12.2318 9.64128 12.996 9.32768 13.0646 10.0437C13.249 10.7251 14.259 10.3056 14.5866 10.7803C14.5677 11.5098 13.9514 12.0291 13.7606 12.7131C13.4566 13.4741 12.5725 13.6488 12.1734 14.3237C11.6013 14.8421 10.9606 15.2154 10.2734 15.5275C10.1382 15.6046 9.90976 15.7154 9.7112 15.8222C9.33716 15.9091 8.957 15.9672 8.57408 15.996C8.64832 15.7965 8.99856 15.5592 9.06528 15.3538C9.32128 14.797 10.0965 13.9354 9.41504 13.4525C8.91008 13.3638 8.75728 12.9022 8.51632 12.5597C8.364 12.1005 7.69552 11.7552 8.06656 11.3219C7.8912 10.9014 8.47088 10.5098 8.65696 10.16C8.71456 9.78624 8.34656 9.1888 8.14464 9.6848C7.73168 9.55728 7.22784 9.28896 7.08032 8.85536C6.6416 8.56656 6.03328 8.25504 5.60912 8.0528C5.08016 8.07728 4.59728 7.69392 4.21152 7.3744C4.17408 6.81824 3.84304 6.1312 3.576 5.7728C3.81808 6.1464 3.78112 7.15264 3.39152 6.3136C3.27952 5.9328 3.22304 5.43536 3.2 5.01088C2.90944 4.81504 3.04432 3.9632 3.3288 3.60816C3.6464 3.36016 3.90448 2.62528 3.88816 2.5016C3.7088 2.56624 3.99664 2.25888 4.1344 2.04816C5.30185 1.34726 6.63831 0.97796 8 0.98ZM9.0856 1.05904C9.56816 1.1287 10.0427 1.24541 10.5026 1.40752C10.5094 1.42512 10.5165 1.44304 10.5262 1.46352C11.2114 2.24352 9.82176 1.53936 9.5328 1.30592C9.43344 1.22096 9.2672 1.1328 9.0856 1.05904ZM8.15216 1.25712C7.97648 1.26608 7.83632 1.35312 8.06736 1.48688C7.92128 1.85744 7.02368 1.34608 7.01344 1.9C7.29152 2.17088 7.88288 2.14288 8.1112 2.416C7.91168 2.05024 8.42896 1.95488 8.276 2.18432C8.24848 2.3464 8.47168 1.9352 8.24528 2.04624C8.17376 1.61376 7.93536 1.58784 8.43472 1.33184C8.376 1.2744 8.2576 1.25184 8.15216 1.25712ZM8.54976 6.10528C8.80528 6.11696 9.02704 6.64928 9.17696 6.65504C9.19248 6.60592 9.36656 7.17664 9.13696 6.94944C8.77664 6.86208 8.8448 6.14336 8.65536 6.72656C8.18048 6.73856 8.77712 6.16864 8.36784 6.19344C8.42992 6.12784 8.49072 6.1024 8.54976 6.10528ZM7.95312 6.6744C8.46016 6.68976 8.94272 7.2856 9.32336 7.01776C9.46656 7.12656 9.50368 7.39472 9.94592 7.32816C10.4888 7.50464 10.1914 7.7224 9.85952 7.68496C9.75936 7.67008 9.70528 7.88688 9.61568 7.73088C9.40064 7.75552 8.90176 7.61808 9.31744 7.45936C9.31904 7.10016 8.56224 7.72528 8.55872 7.25456C8.22048 7.1344 7.99232 6.90176 7.71088 7.13968C7.55408 7.01616 7.1552 7.028 7.59904 6.7744C7.70384 6.70515 7.82758 6.67021 7.95312 6.6744ZM11.0102 7.51872C11.0694 7.49568 11.2208 7.80512 11.2742 7.58064C11.3776 7.85264 11.6536 8.59728 11.2891 8.63744C11.4784 8.23744 11.1678 7.87392 10.9866 7.5984C10.9882 7.5472 10.9966 7.524 11.0102 7.51872Z" fill="#D9D9D9"/>
</svg>
