<svg width="46" height="46" viewBox="0 0 46 46" fill="none" xmlns="http://www.w3.org/2000/svg">
<g clip-path="url(#clip0_976_7926)">
<path opacity="0.25" d="M40.9974 37.529L37.3463 41.1802C37.3463 41.1802 27.8593 45.246 14.3064 31.6931C0.753545 18.1403 4.81941 8.65325 4.81941 8.65325L8.47053 5.00213C10.12 3.35261 12.8481 3.54649 14.2478 5.41271L17.7328 10.0594C18.8774 11.5855 18.7256 13.7211 17.3767 15.07L14.3064 18.1403C14.3064 18.1403 14.3064 20.8508 19.7276 26.272C25.1487 31.6931 27.8593 31.6931 27.8593 31.6931L30.9296 28.6229C32.2785 27.2739 34.414 27.1222 35.9402 28.2668L40.5869 31.7518C42.4531 33.1515 42.647 35.8795 40.9974 37.529Z" fill="#009EF6"/>
<path d="M8.47093 5.00231L7.53038 5.94285L15.6621 16.7852L17.3771 15.0702C18.726 13.7212 18.8778 11.5857 17.7332 10.0596L14.2482 5.41289C12.8485 3.54667 10.1204 3.35279 8.47093 5.00231Z" fill="#009EF6"/>
<path d="M40.9977 37.5291L40.0571 38.4696L29.2148 30.3379L30.9298 28.6229C32.2788 27.274 34.4143 27.1222 35.9404 28.2668L40.5871 31.7518C42.4533 33.1515 42.6472 35.8796 40.9977 37.5291Z" fill="#009EF6"/>
</g>
<defs>
<clipPath id="clip0_976_7926">
<rect width="46" height="46" fill="white"/>
</clipPath>
</defs>
</svg>
