<svg width="71" height="43" viewBox="0 0 71 43" fill="none" xmlns="http://www.w3.org/2000/svg">
<rect width="70.8661" height="42.5197" rx="5.31496" fill="#F6F8FA"/>
<g clip-path="url(#clip0_822_3908)">
<path d="M41.7479 31.8594H30.0098V10.8319H41.7481L41.7479 31.8594Z" fill="#FF5F00"/>
<path d="M30.7547 21.3455C30.7547 17.0801 32.7583 13.2804 35.8783 10.8317C33.5167 8.97548 30.5956 7.96803 27.5881 7.97246C20.1794 7.97246 14.1738 13.9597 14.1738 21.3455C14.1738 28.7313 20.1794 34.7185 27.5881 34.7185C30.5957 34.723 33.5168 33.7156 35.8785 31.8593C32.7588 29.411 30.7547 25.6112 30.7547 21.3455Z" fill="#EB001B"/>
<path d="M57.5847 21.3459C57.5847 28.7317 51.5791 34.719 44.1705 34.719C41.1625 34.7234 38.2411 33.7159 35.8789 31.8597C38.9998 29.411 41.0034 25.6116 41.0034 21.3459C41.0034 17.0803 38.9998 13.2808 35.8789 10.8321C38.241 8.97595 41.1624 7.96852 44.1702 7.97287C51.5789 7.97287 57.5845 13.9601 57.5845 21.3459" fill="#F79E1B"/>
</g>
<defs>
<clipPath id="clip0_822_3908">
<rect width="43.4055" height="33.6614" fill="white" transform="translate(14.1738 7.97266)"/>
</clipPath>
</defs>
</svg>
