<svg width="22" height="22" viewBox="0 0 22 22" fill="none" xmlns="http://www.w3.org/2000/svg">
<path opacity="0.3" fill-rule="evenodd" clip-rule="evenodd" d="M11.0007 20.1663C16.0633 20.1663 20.1673 16.0623 20.1673 10.9997C20.1673 5.93706 16.0633 1.83301 11.0007 1.83301C5.93804 1.83301 1.83398 5.93706 1.83398 10.9997C1.83398 16.0623 5.93804 20.1663 11.0007 20.1663Z" fill="#50CD89"/>
<rect opacity="0.3" x="10.084" y="14.667" width="1.83333" height="1.83333" rx="0.916667" fill="#50CD89"/>
<path d="M14.6691 7.38783C14.8978 7.1187 15.3014 7.08598 15.5705 7.31473C15.8397 7.54348 15.8724 7.94709 15.6436 8.21621L10.2076 14.6116C9.97525 14.8849 9.56355 14.9137 9.29542 14.6754L6.41751 12.1172C6.15352 11.8826 6.12974 11.4783 6.3644 11.2143C6.59906 10.9504 7.00329 10.9266 7.26728 11.1612L9.65649 13.285L14.6691 7.38783Z" fill="#50CD89"/>
</svg>
