<svg width="71" height="43" viewBox="0 0 71 43" fill="none" xmlns="http://www.w3.org/2000/svg">
<rect width="70.8661" height="43" rx="5.31496" fill="#F6F8FA"/>
<path d="M42.732 11.6594C41.5299 10.4979 39.357 10 36.5771 10H28.5092C28.2341 10 27.9681 10.0832 27.7589 10.2346C27.5498 10.386 27.4112 10.5957 27.3681 10.8259L24.0087 28.8864C23.9419 29.2426 24.2673 29.5651 24.6931 29.5651H29.674L30.9249 22.8393L30.8861 23.0499C30.9752 22.5745 31.4548 22.2238 32.0228 22.2238H34.3897C39.0395 22.2238 42.6803 20.6229 43.7439 15.9917C43.7754 15.8547 43.8028 15.7214 43.8264 15.5912C43.6922 15.5309 43.6922 15.5309 43.8264 15.5912C44.1431 13.8794 43.8243 12.7143 42.732 11.6594Z" fill="#374580"/>
<path d="M32.8307 14.9745C32.9669 14.9196 33.1158 14.8911 33.2667 14.8912H39.5918C40.3408 14.8912 41.0394 14.9325 41.6778 15.0196C41.8564 15.0437 42.0341 15.0726 42.2107 15.106C42.4609 15.1528 42.7082 15.2101 42.9517 15.2777C43.2656 15.3665 43.5579 15.47 43.8265 15.5912C44.1431 13.8788 43.8243 12.7143 42.732 11.6594C41.5292 10.4979 39.357 10 36.5771 10H28.5085C27.9404 10 27.4571 10.3506 27.3681 10.8259L24.0087 28.8858C23.9419 29.2425 24.2673 29.5646 24.6924 29.5646H29.674L32.2692 15.6137C32.2947 15.4766 32.3592 15.3468 32.457 15.2354C32.5548 15.1241 32.6831 15.0346 32.8307 14.9745Z" fill="#374580"/>
<path d="M43.7438 15.9918C42.6802 20.6224 39.0395 22.224 34.3896 22.224H32.0221C31.4541 22.224 30.9743 22.5746 30.8861 23.0501L29.3298 31.4128C29.2717 31.7244 29.556 32.0069 29.928 32.0069H34.1268C34.3673 32.0068 34.5999 31.934 34.7828 31.8016C34.9656 31.6691 35.0867 31.4857 35.1243 31.2843L35.1652 31.103L35.9566 26.8515L36.0075 26.6166C36.0451 26.4152 36.1662 26.2318 36.3491 26.0994C36.5319 25.9669 36.7645 25.8941 37.005 25.8941H37.6334C41.7007 25.8941 44.8856 24.4933 45.8162 20.4423C46.2047 18.7493 46.0037 17.3359 44.9761 16.3431C44.6644 16.0424 44.2773 15.794 43.8263 15.5913C43.8019 15.7222 43.7754 15.8549 43.7438 15.9918Z" fill="#009EF6"/>
<path d="M42.7153 15.2149C42.5495 15.1739 42.3821 15.1376 42.2134 15.106C42.0367 15.0731 41.859 15.0444 41.6805 15.0201C41.0414 14.9324 40.3433 14.8911 39.5936 14.8911H33.2693C33.1184 14.8908 32.9693 14.9195 32.8334 14.9751C32.6855 15.0349 32.5571 15.1244 32.4593 15.2357C32.3614 15.3471 32.297 15.477 32.2717 15.6142L30.9275 22.8393L30.8887 23.0499C30.9771 22.5745 31.4568 22.2238 32.0248 22.2238H34.3924C39.0422 22.2238 42.6829 20.6229 43.7465 15.9917C43.7781 15.8547 43.8047 15.7219 43.8291 15.5911C43.5598 15.4706 43.2683 15.3665 42.9543 15.2782C42.8751 15.2559 42.7954 15.2349 42.7153 15.2149Z" fill="#374580"/>
</svg>
