<svg width="29" height="28" viewBox="0 0 29 28" fill="none" xmlns="http://www.w3.org/2000/svg">
<path opacity="0.3" d="M16.8662 19.4916C16.4066 19.036 16.4066 18.2973 16.8662 17.8417C17.3257 17.3861 18.0708 17.3861 18.5304 17.8417L23.2375 22.5084C23.697 22.964 23.697 23.7027 23.2375 24.1583C22.7779 24.6139 22.0328 24.6139 21.5733 24.1583L16.8662 19.4916Z" fill="white"/>
<path fill-rule="evenodd" clip-rule="evenodd" d="M4.75391 12.8334C4.75391 17.3437 8.44194 21.0001 12.9914 21.0001C17.5408 21.0001 21.2288 17.3437 21.2288 12.8334C21.2288 8.32309 17.5408 4.66675 12.9914 4.66675C8.44194 4.66675 4.75391 8.32309 4.75391 12.8334ZM18.8752 12.8334C18.8752 16.0551 16.2409 18.6668 12.9913 18.6668C9.74172 18.6668 7.10741 16.0551 7.10741 12.8334C7.10741 9.61176 9.74172 7.00009 12.9913 7.00009C16.2409 7.00009 18.8752 9.61176 18.8752 12.8334Z" fill="white"/>
</svg>
