<svg width="20" height="20" viewBox="0 0 20 20" fill="none" xmlns="http://www.w3.org/2000/svg">
<path opacity="0.3" d="M11.6438 13.9769C11.3336 13.6668 11.3336 13.1639 11.6438 12.8537C11.9539 12.5436 12.4568 12.5436 12.767 12.8537L15.9439 16.0306C16.2541 16.3408 16.2541 16.8437 15.9439 17.1539C15.6337 17.464 15.1308 17.464 14.8207 17.1539L11.6438 13.9769Z" fill="#009EF6"/>
<path fill-rule="evenodd" clip-rule="evenodd" d="M3.46875 9.44438C3.46875 12.5149 5.95787 15.004 9.02837 15.004C12.0989 15.004 14.588 12.5149 14.588 9.44438C14.588 6.37389 12.0989 3.88477 9.02837 3.88477C5.95787 3.88477 3.46875 6.37389 3.46875 9.44438ZM12.9995 9.44444C12.9995 11.6376 11.2216 13.4156 9.02836 13.4156C6.83515 13.4156 5.0572 11.6376 5.0572 9.44444C5.0572 7.25123 6.83515 5.47329 9.02836 5.47329C11.2216 5.47329 12.9995 7.25123 12.9995 9.44444Z" fill="#009EF6"/>
</svg>
