<svg width="17" height="18" viewBox="0 0 17 18" fill="none" xmlns="http://www.w3.org/2000/svg">
<path d="M6.82138 1.76062C7.52454 0.395787 9.47595 0.395787 10.1791 1.76062C10.6016 2.58074 11.5548 2.97556 12.4335 2.69442C13.8958 2.22655 15.2756 3.6064 14.8078 5.0687C14.5266 5.94737 14.9215 6.90057 15.7416 7.32309C17.1064 8.02625 17.1064 9.97766 15.7416 10.6808C14.9215 11.1033 14.5266 12.0565 14.8078 12.9352C15.2756 14.3975 13.8958 15.7774 12.4335 15.3095C11.5548 15.0283 10.6016 15.4232 10.1791 16.2433C9.47595 17.6081 7.52454 17.6081 6.82138 16.2433C6.39886 15.4232 5.44566 15.0283 4.56699 15.3095C3.10469 15.7774 1.72484 14.3975 2.19271 12.9352C2.47385 12.0565 2.07903 11.1033 1.25892 10.6808C-0.105922 9.97766 -0.105922 8.02625 1.25892 7.32309C2.07903 6.90057 2.47385 5.94737 2.19271 5.0687C1.72484 3.6064 3.10469 2.22655 4.56699 2.69442C5.44566 2.97556 6.39886 2.58074 6.82138 1.76062Z" fill="#00A3FF"/>
</svg>
