<svg width="86" height="86" viewBox="0 0 86 86" fill="none" xmlns="http://www.w3.org/2000/svg">
<path opacity="0.3" fill-rule="evenodd" clip-rule="evenodd" d="M43.0013 78.8317C62.7915 78.8317 78.8346 62.7886 78.8346 42.9984C78.8346 23.2082 62.7915 7.16504 43.0013 7.16504C23.2111 7.16504 7.16797 23.2082 7.16797 42.9984C7.16797 62.7886 23.2111 78.8317 43.0013 78.8317Z" fill="#50CD89"/>
<rect opacity="0.3" x="39.418" y="57.335" width="7.16667" height="7.16667" rx="3.58333" fill="#50CD89"/>
<path d="M57.3451 28.8808C58.2393 27.8288 59.8171 27.7009 60.8691 28.5951C61.9211 29.4893 62.049 31.0671 61.1548 32.1191L39.9048 57.1191C38.9965 58.1876 37.3872 58.3002 36.339 57.3685L25.089 47.3685C24.0571 46.4512 23.9641 44.871 24.8814 43.839C25.7987 42.8071 27.3789 42.7141 28.4109 43.6314L37.7505 51.9333L57.3451 28.8808Z" fill="#50CD89"/>
</svg>
