<svg width="71" height="43" viewBox="0 0 71 43" fill="none" xmlns="http://www.w3.org/2000/svg">
<rect width="70.8661" height="42.5197" rx="5.31496" fill="#F6F8FA"/>
<path fill-rule="evenodd" clip-rule="evenodd" d="M27.6987 21.4652C27.6987 26.1789 23.8776 30 19.164 30C14.4501 30 10.6289 26.1789 10.6289 21.4652C10.6289 16.7516 14.4501 12.9305 19.164 12.9305C23.8776 12.9305 27.6987 16.7516 27.6987 21.4652Z" fill="#ED342B"/>
<path fill-rule="evenodd" clip-rule="evenodd" d="M19.1631 25.1208C17.2541 20.7935 15.8543 16.7509 15.8543 16.7509H12.9277C12.9277 16.7509 14.709 21.9396 18.0177 28.4282H20.3086C23.6173 21.9396 25.3984 16.7509 25.3984 16.7509H22.4719C22.4719 16.7509 21.0722 20.7935 19.1631 25.1208Z" fill="#FEFEFE"/>
<path fill-rule="evenodd" clip-rule="evenodd" d="M55.9199 21.0197C54.2655 21.0197 54.1385 22.8013 54.1385 22.8013H57.7011C57.7011 22.8013 57.574 21.0197 55.9199 21.0197ZM59.8645 24.5825H54.1385C54.1385 24.5825 54.2655 26.4915 56.8107 26.4915C58.083 26.4915 59.3555 26.1093 59.3555 26.1093L59.6101 28.1452C59.6101 28.1452 58.3376 28.6545 56.5561 28.6545C54.0112 28.6545 51.7207 27.3819 51.7207 23.8191C51.7207 21.0197 53.5023 19.2382 56.0472 19.2382C59.8645 19.2382 60.1188 23.0556 59.8645 24.5825ZM40.3939 21.5759L40.7879 19.4749C40.7879 19.4749 37.7455 18.5517 35.2727 20.2626V28.6665H37.8989V21.8383C38.9493 21.0507 40.3939 21.5759 40.3939 21.5759ZM29.4473 21.0197C27.7932 21.0197 27.6661 22.8013 27.6661 22.8013H31.2288C31.2288 22.8013 31.1018 21.0197 29.4473 21.0197ZM33.3919 24.5825H27.6661C27.6661 24.5825 27.7932 26.4915 30.3381 26.4915C31.6103 26.4915 32.8829 26.1093 32.8829 26.1093L33.1376 28.1452C33.1376 28.1452 31.8649 28.6545 30.0835 28.6545C27.5386 28.6545 25.248 27.3819 25.248 23.8191C25.248 21.0197 27.0296 19.2382 29.5745 19.2382C33.3919 19.2382 33.6462 23.0556 33.3919 24.5825ZM46.8028 25.4546C45.4693 22.2539 44.8028 19.2398 44.8028 19.2398L42.1364 19.2401C42.1364 19.2401 43.4698 24.3876 45.7366 28.653H47.869C50.136 24.3876 51.4694 19.2408 51.4694 19.2408H48.8028C48.8028 19.2408 48.1363 22.2539 46.8028 25.4546Z" fill="#03435F"/>
</svg>
