<svg width="71" height="43" viewBox="0 0 71 43" fill="none" xmlns="http://www.w3.org/2000/svg">
<rect width="70.8661" height="43" rx="5.31496" fill="#F6F8FA"/>
<path d="M32.5177 30.1751H28.3977L30.9726 13.7317H35.0931L32.5177 30.1751ZM24.9316 13.7317L21.0038 25.0416L20.539 22.6061L20.5394 22.607L19.1531 15.2123C19.1531 15.2123 18.9854 13.7317 17.1986 13.7317H10.7051L10.6289 14.0102C10.6289 14.0102 12.6146 14.4395 14.9386 15.8896L18.5181 30.1755H22.8109L29.3658 13.7317H24.9316ZM57.3379 30.1751H61.121L57.8226 13.7313H54.5107C52.9813 13.7313 52.6087 14.9567 52.6087 14.9567L46.464 30.1751H50.7589L51.6178 27.7326H56.8554L57.3379 30.1751ZM52.8043 24.3585L54.9691 18.205L56.187 24.3585H52.8043ZM46.7861 17.686L47.3741 14.1549C47.3741 14.1549 45.5598 13.4379 43.6685 13.4379C41.6239 13.4379 36.7686 14.3664 36.7686 18.8815C36.7686 23.1296 42.4671 23.1823 42.4671 25.4137C42.4671 27.645 37.3557 27.2452 35.6688 25.8381L35.0563 29.5302C35.0563 29.5302 36.896 30.4588 39.7068 30.4588C42.5184 30.4588 46.7599 28.9461 46.7599 24.8291C46.7599 20.5538 41.0101 20.1557 41.0101 18.2969C41.0105 16.4377 45.0231 16.6765 46.7861 17.686Z" fill="#2566AF"/>
<path d="M20.5413 22.6065L19.155 15.2118C19.155 15.2118 18.9874 13.7312 17.2006 13.7312H10.7071L10.6309 14.0096C10.6309 14.0096 13.7519 14.6817 16.7455 17.1999C19.6079 19.6067 20.5413 22.6065 20.5413 22.6065Z" fill="#E6A540"/>
</svg>
