<svg width="29" height="29" viewBox="0 0 29 29" fill="none" xmlns="http://www.w3.org/2000/svg">
<rect x="0.693481" y="0.828613" width="27.9443" height="27.9443" rx="5.23955" fill="white"/>
<path d="M14.2435 16.7385C13.8091 16.7385 13.3843 16.6097 13.0231 16.3683C12.6618 16.1269 12.3802 15.7838 12.214 15.3824C12.0477 14.981 12.0042 14.5393 12.089 14.1131C12.1737 13.687 12.383 13.2956 12.6902 12.9883C12.9974 12.6811 13.3888 12.4719 13.815 12.3871C14.2411 12.3024 14.6828 12.3459 15.0842 12.5121C15.4856 12.6784 15.8287 12.96 16.0701 13.3212C16.3115 13.6825 16.4403 14.1072 16.4403 14.5417C16.4383 15.1237 16.2062 15.6813 15.7946 16.0928C15.3831 16.5043 14.8255 16.7364 14.2435 16.7385ZM16.4403 8.26515C16.4403 7.83067 16.3115 7.40594 16.0701 7.04468C15.8287 6.68342 15.4856 6.40185 15.0842 6.23558C14.6828 6.06931 14.2411 6.02581 13.815 6.11057C13.3888 6.19533 12.9974 6.40456 12.6902 6.71179C12.383 7.01901 12.1737 7.41044 12.089 7.83658C12.0042 8.26272 12.0477 8.70442 12.214 9.10583C12.3802 9.50724 12.6618 9.85033 13.0231 10.0917C13.3843 10.3331 13.8091 10.4619 14.2435 10.4619C14.8255 10.4599 15.3831 10.2278 15.7946 9.81624C16.2062 9.4047 16.4383 8.84714 16.4403 8.26515ZM16.4403 20.8183C16.4403 20.3838 16.3115 19.959 16.0701 19.5978C15.8287 19.2365 15.4856 18.955 15.0842 18.7887C14.6828 18.6224 14.2411 18.5789 13.815 18.6637C13.3888 18.7484 12.9974 18.9577 12.6902 19.2649C12.383 19.5721 12.1737 19.9635 12.089 20.3897C12.0042 20.8158 12.0477 21.2575 12.214 21.6589C12.3802 22.0603 12.6618 22.4034 13.0231 22.6448C13.3843 22.8862 13.8091 23.015 14.2435 23.015C14.8255 23.013 15.3831 22.7809 15.7946 22.3693C16.2062 21.9578 16.4383 21.4002 16.4403 20.8183Z" fill="#B6B6B6"/>
</svg>
