<svg width="14" height="14" viewBox="0 0 14 14" fill="none" xmlns="http://www.w3.org/2000/svg">
<path d="M9.91732 3.50004C9.91732 5.11087 8.61148 6.41671 7.00065 6.41671C5.38982 6.41671 4.08398 5.11087 4.08398 3.50004C4.08398 1.88921 5.38982 0.583374 7.00065 0.583374C8.61148 0.583374 9.91732 1.88921 9.91732 3.50004Z" fill="#5E6278"/>
<path opacity="0.25" fill-rule="evenodd" clip-rule="evenodd" d="M10.9772 8.23942C10.6176 7.82252 9.99998 7.844 9.51705 8.10833C8.76973 8.51738 7.91202 8.74994 7 8.74994C6.08798 8.74994 5.23027 8.51738 4.48295 8.10833C4.00001 7.844 3.38241 7.82252 3.02284 8.23942C2.22963 9.15909 1.75 10.3568 1.75 11.6666V12.2499C1.75 12.8943 2.27233 13.4166 2.91667 13.4166H11.0833C11.7277 13.4166 12.25 12.8943 12.25 12.2499V11.6666C12.25 10.3568 11.7704 9.15909 10.9772 8.23942Z" fill="#5E6278"/>
</svg>
