<svg width="30" height="30" viewBox="0 0 30 30" fill="none" xmlns="http://www.w3.org/2000/svg">
<g clip-path="url(#clip0_1154_632)">
<path d="M13.7655 7.50293C14.3318 8.27378 14.6149 9.19322 14.6149 10.2687C14.6149 11.3739 14.3318 12.2655 13.758 12.9379C13.4355 13.3112 12.9648 13.6567 12.3423 13.9669C13.2873 14.305 13.9999 14.8381 14.4856 15.5662C14.9656 16.2943 15.2075 17.1803 15.2075 18.2205C15.2075 19.2941 14.9318 20.2581 14.3806 21.1088C14.0318 21.6717 13.593 22.149 13.0679 22.5335C12.4773 22.9756 11.7797 23.2784 10.9734 23.4437C10.1671 23.6071 9.29514 23.687 8.35381 23.687H0V5.57117H8.95948C11.2209 5.6046 12.8204 6.24728 13.7655 7.50293ZM3.69593 8.71771V12.715H8.2038C9.00636 12.715 9.66079 12.5645 10.1652 12.2655C10.6659 11.9664 10.919 11.4352 10.919 10.6755C10.919 9.82847 10.5871 9.27309 9.92331 9.00004C9.34952 8.81244 8.61821 8.71771 7.73126 8.71771H3.69593ZM3.69593 15.7129V20.5442H8.19817C9.00261 20.5442 9.63079 20.4383 10.0771 20.2247C10.8909 19.8272 11.2959 19.0768 11.2959 17.9623C11.2959 17.0169 10.904 16.3705 10.1165 16.0175C9.67392 15.8225 9.05512 15.7185 8.26005 15.7129H3.69593ZM26.4153 10.564C27.3735 10.982 28.1611 11.6432 28.7817 12.5459C29.348 13.3428 29.7118 14.266 29.8768 15.3154C29.9743 15.9284 30.0118 16.8181 29.9968 17.9753H20.0079C20.0679 19.3183 20.5404 20.2618 21.4443 20.8005C21.9918 21.1367 22.6481 21.3057 23.4225 21.3057C24.2364 21.3057 24.9002 21.1014 25.4102 20.6928C25.6915 20.4699 25.9371 20.1634 26.149 19.7715H29.8093C29.7118 20.5646 29.2674 21.3726 28.4817 22.1936C27.2535 23.4938 25.534 24.1458 23.3232 24.1458C21.4968 24.1458 19.8879 23.5979 18.4946 22.4982C17.0958 21.4005 16.4001 19.6117 16.4001 17.1357C16.4001 14.8139 17.0301 13.0326 18.2884 11.7937C19.5504 10.5585 21.1817 9.93621 23.19 9.93621C24.3864 9.93435 25.4608 10.1442 26.4153 10.564ZM21.0542 13.5898C20.5479 14.1006 20.2292 14.7916 20.0979 15.6628H26.2765C26.2109 14.7322 25.8902 14.0282 25.3221 13.5434C24.7464 13.0623 24.0395 12.8227 23.1938 12.8227C22.2768 12.8246 21.5605 13.0809 21.0542 13.5898ZM19.1716 8.67127H27.1166V6.41631H19.1716V8.67127Z" fill="#1976D2"/>
</g>
<defs>
<clipPath id="clip0_1154_632">
<rect width="30" height="29.717" fill="white"/>
</clipPath>
</defs>
</svg>
