<svg width="23" height="25" viewBox="0 0 23 25" fill="none" xmlns="http://www.w3.org/2000/svg">
<path d="M21.1135 17.4164C19.608 16.1149 18.5314 12.6563 18.5314 8.59377C18.5314 5.51876 16.5549 2.91174 13.8049 1.95706C13.6197 0.847657 12.6619 0 11.5002 0C10.3385 0 9.38067 0.847657 9.19549 1.95703C6.44549 2.9117 4.46895 5.51876 4.46895 8.59377C4.46895 12.6555 3.39317 16.1133 1.88691 17.4164C1.04629 18.1438 0.562683 19.2 0.562683 20.3125C0.562683 21.6071 1.6119 22.6563 2.90642 22.6563H9.15642C9.15642 23.9508 10.2056 25 11.5002 25C12.7947 25 13.8439 23.9508 13.8439 22.6563H20.0939C21.3884 22.6563 22.4376 21.607 22.4376 20.3125C22.4377 19.2008 21.9549 18.1438 21.1135 17.4164ZM2.90642 20.3125C2.90642 19.8813 3.09393 19.4711 3.4197 19.1891C5.51266 17.3797 6.81265 13.3195 6.81265 8.59374C6.81265 6.00859 8.91501 3.90623 11.5002 3.90623C14.0853 3.90623 16.1877 6.00859 16.1877 8.59374C16.1877 13.3195 17.4877 17.3797 19.5807 19.1891C19.9072 19.4719 20.0939 19.8812 20.0939 20.3125H2.90642Z" fill="white"/>
</svg>
