<svg width="82" height="27" viewBox="0 0 82 27" fill="none" xmlns="http://www.w3.org/2000/svg">
<rect y="0.598478" width="82" height="26" rx="6" fill="white"/>
<path d="M15.8691 13.8543H13.6777L13.666 12.6473H15.5059C15.8301 12.6473 16.0957 12.6063 16.3027 12.5243C16.5098 12.4383 16.6641 12.3153 16.7656 12.1551C16.8711 11.9911 16.9238 11.7918 16.9238 11.5575C16.9238 11.2918 16.873 11.077 16.7715 10.9129C16.6738 10.7489 16.5195 10.6297 16.3086 10.5555C16.1016 10.4813 15.834 10.4442 15.5059 10.4442H14.2871V17.5985H12.5293V9.06723H15.5059C16.002 9.06723 16.4453 9.1141 16.8359 9.20785C17.2305 9.3016 17.5645 9.44418 17.8379 9.63559C18.1113 9.82699 18.3203 10.0692 18.4648 10.3622C18.6094 10.6512 18.6816 10.995 18.6816 11.3934C18.6816 11.745 18.6016 12.0692 18.4414 12.3661C18.2852 12.6629 18.0371 12.9051 17.6973 13.0926C17.3613 13.2801 16.9219 13.3836 16.3789 13.4032L15.8691 13.8543ZM15.793 17.5985H13.1973L13.8828 16.2274H15.793C16.1016 16.2274 16.3535 16.1786 16.5488 16.0809C16.7441 15.9793 16.8887 15.8426 16.9824 15.6707C17.0762 15.4989 17.123 15.3016 17.123 15.0789C17.123 14.8289 17.0801 14.6122 16.9941 14.4286C16.9121 14.245 16.7793 14.1043 16.5957 14.0067C16.4121 13.9051 16.1699 13.8543 15.8691 13.8543H14.1758L14.1875 12.6473H16.2969L16.7012 13.1219C17.2207 13.1141 17.6387 13.2059 17.9551 13.3973C18.2754 13.5848 18.5078 13.8289 18.6523 14.1297C18.8008 14.4305 18.875 14.7528 18.875 15.0965C18.875 15.6434 18.7559 16.1043 18.5176 16.4793C18.2793 16.8504 17.9297 17.1297 17.4688 17.3172C17.0117 17.5047 16.4531 17.5985 15.793 17.5985ZM23.0059 17.7157C22.5137 17.7157 22.0723 17.6375 21.6816 17.4813C21.291 17.3211 20.959 17.1004 20.6855 16.8192C20.416 16.5379 20.209 16.2118 20.0645 15.8407C19.9199 15.4657 19.8477 15.0672 19.8477 14.6454V14.411C19.8477 13.9305 19.916 13.4911 20.0527 13.0926C20.1895 12.6942 20.3848 12.3485 20.6387 12.0555C20.8965 11.7625 21.209 11.5379 21.5762 11.3817C21.9434 11.2215 22.3574 11.1414 22.8184 11.1414C23.2676 11.1414 23.666 11.2157 24.0137 11.3641C24.3613 11.5125 24.6523 11.7235 24.8867 11.9969C25.125 12.2704 25.3047 12.5985 25.4258 12.9813C25.5469 13.3602 25.6074 13.7821 25.6074 14.2469V14.95H20.5684V13.825H23.9492V13.6961C23.9492 13.4618 23.9062 13.2528 23.8203 13.0692C23.7383 12.8817 23.6133 12.7332 23.4453 12.6239C23.2773 12.5145 23.0625 12.4598 22.8008 12.4598C22.5781 12.4598 22.3867 12.5086 22.2266 12.6063C22.0664 12.7039 21.9355 12.8407 21.834 13.0164C21.7363 13.1922 21.6621 13.3993 21.6113 13.6375C21.5645 13.8719 21.541 14.1297 21.541 14.411V14.6454C21.541 14.8993 21.5762 15.1336 21.6465 15.3485C21.7207 15.5633 21.8242 15.7489 21.957 15.9051C22.0938 16.0614 22.2578 16.1825 22.4492 16.2684C22.6445 16.3543 22.8652 16.3973 23.1113 16.3973C23.416 16.3973 23.6992 16.3387 23.9609 16.2215C24.2266 16.1004 24.4551 15.9188 24.6465 15.6766L25.4668 16.5672C25.334 16.7586 25.1523 16.9422 24.9219 17.118C24.6953 17.2938 24.4219 17.4383 24.1016 17.5516C23.7812 17.661 23.416 17.7157 23.0059 17.7157ZM29.9961 15.8465C29.9961 15.7254 29.9609 15.6161 29.8906 15.5184C29.8203 15.4207 29.6895 15.3309 29.498 15.2489C29.3105 15.1629 29.0391 15.0848 28.6836 15.0145C28.3633 14.9442 28.0645 14.8563 27.7871 14.7508C27.5137 14.6414 27.2754 14.5106 27.0723 14.3582C26.873 14.2059 26.7168 14.0262 26.6035 13.8192C26.4902 13.6082 26.4336 13.368 26.4336 13.0985C26.4336 12.8329 26.4902 12.5829 26.6035 12.3485C26.7207 12.1141 26.8867 11.9071 27.1016 11.7274C27.3203 11.5438 27.5859 11.4012 27.8984 11.2997C28.2148 11.1942 28.5703 11.1414 28.9648 11.1414C29.5156 11.1414 29.9883 11.2293 30.3828 11.4051C30.7812 11.5809 31.0859 11.8231 31.2969 12.1317C31.5117 12.4364 31.6191 12.784 31.6191 13.1747H29.9316C29.9316 13.0106 29.8965 12.8641 29.8262 12.7352C29.7598 12.6024 29.6543 12.4989 29.5098 12.4247C29.3691 12.3465 29.1855 12.3075 28.959 12.3075C28.7715 12.3075 28.6094 12.3407 28.4727 12.4071C28.3359 12.4696 28.2305 12.5555 28.1562 12.6649C28.0859 12.7704 28.0508 12.8875 28.0508 13.0164C28.0508 13.1141 28.0703 13.202 28.1094 13.2801C28.1523 13.3543 28.2207 13.4227 28.3145 13.4852C28.4082 13.5477 28.5293 13.6063 28.6777 13.661C28.8301 13.7118 29.0176 13.7586 29.2402 13.8016C29.6973 13.8954 30.1055 14.0184 30.4648 14.1707C30.8242 14.3192 31.1094 14.5223 31.3203 14.7801C31.5312 15.034 31.6367 15.368 31.6367 15.7821C31.6367 16.0633 31.5742 16.3211 31.4492 16.5555C31.3242 16.7899 31.1445 16.995 30.9102 17.1707C30.6758 17.3426 30.3945 17.4774 30.0664 17.575C29.7422 17.6688 29.377 17.7157 28.9707 17.7157C28.3809 17.7157 27.8809 17.6102 27.4707 17.3993C27.0645 17.1883 26.7559 16.9207 26.5449 16.5965C26.3379 16.2684 26.2344 15.9325 26.2344 15.5887H27.834C27.8418 15.8192 27.9004 16.0047 28.0098 16.1454C28.123 16.286 28.2656 16.3875 28.4375 16.45C28.6133 16.5125 28.8027 16.5438 29.0059 16.5438C29.2246 16.5438 29.4062 16.5145 29.5508 16.4559C29.6953 16.3934 29.8047 16.3114 29.8789 16.2098C29.957 16.1043 29.9961 15.9832 29.9961 15.8465ZM35.8379 11.2586V12.4539H32.1465V11.2586H35.8379ZM33.0605 9.69418H34.748V15.6883C34.748 15.8719 34.7715 16.0125 34.8184 16.1102C34.8691 16.2079 34.9434 16.2762 35.041 16.3153C35.1387 16.3504 35.2617 16.368 35.4102 16.368C35.5156 16.368 35.6094 16.3641 35.6914 16.3563C35.7773 16.3446 35.8496 16.3329 35.9082 16.3211L35.9141 17.5633C35.7695 17.6102 35.6133 17.6473 35.4453 17.6747C35.2773 17.702 35.0918 17.7157 34.8887 17.7157C34.5176 17.7157 34.1934 17.6551 33.916 17.534C33.6426 17.409 33.4316 17.2098 33.2832 16.9364C33.1348 16.6629 33.0605 16.3036 33.0605 15.8582V9.69418ZM44.334 15.3661C44.334 15.2137 44.3105 15.077 44.2637 14.9559C44.2207 14.8309 44.1387 14.7176 44.0176 14.6161C43.8965 14.5106 43.7266 14.4071 43.5078 14.3055C43.2891 14.2039 43.0059 14.0985 42.6582 13.9891C42.2715 13.8641 41.9043 13.7235 41.5566 13.5672C41.2129 13.411 40.9082 13.2293 40.6426 13.0223C40.3809 12.8114 40.1738 12.5672 40.0215 12.2899C39.873 12.0125 39.7988 11.6903 39.7988 11.3231C39.7988 10.9676 39.877 10.6454 40.0332 10.3563C40.1895 10.0633 40.4082 9.81332 40.6895 9.60629C40.9707 9.39535 41.3027 9.23324 41.6855 9.11996C42.0723 9.00668 42.4961 8.95004 42.957 8.95004C43.5859 8.95004 44.1348 9.06332 44.6035 9.28988C45.0723 9.51645 45.4355 9.82699 45.6934 10.2215C45.9551 10.6161 46.0859 11.0672 46.0859 11.575H44.3398C44.3398 11.325 44.2871 11.1063 44.1816 10.9188C44.0801 10.7274 43.9238 10.577 43.7129 10.4676C43.5059 10.3582 43.2441 10.3036 42.9277 10.3036C42.623 10.3036 42.3691 10.3504 42.166 10.4442C41.9629 10.534 41.8105 10.6571 41.709 10.8133C41.6074 10.9657 41.5566 11.1375 41.5566 11.3289C41.5566 11.4735 41.5918 11.6043 41.6621 11.7215C41.7363 11.8387 41.8457 11.9481 41.9902 12.0497C42.1348 12.1512 42.3125 12.2469 42.5234 12.3368C42.7344 12.4266 42.9785 12.5145 43.2559 12.6004C43.7207 12.7411 44.1289 12.8993 44.4805 13.075C44.8359 13.2508 45.1328 13.4481 45.3711 13.6668C45.6094 13.8856 45.7891 14.1336 45.9102 14.411C46.0312 14.6883 46.0918 15.0028 46.0918 15.3543C46.0918 15.7254 46.0195 16.0575 45.875 16.3504C45.7305 16.6434 45.5215 16.8914 45.248 17.0946C44.9746 17.2977 44.6484 17.452 44.2695 17.5575C43.8906 17.6629 43.4668 17.7157 42.998 17.7157C42.5762 17.7157 42.1602 17.661 41.75 17.5516C41.3398 17.4383 40.9668 17.2684 40.6309 17.0418C40.2988 16.8153 40.0332 16.5262 39.834 16.1747C39.6348 15.8231 39.5352 15.4071 39.5352 14.9266H41.2988C41.2988 15.1922 41.3398 15.4168 41.4219 15.6004C41.5039 15.784 41.6191 15.9325 41.7676 16.0457C41.9199 16.159 42.0996 16.2411 42.3066 16.2918C42.5176 16.3426 42.748 16.368 42.998 16.368C43.3027 16.368 43.5527 16.325 43.748 16.2391C43.9473 16.1532 44.0938 16.034 44.1875 15.8817C44.2852 15.7293 44.334 15.5575 44.334 15.3661ZM50.0996 17.7157C49.6074 17.7157 49.166 17.6375 48.7754 17.4813C48.3848 17.3211 48.0527 17.1004 47.7793 16.8192C47.5098 16.5379 47.3027 16.2118 47.1582 15.8407C47.0137 15.4657 46.9414 15.0672 46.9414 14.6454V14.411C46.9414 13.9305 47.0098 13.4911 47.1465 13.0926C47.2832 12.6942 47.4785 12.3485 47.7324 12.0555C47.9902 11.7625 48.3027 11.5379 48.6699 11.3817C49.0371 11.2215 49.4512 11.1414 49.9121 11.1414C50.3613 11.1414 50.7598 11.2157 51.1074 11.3641C51.4551 11.5125 51.7461 11.7235 51.9805 11.9969C52.2188 12.2704 52.3984 12.5985 52.5195 12.9813C52.6406 13.3602 52.7012 13.7821 52.7012 14.2469V14.95H47.6621V13.825H51.043V13.6961C51.043 13.4618 51 13.2528 50.9141 13.0692C50.832 12.8817 50.707 12.7332 50.5391 12.6239C50.3711 12.5145 50.1562 12.4598 49.8945 12.4598C49.6719 12.4598 49.4805 12.5086 49.3203 12.6063C49.1602 12.7039 49.0293 12.8407 48.9277 13.0164C48.8301 13.1922 48.7559 13.3993 48.7051 13.6375C48.6582 13.8719 48.6348 14.1297 48.6348 14.411V14.6454C48.6348 14.8993 48.6699 15.1336 48.7402 15.3485C48.8145 15.5633 48.918 15.7489 49.0508 15.9051C49.1875 16.0614 49.3516 16.1825 49.543 16.2684C49.7383 16.3543 49.959 16.3973 50.2051 16.3973C50.5098 16.3973 50.793 16.3387 51.0547 16.2215C51.3203 16.1004 51.5488 15.9188 51.7402 15.6766L52.5605 16.5672C52.4277 16.7586 52.2461 16.9422 52.0156 17.118C51.7891 17.2938 51.5156 17.4383 51.1953 17.5516C50.875 17.661 50.5098 17.7157 50.0996 17.7157ZM55.4434 8.59848V17.5985H53.75V8.59848H55.4434ZM58.6191 8.59848V17.5985H56.9258V8.59848H58.6191ZM62.9316 17.7157C62.4395 17.7157 61.998 17.6375 61.6074 17.4813C61.2168 17.3211 60.8848 17.1004 60.6113 16.8192C60.3418 16.5379 60.1348 16.2118 59.9902 15.8407C59.8457 15.4657 59.7734 15.0672 59.7734 14.6454V14.411C59.7734 13.9305 59.8418 13.4911 59.9785 13.0926C60.1152 12.6942 60.3105 12.3485 60.5645 12.0555C60.8223 11.7625 61.1348 11.5379 61.502 11.3817C61.8691 11.2215 62.2832 11.1414 62.7441 11.1414C63.1934 11.1414 63.5918 11.2157 63.9395 11.3641C64.2871 11.5125 64.5781 11.7235 64.8125 11.9969C65.0508 12.2704 65.2305 12.5985 65.3516 12.9813C65.4727 13.3602 65.5332 13.7821 65.5332 14.2469V14.95H60.4941V13.825H63.875V13.6961C63.875 13.4618 63.832 13.2528 63.7461 13.0692C63.6641 12.8817 63.5391 12.7332 63.3711 12.6239C63.2031 12.5145 62.9883 12.4598 62.7266 12.4598C62.5039 12.4598 62.3125 12.5086 62.1523 12.6063C61.9922 12.7039 61.8613 12.8407 61.7598 13.0164C61.6621 13.1922 61.5879 13.3993 61.5371 13.6375C61.4902 13.8719 61.4668 14.1297 61.4668 14.411V14.6454C61.4668 14.8993 61.502 15.1336 61.5723 15.3485C61.6465 15.5633 61.75 15.7489 61.8828 15.9051C62.0195 16.0614 62.1836 16.1825 62.375 16.2684C62.5703 16.3543 62.791 16.3973 63.0371 16.3973C63.3418 16.3973 63.625 16.3387 63.8867 16.2215C64.1523 16.1004 64.3809 15.9188 64.5723 15.6766L65.3926 16.5672C65.2598 16.7586 65.0781 16.9422 64.8477 17.118C64.6211 17.2938 64.3477 17.4383 64.0273 17.5516C63.707 17.661 63.3418 17.7157 62.9316 17.7157ZM68.1816 12.6414V17.5985H66.4941V11.2586H68.082L68.1816 12.6414ZM70.0918 11.2176L70.0625 12.7821C69.9805 12.7704 69.8809 12.7606 69.7637 12.7528C69.6504 12.7411 69.5469 12.7352 69.4531 12.7352C69.2148 12.7352 69.0078 12.7664 68.832 12.8289C68.6602 12.8875 68.5156 12.9754 68.3984 13.0926C68.2852 13.2098 68.1992 13.3524 68.1406 13.5204C68.0859 13.6883 68.0547 13.8797 68.0469 14.0946L67.707 13.9891C67.707 13.5789 67.748 13.202 67.8301 12.8582C67.9121 12.5106 68.0312 12.2079 68.1875 11.95C68.3477 11.6922 68.543 11.493 68.7734 11.3524C69.0039 11.2118 69.2676 11.1414 69.5645 11.1414C69.6582 11.1414 69.7539 11.1493 69.8516 11.1649C69.9492 11.1766 70.0293 11.1942 70.0918 11.2176Z" fill="#50CD89"/>
</svg>
