<svg width="19" height="19" viewBox="0 0 19 19" fill="none" xmlns="http://www.w3.org/2000/svg">
<path opacity="0.3" fill-rule="evenodd" clip-rule="evenodd" d="M3.95801 5.54167C3.95801 7.29057 5.37577 8.70833 7.12467 8.70833C8.87358 8.70833 10.2913 7.29057 10.2913 5.54167C10.2913 3.79277 8.87358 2.375 7.12467 2.375C5.37577 2.375 3.95801 3.79277 3.95801 5.54167ZM11.8747 8.70834C11.8747 10.02 12.938 11.0833 14.2497 11.0833C15.5614 11.0833 16.6247 10.02 16.6247 8.70834C16.6247 7.39666 15.5614 6.33334 14.2497 6.33334C12.938 6.33334 11.8747 7.39666 11.8747 8.70834Z" fill="#D8D8D8"/>
<path fill-rule="evenodd" clip-rule="evenodd" d="M7.11181 10.2916C3.37401 10.2916 0.307371 12.2126 0.000515917 15.991C-0.0161989 16.1968 0.377397 16.625 0.575939 16.625H13.6536C14.2483 16.625 14.2576 16.1464 14.2484 15.9916C14.0164 12.1071 10.9022 10.2916 7.11181 10.2916ZM18.5694 16.625H15.5169V16.625C15.5169 14.843 14.9281 13.1985 13.9345 11.8755C16.6312 11.905 18.8332 13.2685 18.9989 16.15C19.0056 16.266 18.9989 16.625 18.5694 16.625Z" fill="#D8D8D8"/>
</svg>
