<svg width="32" height="32" viewBox="0 0 32 32" fill="none" xmlns="http://www.w3.org/2000/svg">
<rect width="32" height="32" rx="6" fill="#F3F6F9"/>
<path d="M22.1381 10.9856C22.7155 11.563 22.725 12.4962 22.1594 13.0852L16.7425 18.7263C16.4672 19.013 16.0894 19.1787 15.6921 19.1871L13.4167 19.2348L13.4648 16.9442C13.4729 16.5559 13.6314 16.1859 13.9068 15.912L19.4439 10.4066C20.0301 9.82369 20.9775 9.82505 21.5621 10.4096L22.1381 10.9856Z" fill="#3699FF"/>
<path opacity="0.3" d="M16.6 9.33398C16.9682 9.33398 17.2667 9.63246 17.2667 10.0007C17.2667 10.3688 16.9682 10.6673 16.6 10.6673H12C11.2636 10.6673 10.6667 11.2643 10.6667 12.0007V20.0007C10.6667 20.737 11.2636 21.334 12 21.334H20C20.7364 21.334 21.3333 20.737 21.3333 20.0007V16.6673C21.3333 16.2991 21.6318 16.0007 22 16.0007C22.3682 16.0007 22.6667 16.2991 22.6667 16.6673V20.0007C22.6667 21.4734 21.4728 22.6673 20 22.6673H12C10.5273 22.6673 9.33334 21.4734 9.33334 20.0007V12.0007C9.33334 10.5279 10.5273 9.33398 12 9.33398H16.6Z" fill="#3699FF"/>
</svg>
