<svg width="25" height="25" viewBox="0 0 25 25" fill="none" xmlns="http://www.w3.org/2000/svg">
<path d="M23.9357 0.0771484H20.5448C20.0662 0.0771484 19.6437 0.341899 19.5367 0.820485L15.8812 14.2209H5.08241L2.48582 6.32933H13.9821C14.5625 6.32933 15.0411 5.85074 15.0411 5.27032C15.0411 4.68991 14.5625 4.21132 13.9821 4.21132H1.05516C0.265997 4.21132 -0.146402 4.98521 0.0470689 5.58599L3.33099 15.6007C3.48882 16.0233 3.9114 16.288 4.33908 16.288H16.6296C17.1082 16.288 17.5308 15.9723 17.6886 15.6007L21.3442 2.20024H23.9408C24.5212 2.20024 24.9998 1.72165 24.9998 1.14124C24.9998 0.560827 24.5212 0.0771484 23.9357 0.0771484Z" fill="white"/>
<path d="M14.4553 17.8256C12.4951 17.8256 10.9066 19.4141 10.9066 21.3742C10.9066 23.3344 12.4951 24.9229 14.4553 24.9229C16.4664 24.9229 18.004 23.3344 18.004 21.3742C18.004 19.4141 16.4155 17.8256 14.4553 17.8256ZM14.4553 22.7998C13.661 22.7998 12.9737 22.1125 12.9737 21.3182C12.9737 20.524 13.6101 19.8366 14.4553 19.8366C15.3004 19.8366 15.9369 20.524 15.9369 21.3182C15.9369 22.1125 15.3004 22.7998 14.4553 22.7998Z" fill="white"/>
<path d="M6.45651 17.8256C4.49634 17.8256 2.90784 19.4141 2.90784 21.3742C2.90784 23.3344 4.49634 24.9229 6.45651 24.9229C8.41667 24.9229 10.0052 23.3344 10.0052 21.3742C10.0052 19.4141 8.41667 17.8256 6.45651 17.8256ZM6.45651 22.7998C5.66226 22.7998 4.97492 22.1125 4.97492 21.3182C4.97492 20.524 5.61134 19.8366 6.45651 19.8366C7.25075 19.8366 7.93809 20.524 7.93809 21.3182C7.93809 22.1125 7.30167 22.7998 6.45651 22.7998Z" fill="white"/>
</svg>
