<svg width="12" height="12" viewBox="0 0 12 12" fill="none" xmlns="http://www.w3.org/2000/svg">
<path opacity="0.5" d="M10.9428 3.21142C11.1574 2.95894 11.5361 2.92824 11.7886 3.14285C12.0411 3.35746 12.0718 3.73612 11.8572 3.9886L6.75716 9.98859C6.53918 10.245 6.15294 10.2721 5.90138 10.0484L3.20138 7.64845C2.95371 7.4283 2.93141 7.04906 3.15156 6.80139C3.37171 6.55372 3.75095 6.53141 3.99862 6.75156L6.24013 8.74401L10.9428 3.21142Z" fill="white"/>
<path d="M7.94283 3.81143C8.15744 3.55895 8.53609 3.52824 8.78858 3.74286C9.04106 3.95747 9.07176 4.33612 8.85715 4.58861L3.75716 10.5886C3.53918 10.845 3.15294 10.8721 2.90138 10.6485L0.201384 8.24846C-0.0462856 8.02831 -0.0685949 7.64906 0.151556 7.4014C0.371706 7.15373 0.75095 7.13142 0.998619 7.35157L3.24013 9.34402L7.94283 3.81143Z" fill="white"/>
</svg>
