<svg width="166" height="27" viewBox="0 0 166 27" fill="none" xmlns="http://www.w3.org/2000/svg">
<path d="M25.8251 6.39394C26.4154 8.69569 26.4154 13.5007 26.4154 13.5007C26.4154 13.5007 26.4154 18.3057 25.8251 20.6074C25.497 21.8797 24.5373 22.8808 23.3218 23.2192C21.1144 23.834 13.4987 23.834 13.4987 23.834C13.4987 23.834 5.88691 23.834 3.67557 23.2192C2.45495 22.8756 1.49653 21.8759 1.17232 20.6074C0.582031 18.3057 0.582031 13.5007 0.582031 13.5007C0.582031 13.5007 0.582031 8.69569 1.17232 6.39394C1.50041 5.12165 2.46011 4.12061 3.67557 3.78219C5.88691 3.16736 13.4987 3.16736 13.4987 3.16736C13.4987 3.16736 21.1144 3.16736 23.3218 3.78219C24.5424 4.12577 25.5009 5.12553 25.8251 6.39394ZM10.9154 18.0215L18.6654 13.5007L10.9154 8.97986V18.0215Z" fill="#FF4B55"/>
<path d="M76.2571 5.12875C75.2435 5.56919 74.1635 5.86113 73.0374 6.00288C74.1958 5.31775 75.08 4.24113 75.4956 2.94344C74.4156 3.58132 73.2231 4.03188 71.9522 4.28332C70.9267 3.20163 69.465 2.53169 67.8705 2.53169C64.7768 2.53169 62.2862 5.01907 62.2862 8.06838C62.2862 8.50713 62.3236 8.929 62.4156 9.33063C57.77 9.10619 53.6593 6.90063 50.8978 3.54082C50.4157 4.36938 50.1329 5.31775 50.1329 6.33869C50.1329 8.25569 51.1295 9.955 52.615 10.9388C51.7172 10.9219 50.8364 10.6638 50.0903 10.2571C50.0903 10.2739 50.0903 10.2959 50.0903 10.3178C50.0903 13.0077 52.0272 15.2419 54.5673 15.7566C54.1124 15.8798 53.6167 15.9389 53.1022 15.9389C52.7445 15.9389 52.3833 15.9186 52.0443 15.8444C52.7683 18.0364 54.8228 19.648 57.2657 19.7003C55.3645 21.1735 52.9506 22.0611 50.3373 22.0611C49.879 22.0611 49.4395 22.0409 49 21.9852C51.4753 23.5664 54.4088 24.4692 57.5724 24.4692C67.8551 24.4692 73.4769 16.0317 73.4769 8.71807C73.4769 8.47338 73.4684 8.23713 73.4565 8.00257C74.5655 7.22294 75.4974 6.24925 76.2571 5.12875Z" fill="#03A9F4"/>
<path d="M107.591 3C110.67 3 111.055 3.01133 112.263 3.068C113.47 3.12467 114.291 3.31393 115.014 3.595C115.762 3.88287 116.393 4.27273 117.023 4.90173C117.599 5.46828 118.045 6.1536 118.329 6.91C118.609 7.63193 118.8 8.45473 118.856 9.66173C118.91 10.8699 118.924 11.2541 118.924 14.3333C118.924 17.4126 118.913 17.7968 118.856 19.0049C118.8 20.2119 118.609 21.0336 118.329 21.7567C118.046 22.5135 117.6 23.199 117.023 23.7649C116.456 24.341 115.771 24.7869 115.014 25.0717C114.293 25.3516 113.47 25.542 112.263 25.5987C111.055 25.6519 110.67 25.6667 107.591 25.6667C104.512 25.6667 104.128 25.6553 102.92 25.5987C101.713 25.542 100.891 25.3516 100.168 25.0717C99.4111 24.7877 98.7257 24.3417 98.1595 23.7649C97.5831 23.1985 97.1372 22.5131 96.8528 21.7567C96.5717 21.0347 96.3825 20.2119 96.3258 19.0049C96.2725 17.7968 96.2578 17.4126 96.2578 14.3333C96.2578 11.2541 96.2691 10.8699 96.3258 9.66173C96.3825 8.4536 96.5717 7.63307 96.8528 6.91C97.1364 6.15314 97.5825 5.46763 98.1595 4.90173C98.7258 4.32513 99.4112 3.87916 100.168 3.595C100.891 3.31393 101.711 3.12467 102.92 3.068C104.128 3.01473 104.512 3 107.591 3ZM107.591 8.66667C106.088 8.66667 104.647 9.26369 103.584 10.3264C102.522 11.3891 101.924 12.8304 101.924 14.3333C101.924 15.8362 102.522 17.2776 103.584 18.3403C104.647 19.403 106.088 20 107.591 20C109.094 20 110.535 19.403 111.598 18.3403C112.661 17.2776 113.258 15.8362 113.258 14.3333C113.258 12.8304 112.661 11.3891 111.598 10.3264C110.535 9.26369 109.094 8.66667 107.591 8.66667ZM114.958 8.38333C114.958 8.00761 114.809 7.64728 114.543 7.3816C114.277 7.11592 113.917 6.96667 113.541 6.96667C113.165 6.96667 112.805 7.11592 112.539 7.3816C112.274 7.64728 112.124 8.00761 112.124 8.38333C112.124 8.75906 112.274 9.11939 112.539 9.38507C112.805 9.65074 113.165 9.8 113.541 9.8C113.917 9.8 114.277 9.65074 114.543 9.38507C114.809 9.11939 114.958 8.75906 114.958 8.38333ZM107.591 10.9333C108.493 10.9333 109.358 11.2915 109.995 11.9292C110.633 12.5668 110.991 13.4316 110.991 14.3333C110.991 15.2351 110.633 16.0999 109.995 16.7375C109.358 17.3751 108.493 17.7333 107.591 17.7333C106.689 17.7333 105.825 17.3751 105.187 16.7375C104.549 16.0999 104.191 15.2351 104.191 14.3333C104.191 13.4316 104.549 12.5668 105.187 11.9292C105.825 11.2915 106.689 10.9333 107.591 10.9333Z" fill="url(#paint0_linear_5042_4661)"/>
<path d="M152.426 0C144.97 0 138.926 6.08074 138.926 13.5822C138.926 20.361 143.863 25.98 150.317 27V17.5074H146.888V13.5822H150.317V10.59C150.317 7.18633 152.331 5.30656 155.416 5.30656C156.893 5.30656 158.437 5.57141 158.437 5.57141V8.91262H156.736C155.058 8.91262 154.536 9.95981 154.536 11.0342V13.5822H158.279L157.681 17.5074H154.536V27C160.989 25.9813 165.926 20.3597 165.926 13.5822C165.926 6.08074 159.882 0 152.426 0Z" fill="#2583E3"/>
<defs>
<linearGradient id="paint0_linear_5042_4661" x1="119.378" y1="3" x2="96.2578" y2="26.12" gradientUnits="userSpaceOnUse">
<stop offset="0.182292" stop-color="#C643D1"/>
<stop offset="1" stop-color="#EB5D65"/>
</linearGradient>
</defs>
</svg>
