<svg width="28" height="28" viewBox="0 0 28 28" fill="none" xmlns="http://www.w3.org/2000/svg">
<g clip-path="url(#clip0_1154_625)">
<path d="M14 26.7755C21.2487 26.7755 27.125 20.9547 27.125 13.7743C27.125 6.59396 21.2487 0.773132 14 0.773132C6.75126 0.773132 0.875 6.59396 0.875 13.7743C0.875 20.9547 6.75126 26.7755 14 26.7755Z" fill="#EC407A"/>
<path d="M14 0C6.28075 0 0 6.2215 0 13.8679C0 21.5144 6.28075 27.7358 14 27.7358C21.7192 27.7358 28 21.5144 28 13.8679C28 6.2215 21.7192 0 14 0ZM26.2447 13.9719C23.2802 13.1971 20.2405 13.1069 17.3442 13.698C16.9487 12.7204 16.5217 11.7583 16.0632 10.8083C18.683 9.59487 21.105 7.94979 23.2295 5.9164C25.1038 8.04686 26.25 10.8239 26.25 13.8679C26.25 13.9026 26.2447 13.9355 26.2447 13.9719ZM21.9923 4.69256C20.0078 6.59073 17.7502 8.137 15.3038 9.26724C13.9965 6.78835 12.467 4.4204 10.7362 2.1842C11.7775 1.89817 12.8678 1.73349 14 1.73349C17.0537 1.73349 19.845 2.85333 21.9923 4.69256ZM9.00725 2.79785C10.7835 5.03752 12.3427 7.42281 13.671 9.92077C9.996 11.311 6.006 11.8449 2.01075 11.3821C2.821 7.54068 5.474 4.3684 9.00725 2.79785ZM1.75 13.8679C1.75 13.6079 1.77275 13.3531 1.79025 13.0983C2.82625 13.2196 3.86225 13.2993 4.89475 13.2993C8.18825 13.2993 11.424 12.6614 14.4567 11.4913C14.8767 12.3581 15.2723 13.2369 15.638 14.1279C11.3365 15.4073 7.504 18.1358 4.9245 21.9893C2.95925 19.8363 1.75 16.9917 1.75 13.8679ZM6.20375 23.2201C8.57675 19.5243 12.1957 16.9189 16.268 15.7401C17.374 18.7564 18.1702 21.8888 18.634 25.094C17.2043 25.6765 15.6397 26.0024 14 26.0024C11.0408 26.0024 8.323 24.9571 6.20375 23.2201ZM20.2755 24.2689C19.7943 21.2145 19.0312 18.2242 17.9865 15.3379C20.6308 14.8456 23.3975 14.9618 26.0925 15.7158C25.5273 19.3492 23.338 22.4487 20.2755 24.2689Z" fill="#C2185B"/>
</g>
<defs>
<clipPath id="clip0_1154_625">
<rect width="28" height="27.7358" fill="white"/>
</clipPath>
</defs>
</svg>
