<svg width="14" height="14" viewBox="0 0 14 14" fill="none" xmlns="http://www.w3.org/2000/svg">
<path opacity="0.25" fill-rule="evenodd" clip-rule="evenodd" d="M6.99935 2.33329C4.42202 2.33329 2.33268 4.42263 2.33268 6.99996C2.33268 9.57729 4.42202 11.6666 6.99935 11.6666C7.74543 11.6666 8.44905 11.492 9.07308 11.1819C9.36158 11.0385 9.71169 11.1561 9.85507 11.4446C9.99844 11.7331 9.88079 12.0832 9.59228 12.2266C8.81053 12.6151 7.92958 12.8333 6.99935 12.8333C3.77769 12.8333 1.16602 10.2216 1.16602 6.99996C1.16602 3.7783 3.77769 1.16663 6.99935 1.16663C10.221 1.16663 12.8327 3.7783 12.8327 6.99996V7.00516C12.8327 7.16402 12.8328 7.82333 12.6205 8.46047C12.5121 8.78562 12.3352 9.14662 12.0371 9.43147C11.7251 9.72959 11.308 9.91663 10.791 9.91663C10.4688 9.91663 10.2077 9.65546 10.2077 9.33329C10.2077 9.01113 10.4688 8.74996 10.791 8.74996C11.0032 8.74996 11.1329 8.68179 11.2311 8.58798C11.3432 8.4809 11.4397 8.31326 11.5137 8.09154C11.6635 7.64213 11.666 7.1425 11.666 6.99996C11.666 4.42263 9.57668 2.33329 6.99935 2.33329Z" fill="#5E6278"/>
<path fill-rule="evenodd" clip-rule="evenodd" d="M8.75065 7.00004C8.75065 7.96654 7.96715 8.75004 7.00065 8.75004C6.03415 8.75004 5.25065 7.96654 5.25065 7.00004C5.25065 6.03354 6.03415 5.25004 7.00065 5.25004C7.96715 5.25004 8.75065 6.03354 8.75065 7.00004ZM9.18847 8.92893C8.65402 9.53465 7.87195 9.91671 7.00065 9.91671C5.38982 9.91671 4.08398 8.61087 4.08398 7.00004C4.08398 5.38921 5.38982 4.08337 7.00065 4.08337C7.65726 4.08337 8.26319 4.30034 8.75066 4.6665C8.75077 4.34443 9.01189 4.08337 9.33399 4.08337C9.65615 4.08337 9.91732 4.34454 9.91732 4.66671C9.91732 6.15601 9.92093 7.24215 10.0851 7.96451C10.1654 8.31786 10.2692 8.50724 10.3662 8.60644C10.4435 8.68542 10.5568 8.75004 10.7923 8.75004C11.1145 8.75004 11.3757 9.01121 11.3757 9.33337C11.3757 9.65554 11.1145 9.91671 10.7923 9.91671C10.2987 9.91671 9.86513 9.76258 9.53224 9.42229C9.39065 9.27756 9.2784 9.11027 9.18847 8.92893Z" fill="#5E6278"/>
</svg>
