<svg width="18" height="18" viewBox="0 0 18 18" fill="none" xmlns="http://www.w3.org/2000/svg">
<path opacity="0.3" fill-rule="evenodd" clip-rule="evenodd" d="M9 16.5C13.1421 16.5 16.5 13.1421 16.5 9C16.5 4.85786 13.1421 1.5 9 1.5C4.85786 1.5 1.5 4.85786 1.5 9C1.5 13.1421 4.85786 16.5 9 16.5Z" fill="#A1A5B7"/>
<path fill-rule="evenodd" clip-rule="evenodd" d="M12.2087 5.84455C11.9158 5.55165 11.4409 5.55165 11.148 5.84455L9.02661 7.96593L6.90533 5.84466C6.61244 5.55176 6.13756 5.55176 5.84467 5.84466C5.55178 6.13755 5.55178 6.61242 5.84467 6.90532L7.96595 9.02659L5.84469 11.1479C5.5518 11.4407 5.5518 11.9156 5.84469 12.2085C6.13759 12.5014 6.61246 12.5014 6.90535 12.2085L9.02661 10.0873L11.148 12.2086C11.4409 12.5015 11.9157 12.5015 12.2086 12.2086C12.5015 11.9157 12.5015 11.4409 12.2086 11.148L10.0873 9.02659L12.2087 6.90521C12.5015 6.61232 12.5015 6.13744 12.2087 5.84455Z" fill="#A1A5B7"/>
</svg>
