<svg width="36" height="36" viewBox="0 0 36 36" fill="none" xmlns="http://www.w3.org/2000/svg">
<rect width="36" height="36" rx="18" fill="white"/>
<path fill-rule="evenodd" clip-rule="evenodd" d="M9 13C9 12.4477 9.44772 12 10 12L26 12C26.5523 12 27 12.4477 27 13C27 13.5523 26.5523 14 26 14L10 14C9.44772 14 9 13.5523 9 13Z" fill="#7E8299"/>
<path fill-rule="evenodd" clip-rule="evenodd" d="M9 23C9 22.4477 9.44772 22 10 22L26 22C26.5523 22 27 22.4477 27 23C27 23.5523 26.5523 24 26 24L10 24C9.44772 24 9 23.5523 9 23Z" fill="#7E8299"/>
<path fill-rule="evenodd" clip-rule="evenodd" d="M16 26C17.6569 26 19 24.6569 19 23C19 21.3431 17.6569 20 16 20C14.3431 20 13 21.3431 13 23C13 24.6569 14.3431 26 16 26Z" fill="url(#paint0_linear_561_242)"/>
<path fill-rule="evenodd" clip-rule="evenodd" d="M20 16C21.6569 16 23 14.6569 23 13C23 11.3431 21.6569 10 20 10C18.3431 10 17 11.3431 17 13C17 14.6569 18.3431 16 20 16Z" fill="url(#paint1_linear_561_242)"/>
<defs>
<linearGradient id="paint0_linear_561_242" x1="16" y1="20" x2="16" y2="26" gradientUnits="userSpaceOnUse">
<stop stop-color="#B3B3B3"/>
<stop offset="1" stop-color="#D1DAEE"/>
</linearGradient>
<linearGradient id="paint1_linear_561_242" x1="20" y1="10" x2="20" y2="16" gradientUnits="userSpaceOnUse">
<stop stop-color="#B3B3B3"/>
<stop offset="1" stop-color="#D1DAEE"/>
</linearGradient>
</defs>
</svg>
