<svg width="28" height="28" viewBox="0 0 28 28" fill="none" xmlns="http://www.w3.org/2000/svg">
<g clip-path="url(#clip0_1154_634)">
<path d="M13.9983 0.291504C6.2685 0.291504 0 6.5845 0 14.3475C0 20.5565 4.011 25.824 9.576 27.6843C10.276 27.8138 10.5315 27.3798 10.5315 27.007C10.5315 26.6728 10.5192 25.789 10.5122 24.6165C6.6185 25.4653 5.796 22.7318 5.796 22.7318C5.16075 21.1078 4.242 20.6755 4.242 20.6755C2.96975 19.804 4.3365 19.8215 4.3365 19.8215C5.74175 19.9213 6.48025 21.2705 6.48025 21.2705C7.72975 23.4178 9.758 22.7983 10.556 22.4378C10.682 21.5295 11.0442 20.91 11.445 20.5583C8.337 20.203 5.068 18.9973 5.068 13.6125C5.068 12.0778 5.614 10.823 6.51 9.8395C6.36475 9.48425 5.88525 8.0545 6.6465 6.12075C6.6465 6.12075 7.8225 5.74275 10.4965 7.561C11.613 7.2495 12.81 7.09375 14.0018 7.0885C15.19 7.0955 16.3888 7.2495 17.507 7.56275C20.1792 5.7445 21.3535 6.1225 21.3535 6.1225C22.1165 8.058 21.637 9.486 21.4935 9.84125C22.3912 10.8248 22.932 12.0795 22.932 13.6143C22.932 19.013 19.6595 20.2013 16.541 20.5495C17.0432 20.9835 17.4912 21.841 17.4912 23.1518C17.4912 25.0313 17.4737 26.5468 17.4737 27.007C17.4737 27.3833 17.7257 27.8208 18.4362 27.6825C23.9925 25.8205 28 20.5548 28 14.3475C28 6.5845 21.7315 0.291504 13.9983 0.291504Z" fill="#5C6BC0"/>
</g>
<defs>
<clipPath id="clip0_1154_634">
<rect width="28" height="28" fill="white"/>
</clipPath>
</defs>
</svg>
