<svg width="28" height="28" viewBox="0 0 28 28" fill="none" xmlns="http://www.w3.org/2000/svg">
<g clip-path="url(#clip0_1154_636)">
<path d="M19.25 0H8.75C3.91825 0 0 3.91825 0 8.75V19.25C0 24.0817 3.91825 28 8.75 28H19.25C24.0817 28 28 24.0817 28 19.25V8.75C28 3.91825 24.0817 0 19.25 0ZM25.375 19.25C25.375 22.6275 22.6275 25.375 19.25 25.375H8.75C5.3725 25.375 2.625 22.6275 2.625 19.25V8.75C2.625 5.3725 5.3725 2.625 8.75 2.625H19.25C22.6275 2.625 25.375 5.3725 25.375 8.75V19.25Z" fill="url(#paint0_linear_1154_636)"/>
<path d="M14 7C10.1342 7 7 10.1342 7 14C7 17.8658 10.1342 21 14 21C17.8658 21 21 17.8658 21 14C21 10.1342 17.8658 7 14 7ZM14 18.375C11.5885 18.375 9.625 16.4115 9.625 14C9.625 11.5868 11.5885 9.625 14 9.625C16.4115 9.625 18.375 11.5868 18.375 14C18.375 16.4115 16.4115 18.375 14 18.375Z" fill="url(#paint1_linear_1154_636)"/>
<path d="M21.5245 7.40773C22.0397 7.40773 22.4573 6.99013 22.4573 6.47498C22.4573 5.95984 22.0397 5.54224 21.5245 5.54224C21.0094 5.54224 20.5918 5.95984 20.5918 6.47498C20.5918 6.99013 21.0094 7.40773 21.5245 7.40773Z" fill="url(#paint2_linear_1154_636)"/>
</g>
<defs>
<linearGradient id="paint0_linear_1154_636" x1="2.56314" y1="25.437" x2="25.4369" y2="2.56296" gradientUnits="userSpaceOnUse">
<stop stop-color="#FFC107"/>
<stop offset="0.507" stop-color="#F44336"/>
<stop offset="0.99" stop-color="#9C27B0"/>
</linearGradient>
<linearGradient id="paint1_linear_1154_636" x1="9.05039" y1="18.9496" x2="18.9496" y2="9.05039" gradientUnits="userSpaceOnUse">
<stop stop-color="#FFC107"/>
<stop offset="0.507" stop-color="#F44336"/>
<stop offset="0.99" stop-color="#9C27B0"/>
</linearGradient>
<linearGradient id="paint2_linear_1154_636" x1="20.8651" y1="7.13465" x2="22.184" y2="5.8155" gradientUnits="userSpaceOnUse">
<stop stop-color="#FFC107"/>
<stop offset="0.507" stop-color="#F44336"/>
<stop offset="0.99" stop-color="#9C27B0"/>
</linearGradient>
<clipPath id="clip0_1154_636">
<rect width="28" height="28" fill="white"/>
</clipPath>
</defs>
</svg>
