<svg width="14" height="14" viewBox="0 0 14 14" fill="none" xmlns="http://www.w3.org/2000/svg">
<g clip-path="url(#clip0_3854_7077)">
<path d="M8.74992 4.08337H10.4999C10.8829 4.08337 11.2622 4.15882 11.6161 4.30539C11.9699 4.45197 12.2915 4.66681 12.5623 4.93765C12.8332 5.20848 13.048 5.53001 13.1946 5.88388C13.3411 6.23775 13.4166 6.61702 13.4166 7.00004C13.4166 7.38306 13.3411 7.76233 13.1946 8.1162C13.048 8.47007 12.8332 8.7916 12.5623 9.06244C12.2915 9.33327 11.9699 9.54811 11.6161 9.69469C11.2622 9.84127 10.8829 9.91671 10.4999 9.91671H8.74992M5.24992 9.91671H3.49992C3.1169 9.91671 2.73762 9.84127 2.38376 9.69469C2.02989 9.54811 1.70836 9.33327 1.43752 9.06244C0.890543 8.51545 0.583252 7.77359 0.583252 7.00004C0.583252 6.22649 0.890543 5.48463 1.43752 4.93765C1.9845 4.39066 2.72637 4.08337 3.49992 4.08337H5.24992" stroke="#5E6278" stroke-width="2" stroke-linecap="round" stroke-linejoin="round"/>
<path d="M4.66675 7H9.33341" stroke="#5E6278" stroke-width="2" stroke-linecap="round" stroke-linejoin="round"/>
</g>
<defs>
<clipPath id="clip0_3854_7077">
<rect width="14" height="14" fill="white"/>
</clipPath>
</defs>
</svg>
