<svg width="28" height="28" viewBox="0 0 28 28" fill="none" xmlns="http://www.w3.org/2000/svg">
<g clip-path="url(#clip0_1154_630)">
<path d="M14.3803 0C6.70618 0 2.625 4.87133 2.625 10.183C2.625 12.6464 4.01456 15.7183 6.23891 16.6925C6.57668 16.8434 6.76044 16.7792 6.83569 16.4689C6.90219 16.2331 7.19445 15.0976 7.33621 14.562C7.37996 14.3904 7.35721 14.2413 7.21721 14.08C6.47867 13.2341 5.8924 11.6929 5.8924 10.2471C5.8924 6.54249 8.86578 2.94533 13.9253 2.94533C18.3005 2.94533 21.3613 5.76065 21.3613 9.78773C21.3613 14.3383 18.9305 17.4865 15.7716 17.4865C14.0233 17.4865 12.7212 16.1274 13.1342 14.4458C13.633 12.4436 14.6113 10.2905 14.6113 8.8464C14.6113 7.55143 13.8728 6.48008 12.3642 6.48008C10.5844 6.48008 9.14054 8.22578 9.14054 10.5696C9.14054 12.0587 9.67257 13.0642 9.67257 13.0642C9.67257 13.0642 7.91199 20.1094 7.58472 21.4252C7.0317 23.6528 7.65998 27.2604 7.71423 27.5707C7.74748 27.7423 7.94174 27.796 8.05024 27.6556C8.2235 27.4303 10.3516 24.4225 10.9484 22.2486C11.1654 21.4564 12.0562 18.2441 12.0562 18.2441C12.6424 19.2929 14.3348 20.1718 16.1374 20.1718C21.4996 20.1718 25.3743 15.5033 25.3743 9.70972C25.355 4.15536 20.5563 0 14.3803 0Z" fill="#D32F2F"/>
</g>
<defs>
<clipPath id="clip0_1154_630">
<rect width="28" height="27.7358" fill="white"/>
</clipPath>
</defs>
</svg>
