<svg width="49" height="27" viewBox="0 0 49 27" fill="none" xmlns="http://www.w3.org/2000/svg">
<path fill-rule="evenodd" clip-rule="evenodd" d="M36.6608 13.2279C36.6608 20.5392 30.7443 26.4558 23.433 26.4558C21.4308 26.4558 19.5186 26.0058 17.8089 25.196C17.4714 25.0385 17.134 24.8585 16.819 24.6786C15.5367 23.9362 14.3894 22.9913 13.4221 21.8665C13.0621 21.4616 12.7472 21.0341 12.4322 20.5842C12.0273 19.9768 11.6673 19.3469 11.3524 18.672C10.61 17.0073 10.2051 15.1626 10.2051 13.2279C10.2051 11.2707 10.6325 9.42599 11.3749 7.76126C11.6224 7.22134 11.8923 6.70393 12.2073 6.20901C12.8821 5.12918 13.692 4.16183 14.6369 3.32947C16.9765 1.2598 20.0585 0 23.433 0C24.5128 0 25.5701 0.134978 26.5825 0.382439C27.9772 0.719885 29.3045 1.28229 30.4743 2.02468C30.6993 2.15965 30.9243 2.31713 31.1492 2.4746C31.3292 2.60958 31.5092 2.74456 31.6891 2.87954C32.5665 3.57693 33.3314 4.3643 34.0063 5.26416C35.401 7.10886 36.3234 9.33601 36.5934 11.7431C36.6383 12.238 36.6608 12.733 36.6608 13.2279Z" fill="url(#paint0_radial_3854_4273)"/>
<g style="mix-blend-mode:multiply">
<path opacity="0.5" fill-rule="evenodd" clip-rule="evenodd" d="M36.5934 11.7656C36.5484 11.8556 36.5034 11.9456 36.4809 12.0356C36.4359 12.1706 36.3684 12.283 36.3009 12.418C36.2109 12.5755 36.1659 12.733 36.0984 12.8904C35.941 13.2504 35.8285 13.6328 35.6935 13.9928C35.5585 14.3977 35.4235 14.8026 35.2436 15.2076C35.1761 15.3875 35.0411 15.545 34.9736 15.725C34.8836 15.905 34.8161 16.0624 34.7262 16.2424C34.4787 16.6473 34.2762 17.0748 34.0063 17.4797C33.5563 18.2221 32.9939 18.8745 32.454 19.5494C32.1841 19.8868 31.8691 20.1793 31.5542 20.4942C31.1942 20.8317 30.9018 21.2366 30.5418 21.5741C30.2719 21.844 29.9794 22.114 29.642 22.3164C29.462 22.4289 29.282 22.5639 29.1021 22.6989C28.8771 22.8563 28.5846 22.9463 28.3372 23.0588C27.5048 23.4638 26.6275 23.7112 25.7501 23.9812C24.8952 24.2511 24.0629 24.6336 23.208 24.836C23.028 24.881 22.8481 24.9035 22.6681 24.926C22.4656 24.971 22.2856 25.016 22.0832 25.0385C21.6782 25.0835 21.2958 25.2185 20.8909 25.241C20.5984 25.2635 20.351 25.196 20.0585 25.196C19.6986 25.1735 19.3611 25.2185 19.0012 25.241C18.6187 25.2635 18.2138 25.241 17.8314 25.196C17.4939 25.0385 17.1565 24.8585 16.8415 24.6786C16.864 24.6786 16.864 24.6786 16.8865 24.7011C17.1115 24.7685 17.3364 24.9035 17.5614 24.971C17.8089 25.0385 18.0563 25.061 18.3263 25.106C18.6637 25.1735 19.0012 25.1735 19.3386 25.106C19.5186 25.0835 19.6986 25.061 19.8785 25.016C20.081 24.971 20.261 25.016 20.4634 24.971C20.7334 24.9035 21.0258 24.9485 21.3183 24.9485C21.7907 24.926 22.2632 24.7685 22.7131 24.6561C23.2305 24.5436 23.7029 24.3636 24.2203 24.2961C24.5128 24.2511 24.7603 24.1611 25.0302 24.0712C25.2777 24.0037 25.4351 23.8687 25.6151 23.7112C25.9976 23.4188 26.38 23.1263 26.8299 22.9463C27.2798 22.7664 27.7523 22.6314 28.2247 22.5414C28.6071 22.4739 29.0346 22.2714 29.3495 22.0015C29.4845 21.889 29.6195 21.754 29.732 21.6415C29.8894 21.4841 30.0694 21.3716 30.2044 21.1916C30.3619 21.0116 30.5643 20.8317 30.7218 20.6517C30.9018 20.4492 31.0367 20.2018 31.2167 19.9993C31.5092 19.6619 31.9366 19.5044 32.2066 19.1444C32.274 19.077 32.2965 18.987 32.364 18.9195C32.4315 18.852 32.499 18.807 32.544 18.717C32.589 18.6045 32.7015 18.3571 32.634 18.2221C32.499 17.9746 31.8466 18.627 31.7341 18.717C31.5767 18.8745 31.4417 19.032 31.2392 19.1444C31.1267 19.2119 31.0143 19.2794 30.8793 19.3469C30.6768 19.4369 30.4293 19.4369 30.2044 19.4819C29.597 19.6169 28.9671 19.6844 28.3372 19.7743C27.5048 19.9093 26.6499 20.0893 25.8176 20.2918C25.0302 20.4717 24.2653 20.6967 23.5005 20.8767C23.0955 20.9667 22.6681 21.0791 22.2632 21.1691C21.7682 21.2816 21.2508 21.4391 20.7559 21.5291C19.9235 21.6865 19.0687 21.8665 18.2363 21.889C17.5614 21.9115 16.909 21.934 16.2341 21.934C15.3343 21.934 14.3669 22.024 13.4671 21.8215C13.4446 21.8215 13.4446 21.8215 13.4446 21.8215C13.0846 21.4166 12.7697 20.9891 12.4547 20.5392C12.7697 20.6742 13.1296 20.7867 13.4671 20.8542C13.7145 20.8992 13.9845 20.9667 14.2094 21.1016C14.3444 21.1916 14.4794 21.3041 14.6369 21.3491C15.2218 21.5291 15.7167 21.5291 16.3016 21.3491C16.5266 21.2816 16.729 21.2141 16.954 21.1466C17.1115 21.1016 17.2465 21.0116 17.4039 20.9667C17.8539 20.8542 18.3038 20.7642 18.7537 20.6742C18.9787 20.6292 19.1811 20.5842 19.4061 20.5167C19.6536 20.4492 19.856 20.3143 20.1035 20.2243C20.5309 20.0443 20.9359 19.8643 21.4083 19.7743C21.7007 19.7293 22.0382 19.6844 22.3081 19.5494C22.3981 19.5044 22.5331 19.4369 22.5106 19.3244C22.4881 19.1894 22.3081 19.2119 22.1957 19.2344C21.9032 19.2794 21.5883 19.3244 21.2958 19.3919C20.7559 19.5269 20.2385 19.6169 19.6761 19.6394C18.8437 19.6844 18.0113 19.7518 17.2015 19.7069C16.5491 19.6844 15.8967 19.6169 15.2443 19.6169C14.6144 19.6169 14.007 19.5719 13.3996 19.3694C12.7247 19.1444 12.0273 18.942 11.3974 18.6045C10.61 17.0073 10.2051 15.1626 10.2051 13.2279C10.2051 11.2707 10.6325 9.426 11.3749 7.76126C11.2849 8.00872 11.2174 8.25618 11.1049 8.48115C10.9025 8.95357 10.79 9.4035 10.79 9.92092C10.79 10.1009 10.8125 10.3034 10.79 10.5058C10.7675 10.7533 10.745 10.9108 10.8125 11.1582C10.8575 11.3382 10.88 11.5182 10.97 11.6981C10.9925 11.7656 11.0374 11.7881 11.0824 11.8331C11.1274 11.8781 11.1499 11.9456 11.1949 12.0131C11.3074 12.1931 11.4649 12.418 11.6448 12.5305C11.7573 12.598 11.9148 12.643 12.0273 12.6655C12.1848 12.7105 12.2523 12.733 12.4097 12.6655C12.5222 12.6205 12.6797 12.5755 12.7922 12.5755C12.8821 12.5755 12.9271 12.6205 13.0171 12.6205C13.1071 12.643 13.1971 12.6205 13.2871 12.643C13.6695 12.733 14.052 12.823 14.4569 12.823C14.7718 12.823 15.0868 12.8679 15.4017 12.8679C15.7842 12.8679 16.1666 12.8904 16.5491 12.823C16.7965 12.8005 17.089 12.733 17.3364 12.7105C17.6064 12.688 17.8539 12.7105 18.1238 12.7105C19.0237 12.688 19.9685 12.4855 20.7559 12.0131C21.1833 11.7656 21.6108 11.5857 22.0832 11.4507C22.6906 11.2707 23.298 11.1132 23.9279 10.9782C24.4903 10.8658 25.0527 10.6858 25.5926 10.4383C25.8401 10.3259 26.0425 10.1909 26.2675 10.0559C26.47 9.92092 26.6724 9.83093 26.8524 9.67346C27.3923 9.26852 27.8648 8.7961 28.3597 8.32367C28.6296 8.05372 28.8996 7.78376 29.192 7.5138C29.417 7.28884 29.687 7.19885 29.9794 7.13136C30.4518 7.01888 30.7218 6.47897 30.9918 6.09653C31.3292 5.60161 31.5992 5.0392 31.5992 4.45429C31.5992 4.20683 31.5767 3.95937 31.5317 3.71191C31.5092 3.59943 31.4867 3.48695 31.4417 3.39696C31.4192 3.32947 31.3517 3.26198 31.3517 3.19449C31.3292 3.127 31.3292 3.08201 31.3292 3.01452C31.3067 2.96953 31.2842 2.90204 31.2842 2.85705C31.2617 2.74457 31.1942 2.58709 31.2167 2.47461C31.3967 2.60959 31.5767 2.74457 31.7566 2.87954C31.7566 2.92454 31.7566 2.99203 31.7566 3.03702C31.7341 3.10451 31.7341 3.1495 31.7116 3.21699C31.6891 3.30698 31.6666 3.35197 31.6666 3.46445C31.6666 3.57693 31.6666 3.66692 31.6891 3.7569C31.7566 4.00436 31.9141 4.22933 31.9141 4.49929C31.9141 4.76924 31.8466 5.0167 31.7341 5.26416C31.6442 5.48913 31.5317 5.71409 31.4192 5.93906C31.3517 6.09653 31.2617 6.23151 31.1492 6.36649C31.0592 6.50147 30.9468 6.61395 30.8793 6.74893C30.8118 6.86141 30.7668 6.97389 30.7218 7.08637C30.6318 7.28884 30.4968 7.40132 30.3394 7.5588C30.0244 7.87375 29.6195 8.12121 29.282 8.41366C29.0121 8.63862 28.7196 8.90858 28.5171 9.20103C28.4272 9.33601 27.9322 9.71845 28.0447 9.92092C28.1122 10.0109 28.2922 9.98841 28.3822 9.98841C28.5621 9.98841 28.7871 9.94342 28.9446 9.85343C29.4395 9.62847 29.9119 9.381 30.4293 9.22353C30.6543 9.15604 30.9018 9.11105 31.1267 9.02106C31.3967 8.90858 31.6441 8.7511 31.8916 8.59363C32.0941 8.48115 32.2066 8.32367 32.3415 8.1437C32.4315 8.05372 32.544 7.98623 32.634 7.89624C32.7465 7.78376 32.814 7.67128 32.9264 7.58129C33.2189 7.35633 33.4664 7.08637 33.6688 6.77142C33.8488 6.50147 33.9388 6.16402 34.0063 5.84907C34.0288 5.75908 34.0513 5.69159 34.0513 5.60161C34.0513 5.48913 34.0513 5.37665 34.0513 5.28666V5.26416C35.401 7.13136 36.3234 9.33601 36.5934 11.7656Z" fill="#C4B0B8"/>
<path opacity="0.5" fill-rule="evenodd" clip-rule="evenodd" d="M30.5423 3.14954C30.4973 3.44199 30.4748 3.73445 30.4073 4.0494C30.3398 4.34185 30.3398 4.67929 30.2048 4.94925C30.0024 5.42168 29.9349 5.96159 29.6199 6.36652C29.485 6.5465 29.3725 6.74896 29.1925 6.88394C29.125 6.95143 29.0575 6.95143 28.99 6.99642C28.9225 7.04142 28.8551 7.10891 28.7876 7.1539C28.4501 7.40136 28.0677 7.67131 27.7752 7.96377C27.4378 8.27872 27.1228 8.59367 26.7404 8.86362C26.6279 8.93111 26.4929 8.9986 26.3804 9.06609C26.2905 9.11108 26.2005 9.20107 26.088 9.22357C25.953 9.26856 25.863 9.29106 25.7505 9.38104C25.6606 9.44853 25.5481 9.51602 25.4356 9.56101C25.2556 9.6285 25.0757 9.71849 24.8732 9.78598C24.7832 9.83097 24.6932 9.83097 24.6032 9.87596C24.3558 9.96595 24.1758 9.96595 23.8609 9.98844C23.7709 9.94345 23.8384 9.94345 23.9283 9.89846C23.9958 9.87596 24.0183 9.85347 24.0633 9.80847C24.1308 9.74098 24.2208 9.651 24.2883 9.60601C24.4233 9.51602 24.6032 9.44853 24.7607 9.35855C24.9632 9.24606 25.1431 9.08859 25.3231 8.95361C25.4806 8.84113 25.5931 8.68365 25.7281 8.52618C25.863 8.3687 26.043 8.25622 26.2005 8.09875C26.3804 7.94127 26.5379 7.7613 26.7179 7.60383C26.9204 7.44635 27.0553 7.24388 27.1678 7.04142C27.2128 6.95143 27.3028 6.88394 27.3478 6.79396C27.3928 6.70397 27.4603 6.61398 27.5053 6.524C27.5503 6.41152 27.6178 6.29903 27.6627 6.20905C27.7077 6.07407 27.7077 5.93909 27.7527 5.80411C27.8427 5.42168 27.9102 5.01674 27.9777 4.6343C28.0452 4.29686 28.0452 3.95941 28.0452 3.62196C28.0677 3.30701 28.1577 2.99206 28.1577 2.67711C28.1577 2.54214 28.1577 2.45215 28.1127 2.33967C28.0452 2.18219 27.9777 2.04722 27.9102 1.88974C27.7527 1.41732 27.4378 0.967388 27.0328 0.674935C26.9654 0.629942 26.7629 0.51746 26.5829 0.359985C27.9777 0.697431 29.305 1.25984 30.4748 2.00222C30.5873 2.38466 30.6098 2.7896 30.5423 3.14954Z" fill="#C4B0B8"/>
<path opacity="0.5" fill-rule="evenodd" clip-rule="evenodd" d="M26.7183 3.17209C26.6958 3.32956 26.5833 3.46454 26.5383 3.62201C26.4933 3.80199 26.4483 3.98196 26.4258 4.18442C26.3808 4.47688 26.4033 4.74683 26.3808 5.03929C26.3133 5.5792 26.1334 6.09662 25.9084 6.59154C25.6609 7.08646 25.256 7.4689 24.8286 7.78385C24.3786 8.0988 23.8612 8.34626 23.3663 8.57122C23.0738 8.7062 22.7814 8.75119 22.4889 8.86368C22.2415 8.95366 21.994 9.06614 21.7691 9.15613C21.5216 9.24611 21.2966 9.42609 21.0717 9.49358C20.9142 9.53857 20.7792 9.58356 20.6217 9.65105C20.3743 9.74104 20.1268 9.87601 19.8794 9.9885C19.5194 10.146 19.1595 10.2585 18.777 10.3484C18.3946 10.4384 18.0346 10.3709 17.6747 10.3259C17.3598 10.2809 17.0448 10.2585 16.7299 10.191C16.1674 10.056 15.56 10.101 14.9751 10.101C14.5477 10.101 14.0303 10.146 13.6478 9.89851C13.5354 9.83102 13.4229 9.76353 13.3554 9.65105C13.2879 9.51607 13.2654 9.3136 13.2429 9.17863C13.1754 8.86368 12.8605 8.63871 12.658 8.41375C12.3881 8.0988 12.2756 7.71636 12.2306 7.31142C12.1856 6.99647 12.1856 6.59154 12.2531 6.27659C12.928 5.19676 13.7378 4.22942 14.6827 3.39705C14.4577 3.82448 14.3002 4.27441 14.0978 4.70184C13.8053 5.35424 13.5354 6.05163 13.5804 6.79401C13.5804 7.08646 13.6029 7.40141 13.7603 7.64887C13.8728 7.82884 14.0753 7.98632 14.2553 8.0988C14.5702 8.27877 14.8627 8.48124 15.2001 8.61622C15.5825 8.75119 15.9425 8.88617 16.3024 9.04365C16.5274 9.13363 16.7299 9.22362 16.9548 9.24612C17.2248 9.26861 17.5397 9.26861 17.8097 9.24612C18.822 9.22362 19.7669 8.75119 20.7342 8.45874C21.0492 8.36876 21.3641 8.32376 21.6566 8.21128C21.8365 8.14379 22.0165 8.05381 22.1965 7.96382C22.6239 7.73886 23.0963 7.58138 23.4788 7.31142C23.8837 7.04147 24.2437 6.70402 24.5586 6.34408C24.8061 6.05163 24.8961 5.78167 25.031 5.42173C25.256 4.72434 25.346 4.07194 25.4135 3.35206C25.436 3.03711 25.5484 2.76715 25.6159 2.4747C25.6609 2.27223 25.6384 2.04727 25.481 1.91229C25.166 1.64233 24.6936 1.46236 24.2886 1.37237C24.0412 1.30489 23.8162 1.2374 23.5463 1.2374C23.2988 1.2374 23.0513 1.2374 22.8039 1.2374C22.5564 1.2374 22.3315 1.1924 22.084 1.1924C21.7915 1.1924 21.5441 1.28239 21.2516 1.28239C20.9592 1.30489 20.6667 1.34988 20.3743 1.39487C20.0368 1.46236 19.6994 1.59734 19.3844 1.68732C18.732 1.88979 18.0796 2.20474 17.5622 2.60968C17.4272 2.72216 17.2698 2.78965 17.1348 2.90213C16.9998 2.99212 16.9548 3.0821 16.8873 3.19458C16.7074 3.46454 16.6174 3.6895 16.5274 4.00445C16.4824 4.20692 16.4824 4.40939 16.4824 4.63435C16.4824 4.90431 16.4374 5.21926 16.3924 5.48922C16.3249 5.89415 15.9425 6.47906 16.3699 6.79401C16.4824 6.88399 16.6399 6.90649 16.7748 6.88399C16.9773 6.8615 17.2023 6.79401 17.4047 6.72652C17.9897 6.56904 18.5971 6.36658 19.2045 6.29909C19.3844 6.27659 19.5644 6.29909 19.7444 6.2316C19.8569 6.2091 19.9693 6.16411 20.0818 6.14161C20.3518 6.09662 20.6217 5.91665 20.8242 5.75917C20.9142 5.66919 21.0042 5.5792 21.0942 5.51171C21.2291 5.39923 21.3866 5.33174 21.5216 5.21926C21.7016 5.06178 21.8815 4.88181 22.039 4.70184C22.3765 4.3419 22.6464 3.86947 22.9389 3.46454C23.1188 3.21708 23.3438 2.92463 23.3888 2.60968C23.4338 2.36222 23.1188 2.22724 22.9389 2.15975C22.7589 2.09226 22.5114 2.04727 22.309 2.06976C22.0165 2.11476 21.7466 2.29473 21.4541 2.40721C20.8467 2.67717 20.1718 2.74466 19.6319 3.17209C19.4294 3.32956 19.4519 3.46454 19.3844 3.6895C19.3619 3.77949 19.2944 3.89197 19.227 3.98196C19.137 4.13943 19.137 4.16193 19.182 4.3194C19.227 4.47688 19.2495 4.67935 19.4294 4.74683C19.5869 4.81432 19.8344 4.74683 19.9693 4.67935C20.0593 4.63435 20.1268 4.56686 20.2168 4.52187C20.2843 4.49937 20.4193 4.43188 20.4643 4.45438C20.5542 4.49937 20.4868 4.54437 20.4418 4.61186C20.3968 4.67935 20.3743 4.70184 20.3518 4.76933C20.3293 4.81432 20.3293 4.88181 20.2843 4.92681C20.1268 5.10678 19.8119 5.19676 19.6094 5.26425C19.4294 5.33174 19.2719 5.39923 19.0695 5.39923C18.7995 5.39923 18.912 5.19676 18.867 4.99429C18.822 4.72434 18.5071 4.63435 18.4846 4.3644C18.4621 4.09444 18.5296 3.80199 18.6421 3.55453C18.687 3.44204 18.7545 3.37455 18.822 3.26207C18.9345 3.1046 19.0695 3.01461 19.227 2.90213C19.6994 2.58718 20.2618 2.4522 20.8017 2.27223C21.3191 2.09226 21.904 2.06976 22.4214 1.88979C22.7814 1.75481 23.1413 1.73232 23.5238 1.66483C23.8612 1.59734 24.1537 1.73232 24.2886 2.04727C24.4461 2.36222 24.6036 2.72216 24.5136 3.0821C24.3786 3.57702 24.1987 4.07194 23.9512 4.52187C23.6363 5.08428 23.2313 5.6017 22.6689 5.89415C22.264 6.11911 21.814 6.2316 21.3866 6.38907C21.0492 6.52405 20.7342 6.61404 20.3743 6.68152C19.8344 6.77151 19.3394 7.08646 18.822 7.22144C18.1021 7.40141 17.3598 7.53639 16.6174 7.64887C16.3474 7.69386 16.1 7.71636 15.83 7.67137C15.695 7.64887 15.5825 7.67137 15.4701 7.60388C15.3801 7.55888 15.2901 7.53639 15.2226 7.4914C14.9301 7.35642 14.6602 7.15395 14.6827 6.8165C14.7052 6.47906 14.8402 6.16411 14.8852 5.82666C14.9301 5.6017 14.9301 5.39923 14.9751 5.19676C15.0201 5.03929 15.0426 4.85932 15.0876 4.70184C15.1326 4.56686 15.1776 4.40939 15.2676 4.29691C15.4251 4.07194 15.5375 3.82448 15.695 3.62201C15.7625 3.53203 15.83 3.46454 15.875 3.37455C15.92 3.28457 15.9425 3.23958 16.01 3.14959C16.0775 3.0821 16.1225 2.99212 16.1899 2.92463C16.3024 2.81214 16.4824 2.69966 16.6174 2.60968C16.9323 2.38471 17.2698 2.15975 17.6297 2.00227C17.9672 1.8448 18.3496 1.75481 18.7095 1.61984C19.0245 1.50735 19.3394 1.32738 19.6544 1.2149C20.0143 1.07992 20.3968 0.989936 20.7792 0.944943C21.4991 0.832461 22.264 0.764972 23.0288 0.764972C23.9962 0.764972 25.076 0.405029 25.9759 0.854957C26.2233 0.989936 26.3808 1.12491 26.4933 1.39487C26.6508 1.77731 26.7408 2.20474 26.7183 2.60968C26.7183 2.81214 26.7408 2.99212 26.7183 3.17209Z" fill="#C4B0B8"/>
</g>
<g style="mix-blend-mode:soft-light">
<path opacity="0.63" fill-rule="evenodd" clip-rule="evenodd" d="M11.7578 7.31138C11.8253 7.49135 11.9153 7.64882 11.9603 7.8288C12.0053 7.96377 12.0503 8.07626 12.1178 8.18874C12.1853 8.30122 12.2302 8.4362 12.2977 8.57118C12.3652 8.70616 12.4327 8.84113 12.4777 8.99861C12.5002 9.11109 12.5002 9.22357 12.5452 9.33605C12.5902 9.47103 12.6127 9.62851 12.6577 9.76349C12.6802 9.85347 12.7252 9.92096 12.7702 10.0109C12.8152 10.1009 12.8826 10.2134 12.9726 10.2809C13.2426 10.4609 13.6025 10.3934 13.9175 10.3484C14.1874 10.3259 14.4799 10.3259 14.7498 10.2809C14.8848 10.2584 15.0423 10.2584 15.1773 10.2809C15.3123 10.2809 15.4697 10.3034 15.5822 10.3259C15.6947 10.3484 15.8072 10.3484 15.9422 10.3709C16.1221 10.3934 16.2796 10.4384 16.4596 10.4609C16.662 10.4834 16.842 10.5059 17.0445 10.5059C17.3144 10.5059 17.6069 10.4834 17.8768 10.5059C18.1243 10.5284 18.3493 10.5734 18.5967 10.5734C18.9117 10.5734 19.2266 10.4834 19.5191 10.3709C20.014 10.1909 20.5089 10.0559 21.0038 9.87597C21.1838 9.80848 21.3413 9.696 21.5213 9.60601C21.6787 9.51603 21.8362 9.47103 21.9712 9.35855C22.2187 9.17858 22.5561 9.0661 22.8486 8.99861C23.1635 8.93112 23.456 8.81864 23.7484 8.75115C23.9509 8.70616 24.1533 8.59367 24.3558 8.57118C24.3108 8.72865 23.9734 8.79614 23.8384 8.84113C23.5459 8.95362 23.231 8.99861 22.961 9.13359C22.7811 9.22357 22.6461 9.38105 22.5111 9.51603C22.3761 9.62851 22.2861 9.76349 22.1287 9.87597C21.9712 9.98845 21.8137 10.0334 21.6337 10.0784C21.2513 10.1459 20.8689 10.3034 20.4639 10.3934C20.0815 10.4834 19.6991 10.5734 19.3391 10.7308C19.2491 10.7758 18.9567 10.8883 18.9342 11.0458C18.9342 11.1583 19.0692 11.1133 19.1366 11.1133C19.3166 11.1133 19.5416 11.0683 19.6991 11.1358C19.834 11.1808 19.924 11.2482 20.059 11.2707C20.329 11.3382 20.6889 11.2707 20.9364 11.1808C21.3188 11.0458 21.7237 10.9558 22.1062 10.8883C22.3761 10.8433 22.6461 10.7533 22.916 10.7083C23.141 10.6633 23.3435 10.6633 23.5459 10.6408C23.8609 10.6183 24.1533 10.5734 24.4683 10.5284C24.7158 10.4834 24.9857 10.4609 25.2107 10.3484C25.3906 10.2584 25.6156 10.1909 25.7731 10.0784C25.8181 10.0559 26.0655 9.83098 26.133 9.87597C26.2455 9.98845 25.5706 10.3709 25.5256 10.3934C25.3007 10.5509 25.0757 10.6408 24.8282 10.7308C24.5133 10.8658 24.1983 10.9108 23.8834 11.0008C23.5234 11.0908 23.141 11.1583 22.7811 11.2707C22.4211 11.3607 22.0387 11.4057 21.6562 11.5407C21.4763 11.6082 21.2963 11.6532 21.1163 11.7432C20.9589 11.8332 20.7789 11.8781 20.6214 11.9681C20.284 12.1481 19.969 12.3956 19.5866 12.5305C19.2716 12.643 18.9342 12.7105 18.5967 12.7555C18.1468 12.8005 17.7194 12.733 17.2694 12.688C16.8195 12.643 16.3696 12.598 15.9197 12.6205C15.4922 12.6205 15.0873 12.7105 14.6599 12.733C14.3674 12.7555 14.1424 12.643 13.8725 12.553C13.58 12.4406 13.3101 12.3056 13.0401 12.1256C12.8152 11.9906 12.5452 11.9006 12.2752 11.9231C12.2078 11.9231 12.1628 11.9456 12.0953 11.9681C12.0278 11.9906 11.9603 11.9456 11.9153 11.9231C11.6678 11.8107 11.4204 11.6082 11.3079 11.3607C11.1729 11.0908 11.1279 10.7983 11.0829 10.5059C11.0604 10.3484 11.0829 10.1684 11.0829 9.98845C11.0829 9.76349 11.0379 9.53852 11.0379 9.31356C11.0379 8.95362 10.9929 8.57118 11.1054 8.23373C11.2179 7.89629 11.4204 7.60383 11.6228 7.33388C11.7353 7.1764 11.8253 7.01892 11.9378 6.86145C11.9828 6.95144 11.8703 7.10891 11.8703 7.1764C11.8703 7.22139 11.8253 7.44636 11.7578 7.31138Z" fill="#C4B0B8"/>
<path opacity="0.63" fill-rule="evenodd" clip-rule="evenodd" d="M28.5844 9.26841C28.472 9.40339 28.292 9.58336 28.2695 9.76333C28.247 9.94331 28.427 9.92081 28.5619 9.89831C28.8319 9.85332 29.1244 9.83082 29.3718 9.71834C29.5293 9.65085 29.6643 9.56087 29.8217 9.49338C29.9567 9.44838 30.0917 9.42589 30.2042 9.3584C30.4966 9.22342 30.8341 9.15593 31.1265 9.02095C31.3965 8.90847 31.6215 8.706 31.8239 8.50354C31.9814 8.36856 32.1164 8.25608 32.2064 8.0761C32.2739 7.94113 32.3638 7.80615 32.4313 7.67117C32.4988 7.4912 32.5663 7.26623 32.5888 7.08626C32.6113 6.97378 32.6113 6.8613 32.5888 6.74882C32.5438 6.50136 32.2964 6.47886 32.0939 6.50136C31.8239 6.54635 31.6215 6.68133 31.419 6.8613C31.239 7.01877 31.0815 7.22124 30.8566 7.33372C30.6316 7.4687 30.4067 7.62618 30.1817 7.76115C30.0692 7.85114 29.9567 7.91863 29.8442 8.03111C29.7543 8.1211 29.6868 8.21108 29.5968 8.27857C29.5068 8.36856 29.3943 8.41355 29.3043 8.48104C29.2143 8.52603 29.1469 8.61602 29.0569 8.66101C28.9444 8.7285 28.8319 8.79599 28.7419 8.88597C28.6744 8.95346 28.6069 8.99846 28.5619 9.08844C28.517 9.24592 28.517 9.42589 28.5844 9.26841Z" fill="#C4B0B8"/>
<path opacity="0.63" fill-rule="evenodd" clip-rule="evenodd" d="M31.6003 5.66902C31.6453 5.53404 31.6678 5.46655 31.8028 5.39906C31.8928 5.35407 31.9377 5.35407 32.0052 5.44405C32.1177 5.62402 32.0277 5.82649 31.9602 5.98397C31.9152 6.09645 31.7128 6.23143 31.6228 6.07395C31.5553 5.96147 31.5553 5.66902 31.7128 5.62402L31.6003 5.66902Z" fill="#C4B0B8"/>
<path opacity="0.63" fill-rule="evenodd" clip-rule="evenodd" d="M20.5529 10.7758C20.6204 10.6408 20.6429 10.6408 20.7554 10.5958C20.8454 10.5508 20.8904 10.5283 21.0029 10.5283C21.1153 10.5283 21.2278 10.4608 21.3178 10.5058C21.4753 10.5733 21.4528 10.7083 21.3403 10.7983C21.2953 10.8433 21.2503 10.8883 21.1828 10.8883C21.0928 10.9108 21.0029 10.9333 20.9129 10.9333C20.7554 10.9333 20.6429 10.9333 20.5079 10.8433C20.5079 10.8208 20.5079 10.7983 20.5529 10.7758Z" fill="#C4B0B8"/>
<path opacity="0.63" fill-rule="evenodd" clip-rule="evenodd" d="M14.3434 20.1117C14.7709 20.2692 15.2208 20.3367 15.6707 20.3367C16.1881 20.3367 16.728 20.3367 17.268 20.2917C17.6279 20.2467 17.9653 20.2692 18.3253 20.2242C18.5053 20.2017 18.6627 20.2017 18.8202 20.2017C18.9102 20.2017 19.0227 20.1342 19.1127 20.1792C19.4726 20.2917 18.8202 20.4942 18.7527 20.5392C18.4828 20.6742 18.1903 20.7191 17.8979 20.8091C17.7854 20.8316 17.6729 20.8766 17.5604 20.8991C17.4479 20.9441 17.3579 20.9891 17.268 21.0116C16.8405 21.1016 16.3906 21.1466 15.9632 21.2366C15.8057 21.2816 15.6257 21.3041 15.4682 21.2591C15.2883 21.2366 15.1308 21.1241 14.9733 21.0566C14.7933 20.9666 14.5909 20.8766 14.4109 20.7641C14.3434 20.7191 14.2309 20.6292 14.1634 20.5617C14.1185 20.5167 14.1185 20.4717 14.096 20.4042C14.051 20.2917 14.051 20.2467 14.141 20.1567C14.2084 20.0892 14.2984 20.0668 14.4109 20.0892C14.4109 20.0892 14.4109 20.1117 14.3434 20.1117Z" fill="#C4B0B8"/>
<path opacity="0.63" fill-rule="evenodd" clip-rule="evenodd" d="M25.5721 24.4761C25.3472 24.5436 25.1447 24.6336 24.9422 24.7686C24.8523 24.8361 24.7623 24.9261 24.8748 24.9935C25.0322 25.0835 25.3022 25.0385 25.4822 25.016C25.7971 24.9935 26.0896 24.9261 26.4045 24.8811C26.607 24.8586 26.8094 24.8361 27.0119 24.7911C27.2819 24.7461 27.5518 24.6561 27.7993 24.5661C28.0018 24.4986 28.1817 24.4311 28.3392 24.3187C28.5192 24.2062 28.6991 24.1162 28.8566 23.9812C29.0591 23.8012 29.3515 23.6663 29.419 23.3738C29.4865 23.1263 28.9691 23.2163 28.8791 23.2388C28.4967 23.2838 28.1142 23.3963 27.7543 23.5313C27.5968 23.5763 27.4393 23.6213 27.2819 23.6888C27.0794 23.7787 26.8769 23.8912 26.6745 23.9587C26.5845 24.0037 26.4945 24.0487 26.382 24.0937C26.292 24.1162 26.202 24.1612 26.1121 24.1837C26.0221 24.2287 25.9096 24.2737 25.8196 24.2962C25.6621 24.3861 25.4372 24.4536 25.5721 24.4761Z" fill="#C4B0B8"/>
<path opacity="0.63" fill-rule="evenodd" clip-rule="evenodd" d="M29.666 22.7438C29.711 22.6089 29.7785 22.5639 29.891 22.4739C29.9585 22.4064 30.026 22.3164 30.1384 22.3164C30.2284 22.3164 30.3409 22.4064 30.3184 22.4964C30.2959 22.5414 30.2509 22.5864 30.2059 22.6314C30.1609 22.6763 30.1384 22.7438 30.071 22.7663C29.9585 22.8338 29.8235 22.8113 29.711 22.7888L29.666 22.7438Z" fill="#C4B0B8"/>
<path opacity="0.63" fill-rule="evenodd" clip-rule="evenodd" d="M30.9909 19.6394C30.9009 19.6844 30.8109 19.7519 30.7209 19.7744C30.6534 19.7969 30.5634 19.7969 30.4959 19.8194C30.271 19.8644 30.046 19.8644 29.821 19.8869C29.5286 19.9094 29.2361 19.9544 28.9437 19.9769C28.4263 20.0218 27.8864 20.0668 27.3914 20.2243C26.964 20.3593 26.5816 20.5168 26.1991 20.7417C25.8617 20.9217 25.5242 21.1242 25.2318 21.3491C25.1418 21.4391 25.0518 21.5291 24.9618 21.6191C24.8943 21.6866 24.8493 21.7541 24.8044 21.8216C24.7594 21.934 24.8044 22.024 24.9168 22.0915C25.0743 22.204 25.2768 22.204 25.4792 22.2265C25.7492 22.2715 26.0417 22.294 26.3116 22.339C26.6041 22.384 26.8965 22.429 27.189 22.429C27.4814 22.4515 27.7964 22.429 28.0888 22.3165C28.2913 22.2265 28.4938 22.159 28.6737 22.0465C28.8537 21.934 29.0337 21.8441 29.2136 21.7091C29.3486 21.6191 29.4611 21.5516 29.5736 21.4391C29.6186 21.3941 29.6636 21.3491 29.7311 21.3041C29.7986 21.2366 29.866 21.1467 29.956 21.0792C30.136 20.9442 30.2935 20.7642 30.4285 20.5843C30.5409 20.4493 30.6759 20.3143 30.7659 20.1793C30.8334 20.0893 30.9009 20.0443 30.9234 19.9544C30.9234 19.9769 30.9684 19.7744 30.9909 19.6394Z" fill="#C4B0B8"/>
<path opacity="0.63" fill-rule="evenodd" clip-rule="evenodd" d="M31.5996 19.2344C31.6671 19.1219 31.7121 19.0994 31.7796 19.0094C31.8471 18.942 31.9146 18.852 32.0045 18.8295C32.0495 18.807 32.0945 18.807 32.1395 18.852C32.162 18.8745 32.1845 18.942 32.1845 18.9869C32.162 19.0994 32.072 19.1669 31.982 19.2119C31.8696 19.2569 31.8021 19.2344 31.6896 19.2344H31.5996Z" fill="#C4B0B8"/>
<path opacity="0.63" fill-rule="evenodd" clip-rule="evenodd" d="M35.5126 15.5676C35.4676 15.6126 35.4001 15.6576 35.3551 15.725C35.2876 15.815 35.2201 15.9275 35.1527 16.0175C35.0627 16.1075 34.9952 16.22 34.9502 16.3325C34.8602 16.4674 34.7702 16.6024 34.7027 16.7374C34.5453 17.0523 34.4103 17.3673 34.2753 17.6822C34.2078 17.8397 34.1403 17.9972 34.0728 18.1547C34.0053 18.3346 33.9379 18.4921 33.8929 18.6946C33.8704 18.8296 33.8479 19.0545 34.0053 19.077C34.2303 19.0995 34.4553 18.9195 34.6127 18.7846C35.0402 18.4471 35.4001 18.0422 35.6926 17.5698C35.985 17.1198 36.255 16.5799 36.1875 16.0175C36.165 15.77 36.165 15.5226 36.21 15.2751C36.2325 15.0052 36.3225 14.7577 36.3225 14.4877C36.3225 14.3078 36.3675 14.1053 36.3225 13.9253C36.3 13.8803 36.3 13.7904 36.2325 13.7679C36.1875 13.7454 36.1425 13.7679 36.0975 13.7904C35.9625 13.8803 35.85 14.0153 35.7826 14.1503C35.6926 14.3303 35.6926 14.5327 35.6251 14.7127C35.6026 14.7802 35.5801 14.8477 35.5576 14.9152C35.5351 14.9602 35.4901 15.0052 35.4676 15.0727C35.4226 15.1626 35.4001 15.2751 35.3776 15.3651C35.3551 15.4326 35.3551 15.4776 35.3326 15.5451C35.3101 15.5901 35.2876 15.6351 35.2876 15.7026C35.2651 15.77 35.2651 15.815 35.5126 15.5676Z" fill="#C4B0B8"/>
<path opacity="0.63" fill-rule="evenodd" clip-rule="evenodd" d="M33.4679 18.8294C33.4229 18.8744 33.153 19.1219 33.2655 19.1894C33.288 19.2119 33.378 19.1894 33.4005 19.1669C33.4679 19.1444 33.4904 19.0994 33.5579 19.0544C33.6254 19.0094 33.6254 18.9644 33.6254 18.8744C33.6254 18.7619 33.5579 18.7619 33.4454 18.8069H33.4679V18.8294Z" fill="#C4B0B8"/>
<path opacity="0.63" fill-rule="evenodd" clip-rule="evenodd" d="M34.0964 19.4593C34.1639 19.3918 34.1639 19.3469 34.2539 19.3244C34.3213 19.3019 34.3663 19.2569 34.4338 19.2344C34.5238 19.2119 34.5688 19.2569 34.5688 19.3469C34.5913 19.5043 34.4113 19.6843 34.3213 19.7968C34.2314 19.9318 34.1189 20.0667 33.9839 20.1567C33.8039 20.2917 33.6689 20.0667 33.7364 19.8868C33.7814 19.7743 33.8039 19.6618 33.8489 19.5718C33.9614 19.4143 34.0964 19.4368 34.2763 19.3918L34.0964 19.4593Z" fill="#C4B0B8"/>
<path opacity="0.63" fill-rule="evenodd" clip-rule="evenodd" d="M19.8326 3.50933C19.6526 3.62181 19.5852 3.71179 19.5177 3.91426C19.4952 4.00425 19.4502 4.18422 19.5402 4.25171C19.6526 4.38669 19.9901 4.22921 20.1026 4.18422C20.3275 4.09423 20.5525 3.95925 20.8 3.91426C21.2499 3.80178 21.7448 3.77928 22.1272 3.48683C22.3522 3.32935 22.5322 3.12689 22.6897 2.90192C22.7796 2.76694 22.9146 2.65446 22.9371 2.47449C22.9596 2.11455 22.4422 2.09205 22.2172 2.13705C21.6998 2.24953 21.2049 2.407 20.71 2.65446C20.4175 2.78944 20.0801 2.96941 19.8776 3.21687C19.8326 3.28436 19.7876 3.37435 19.7651 3.44184C19.6976 3.50933 19.6526 3.6893 19.8326 3.50933Z" fill="#C4B0B8"/>
<path opacity="0.63" fill-rule="evenodd" clip-rule="evenodd" d="M20.8009 4.54424C20.7334 4.40926 20.7109 4.38676 20.8009 4.31927C20.8684 4.25178 21.0034 4.18429 21.0709 4.1393C21.1609 4.09431 21.3408 4.04932 21.4308 4.04932C21.6783 4.07181 21.5658 4.36427 21.4983 4.49924C21.4533 4.58923 21.4083 4.65672 21.3183 4.72421C21.2284 4.7692 21.1609 4.81419 21.0484 4.7692C20.9809 4.7467 20.8909 4.67922 20.8459 4.63422C20.8009 4.58923 20.7109 4.52174 20.7109 4.45425H20.7334L20.8009 4.54424Z" fill="#C4B0B8"/>
<path opacity="0.63" fill-rule="evenodd" clip-rule="evenodd" d="M19.002 7.71634C19.002 7.60386 19.002 7.55887 19.0694 7.49138C19.1819 7.3789 19.3394 7.28891 19.4744 7.19893C19.7893 6.99646 20.1043 6.86148 20.4417 6.749C20.7567 6.63652 21.0491 6.59152 21.3866 6.52403C21.634 6.47904 21.8365 6.41155 22.084 6.36656C22.4439 6.32157 22.8938 6.1416 23.1863 6.47904C23.4112 6.7715 22.9838 7.13144 22.7813 7.28891C22.6014 7.42389 22.3989 7.49138 22.1964 7.55887C21.949 7.62636 21.7015 7.69385 21.4316 7.76134C20.9591 7.87382 20.5317 8.09878 20.0593 8.27875C19.7443 8.39124 19.5194 8.39124 19.2494 8.21126C19.1144 8.12128 18.867 7.85132 19.002 7.71634Z" fill="#C4B0B8"/>
<path opacity="0.63" fill-rule="evenodd" clip-rule="evenodd" d="M23.2765 5.624C23.209 5.73648 23.0516 5.93895 23.254 6.00644C23.3665 6.05143 23.4565 5.96145 23.524 5.89396C23.614 5.82647 23.7264 5.75898 23.7939 5.6465C23.8614 5.53402 23.8164 5.42153 23.7039 5.37654C23.479 5.26406 23.3665 5.48902 23.2315 5.6465L23.2765 5.624Z" fill="#C4B0B8"/>
<path opacity="0.63" fill-rule="evenodd" clip-rule="evenodd" d="M26.8988 3.3744C26.6963 3.57687 26.5613 3.82433 26.6063 4.13928C26.6288 4.43173 26.8313 4.49922 27.0788 4.36424C27.1462 4.34175 27.2362 4.29676 27.3037 4.25176C27.3712 4.20677 27.4162 4.09429 27.4612 4.0268C27.5737 3.86932 27.6412 3.71185 27.6412 3.50938C27.6412 3.32941 27.6637 3.12694 27.6187 2.94697C27.5962 2.85699 27.5512 2.72201 27.4612 2.65452C27.3487 2.58703 27.2812 2.67701 27.2137 2.7445C27.1462 2.81199 27.0788 2.83449 27.0338 2.92447C26.9438 3.08195 26.8988 3.23942 26.8538 3.4194L26.8988 3.3744Z" fill="#C4B0B8"/>
<path opacity="0.63" fill-rule="evenodd" clip-rule="evenodd" d="M22.712 9.71842C22.712 9.58344 22.712 9.56094 22.8245 9.49345C22.892 9.42596 22.982 9.35847 23.0495 9.31348C23.1844 9.24599 23.4094 9.1785 23.5669 9.15601C23.7019 9.15601 23.8593 9.15601 23.9718 9.22349C24.0618 9.26849 24.0618 9.35847 24.0393 9.44846C24.0168 9.58344 23.8818 9.67342 23.7694 9.74091C23.6794 9.8309 23.5444 9.92088 23.4094 9.94338C23.2519 9.98837 23.0945 10.0109 22.937 9.96588C22.847 9.94338 22.6445 9.89839 22.6445 9.76341L22.712 9.71842Z" fill="#C4B0B8"/>
<path opacity="0.63" fill-rule="evenodd" clip-rule="evenodd" d="M24.5362 8.43629C24.6262 8.30131 24.6936 8.18883 24.8286 8.12134C24.8961 8.07635 25.0311 7.96387 25.1211 7.96387C25.1661 7.96387 25.2336 8.03136 25.2561 8.09885C25.2561 8.16633 25.2111 8.25632 25.1661 8.30131C25.0986 8.4138 24.9636 8.52628 24.8511 8.57127C24.7836 8.59377 24.7386 8.61626 24.6711 8.59377C24.6037 8.57127 24.5812 8.50378 24.5137 8.48128L24.5362 8.43629Z" fill="#C4B0B8"/>
<path opacity="0.63" fill-rule="evenodd" clip-rule="evenodd" d="M17.3353 2.96952C17.1554 3.14949 16.9979 3.32946 16.9529 3.59942C16.9304 3.6894 16.9304 3.75689 16.9979 3.82438C17.0879 3.91437 17.2229 3.86937 17.3353 3.82438C17.6503 3.7119 17.9427 3.53193 18.2352 3.35196C18.4827 3.19448 18.8201 3.14949 19.0226 2.90203C19.1351 2.76705 19.225 2.63207 19.1351 2.4521C19.0451 2.31712 18.8201 2.24963 18.6626 2.24963C18.4377 2.24963 18.2127 2.31712 18.0102 2.4296C17.6503 2.60958 17.4028 2.85704 17.3353 2.96952Z" fill="#C4B0B8"/>
<path opacity="0.63" fill-rule="evenodd" clip-rule="evenodd" d="M16.3028 2.18212C16.6627 2.11463 16.9552 2.04714 17.2477 1.86717C17.3151 1.82218 17.3601 1.82218 17.4276 1.77719C17.4726 1.75469 17.4951 1.7097 17.5401 1.6647C17.5176 1.52973 17.1352 1.59721 17.0452 1.64221C16.9327 1.6872 16.8202 1.75469 16.6852 1.82218C16.6178 1.84467 16.5728 1.88967 16.5053 1.91216C16.3928 2.00215 16.3253 2.13713 16.2578 2.24961L16.3028 2.18212Z" fill="#C4B0B8"/>
</g>
<g style="mix-blend-mode:multiply">
<path opacity="0.47" fill-rule="evenodd" clip-rule="evenodd" d="M27.1441 9.96581C27.0541 10.0108 26.9416 10.1008 26.8291 10.1458C26.6491 10.2133 26.4917 10.3258 26.3117 10.3932C26.1092 10.4832 25.8843 10.5507 25.6818 10.6182C25.3893 10.7307 25.0969 10.8432 24.8269 11.0006C24.557 11.1581 24.287 11.4056 24.152 11.698C24.0621 11.8555 24.0396 12.0805 24.1296 12.2604C24.197 12.3504 24.2645 12.4629 24.377 12.5079C24.557 12.5979 24.737 12.5304 24.9169 12.4854C25.1419 12.4404 25.3669 12.3504 25.5693 12.2604C25.6818 12.193 25.7943 12.1255 25.9068 12.0805C26.0192 12.013 26.1542 11.968 26.2667 11.923C26.3567 11.878 26.4692 11.8555 26.5592 11.8105C26.6941 11.7655 26.7841 11.7205 26.8966 11.6305C27.0991 11.4956 27.2566 11.2931 27.3915 11.0906C27.549 10.8207 27.6165 10.5507 27.5715 10.2358C27.5265 10.0108 27.3465 9.87582 27.1441 9.96581Z" fill="#C4B0B8"/>
<path opacity="0.47" fill-rule="evenodd" clip-rule="evenodd" d="M23.7905 11.653C23.723 11.563 23.678 11.563 23.5656 11.5855C23.4756 11.5855 23.3856 11.608 23.3181 11.6305C22.9132 11.7205 22.4857 11.7655 22.0808 11.8555C21.8558 11.9229 21.6309 11.9679 21.4284 12.0804C21.2259 12.1929 21.001 12.2829 20.821 12.4179C20.3486 12.6878 19.8761 12.9128 19.3362 13.0253C18.9988 13.0928 18.6838 13.1602 18.3464 13.2277C18.1439 13.2727 17.9415 13.2952 17.739 13.3402C17.5365 13.3852 17.334 13.4302 17.1541 13.4752C16.7941 13.5652 16.4567 13.6327 16.0967 13.7676C15.7593 13.9026 15.3994 14.0151 15.1294 14.2851C14.9944 14.42 14.8145 14.6225 14.8145 14.825C14.8145 14.9825 14.8819 15.1174 14.9494 15.2299C15.2194 15.6798 15.7368 15.9498 16.2092 16.1748C16.8391 16.4897 17.5815 16.5347 18.2789 16.6247C19.1788 16.7372 20.1011 16.6697 20.9785 16.4897C21.3834 16.3997 21.7883 16.3322 22.1708 16.2647C22.6432 16.1748 23.1381 16.1073 23.6105 16.0173C24.0155 15.9273 24.3979 15.8373 24.8029 15.7248C25.0053 15.6573 25.2303 15.5899 25.4328 15.4999C25.6127 15.4099 25.7702 15.3199 25.9502 15.2074C26.0851 15.1174 26.2426 15.0499 26.3551 14.9375C26.4676 14.8475 26.5576 14.735 26.6476 14.6225C26.7825 14.4425 26.8725 14.2401 26.985 14.0376C27.0525 13.9026 27.1425 13.7676 27.2325 13.6327C27.3225 13.4977 27.4349 13.3852 27.5249 13.2727C27.7274 13.0253 27.9973 12.8003 28.1773 12.5303C28.2898 12.3729 28.4023 12.1929 28.4248 11.9904C28.4248 11.8555 28.4248 11.7205 28.2898 11.653C28.1548 11.5855 27.9973 11.5855 27.8624 11.608C27.7274 11.6305 27.5699 11.6755 27.4349 11.7205C27.1875 11.788 26.9625 11.8779 26.7375 11.9904C26.1751 12.2829 25.6127 12.6653 24.9828 12.8003C24.7129 12.8453 24.4654 12.8903 24.2179 12.7778C24.038 12.7103 23.858 12.6203 23.678 12.5078C23.4531 12.3504 23.5206 12.1704 23.6105 11.9454C23.723 11.9004 23.8355 11.6755 23.7905 11.653Z" fill="#C4B0B8"/>
<path opacity="0.47" fill-rule="evenodd" clip-rule="evenodd" d="M35.9175 8.72852C35.9175 8.95348 35.8951 9.17844 35.8726 9.4259C35.8501 9.51589 35.8501 9.62837 35.8276 9.71836C35.8051 9.85334 35.7376 9.96582 35.7151 10.1008C35.6476 10.3483 35.5351 10.5507 35.4451 10.7757C35.3326 11.0007 35.2652 11.2481 35.1752 11.4731C34.8827 12.1255 34.7252 12.8004 34.4553 13.4528C34.3203 13.7677 34.1853 14.1052 34.0503 14.4201C33.9154 14.7126 33.7579 14.9825 33.6004 15.2525C33.5554 15.365 33.3979 15.5449 33.5104 15.6574C33.6004 15.7474 33.7579 15.6574 33.8479 15.6124C34.2078 15.4099 34.3653 14.9375 34.6128 14.6226C34.7252 14.4651 34.9052 14.3301 35.0177 14.1726C35.1752 13.9477 35.3551 13.7002 35.4676 13.4528C35.6926 12.9578 35.8051 12.4179 36.0075 11.923C36.165 11.4956 36.1875 11.0906 36.1875 10.6407C36.1875 10.4607 36.21 10.2583 36.1425 10.0783C36.075 9.92082 36.03 9.65087 35.9175 8.72852Z" fill="#C4B0B8"/>
<path opacity="0.47" fill-rule="evenodd" clip-rule="evenodd" d="M35.2426 9.38102C35.0852 9.53849 34.7702 9.89843 34.9277 10.1459C35.0177 10.2809 35.2651 10.2134 35.3326 10.1009C35.4001 10.0109 35.4001 9.83094 35.4001 9.71846C35.4001 9.65097 35.4226 9.56099 35.4001 9.4935C35.3776 9.44851 35.3101 9.42601 35.3101 9.35852H35.2426V9.38102Z" fill="#C4B0B8"/>
<path opacity="0.47" fill-rule="evenodd" clip-rule="evenodd" d="M32.2293 16.5122C32.0043 16.6247 31.8468 16.7597 31.6444 16.9171C31.4644 17.0521 31.2844 17.1421 31.0819 17.2321C30.587 17.4796 30.0921 17.6145 29.5522 17.7045C28.8773 17.817 28.1799 17.907 27.505 18.1319C27.0101 18.2894 26.5152 18.4694 25.9978 18.6494C25.5253 18.8068 24.9854 18.9418 24.5805 19.2118C24.468 19.2793 24.333 19.3917 24.378 19.5267C24.4455 19.7517 24.8954 19.7517 25.0529 19.7742C25.5478 19.7967 26.0428 19.7742 26.5377 19.7742C26.7626 19.7742 27.0101 19.7517 27.2351 19.7742C27.55 19.7967 27.7975 19.7967 28.1124 19.7742C28.4724 19.7517 28.8548 19.7517 29.2147 19.6392C29.8896 19.4142 30.5645 19.1668 31.2394 18.8968C31.8468 18.6494 32.7017 18.1769 32.6567 17.4346C32.6567 17.0971 32.4542 16.6472 32.2293 16.5122Z" fill="#C4B0B8"/>
<path opacity="0.47" fill-rule="evenodd" clip-rule="evenodd" d="M33.2161 17.0971C33.1261 16.8946 33.0811 16.8497 33.1936 16.6472C33.2611 16.5347 33.4635 16.3547 33.621 16.3547C33.936 16.3547 33.936 16.6922 33.8685 16.9171C33.801 17.0971 33.7335 17.3896 33.5085 17.3896C33.4185 17.3896 33.396 17.3896 33.3061 17.3221C33.2386 17.2771 33.1261 17.0971 33.0586 17.0971H33.2161Z" fill="#C4B0B8"/>
<path opacity="0.47" fill-rule="evenodd" clip-rule="evenodd" d="M11.7782 17.6821C11.7332 17.907 11.6882 18.132 11.8007 18.357C11.9582 18.6719 12.2956 18.8744 12.6106 18.9644C12.813 19.0319 13.0155 19.0543 13.218 19.0543C13.4429 19.0543 13.6904 19.0993 13.9154 19.0993C14.2753 19.0993 14.5903 19.1218 14.9502 19.1893C15.1302 19.2118 15.3326 19.2793 15.5126 19.3018C15.6701 19.3243 15.8051 19.3468 15.9625 19.3693C16.2775 19.4368 16.5924 19.4368 16.8849 19.4818C17.1998 19.5268 17.5598 19.5043 17.8747 19.4593C18.1672 19.4143 18.4596 19.3693 18.5946 19.0993C18.7071 18.8744 18.6171 18.7619 18.4371 18.6269C18.2572 18.4919 17.9872 18.4469 17.7847 18.3795C17.4698 18.2895 17.1773 18.177 16.8624 18.1095C16.435 17.997 16.0075 17.8395 15.5801 17.7271C14.7027 17.4571 13.8479 17.0972 12.9255 17.0072C12.5431 16.9622 12.0932 16.9622 11.7332 17.1422C11.6207 17.2096 11.5307 17.2996 11.4858 17.4346C11.4408 17.6146 11.5307 17.7271 11.7782 17.6821Z" fill="#C4B0B8"/>
<path opacity="0.47" fill-rule="evenodd" clip-rule="evenodd" d="M11.7324 16.0624C11.7774 16.2199 11.7774 16.2649 11.9124 16.3099C12.0024 16.3324 12.1149 16.3774 12.2273 16.3324C12.3623 16.2874 12.4973 16.1974 12.5198 16.0624C12.5423 15.905 12.4073 15.815 12.2948 15.7475C12.0474 15.6125 11.8674 15.635 11.7324 15.905V16.0624V16.0624Z" fill="#C4B0B8"/>
<path opacity="0.47" fill-rule="evenodd" clip-rule="evenodd" d="M22.1037 5.19661C22.1037 5.10662 22.1037 5.03913 22.1487 4.94915C22.1937 4.83667 22.2387 4.72418 22.3062 4.6342C22.3512 4.56671 22.3737 4.49922 22.4187 4.40923C22.4862 4.31925 22.5537 4.20677 22.5986 4.11678C22.6661 3.9818 22.7786 3.86932 22.8686 3.75684C22.9361 3.66685 22.9811 3.59936 23.0486 3.50938C23.0936 3.44189 23.1386 3.3744 23.1836 3.30691C23.2285 3.21693 23.2735 3.10444 23.3185 3.01446C23.3635 2.90198 23.431 2.81199 23.476 2.722C23.521 2.65452 23.566 2.58703 23.6335 2.51954C23.6785 2.49704 23.7235 2.40706 23.791 2.40706C23.9034 2.36206 23.9709 2.40706 24.0384 2.49704C24.1284 2.67701 24.1734 2.92447 24.1734 3.12694C24.1734 3.3519 24.1284 3.57687 24.0609 3.77934C24.0159 3.93681 23.9259 4.07179 23.8359 4.20677C23.701 4.45423 23.521 4.70169 23.341 4.94915C23.251 5.08413 23.0711 5.19661 22.9361 5.30909C22.8461 5.37658 22.7561 5.42157 22.6436 5.46657C22.5986 5.46657 22.5087 5.48906 22.4412 5.48906C22.3737 5.46657 22.3287 5.44407 22.2612 5.42157C22.1262 5.35408 22.0587 5.2416 22.1037 5.19661Z" fill="#C4B0B8"/>
<path opacity="0.47" fill-rule="evenodd" clip-rule="evenodd" d="M21.564 5.3989C21.474 5.44389 21.3841 5.46638 21.3616 5.55637C21.3616 5.57887 21.3391 5.64636 21.3616 5.66885C21.4291 5.75884 21.654 5.64636 21.7215 5.57887C21.7665 5.53387 21.834 5.42139 21.789 5.3539C21.744 5.28641 21.654 5.28641 21.5865 5.33141V5.3989H21.564Z" fill="#C4B0B8"/>
<path opacity="0.47" fill-rule="evenodd" clip-rule="evenodd" d="M25.9052 1.86709C25.8603 1.88959 25.7928 1.93458 25.7478 1.97957C25.7253 2.00207 25.7028 2.06956 25.7028 2.11455C25.6353 2.27202 25.6128 2.4295 25.5903 2.58697C25.5678 2.74445 25.5678 3.0369 25.7478 3.10439C26.1077 3.23937 26.6476 2.96941 26.6926 2.56448C26.7151 2.33951 26.5801 2.11455 26.4452 1.93458C26.3777 1.84459 26.3102 1.75461 26.2202 1.68712C26.1527 1.64213 26.0852 1.61963 25.9952 1.61963C25.8827 1.61963 25.7703 1.75461 25.9052 1.86709Z" fill="#C4B0B8"/>
<path opacity="0.47" fill-rule="evenodd" clip-rule="evenodd" d="M25.8391 3.89189C25.8391 3.8019 25.8391 3.8019 25.8841 3.73441C25.9066 3.71192 25.9516 3.66692 25.9966 3.64443C26.0866 3.62193 26.1315 3.68942 26.154 3.75691C26.154 3.8244 26.154 3.93688 26.109 3.98187C26.0641 4.02687 25.8166 3.98187 25.8391 3.89189V3.89189Z" fill="#C4B0B8"/>
<path opacity="0.47" fill-rule="evenodd" clip-rule="evenodd" d="M28.5159 2.22702C28.4709 2.3845 28.4934 2.54197 28.4484 2.69945C28.4034 2.94691 28.3809 3.21687 28.3584 3.48682C28.3584 3.6218 28.3584 3.75678 28.3584 3.89176C28.3584 4.04923 28.3359 4.2292 28.3359 4.38668C28.3584 4.58915 28.3809 4.81411 28.5159 4.99408C28.6059 5.10656 28.7634 5.06157 28.8983 5.01658C29.0108 4.97158 29.1008 4.8816 29.1908 4.83661C29.2583 4.79161 29.3258 4.72412 29.3933 4.67913C29.6857 4.40917 29.9557 4.11672 30.0682 3.71179C30.1581 3.41933 30.2481 3.10438 30.1581 2.81193C30.1132 2.60946 30.0457 2.45199 29.9107 2.29451C29.8207 2.18203 29.7082 2.11454 29.5732 2.04705C29.4608 1.97956 29.3483 1.97956 29.2358 1.95707C29.1233 1.93457 29.0558 1.93457 28.9433 1.93457C28.8534 1.93457 28.7634 1.93457 28.6734 1.95707C28.4934 1.93457 28.4484 2.18203 28.5159 2.22702Z" fill="#C4B0B8"/>
<path opacity="0.47" fill-rule="evenodd" clip-rule="evenodd" d="M28.8066 5.4215C28.8516 5.30902 28.9191 5.19654 29.0541 5.26403C29.1441 5.30902 29.1891 5.4215 29.1441 5.51149C29.1216 5.57898 29.0316 5.62397 28.9641 5.60147C28.9191 5.57898 28.8741 5.53398 28.8516 5.51149C28.8066 5.444 28.8516 5.39901 28.8516 5.33152L28.8066 5.4215Z" fill="#C4B0B8"/>
<path opacity="0.47" fill-rule="evenodd" clip-rule="evenodd" d="M29.1686 8.05351C29.0786 8.05351 28.9661 8.076 28.8762 8.121C28.8762 8.14349 28.8537 8.16599 28.8312 8.18849C28.8087 8.21098 28.7637 8.25597 28.7637 8.27847C28.8987 8.32346 29.0561 8.25597 29.1686 8.18849C29.2136 8.16599 29.2811 8.121 29.3261 8.076C29.3486 8.05351 29.3936 8.00851 29.4161 7.98602C29.4611 7.91853 29.4161 7.87354 29.3486 7.87354C29.2811 7.87354 29.1011 7.94102 29.1011 8.03101L29.1686 8.05351Z" fill="#C4B0B8"/>
<path opacity="0.47" fill-rule="evenodd" clip-rule="evenodd" d="M33.2415 7.6263C33.2415 7.73879 33.219 7.76128 33.1965 7.87376C33.1515 7.96375 33.1065 8.07623 33.129 8.16622C33.174 8.39118 33.489 8.34619 33.6464 8.32369C33.8489 8.3012 34.0289 8.2562 34.1639 8.12122C34.2763 8.00874 34.3213 7.94125 34.3438 7.76128C34.3888 7.51382 34.4338 7.10889 34.0739 7.10889C33.9164 7.10889 33.7814 7.17638 33.6464 7.26636C33.5565 7.33385 33.489 7.40134 33.4215 7.49133C33.354 7.58131 33.264 7.6488 33.2415 7.6263Z" fill="#C4B0B8"/>
<path opacity="0.47" fill-rule="evenodd" clip-rule="evenodd" d="M30.6757 21.0116C30.7881 20.6742 30.9456 20.3817 31.2606 20.1793C31.3281 20.1343 31.3955 20.0668 31.4855 20.1118C31.553 20.1568 31.553 20.2242 31.5305 20.3142C31.508 20.4042 31.418 20.5392 31.3506 20.6067C31.2831 20.6967 31.1931 20.7642 31.1256 20.8541C31.0806 20.8991 31.0131 20.9441 30.9456 20.9666C30.8781 20.9666 30.8106 20.9441 30.6757 21.0116Z" fill="#C4B0B8"/>
<path opacity="0.47" fill-rule="evenodd" clip-rule="evenodd" d="M18.1673 21.3939C18.1673 21.2589 18.2573 21.1914 18.3473 21.1015C18.5722 20.9215 18.8647 20.7865 19.1347 20.6965C19.3821 20.629 19.6746 20.5615 19.922 20.629C20.0345 20.6515 20.1695 20.719 20.2145 20.8315C20.3045 21.034 20.0795 21.3264 19.922 21.4389C19.7196 21.5739 19.4271 21.6189 19.2021 21.6864C18.9997 21.7538 18.7522 21.7763 18.5498 21.7314C18.4823 21.7314 18.3923 21.7089 18.3248 21.6864C18.2573 21.6639 18.1673 21.6639 18.1223 21.6189C18.0548 21.5964 17.9873 21.5289 17.9648 21.4614C17.9648 21.4164 17.9648 21.3714 17.9873 21.3264C18.0323 21.3039 18.1223 21.3039 18.1673 21.3939Z" fill="#C4B0B8"/>
</g>
<g style="mix-blend-mode:soft-light">
<path fill-rule="evenodd" clip-rule="evenodd" d="M32.8827 6.7489C32.7927 6.79389 32.6577 6.88388 32.6802 6.99636C32.7027 7.06385 32.7252 7.10884 32.7477 7.15384C32.7702 7.19883 32.7702 7.24382 32.7702 7.31131C32.7702 7.3788 32.8152 7.49128 32.8602 7.53628C32.9052 7.58127 32.9277 7.53628 32.9502 7.49128C32.9727 7.44629 32.9952 7.4013 33.0177 7.3563C33.0177 7.28882 33.0177 7.22133 33.0402 7.17633C33.0402 7.15384 33.0627 7.13134 33.0627 7.10884C33.0627 7.08635 33.0627 7.04136 33.0627 6.99636C33.0852 6.90638 33.0177 6.7714 32.8827 6.7489Z" fill="#C4B0FF"/>
<path fill-rule="evenodd" clip-rule="evenodd" d="M31.6026 13.6551C31.5801 13.6551 31.5801 13.6776 31.5577 13.6776V13.7001C31.5577 13.7451 31.6026 13.7451 31.6251 13.7676C31.6926 13.7901 31.7826 13.7901 31.8501 13.7451C31.8951 13.7226 31.9401 13.6551 31.9401 13.6101C31.9401 13.5202 31.8951 13.4752 31.8276 13.4302C31.7826 13.4077 31.6926 13.3627 31.6251 13.4077C31.6026 13.4302 31.5801 13.4302 31.5801 13.4752C31.5801 13.4977 31.5801 13.5202 31.5577 13.5427C31.5577 13.5652 31.5352 13.5877 31.5352 13.6101C31.5801 13.6326 31.6026 13.6326 31.6026 13.6551Z" fill="#C4B0FF"/>
<path fill-rule="evenodd" clip-rule="evenodd" d="M32.0523 13.7903C32.0523 13.7678 32.0523 13.7678 32.0748 13.7453C32.0973 13.7228 32.0973 13.7228 32.1198 13.7453C32.1423 13.7678 32.1423 13.8128 32.1423 13.8353C32.1198 13.8577 32.0973 13.8577 32.0748 13.8577C32.0523 13.8353 32.0298 13.8128 32.0523 13.7903Z" fill="#C4B0FF"/>
<path fill-rule="evenodd" clip-rule="evenodd" d="M33.1076 12.148C33.0626 12.148 33.0626 12.148 33.0401 12.193C33.0176 12.2155 33.0176 12.2155 33.0176 12.238C33.0176 12.283 33.0626 12.3505 33.0851 12.373C33.1076 12.3955 33.1526 12.3955 33.1751 12.3955C33.1975 12.3955 33.22 12.373 33.2425 12.3505C33.265 12.328 33.2875 12.328 33.31 12.3055C33.355 12.283 33.3775 12.238 33.355 12.193C33.355 12.148 33.31 12.1031 33.265 12.1031C33.2425 12.1031 33.1975 12.1031 33.1751 12.1031C33.1751 12.0806 33.1526 12.0806 33.1076 12.148Z" fill="#C4B0FF"/>
<path fill-rule="evenodd" clip-rule="evenodd" d="M32.929 12.283C32.9515 12.283 32.974 12.3055 32.9965 12.328V12.3504C32.9965 12.3729 32.9515 12.3504 32.9515 12.3504C32.929 12.3504 32.929 12.328 32.9065 12.3055C32.9065 12.3055 32.884 12.283 32.9065 12.283H32.929Z" fill="#C4B0FF"/>
<path fill-rule="evenodd" clip-rule="evenodd" d="M30.5201 13.1828C30.4976 13.2053 30.4751 13.2278 30.4976 13.2728C30.5201 13.3178 30.5651 13.3178 30.5876 13.3178C30.6101 13.3178 30.6326 13.3178 30.6326 13.2953C30.6326 13.2728 30.6326 13.2503 30.6551 13.2278C30.6776 13.1828 30.7226 13.1603 30.7001 13.1153C30.7001 13.0928 30.6551 13.0703 30.6326 13.0703C30.5876 13.0703 30.5426 13.1153 30.5201 13.1378V13.1828Z" fill="#C4B0FF"/>
<path fill-rule="evenodd" clip-rule="evenodd" d="M24.043 17.7945C24.0655 17.772 24.0655 17.7045 24.133 17.682C24.1779 17.6595 24.2004 17.682 24.2229 17.682C24.2904 17.7045 24.3804 17.727 24.3129 17.7945C24.2904 17.817 24.2229 17.862 24.1779 17.862C24.133 17.862 24.043 17.862 24.0655 17.817L24.043 17.7945Z" fill="#C4B0FF"/>
<path fill-rule="evenodd" clip-rule="evenodd" d="M28.6085 1.91222C28.586 1.97971 28.5635 2.0697 28.6535 2.11469C28.6985 2.13719 28.7885 2.11469 28.8335 2.0697C28.901 2.0247 28.9684 1.88973 28.9909 1.79974C29.0134 1.70975 28.901 1.61977 28.811 1.59727C28.6535 1.57478 28.5635 1.84473 28.541 1.95721L28.6085 1.91222Z" fill="#C4B0FF"/>
<path fill-rule="evenodd" clip-rule="evenodd" d="M28.2264 16.9398C28.1589 17.0298 28.1589 17.1198 28.1814 17.2098C28.1814 17.2548 28.1814 17.3448 28.2714 17.3672C28.4514 17.4122 28.6089 17.0973 28.6538 16.9848C28.6988 16.8948 28.7213 16.8048 28.6988 16.7149C28.6988 16.6699 28.6538 16.5574 28.6089 16.5574C28.5414 16.5349 28.4289 16.5799 28.3839 16.6249C28.2489 16.7598 28.2714 16.8948 28.2039 17.0298L28.2264 16.9398Z" fill="#C4B0FF"/>
<path fill-rule="evenodd" clip-rule="evenodd" d="M28.1361 16.9397C28.1136 16.9397 28.0461 16.9622 28.0011 16.9847C27.9786 17.0072 27.9561 17.0072 27.9336 17.0297C27.9336 17.0522 27.9336 17.0747 27.9561 17.0972C27.9786 17.0972 28.0011 17.1197 28.0236 17.0972C28.0461 17.0972 28.0461 17.0747 28.0686 17.0522C28.0911 17.0297 28.1136 17.0072 28.1136 16.9847C28.1361 16.9847 28.1586 16.9622 28.1361 16.9397C28.1586 16.9397 28.1586 16.9397 28.1361 16.9397Z" fill="#C4B0FF"/>
<path fill-rule="evenodd" clip-rule="evenodd" d="M27.9563 17.6821C27.9788 17.6821 28.0013 17.6821 28.0238 17.7046C28.0238 17.7271 28.0238 17.7496 28.0013 17.7496C27.9788 17.7496 27.9338 17.7721 27.9338 17.7496C27.9113 17.7496 27.8888 17.7271 27.8888 17.7046C27.8663 17.7046 27.9113 17.7046 27.9563 17.6821Z" fill="#C4B0FF"/>
<path fill-rule="evenodd" clip-rule="evenodd" d="M25.0774 18.3344C25.0774 18.3569 25.0774 18.3794 25.0999 18.3794C25.1449 18.4019 25.1899 18.3794 25.2124 18.3569C25.2574 18.3119 25.2799 18.2444 25.2574 18.1994C25.2349 18.1769 25.1899 18.1544 25.1449 18.1769C25.1224 18.1994 25.0999 18.1994 25.0774 18.2219C25.0549 18.2669 25.0549 18.2894 25.0774 18.3344Z" fill="#C4B0FF"/>
<path fill-rule="evenodd" clip-rule="evenodd" d="M22.0411 13.4077C22.0186 13.4302 22.0186 13.4302 21.9961 13.4527C21.9961 13.4752 21.9961 13.5202 21.9961 13.5427C22.0186 13.5877 22.1086 13.6327 22.1761 13.6327C22.2211 13.6552 22.2661 13.6327 22.311 13.6102C22.356 13.5652 22.401 13.5202 22.401 13.4752C22.401 13.4077 22.401 13.3627 22.3335 13.3177C22.2885 13.2952 22.2211 13.2502 22.1761 13.2502C22.1311 13.2502 22.0861 13.2502 22.0636 13.2952C22.0411 13.3177 21.9961 13.3852 22.0411 13.4077Z" fill="#C4B0FF"/>
<path fill-rule="evenodd" clip-rule="evenodd" d="M22.4922 13.6102C22.4922 13.5877 22.4922 13.5652 22.5147 13.5652C22.5372 13.5652 22.5822 13.5877 22.6047 13.5877C22.6272 13.6102 22.6272 13.6327 22.6272 13.6552C22.6272 13.6777 22.6047 13.6777 22.6047 13.7002C22.5822 13.7227 22.5597 13.7227 22.5372 13.7002C22.5147 13.7002 22.4922 13.6777 22.4922 13.6552V13.6102Z" fill="#C4B0FF"/>
<path fill-rule="evenodd" clip-rule="evenodd" d="M13.9417 11.8781C13.8067 11.6981 13.7617 11.4956 13.7617 11.2707C13.7617 11.1807 13.7617 11.0232 13.8967 11.0232C14.0767 11.0457 14.1667 11.3156 14.2116 11.4506C14.2791 11.6531 14.3466 11.8556 14.3241 12.0805C14.2791 12.373 13.8967 11.7881 13.8517 11.7206L13.9417 11.8781Z" fill="#C4B0FF"/>
<path fill-rule="evenodd" clip-rule="evenodd" d="M14.3011 10.888C14.2786 11.068 14.346 11.3155 14.526 11.3605C14.5935 11.383 14.616 11.338 14.661 11.2705C14.706 11.203 14.7285 11.1355 14.6835 11.068C14.661 11.023 14.6385 10.978 14.5935 10.933C14.571 10.9105 14.5485 10.888 14.5485 10.8656C14.526 10.8431 14.5485 10.8206 14.526 10.7981C14.481 10.7306 14.2786 10.6856 14.3011 10.8206V10.888V10.888Z" fill="#C4B0FF"/>
<path fill-rule="evenodd" clip-rule="evenodd" d="M16.2363 23.1937C16.2813 23.0812 16.3488 22.9912 16.4613 22.9237C16.5513 22.8562 16.7088 22.7887 16.8212 22.7662C16.9337 22.7437 17.0912 22.7437 17.2037 22.7887C17.3162 22.8562 17.4286 22.9462 17.5186 23.0137C17.6086 23.0812 17.7211 23.1037 17.8111 23.1937C17.8786 23.2612 17.9461 23.3736 17.991 23.4636C18.0585 23.6211 18.1035 23.8686 18.036 24.026C17.9686 24.1835 17.8786 24.1835 17.7436 24.161C17.5411 24.161 17.3387 23.981 17.2037 23.8461C17.1362 23.7786 17.0912 23.6886 17.0012 23.6211C16.9112 23.5536 16.8212 23.4861 16.7088 23.4186C16.6188 23.3511 16.5063 23.3062 16.4388 23.2387C16.3713 23.2387 16.2588 23.1487 16.2363 23.1937Z" fill="#C4B0FF"/>
<path fill-rule="evenodd" clip-rule="evenodd" d="M19.7696 13.9026C19.7471 13.9701 19.7471 14.0151 19.7921 14.0376C19.8371 14.0601 19.8596 14.0601 19.9046 14.0376C19.9496 14.0151 20.0396 13.9251 20.0171 13.8801C19.9946 13.7676 19.7246 13.7676 19.7246 13.9026H19.7696V13.9026Z" fill="#C4B0FF"/>
<path fill-rule="evenodd" clip-rule="evenodd" d="M24.9204 17.4346C24.8754 17.2321 25.0778 16.9397 25.3253 16.7597C25.6627 16.5123 26.1802 16.4673 26.5401 16.5123C26.855 16.5573 27.125 16.7147 27.17 16.9397C27.1925 17.0072 27.17 17.0747 27.1925 17.1197C27.215 17.1647 27.215 17.1871 27.1475 17.2321C26.9675 17.3221 26.7201 17.3896 26.5176 17.4121C26.3151 17.4571 26.0677 17.4796 25.8652 17.4796C25.6852 17.4796 25.5053 17.4571 25.3253 17.4346C25.2353 17.4346 25.1453 17.4346 25.0553 17.4121C25.0553 17.4346 24.9429 17.4571 24.9204 17.4346Z" fill="#C4B0FF"/>
<path fill-rule="evenodd" clip-rule="evenodd" d="M26.6516 16.175C26.6741 16.22 26.6741 16.2425 26.7416 16.2425C26.7866 16.2425 26.8316 16.22 26.8766 16.1975C26.9216 16.175 26.9891 16.1075 26.9666 16.0625C26.9216 15.995 26.6291 16.04 26.6516 16.13V16.175Z" fill="#C4B0FF"/>
<path fill-rule="evenodd" clip-rule="evenodd" d="M31.332 12.2155C31.332 12.1705 31.3545 12.0805 31.3995 12.058C31.422 12.0355 31.467 12.0355 31.4895 12.0355C31.557 12.0355 31.602 12.058 31.647 12.1255C31.6695 12.148 31.7145 12.193 31.7145 12.2155C31.7595 12.463 31.377 12.3505 31.332 12.2155Z" fill="#C4B0FF"/>
</g>
<path d="M34.9375 6.54203C35.2777 6.97983 35.5694 7.41764 35.8124 7.90408C38.1456 7.32035 39.701 7.17441 39.8955 7.7095C40.0899 8.2446 39.0205 9.26613 36.979 10.5795C34.3056 12.3308 29.9795 14.6171 25.0215 16.8061C20.0635 18.9951 15.4458 20.649 12.3349 21.476C10.0017 22.0597 8.44625 22.2056 8.25182 21.6705C8.00878 21.1841 9.12676 20.1139 11.1683 18.8005C11.0225 18.2654 10.8766 17.779 10.7794 17.2439C3.87713 20.9409 -0.44896 24.1028 0.0371173 25.2702C0.571802 26.4864 5.82144 25.4162 13.2098 22.7894C16.904 21.5246 21.0843 19.8707 25.5076 17.9249C29.9309 15.9791 33.9653 13.9847 37.4165 12.1362C44.2702 8.43917 48.5962 5.27727 48.1102 4.06115C47.5755 2.89368 42.3258 3.96386 34.9375 6.54203Z" fill="url(#paint1_linear_3854_4273)"/>
<defs>
<radialGradient id="paint0_radial_3854_4273" cx="0" cy="0" r="1" gradientUnits="userSpaceOnUse" gradientTransform="translate(20.6099 8.89973) scale(18.1927)">
<stop stop-color="#7CC5FF"/>
<stop offset="0.8436" stop-color="#482088"/>
<stop offset="0.9478" stop-color="#403B77"/>
<stop offset="0.9972" stop-color="#4D79D1"/>
</radialGradient>
<linearGradient id="paint1_linear_3854_4273" x1="3.43901" y1="20.8765" x2="52.5454" y2="6.15213" gradientUnits="userSpaceOnUse">
<stop stop-color="#5D7AB7"/>
<stop offset="1" stop-color="#603CA6"/>
</linearGradient>
</defs>
</svg>
