<svg width="30" height="29" viewBox="0 0 30 29" fill="none" xmlns="http://www.w3.org/2000/svg">
<path opacity="0.3" d="M18.2285 20.1878C17.7572 19.7159 17.7572 18.9508 18.2285 18.4789C18.6997 18.007 19.4638 18.007 19.9351 18.4789L24.7621 23.3122C25.2334 23.7841 25.2334 24.5492 24.7621 25.0211C24.2908 25.493 23.5268 25.493 23.0555 25.0211L18.2285 20.1878Z" fill="#464E5F"/>
<path fill-rule="evenodd" clip-rule="evenodd" d="M5.80859 13.2917C5.80859 17.9631 9.59059 21.75 14.2559 21.75C18.9213 21.75 22.7033 17.9631 22.7033 13.2917C22.7033 8.6203 18.9213 4.83337 14.2559 4.83337C9.59059 4.83337 5.80859 8.6203 5.80859 13.2917ZM20.288 13.2919C20.288 16.6286 17.5866 19.3336 14.2542 19.3336C10.9218 19.3336 8.2204 16.6286 8.2204 13.2919C8.2204 9.9552 10.9218 7.25026 14.2542 7.25026C17.5866 7.25026 20.288 9.9552 20.288 13.2919Z" fill="#464E5F"/>
</svg>
