<svg width="21" height="21" viewBox="0 0 21 21" fill="none" xmlns="http://www.w3.org/2000/svg">
<path opacity="0.3" d="M12.5063 14.6187C12.1646 14.277 12.1646 13.723 12.5063 13.3813C12.848 13.0396 13.402 13.0396 13.7437 13.3813L17.2437 16.8813C17.5854 17.223 17.5854 17.777 17.2437 18.1187C16.902 18.4604 16.348 18.4604 16.0063 18.1187L12.5063 14.6187Z" fill="#009EF6"/>
<path fill-rule="evenodd" clip-rule="evenodd" d="M3.5 9.625C3.5 13.0077 6.24226 15.75 9.625 15.75C13.0077 15.75 15.75 13.0077 15.75 9.625C15.75 6.24226 13.0077 3.5 9.625 3.5C6.24226 3.5 3.5 6.24226 3.5 9.625ZM14 9.62503C14 12.0413 12.0413 14 9.62501 14C7.20876 14 5.25001 12.0413 5.25001 9.62503C5.25001 7.20878 7.20876 5.25003 9.62501 5.25003C12.0413 5.25003 14 7.20878 14 9.62503Z" fill="#009EF6"/>
</svg>
