<svg width="77" height="70" viewBox="0 0 77 70" fill="none" xmlns="http://www.w3.org/2000/svg">
<rect width="77" height="70" rx="6" fill="#FFC542"/>
<path opacity="0.3" d="M42.5634 44.8949C41.701 44.0325 41.701 42.6342 42.5634 41.7718C43.4258 40.9094 44.8241 40.9094 45.6865 41.7718L54.5198 50.6051C55.3822 51.4675 55.3822 52.8658 54.5198 53.7282C53.6574 54.5906 52.2592 54.5906 51.3968 53.7282L42.5634 44.8949Z" fill="white"/>
<path fill-rule="evenodd" clip-rule="evenodd" d="M19.8334 32.2916C19.8334 40.829 26.7543 47.7499 35.2917 47.7499C43.8291 47.7499 50.75 40.829 50.75 32.2916C50.75 23.7542 43.8291 16.8333 35.2917 16.8333C26.7543 16.8333 19.8334 23.7542 19.8334 32.2916ZM46.3334 32.2915C46.3334 38.3897 41.3898 43.3332 35.2917 43.3332C29.1936 43.3332 24.25 38.3897 24.25 32.2915C24.25 26.1934 29.1936 21.2499 35.2917 21.2499C41.3898 21.2499 46.3334 26.1934 46.3334 32.2915Z" fill="white"/>
</svg>
