<svg width="22" height="22" viewBox="0 0 22 22" fill="none" xmlns="http://www.w3.org/2000/svg">
<path d="M2.75 5.5H4.58333H19.25" stroke="#B5B5C3" stroke-width="2" stroke-linecap="round" stroke-linejoin="round"/>
<path d="M17.4167 5.50016V18.3335C17.4167 18.8197 17.2235 19.286 16.8797 19.6299C16.5359 19.9737 16.0696 20.1668 15.5833 20.1668H6.41668C5.93045 20.1668 5.46413 19.9737 5.12031 19.6299C4.7765 19.286 4.58334 18.8197 4.58334 18.3335V5.50016M7.33334 5.50016V3.66683C7.33334 3.1806 7.5265 2.71428 7.87031 2.37047C8.21413 2.02665 8.68045 1.8335 9.16668 1.8335H12.8333C13.3196 1.8335 13.7859 2.02665 14.1297 2.37047C14.4735 2.71428 14.6667 3.1806 14.6667 3.66683V5.50016" stroke="#B5B5C3" stroke-width="2" stroke-linecap="round" stroke-linejoin="round"/>
<path d="M9.16666 10.0835V15.5835" stroke="#B5B5C3" stroke-width="2" stroke-linecap="round" stroke-linejoin="round"/>
<path d="M12.8333 10.0835V15.5835" stroke="#B5B5C3" stroke-width="2" stroke-linecap="round" stroke-linejoin="round"/>
</svg>
