<svg width="28" height="28" viewBox="0 0 28 28" fill="none" xmlns="http://www.w3.org/2000/svg">
<g clip-path="url(#clip0_1154_628)">
<path d="M28 5.268C26.9587 5.72044 25.8492 6.02034 24.6925 6.16595C25.8825 5.46215 26.7908 4.35618 27.2178 3.02313C26.1083 3.67839 24.8832 4.14123 23.5777 4.39952C22.5243 3.28835 21.0227 2.60016 19.3848 2.60016C16.2067 2.60016 13.6482 5.15532 13.6482 8.28774C13.6482 8.73845 13.6868 9.17182 13.7812 9.58439C9.009 9.35384 4.78625 7.08817 1.9495 3.63679C1.45425 4.48793 1.16375 5.46215 1.16375 6.51091C1.16375 8.48016 2.1875 10.2258 3.7135 11.2364C2.79125 11.2191 1.8865 10.9539 1.12 10.5361C1.12 10.5534 1.12 10.5759 1.12 10.5985C1.12 13.3617 3.10975 15.6568 5.719 16.1855C5.25175 16.3121 4.7425 16.3727 4.214 16.3727C3.8465 16.3727 3.4755 16.3519 3.12725 16.2757C3.871 18.5275 5.9815 20.183 8.491 20.2367C6.538 21.75 4.05825 22.6618 1.37375 22.6618C0.903 22.6618 0.4515 22.641 0 22.5838C2.54275 24.2081 5.55625 25.1355 8.806 25.1355C19.369 25.1355 25.144 16.4681 25.144 8.95514C25.144 8.70378 25.1353 8.46109 25.123 8.22014C26.2622 7.41926 27.2195 6.41904 28 5.268Z" fill="#03A9F4"/>
</g>
<defs>
<clipPath id="clip0_1154_628">
<rect width="28" height="27.7358" fill="white"/>
</clipPath>
</defs>
</svg>
