<svg width="46" height="52" viewBox="0 0 46 52" fill="none" xmlns="http://www.w3.org/2000/svg">
<path fill-rule="evenodd" clip-rule="evenodd" d="M43.51 17.5784C40.8706 14.2894 37.1676 12.3867 33.6719 12.3867C29.0473 12.3867 27.0934 14.5838 23.885 14.5838C20.5782 14.5838 18.0636 12.3899 14.0636 12.3899C10.1346 12.3899 5.95737 14.7765 3.30905 18.8552C-0.417671 24.5909 0.213369 35.3826 6.25625 44.5787C8.41753 47.867 11.3039 51.565 15.078 51.6002C18.4322 51.6309 19.3814 49.4606 23.9324 49.435C28.4841 49.4101 29.3449 51.6238 32.6985 51.5925C36.4726 51.5566 39.5177 47.4619 41.6777 44.173C43.2258 41.8171 43.8025 40.6267 45.0051 37.9637C36.2684 34.6626 34.8636 22.3176 43.51 17.5784Z" fill="#A1A5B7"/>
<path fill-rule="evenodd" clip-rule="evenodd" d="M30.164 8.71222C31.844 6.5567 33.1202 3.51158 32.6568 0.399902C29.9125 0.589342 26.7023 2.33462 24.8283 4.6111C23.1272 6.67702 21.7224 9.7407 22.269 12.7186C25.2648 12.8114 28.365 11.0213 30.164 8.71222Z" fill="#A1A5B7"/>
</svg>
