<svg width="25" height="25" viewBox="0 0 25 25" fill="none" xmlns="http://www.w3.org/2000/svg">
<ellipse rx="11.8163" ry="12.5" transform="matrix(-1 0 0 1 12.4489 12.5)" fill="#A1A5B7"/>
<path d="M11.8151 18.0027C11.9159 18.0031 12.0156 17.9795 12.1068 17.9338C12.1979 17.888 12.2783 17.8212 12.3418 17.7384L15.6037 13.4519C15.703 13.324 15.7573 13.1637 15.7573 12.9982C15.7573 12.8327 15.703 12.6724 15.6037 12.5446L12.227 8.25808C12.1124 8.11219 11.9477 8.02044 11.7691 8.00302C11.5905 7.98561 11.4127 8.04395 11.2748 8.16521C11.1369 8.28647 11.0501 8.46073 11.0337 8.64964C11.0172 8.83855 11.0724 9.02664 11.187 9.17253L14.2057 13.0018L11.2883 16.8311C11.2057 16.9359 11.1533 17.0636 11.1371 17.199C11.121 17.3344 11.1419 17.4719 11.1973 17.5952C11.2527 17.7184 11.3403 17.8223 11.4498 17.8945C11.5593 17.9668 11.686 18.0043 11.8151 18.0027Z" fill="white"/>
</svg>
