<svg width="24" height="25" viewBox="0 0 24 25" fill="none" xmlns="http://www.w3.org/2000/svg">
<ellipse cx="11.8163" cy="12.5" rx="11.8163" ry="12.5" fill="#A1A5B7"/>
<path d="M12.45 18.0027C12.3491 18.0031 12.2494 17.9795 12.1582 17.9338C12.0671 17.888 11.9868 17.8212 11.9232 17.7384L8.66132 13.4519C8.56199 13.324 8.50769 13.1637 8.50769 12.9982C8.50769 12.8327 8.56199 12.6724 8.66132 12.5446L12.038 8.25808C12.1526 8.11219 12.3174 8.02044 12.4959 8.00302C12.6745 7.98561 12.8523 8.04395 12.9902 8.16521C13.1281 8.28647 13.2149 8.46073 13.2313 8.64964C13.2478 8.83855 13.1927 9.02664 13.078 9.17253L10.0593 13.0018L12.9767 16.8311C13.0593 16.9359 13.1118 17.0636 13.1279 17.199C13.144 17.3344 13.1231 17.4719 13.0677 17.5952C13.0123 17.7184 12.9247 17.8223 12.8152 17.8945C12.7057 17.9668 12.579 18.0043 12.45 18.0027Z" fill="white"/>
</svg>
