<svg width="37" height="36" viewBox="0 0 37 36" fill="none" xmlns="http://www.w3.org/2000/svg">
<path opacity="0.3" fill-rule="evenodd" clip-rule="evenodd" d="M27.8783 12C29.9552 12 31.6389 10.3211 31.6389 8.25C31.6389 6.17893 29.9552 4.5 27.8783 4.5C25.8014 4.5 24.1177 6.17893 24.1177 8.25C24.1177 10.3211 25.8014 12 27.8783 12ZM27.8783 31.5C29.9552 31.5 31.6389 29.8211 31.6389 27.75C31.6389 25.6789 29.9552 24 27.8783 24C25.8014 24 24.1177 25.6789 24.1177 27.75C24.1177 29.8211 25.8014 31.5 27.8783 31.5ZM12.0837 27.75C12.0837 29.8211 10.4 31.5 8.32311 31.5C6.24618 31.5 4.5625 29.8211 4.5625 27.75C4.5625 25.6789 6.24618 24 8.32311 24C10.4 24 12.0837 25.6789 12.0837 27.75Z" fill="#00A3FF"/>
<path fill-rule="evenodd" clip-rule="evenodd" d="M8.32311 12C10.4 12 12.0837 10.3211 12.0837 8.25C12.0837 6.17893 10.4 4.5 8.32311 4.5C6.24618 4.5 4.5625 6.17893 4.5625 8.25C4.5625 10.3211 6.24618 12 8.32311 12ZM15.0922 7C15.0922 6.44772 15.5399 6 16.0922 6H20.1092C20.6615 6 21.1092 6.44772 21.1092 7V8C21.1092 8.55229 20.6615 9 20.1092 9H16.0922C15.5399 9 15.0922 8.55229 15.0922 8V7ZM16.0922 27C15.5399 27 15.0922 27.4477 15.0922 28V29C15.0922 29.5523 15.5399 30 16.0922 30H20.1092C20.6615 30 21.1092 29.5523 21.1092 29V28C21.1092 27.4477 20.6615 27 20.1092 27H16.0922ZM6.06675 16C6.06675 15.4477 6.51447 15 7.06675 15H8.07524C8.62753 15 9.07524 15.4477 9.07524 16V20C9.07524 20.5523 8.62753 21 8.07524 21H7.06675C6.51447 21 6.06675 20.5523 6.06675 20V16ZM28.1262 15C27.5739 15 27.1262 15.4477 27.1262 16V20C27.1262 20.5523 27.5739 21 28.1262 21H29.1347C29.687 21 30.1347 20.5523 30.1347 20V16C30.1347 15.4477 29.687 15 29.1347 15H28.1262Z" fill="#00A3FF"/>
</svg>
