<svg width="24" height="24" viewBox="0 0 24 24" fill="none" xmlns="http://www.w3.org/2000/svg">
<path opacity="0.3" d="M21 22H3C2.4 22 2 21.6 2 21V5C2 4.4 2.4 4 3 4H21C21.6 4 22 4.4 22 5V21C22 21.6 21.6 22 21 22Z" fill="#00A3FF"/>
<path d="M6 6C5.4 6 5 5.6 5 5V3C5 2.4 5.4 2 6 2C6.6 2 7 2.4 7 3V5C7 5.6 6.6 6 6 6ZM11 5V3C11 2.4 10.6 2 10 2C9.4 2 9 2.4 9 3V5C9 5.6 9.4 6 10 6C10.6 6 11 5.6 11 5ZM15 5V3C15 2.4 14.6 2 14 2C13.4 2 13 2.4 13 3V5C13 5.6 13.4 6 14 6C14.6 6 15 5.6 15 5ZM19 5V3C19 2.4 18.6 2 18 2C17.4 2 17 2.4 17 3V5C17 5.6 17.4 6 18 6C18.6 6 19 5.6 19 5Z" fill="#00A3FF"/>
<path d="M8.79961 13.1C9.19961 13.1 9.4996 13 9.6996 12.8C9.8996 12.6 10.0996 12.3 10.0996 11.9C10.0996 11.6 9.99961 11.3 9.79961 11.1C9.59961 10.9 9.2996 10.8 8.9996 10.8C8.7996 10.8 8.5996 10.8 8.3996 10.9C8.1996 11 8.0996 11.1 7.9996 11.2C7.8996 11.3 7.7996 11.4 7.6996 11.6C7.5996 11.8 7.4996 11.9 7.4996 12.1C7.4996 12.2 7.39961 12.2 7.29961 12.3C7.19961 12.4 7.0996 12.4 6.8996 12.4C6.6996 12.4 6.5996 12.3 6.4996 12.2C6.3996 12.1 6.29961 11.9 6.29961 11.7C6.29961 11.5 6.3996 11.3 6.4996 11.1C6.5996 10.9 6.7996 10.7 6.9996 10.5C7.1996 10.3 7.4996 10.1 7.8996 10C8.2996 9.90003 8.59961 9.80003 9.09961 9.80003C9.49961 9.80003 9.79961 9.90003 10.0996 10C10.3996 10.1 10.6996 10.3 10.8996 10.4C11.0996 10.5 11.2996 10.8 11.3996 11.1C11.4996 11.4 11.5996 11.6 11.5996 11.9C11.5996 12.3 11.4996 12.6 11.2996 12.9C11.0996 13.2 10.8996 13.5 10.5996 13.7C10.8996 13.9 11.1996 14.1 11.3996 14.3C11.5996 14.5 11.7996 14.7 11.8996 15C11.9996 15.3 12.0996 15.5 12.0996 15.8C12.0996 16.2 11.9996 16.5 11.8996 16.8C11.7996 17.1 11.4996 17.4 11.2996 17.7C11.0996 18 10.6996 18.2 10.2996 18.3C9.89961 18.4 9.4996 18.5 8.9996 18.5C8.4996 18.5 8.0996 18.4 7.6996 18.2C7.2996 18 6.99961 17.8 6.79961 17.6C6.59961 17.4 6.39961 17.1 6.29961 16.8C6.19961 16.5 6.09961 16.3 6.09961 16.1C6.09961 15.9 6.19961 15.7 6.29961 15.6C6.39961 15.5 6.59961 15.4 6.79961 15.4C6.89961 15.4 6.99961 15.4 7.09961 15.5C7.19961 15.6 7.29961 15.6 7.29961 15.7C7.49961 16.2 7.6996 16.6 7.9996 16.9C8.2996 17.2 8.5996 17.3 8.9996 17.3C9.1996 17.3 9.4996 17.2 9.6996 17.1C9.8996 17 10.0996 16.8 10.2996 16.6C10.4996 16.4 10.4996 16.1 10.4996 15.8C10.4996 15.3 10.3996 15 10.0996 14.7C9.79961 14.4 9.49961 14.3 9.09961 14.3C8.99961 14.3 8.8996 14.3 8.6996 14.3C8.4996 14.3 8.3996 14.3 8.3996 14.3C8.1996 14.3 7.9996 14.2 7.8996 14.1C7.7996 14 7.6996 13.8 7.6996 13.7C7.6996 13.5 7.7996 13.4 7.8996 13.2C7.9996 13 8.1996 13 8.4996 13H8.79961V13.1ZM15.2996 17.5V12.2C14.2996 13 13.5996 13.3 13.2996 13.3C13.0996 13.3 12.9996 13.2 12.8996 13.1C12.7996 13 12.6996 12.8 12.6996 12.6C12.6996 12.4 12.7996 12.3 12.8996 12.2C12.9996 12.1 13.1996 12 13.5996 11.8C14.0996 11.6 14.4996 11.3 14.6996 11.1C14.8996 10.9 15.1996 10.6 15.4996 10.3C15.7996 10 15.8996 9.80003 15.8996 9.70003C15.8996 9.60003 16.0996 9.60004 16.2996 9.60004C16.4996 9.60004 16.6996 9.70003 16.7996 9.80003C16.8996 9.90003 16.9996 10.2 16.9996 10.5V17.2C16.9996 18 16.6996 18.4 16.1996 18.4C15.9996 18.4 15.7996 18.3 15.5996 18.2C15.3996 18.1 15.2996 17.8 15.2996 17.5Z" fill="#00A3FF"/>
</svg>
