<svg width="41" height="44" viewBox="0 0 41 44" fill="none" xmlns="http://www.w3.org/2000/svg">
<path d="M29.8453 28.2747C34.976 25.4573 38.866 23.3107 39.2013 23.144C40.2734 22.5734 41.3813 21.0639 39.2013 19.8915C38.4974 19.5228 34.7076 17.4427 29.8453 14.7607L23.1052 21.5677L29.845 28.2747H29.8453Z" fill="#FFD900"/>
<path d="M23.1052 21.5674L1.64307 43.198C2.14648 43.2649 2.71525 43.1312 3.38611 42.7625C4.7939 41.9922 19.7171 33.8421 29.8456 28.2759L23.1052 21.5674Z" fill="#F43249"/>
<path d="M23.1053 21.5676L29.845 14.7938C29.845 14.7938 4.8957 1.1781 3.38583 0.374689C2.81779 0.0368768 2.18035 -0.0629981 1.61011 0.0368769L23.1053 21.5673V21.5676Z" fill="#00EE76"/>
<path d="M23.1053 21.5675L1.60975 0.0371094C0.737312 0.238695 0 1.00942 0 2.58502V40.6492C0 42.0922 0.570609 43.1313 1.6428 43.2312L23.1049 21.5671L23.1053 21.5675Z" fill="#00D3FF"/>
</svg>
