<svg width="244" height="81" viewBox="0 0 244 81" fill="none" xmlns="http://www.w3.org/2000/svg">
<path d="M207.483 78.503C207.483 78.503 40.2213 90.8134 5.14224 44.8307C-40.3203 -14.7631 304.988 -8.33843 233.12 32.7158C200.761 51.2005 102.736 63.6394 102.736 63.6394" stroke="#7E8299"/>
<path d="M35.0479 33H33.29L28.6055 26.7686L27.2607 27.9639V33H25.7666V20.1504H27.2607V26.5225L33.0879 20.1504H34.8545L29.6865 25.7314L35.0479 33ZM38.0625 33H36.6035V23.3672H38.0625V33ZM36.4805 20.7568C36.4805 20.4229 36.5625 20.1797 36.7266 20.0273C36.8906 19.8691 37.0957 19.79 37.3418 19.79C37.5762 19.79 37.7783 19.8691 37.9482 20.0273C38.1182 20.1855 38.2031 20.4287 38.2031 20.7568C38.2031 21.085 38.1182 21.3311 37.9482 21.4951C37.7783 21.6533 37.5762 21.7324 37.3418 21.7324C37.0957 21.7324 36.8906 21.6533 36.7266 21.4951C36.5625 21.3311 36.4805 21.085 36.4805 20.7568ZM45.0059 33.1758C43.6113 33.1758 42.5303 32.748 41.7627 31.8926C41.001 31.0312 40.6201 29.8154 40.6201 28.2451C40.6201 26.6338 41.0068 25.3887 41.7803 24.5098C42.5596 23.6309 43.667 23.1914 45.1025 23.1914C45.5654 23.1914 46.0283 23.2412 46.4912 23.3408C46.9541 23.4404 47.3174 23.5576 47.5811 23.6924L47.1328 24.9316C46.8105 24.8027 46.459 24.6973 46.0781 24.6152C45.6973 24.5273 45.3604 24.4834 45.0674 24.4834C43.1104 24.4834 42.1318 25.7314 42.1318 28.2275C42.1318 29.4111 42.3691 30.3193 42.8438 30.9521C43.3242 31.585 44.0332 31.9014 44.9707 31.9014C45.7734 31.9014 46.5967 31.7285 47.4404 31.3828V32.6748C46.7959 33.0088 45.9844 33.1758 45.0059 33.1758ZM51.1758 28.0693C51.4277 27.7119 51.8115 27.2432 52.3271 26.6631L55.4385 23.3672H57.1699L53.2676 27.4717L57.4424 33H55.6758L52.2744 28.4473L51.1758 29.3965V33H49.7344V19.3242H51.1758V26.5752C51.1758 26.8975 51.1523 27.3955 51.1055 28.0693H51.1758ZM65.4053 30.3721C65.4053 31.2686 65.0713 31.96 64.4033 32.4463C63.7354 32.9326 62.7979 33.1758 61.5908 33.1758C60.3135 33.1758 59.3174 32.9736 58.6025 32.5693V31.2158C59.0654 31.4502 59.5605 31.6348 60.0879 31.7695C60.6211 31.9043 61.1338 31.9717 61.626 31.9717C62.3877 31.9717 62.9736 31.8516 63.3838 31.6113C63.7939 31.3652 63.999 30.9932 63.999 30.4951C63.999 30.1201 63.835 29.8008 63.5068 29.5371C63.1846 29.2676 62.5518 28.9512 61.6084 28.5879C60.7119 28.2539 60.0732 27.9639 59.6924 27.7178C59.3174 27.4658 59.0361 27.1816 58.8486 26.8652C58.667 26.5488 58.5762 26.1709 58.5762 25.7314C58.5762 24.9463 58.8955 24.3281 59.5342 23.877C60.1729 23.4199 61.0488 23.1914 62.1621 23.1914C63.1992 23.1914 64.2129 23.4023 65.2031 23.8242L64.6846 25.0107C63.7178 24.6123 62.8418 24.4131 62.0566 24.4131C61.3652 24.4131 60.8438 24.5215 60.4922 24.7383C60.1406 24.9551 59.9648 25.2539 59.9648 25.6348C59.9648 25.8926 60.0293 26.1123 60.1582 26.2939C60.293 26.4756 60.5068 26.6484 60.7998 26.8125C61.0928 26.9766 61.6553 27.2139 62.4873 27.5244C63.6299 27.9404 64.4004 28.3594 64.7988 28.7812C65.2031 29.2031 65.4053 29.7334 65.4053 30.3721ZM70.8984 31.9717C71.1562 31.9717 71.4053 31.9541 71.6455 31.9189C71.8857 31.8779 72.0762 31.8369 72.2168 31.7959V32.9121C72.0586 32.9883 71.8242 33.0498 71.5137 33.0967C71.209 33.1494 70.9336 33.1758 70.6875 33.1758C68.8242 33.1758 67.8926 32.1943 67.8926 30.2314V24.501H66.5127V23.7979L67.8926 23.1914L68.5078 21.1348H69.3516V23.3672H72.1465V24.501H69.3516V30.1699C69.3516 30.75 69.4893 31.1953 69.7646 31.5059C70.04 31.8164 70.418 31.9717 70.8984 31.9717ZM80.0742 33L79.7842 31.6289H79.7139C79.2334 32.2324 78.7529 32.6426 78.2725 32.8594C77.7979 33.0703 77.2031 33.1758 76.4883 33.1758C75.5332 33.1758 74.7832 32.9297 74.2383 32.4375C73.6992 31.9453 73.4297 31.2451 73.4297 30.3369C73.4297 28.3916 74.9854 27.3721 78.0967 27.2783L79.7314 27.2256V26.6279C79.7314 25.8721 79.5674 25.3154 79.2393 24.958C78.917 24.5947 78.3984 24.4131 77.6836 24.4131C76.8809 24.4131 75.9727 24.6592 74.959 25.1514L74.5107 24.0352C74.9854 23.7773 75.5039 23.5752 76.0664 23.4287C76.6348 23.2822 77.2031 23.209 77.7715 23.209C78.9199 23.209 79.7695 23.4639 80.3203 23.9736C80.877 24.4834 81.1553 25.3008 81.1553 26.4258V33H80.0742ZM76.7783 31.9717C77.6865 31.9717 78.3984 31.7227 78.9141 31.2246C79.4355 30.7266 79.6963 30.0293 79.6963 29.1328V28.2627L78.2373 28.3242C77.0771 28.3652 76.2393 28.5469 75.7236 28.8691C75.2139 29.1855 74.959 29.6807 74.959 30.3545C74.959 30.8818 75.1172 31.2832 75.4336 31.5586C75.7559 31.834 76.2041 31.9717 76.7783 31.9717ZM88.5645 23.1914C88.9922 23.1914 89.376 23.2266 89.7158 23.2969L89.5137 24.6504C89.1152 24.5625 88.7637 24.5186 88.459 24.5186C87.6797 24.5186 87.0117 24.835 86.4551 25.4678C85.9043 26.1006 85.6289 26.8887 85.6289 27.832V33H84.1699V23.3672H85.374L85.541 25.1514H85.6113C85.9688 24.5244 86.3994 24.041 86.9033 23.7012C87.4072 23.3613 87.9609 23.1914 88.5645 23.1914ZM94.6289 31.9717C94.8867 31.9717 95.1357 31.9541 95.376 31.9189C95.6162 31.8779 95.8066 31.8369 95.9473 31.7959V32.9121C95.7891 32.9883 95.5547 33.0498 95.2441 33.0967C94.9395 33.1494 94.6641 33.1758 94.418 33.1758C92.5547 33.1758 91.623 32.1943 91.623 30.2314V24.501H90.2432V23.7979L91.623 23.1914L92.2383 21.1348H93.082V23.3672H95.877V24.501H93.082V30.1699C93.082 30.75 93.2197 31.1953 93.4951 31.5059C93.7705 31.8164 94.1484 31.9717 94.6289 31.9717ZM101.027 23.3672H102.592L104.701 28.8604C105.164 30.1143 105.451 31.0195 105.562 31.5762H105.633C105.709 31.2773 105.867 30.7676 106.107 30.0469C106.354 29.3203 107.15 27.0938 108.498 23.3672H110.062L105.923 34.3359C105.513 35.4199 105.032 36.1875 104.481 36.6387C103.937 37.0957 103.266 37.3242 102.469 37.3242C102.023 37.3242 101.584 37.2744 101.15 37.1748V36.0059C101.473 36.0762 101.833 36.1113 102.231 36.1113C103.233 36.1113 103.948 35.5488 104.376 34.4238L104.912 33.0527L101.027 23.3672ZM119.941 28.1748C119.941 29.7451 119.546 30.9727 118.755 31.8574C117.964 32.7363 116.871 33.1758 115.477 33.1758C114.615 33.1758 113.851 32.9736 113.183 32.5693C112.515 32.165 111.999 31.585 111.636 30.8291C111.272 30.0732 111.091 29.1885 111.091 28.1748C111.091 26.6045 111.483 25.3828 112.269 24.5098C113.054 23.6309 114.144 23.1914 115.538 23.1914C116.886 23.1914 117.955 23.6396 118.746 24.5361C119.543 25.4326 119.941 26.6455 119.941 28.1748ZM112.603 28.1748C112.603 29.4053 112.849 30.3428 113.341 30.9873C113.833 31.6318 114.557 31.9541 115.512 31.9541C116.467 31.9541 117.19 31.6348 117.683 30.9961C118.181 30.3516 118.43 29.4111 118.43 28.1748C118.43 26.9502 118.181 26.0215 117.683 25.3887C117.19 24.75 116.461 24.4307 115.494 24.4307C114.539 24.4307 113.818 24.7441 113.332 25.3711C112.846 25.998 112.603 26.9326 112.603 28.1748ZM123.879 23.3672V29.6162C123.879 30.4014 124.058 30.9873 124.415 31.374C124.772 31.7607 125.332 31.9541 126.094 31.9541C127.102 31.9541 127.837 31.6787 128.3 31.1279C128.769 30.5771 129.003 29.6777 129.003 28.4297V23.3672H130.462V33H129.258L129.047 31.708H128.968C128.669 32.1826 128.253 32.5459 127.72 32.7979C127.192 33.0498 126.589 33.1758 125.909 33.1758C124.737 33.1758 123.858 32.8975 123.272 32.3408C122.692 31.7842 122.402 30.8936 122.402 29.6689V23.3672H123.879ZM137.959 23.1914C138.387 23.1914 138.771 23.2266 139.11 23.2969L138.908 24.6504C138.51 24.5625 138.158 24.5186 137.854 24.5186C137.074 24.5186 136.406 24.835 135.85 25.4678C135.299 26.1006 135.023 26.8887 135.023 27.832V33H133.564V23.3672H134.769L134.936 25.1514H135.006C135.363 24.5244 135.794 24.041 136.298 23.7012C136.802 23.3613 137.355 23.1914 137.959 23.1914ZM145.808 33V20.1504H147.302V31.6465H152.971V33H145.808ZM159.009 33.1758C157.585 33.1758 156.46 32.7422 155.634 31.875C154.813 31.0078 154.403 29.8037 154.403 28.2627C154.403 26.71 154.784 25.4766 155.546 24.5625C156.313 23.6484 157.342 23.1914 158.631 23.1914C159.838 23.1914 160.793 23.5898 161.496 24.3867C162.199 25.1777 162.551 26.2236 162.551 27.5244V28.4473H155.915C155.944 29.5781 156.229 30.4365 156.768 31.0225C157.312 31.6084 158.077 31.9014 159.062 31.9014C160.099 31.9014 161.124 31.6846 162.138 31.251V32.5518C161.622 32.7744 161.133 32.9326 160.67 33.0264C160.213 33.126 159.659 33.1758 159.009 33.1758ZM158.613 24.4131C157.84 24.4131 157.222 24.665 156.759 25.1689C156.302 25.6729 156.032 26.3701 155.95 27.2607H160.986C160.986 26.3408 160.781 25.6377 160.371 25.1514C159.961 24.6592 159.375 24.4131 158.613 24.4131ZM170.971 33L170.681 31.6289H170.61C170.13 32.2324 169.649 32.6426 169.169 32.8594C168.694 33.0703 168.1 33.1758 167.385 33.1758C166.43 33.1758 165.68 32.9297 165.135 32.4375C164.596 31.9453 164.326 31.2451 164.326 30.3369C164.326 28.3916 165.882 27.3721 168.993 27.2783L170.628 27.2256V26.6279C170.628 25.8721 170.464 25.3154 170.136 24.958C169.813 24.5947 169.295 24.4131 168.58 24.4131C167.777 24.4131 166.869 24.6592 165.855 25.1514L165.407 24.0352C165.882 23.7773 166.4 23.5752 166.963 23.4287C167.531 23.2822 168.1 23.209 168.668 23.209C169.816 23.209 170.666 23.4639 171.217 23.9736C171.773 24.4834 172.052 25.3008 172.052 26.4258V33H170.971ZM167.675 31.9717C168.583 31.9717 169.295 31.7227 169.811 31.2246C170.332 30.7266 170.593 30.0293 170.593 29.1328V28.2627L169.134 28.3242C167.974 28.3652 167.136 28.5469 166.62 28.8691C166.11 29.1855 165.855 29.6807 165.855 30.3545C165.855 30.8818 166.014 31.2832 166.33 31.5586C166.652 31.834 167.101 31.9717 167.675 31.9717ZM179.461 23.1914C179.889 23.1914 180.272 23.2266 180.612 23.2969L180.41 24.6504C180.012 24.5625 179.66 24.5186 179.355 24.5186C178.576 24.5186 177.908 24.835 177.352 25.4678C176.801 26.1006 176.525 26.8887 176.525 27.832V33H175.066V23.3672H176.271L176.438 25.1514H176.508C176.865 24.5244 177.296 24.041 177.8 23.7012C178.304 23.3613 178.857 23.1914 179.461 23.1914ZM189.006 33V26.7686C189.006 25.9834 188.827 25.3975 188.47 25.0107C188.112 24.624 187.553 24.4307 186.791 24.4307C185.783 24.4307 185.045 24.7031 184.576 25.248C184.107 25.793 183.873 26.6924 183.873 27.9463V33H182.414V23.3672H183.601L183.838 24.6855H183.908C184.207 24.2109 184.626 23.8447 185.165 23.5869C185.704 23.3232 186.305 23.1914 186.967 23.1914C188.127 23.1914 189 23.4727 189.586 24.0352C190.172 24.5918 190.465 25.4854 190.465 26.7158V33H189.006ZM194.93 33H193.471V23.3672H194.93V33ZM193.348 20.7568C193.348 20.4229 193.43 20.1797 193.594 20.0273C193.758 19.8691 193.963 19.79 194.209 19.79C194.443 19.79 194.646 19.8691 194.815 20.0273C194.985 20.1855 195.07 20.4287 195.07 20.7568C195.07 21.085 194.985 21.3311 194.815 21.4951C194.646 21.6533 194.443 21.7324 194.209 21.7324C193.963 21.7324 193.758 21.6533 193.594 21.4951C193.43 21.3311 193.348 21.085 193.348 20.7568ZM204.615 33V26.7686C204.615 25.9834 204.437 25.3975 204.079 25.0107C203.722 24.624 203.162 24.4307 202.4 24.4307C201.393 24.4307 200.654 24.7031 200.186 25.248C199.717 25.793 199.482 26.6924 199.482 27.9463V33H198.023V23.3672H199.21L199.447 24.6855H199.518C199.816 24.2109 200.235 23.8447 200.774 23.5869C201.313 23.3232 201.914 23.1914 202.576 23.1914C203.736 23.1914 204.609 23.4727 205.195 24.0352C205.781 24.5918 206.074 25.4854 206.074 26.7158V33H204.615ZM216.964 23.3672V24.29L215.18 24.501C215.344 24.7061 215.49 24.9756 215.619 25.3096C215.748 25.6377 215.812 26.0098 215.812 26.4258C215.812 27.3691 215.49 28.1221 214.846 28.6846C214.201 29.2471 213.316 29.5283 212.191 29.5283C211.904 29.5283 211.635 29.5049 211.383 29.458C210.762 29.7861 210.451 30.1992 210.451 30.6973C210.451 30.9609 210.56 31.1572 210.776 31.2861C210.993 31.4092 211.365 31.4707 211.893 31.4707H213.598C214.641 31.4707 215.44 31.6904 215.997 32.1299C216.56 32.5693 216.841 33.208 216.841 34.0459C216.841 35.1123 216.413 35.9238 215.558 36.4805C214.702 37.043 213.454 37.3242 211.813 37.3242C210.554 37.3242 209.581 37.0898 208.896 36.6211C208.216 36.1523 207.876 35.4902 207.876 34.6348C207.876 34.0488 208.063 33.542 208.438 33.1143C208.813 32.6865 209.341 32.3965 210.021 32.2441C209.774 32.1328 209.566 31.96 209.396 31.7256C209.232 31.4912 209.15 31.2188 209.15 30.9082C209.15 30.5566 209.244 30.249 209.432 29.9854C209.619 29.7217 209.915 29.4668 210.319 29.2207C209.821 29.0156 209.414 28.667 209.098 28.1748C208.787 27.6826 208.632 27.1201 208.632 26.4873C208.632 25.4326 208.948 24.6211 209.581 24.0527C210.214 23.4785 211.11 23.1914 212.271 23.1914C212.774 23.1914 213.229 23.25 213.633 23.3672H216.964ZM209.282 34.6172C209.282 35.1387 209.502 35.5342 209.941 35.8037C210.381 36.0732 211.011 36.208 211.831 36.208C213.056 36.208 213.961 36.0234 214.547 35.6543C215.139 35.291 215.435 34.7959 215.435 34.1689C215.435 33.6475 215.273 33.2842 214.951 33.0791C214.629 32.8799 214.022 32.7803 213.132 32.7803H211.383C210.721 32.7803 210.205 32.9385 209.836 33.2549C209.467 33.5713 209.282 34.0254 209.282 34.6172ZM210.073 26.4521C210.073 27.126 210.264 27.6357 210.645 27.9814C211.025 28.3271 211.556 28.5 212.235 28.5C213.659 28.5 214.371 27.8086 214.371 26.4258C214.371 24.9785 213.65 24.2549 212.209 24.2549C211.523 24.2549 210.996 24.4395 210.627 24.8086C210.258 25.1777 210.073 25.7256 210.073 26.4521Z" fill="#7E8299"/>
</svg>
