<svg width="30" height="30" viewBox="0 0 30 30" fill="none" xmlns="http://www.w3.org/2000/svg">
<path opacity="0.25" d="M26.25 12.5C26.25 19.3646 20.2183 25.2239 16.988 27.8697C15.8168 28.8289 14.1832 28.8289 13.012 27.8697C9.78172 25.2239 3.75 19.3646 3.75 12.5C3.75 6.2868 8.7868 1.25 15 1.25C21.2132 1.25 26.25 6.2868 26.25 12.5Z" fill="#E52030"/>
<path d="M18.75 11.25C18.75 13.3211 17.0711 15 15 15C12.9289 15 11.25 13.3211 11.25 11.25C11.25 9.17893 12.9289 7.5 15 7.5C17.0711 7.5 18.75 9.17893 18.75 11.25Z" fill="#E52030"/>
</svg>
