<svg width="16" height="16" viewBox="0 0 16 16" fill="none" xmlns="http://www.w3.org/2000/svg">
<g clip-path="url(#clip0_122_19)">
<path opacity="0.3" fill-rule="evenodd" clip-rule="evenodd" d="M4.00001 1.3335H12C12.3682 1.3335 12.6667 1.63197 12.6667 2.00016V8.00016C12.6667 8.36835 12.3682 8.66683 12 8.66683H4.00001C3.63182 8.66683 3.33334 8.36835 3.33334 8.00016V2.00016C3.33334 1.63197 3.63182 1.3335 4.00001 1.3335ZM5.00001 3.3335C4.81592 3.3335 4.66668 3.48273 4.66668 3.66683C4.66668 3.85092 4.81592 4.00016 5.00001 4.00016H9.00001C9.18411 4.00016 9.33335 3.85092 9.33335 3.66683C9.33335 3.48273 9.18411 3.3335 9.00001 3.3335H5.00001ZM5.00001 4.66683C4.81592 4.66683 4.66668 4.81607 4.66668 5.00016C4.66668 5.18426 4.81592 5.3335 5.00001 5.3335H7.00001C7.18411 5.3335 7.33334 5.18426 7.33334 5.00016C7.33334 4.81607 7.18411 4.66683 7.00001 4.66683H5.00001Z" fill="white"/>
<path fill-rule="evenodd" clip-rule="evenodd" d="M2.5285 4.38198L8 8.33362L13.4715 4.38198C13.6207 4.27419 13.8291 4.3078 13.9369 4.45704C13.9779 4.51385 14 4.58214 14 4.65221V11.3336C14 12.07 13.403 12.667 12.6667 12.667H3.33333C2.59695 12.667 2 12.07 2 11.3336V4.65221C2 4.46811 2.14924 4.31887 2.33333 4.31887C2.4034 4.31887 2.47169 4.34095 2.5285 4.38198Z" fill="white"/>
</g>
<defs>
<clipPath id="clip0_122_19">
<rect width="16" height="16" fill="white"/>
</clipPath>
</defs>
</svg>
