<svg width="40" height="40" viewBox="0 0 40 40" fill="none" xmlns="http://www.w3.org/2000/svg">
<path opacity="0.25" fill-rule="evenodd" clip-rule="evenodd" d="M30.5081 4.14855C33.3248 4.57713 35.5566 6.64113 36.0403 9.44895C36.3773 11.4059 36.666 13.8918 36.666 16.6663C36.666 19.4409 36.3773 21.9268 36.0403 23.8837C35.6251 26.294 33.9217 28.1562 31.666 28.9063V34.5789C31.666 35.8694 30.2625 36.6703 29.1515 36.0138L18.9592 29.9911C15.2687 29.9307 11.9597 29.5598 9.49064 29.1841C6.67389 28.7555 4.44209 26.6915 3.95844 23.8837C3.62137 21.9268 3.33268 19.4409 3.33268 16.6663C3.33268 13.8918 3.62137 11.4059 3.95844 9.44895C4.44209 6.64113 6.67389 4.57713 9.49064 4.14855C12.1895 3.7379 15.892 3.33301 19.9993 3.33301C24.1067 3.33301 27.8092 3.7379 30.5081 4.14855Z" fill="#979797"/>
<path fill-rule="evenodd" clip-rule="evenodd" d="M28.3333 11.667C29.2538 11.667 30 12.4132 30 13.3337C30 14.2541 29.2538 15.0003 28.3333 15.0003H11.6667C10.7462 15.0003 10 14.2541 10 13.3337C10 12.4132 10.7462 11.667 11.6667 11.667H28.3333ZM28.3333 18.3337C29.2538 18.3337 30 19.0799 30 20.0003C30 20.9208 29.2538 21.667 28.3333 21.667H21.6667C20.7462 21.667 20 20.9208 20 20.0003C20 19.0799 20.7462 18.3337 21.6667 18.3337H28.3333Z" fill="#979797"/>
</svg>
