<svg width="24" height="24" viewBox="0 0 24 24" fill="none" xmlns="http://www.w3.org/2000/svg">
<path fill-rule="evenodd" clip-rule="evenodd" d="M3.94615 8.10594C3.39801 8.1735 3.00842 8.67261 3.07597 9.22075C3.58726 13.3694 6.89864 16.5927 11 17.0485V18H10C8.89543 18 8 18.8954 8 20H12H16C16 18.8954 15.1046 18 14 18H13V17.0488C17.1474 16.5892 20.4828 13.3006 20.9411 9.09474C21.001 8.54571 20.6044 8.05213 20.0554 7.9923C19.5063 7.93247 19.0127 8.32905 18.9529 8.87808C18.5686 12.4047 15.5781 15.1039 12.0012 15.1039C8.46091 15.1039 5.49009 12.4582 5.06095 8.97612C4.9934 8.42798 4.49428 8.03839 3.94615 8.10594Z" fill="#00A3FF"/>
<path opacity="0.3" fill-rule="evenodd" clip-rule="evenodd" d="M18 8C18 11.3137 15.3137 14 12 14C8.68629 14 6 11.3137 6 8C6 4.68629 8.68629 2 12 2C15.3137 2 18 4.68629 18 8ZM8.1152 7.19227C8.47675 7.16699 8.79034 7.43959 8.81563 7.80114C8.90295 9.04987 9.45566 9.98575 10.507 10.6651C10.8114 10.8618 10.8988 11.2681 10.702 11.5725C10.5053 11.8769 10.0991 11.9642 9.79469 11.7675C8.39634 10.8639 7.62246 9.55353 7.50632 7.8927C7.48104 7.53114 7.75364 7.21755 8.1152 7.19227Z" fill="#00A3FF"/>
</svg>
