<svg width="16" height="16" viewBox="0 0 16 16" fill="none" xmlns="http://www.w3.org/2000/svg">
<g clip-path="url(#clip0_122_12)">
<path opacity="0.25" d="M14.2601 13.0534L12.9902 14.3234C12.9902 14.3234 9.69033 15.7376 4.97628 11.0236C0.262237 6.30951 1.67645 3.00968 1.67645 3.00968L2.94641 1.73972C3.52015 1.16598 4.46904 1.23341 4.95588 1.88253L6.16806 3.49877C6.56618 4.0296 6.5134 4.77239 6.04421 5.24158L4.97628 6.30951C4.97628 6.30951 4.97628 7.25232 6.8619 9.13794C8.74752 11.0236 9.69033 11.0236 9.69033 11.0236L10.7583 9.95563C11.2274 9.48644 11.9702 9.43365 12.5011 9.83177L14.1173 11.044C14.7664 11.5308 14.8339 12.4797 14.2601 13.0534Z" fill="white"/>
<path d="M2.94638 1.74L2.61924 2.06714L5.44766 5.83838L6.04418 5.24186C6.51337 4.77267 6.56616 4.02988 6.16804 3.49905L4.95586 1.88281C4.46902 1.23369 3.52013 1.16625 2.94638 1.74Z" fill="white"/>
<path d="M14.2601 13.0535L13.9329 13.3807L10.1617 10.5522L10.7582 9.95573C11.2274 9.48654 11.9702 9.43375 12.501 9.83187L14.1173 11.0441C14.7664 11.5309 14.8338 12.4798 14.2601 13.0535Z" fill="white"/>
</g>
<defs>
<clipPath id="clip0_122_12">
<rect width="16" height="16" fill="white"/>
</clipPath>
</defs>
</svg>
