<svg width="88" height="105" viewBox="0 0 88 105" fill="none" xmlns="http://www.w3.org/2000/svg">
<g clip-path="url(#clip0_48_754)">
<path d="M54.9295 44.2552C53.0275 45.1813 51.0532 46.1804 49.1226 47.1939C47.1921 48.2073 45.2615 49.2208 43.331 50.2342C34.1285 55.1101 24.9241 59.6951 16.6648 66.2818C12.6075 69.5021 2.28229 78.7025 6.13039 83.6844L2.38864 81.6392C1.60692 73.3549 11.2296 63.6348 17.2299 59.0665C24.3897 53.6198 31.7531 48.1428 39.1642 43.2618C41.0205 42.0307 42.8625 40.8432 44.7483 39.67C46.6342 38.4969 48.4762 37.3094 50.4201 36.1068L54.9295 44.2552Z" fill="url(#paint0_linear_48_754)"/>
<path d="M27.1894 83.4576C25.1856 84.3987 23.1084 85.2676 21.0304 85.991C18.9085 86.7 16.7714 87.3074 14.4725 87.6685C13.3521 87.8343 12.2022 87.9421 11.0371 87.9482C9.87197 87.9543 8.64783 87.8444 7.45132 87.5017C6.25481 87.159 4.99835 86.5548 4.03036 85.513C3.5754 84.9773 3.149 84.3543 2.86825 83.7305C2.60177 83.063 2.43715 82.3805 2.37439 81.6828L6.10092 83.6263C6.5711 84.2637 7.34591 84.7104 8.20736 85.0403C9.0688 85.3702 10.0749 85.554 11.1239 85.6067C12.1587 85.703 13.1924 85.654 14.2405 85.5612C16.3804 85.3901 18.4898 85.0155 20.5688 84.4375C22.6773 83.9175 24.7411 83.2378 26.7897 82.4564C30.8868 80.8936 34.807 78.9827 38.5938 76.7381C34.9983 79.2871 31.2114 81.5317 27.1894 83.4576Z" fill="url(#paint1_linear_48_754)"/>
<path d="M60.4658 24.2033L50.7022 23.382C49.5219 23.2864 48.3738 23.685 47.5199 24.5183L39.5308 32.3542C39.2557 32.6028 39.4041 33.0382 39.7544 33.1527L47.1819 35.3386L60.4658 24.2033Z" fill="url(#paint2_linear_48_754)"/>
<path d="M70.168 40.3364L66.3082 49.3285C65.8636 50.3923 64.9078 51.2407 63.8321 51.5662L53.1048 54.8796C52.7707 55.0122 52.4337 54.7086 52.5042 54.3447L54.1012 46.7896L70.168 40.3364Z" fill="url(#paint3_linear_48_754)"/>
<path d="M79.9923 23.4756C79.1364 35.2874 67.4677 48.4499 54.7133 46.8446C54.3344 46.8175 53.9832 46.5576 53.7481 46.2389L47.4617 35.8169C47.2409 35.4545 47.2238 35.062 47.3524 34.6687C52.0235 22.7498 69.1686 18.632 79.9923 23.4756Z" fill="url(#paint4_linear_48_754)"/>
<path d="M46.343 38.4984L50.8629 46.0214C51.0837 46.3838 51.5359 46.4832 51.8986 46.2632L53.2913 45.4125L47.9909 36.5703L46.5982 37.421C46.2213 37.6847 46.1222 38.136 46.343 38.4984Z" fill="#00A8A8"/>
<path d="M45.2032 42.4305L46.8374 45.1411L56.4293 39.667C57.6192 38.9919 58.6921 38.2301 59.7059 37.3524L63.8042 33.7102L63.3331 32.9274L58.2041 34.8301C56.9399 35.2875 55.7204 35.9046 54.5743 36.5941L45.2032 42.4305Z" fill="url(#paint5_linear_48_754)"/>
<path d="M61.0837 22.906C65.2407 21.6046 69.7385 21.1884 73.9078 21.7773C73.5461 22.1427 73.0672 22.4215 72.5875 22.5549C70.8864 23.0145 69.2148 23.5322 67.4842 23.9339C66.5246 24.2007 66.0657 25.3082 66.5673 26.2944C67.8664 28.9922 69.412 31.5287 71.1462 33.9334C71.822 34.8314 72.988 34.9707 73.6678 34.2256C74.8682 32.9251 76.0544 31.6684 77.2987 30.3823C77.6747 29.9732 78.1393 29.7381 78.6333 29.561C77.2022 33.4945 74.7508 37.288 71.6244 40.329C67.0624 35.3072 63.441 29.3353 61.0837 22.906Z" fill="#8A8FC7"/>
<path d="M72.3691 38.3474C72.3396 38.2894 72.2663 38.2171 72.2368 38.1591C71.9569 37.6807 72.0113 37.0697 72.4016 36.6169L76.2191 32.3509C76.5951 31.9418 77.1625 31.837 77.6879 32.0088C77.6594 32.0962 77.587 32.1692 77.5584 32.2566C77.1644 32.1278 76.7427 32.2318 76.4533 32.5242L72.6357 36.7902C72.3178 37.1699 72.2777 37.7372 72.6299 38.1425L73.1877 38.8085C73.1153 38.8815 73.0429 38.9546 73.0144 39.042L72.3691 38.3474Z" fill="#484F94"/>
<path d="M63.2264 23.171C63.2559 23.229 63.2854 23.287 63.3149 23.345C63.5947 23.8234 64.1934 24.0674 64.717 23.9484L70.2429 22.6107C70.7665 22.4917 71.1568 22.0388 71.2406 21.4858C71.1388 21.5009 71.0512 21.4723 70.9493 21.4874C70.9084 21.9093 70.6047 22.2453 70.183 22.3493L64.657 23.6869C64.1773 23.8203 63.6366 23.5469 63.4587 23.0534L63.1332 22.2699C63.0313 22.285 62.9733 22.3144 62.8714 22.3295L63.2264 23.171Z" fill="#484F94"/>
<path d="M68.6938 26.3123C67.7617 28.571 68.8124 31.1393 71.0759 32.0725C73.3395 33.0058 75.9107 31.96 76.8428 29.7012C77.7749 27.4425 76.7242 24.8742 74.4607 23.9409C72.2409 23.022 69.6697 24.0678 68.6938 26.3123Z" fill="url(#paint6_linear_48_754)"/>
<path d="M71.4507 24.6982C69.6059 25.4495 68.7309 27.5334 69.4999 29.3325C70.2546 31.1752 72.343 32.0513 74.144 31.2857C75.9889 30.5345 76.8639 28.4505 76.0949 26.6515C75.3259 24.8524 73.2375 23.9764 71.4507 24.6982Z" fill="#00E2E2"/>
<path d="M75.322 26.4956C75.3515 26.5536 75.381 26.6116 75.4543 26.6839C75.4838 26.742 75.499 26.8437 75.4704 26.9311C75.4419 27.0184 75.3838 27.0478 75.3114 27.1209C75.1953 27.1797 75.0202 27.1224 74.9174 26.9921C74.8879 26.9341 74.8584 26.8761 74.8289 26.8181C74.7994 26.7601 74.7841 26.6584 74.7984 26.6147C74.827 26.5273 74.8413 26.4836 74.9574 26.4248C75.044 26.308 75.2335 26.3216 75.322 26.4956Z" fill="white"/>
<path d="M75.5751 27.3522C75.6484 27.4246 75.6779 27.4826 75.7074 27.5406C75.8292 28.3542 75.6016 29.1988 75.1103 29.8121C75.0237 29.9289 74.82 29.959 74.7029 29.8724C74.6591 29.8581 74.6734 29.8144 74.6296 29.8001C74.5706 29.6841 74.5697 29.5387 74.642 29.4656C75.0609 28.9254 75.2171 28.2993 75.0963 27.631C75.081 27.5293 75.0953 27.4856 75.1677 27.4125C75.24 27.3395 75.2981 27.3101 75.3562 27.2807C75.458 27.2656 75.5018 27.2799 75.5751 27.3522Z" fill="white"/>
<path opacity="0.5" d="M71.4508 24.6982C72.2352 24.3742 73.0652 24.3553 73.7658 24.5843C73.6934 24.6573 73.5916 24.6724 73.4897 24.6875C73.0975 24.8495 72.6473 25.0409 72.3579 25.3332C72.0685 25.6256 71.9694 26.0769 72.0303 26.4837C72.1359 27.0502 72.6194 27.4985 72.7108 28.1087C72.7735 28.8063 72.2099 29.4927 72.2727 30.1904C72.3041 30.5392 72.4516 30.8292 72.701 31.1042C72.8333 31.2925 73.0236 31.4515 73.2426 31.5231C71.671 31.7349 70.1071 30.8851 69.4561 29.3181C68.7309 27.5334 69.6059 25.4494 71.4508 24.6982Z" fill="#00A8A8"/>
</g>
<defs>
<linearGradient id="paint0_linear_48_754" x1="54.9002" y1="107.552" x2="68.5553" y2="34.9046" gradientUnits="userSpaceOnUse">
<stop stop-color="#FF8142"/>
<stop offset="1" stop-color="#FFCE42"/>
</linearGradient>
<linearGradient id="paint1_linear_48_754" x1="4.85593" y1="87.5594" x2="36.0215" y2="71.7084" gradientUnits="userSpaceOnUse">
<stop offset="0.2401" stop-color="#FF8142"/>
<stop offset="0.9008" stop-color="white" stop-opacity="0"/>
</linearGradient>
<linearGradient id="paint2_linear_48_754" x1="52.2269" y1="32.2996" x2="47.5097" y2="24.4146" gradientUnits="userSpaceOnUse">
<stop stop-color="white"/>
<stop offset="1" stop-color="#A8ADE6"/>
</linearGradient>
<linearGradient id="paint3_linear_48_754" x1="59.1208" y1="43.771" x2="63.838" y2="51.6561" gradientUnits="userSpaceOnUse">
<stop stop-color="#A8ADE6"/>
<stop offset="1" stop-color="white"/>
</linearGradient>
<linearGradient id="paint4_linear_48_754" x1="70.9484" y1="41.6284" x2="59.7307" y2="22.8773" gradientUnits="userSpaceOnUse">
<stop stop-color="white"/>
<stop offset="1" stop-color="#A8ADE6"/>
</linearGradient>
<linearGradient id="paint5_linear_48_754" x1="46.0269" y1="43.8067" x2="63.5472" y2="33.2776" gradientUnits="userSpaceOnUse">
<stop stop-color="#A0A8FF"/>
<stop offset="1" stop-color="white"/>
</linearGradient>
<linearGradient id="paint6_linear_48_754" x1="77.0662" y1="29.0934" x2="68.4931" y2="26.9492" gradientUnits="userSpaceOnUse">
<stop stop-color="white"/>
<stop offset="1" stop-color="#A0A8FF"/>
</linearGradient>
<clipPath id="clip0_48_754">
<rect width="89.2789" height="63.064" fill="white" transform="matrix(0.310674 -0.950517 -0.950517 -0.310674 60.1843 104.689)"/>
</clipPath>
</defs>
</svg>
