<svg width="20" height="19" viewBox="0 0 20 19" fill="none" xmlns="http://www.w3.org/2000/svg">
<path d="M14.2623 7.12501C14.2623 3.19032 11.0696 0 7.13168 0C3.19385 0 0.000976562 3.19032 0.000976562 7.12501C0.000976562 11.0597 3.19385 14.2499 7.13168 14.2499C11.0696 14.2499 14.2623 11.0597 14.2623 7.12501ZM7.13168 12.4686C4.1826 12.4686 1.7837 10.0718 1.7837 7.12504C1.7837 4.17832 4.1826 1.78134 7.13168 1.78134C10.0807 1.78134 12.4798 4.17832 12.4798 7.12504C12.4798 10.0718 10.0807 12.4686 7.13168 12.4686Z" fill="white"/>
<path d="M18.4923 15.9594L14.13 11.6002C13.48 12.6103 12.6198 13.4694 11.6089 14.1189L15.9716 18.4781C16.6681 19.1739 17.7973 19.1739 18.4923 18.4781C19.1888 17.7835 19.1888 16.6552 18.4923 15.9594Z" fill="white"/>
</svg>
