<svg width="46" height="58" viewBox="0 0 46 58" fill="none" xmlns="http://www.w3.org/2000/svg">
<path opacity="0.3" fill-rule="evenodd" clip-rule="evenodd" d="M0.332031 4.33289L22.1902 0.234484C22.7245 0.134295 23.2729 0.134295 23.8072 0.234484L45.6654 4.33289V30.6261C45.6654 38.9455 41.3796 46.6782 34.3247 51.0875L24.1613 57.4396C23.45 57.8842 22.5474 57.8842 21.8361 57.4396L11.6727 51.0875C4.61782 46.6782 0.332031 38.9456 0.332031 30.6261L0.332031 4.33289Z" fill="#B5B5C3"/>
<path opacity="0.25" fill-rule="evenodd" clip-rule="evenodd" d="M15.8029 27.9946C15.9326 26.2004 17.3431 24.8073 19.1384 24.6932C20.212 24.625 21.5248 24.5713 22.9986 24.5713C24.4724 24.5713 25.7852 24.625 26.8588 24.6932C28.6541 24.8073 30.0646 26.2004 30.1943 27.9946C30.2467 28.7188 30.2843 29.4972 30.2843 30.238C30.2843 30.9787 30.2467 31.7571 30.1943 32.4813C30.0646 34.2756 28.6541 35.6686 26.8588 35.7827C25.7852 35.851 24.4724 35.9046 22.9986 35.9046C21.5248 35.9046 20.212 35.851 19.1384 35.7827C17.3431 35.6686 15.9326 34.2756 15.8029 32.4813C15.7505 31.7571 15.7129 30.9787 15.7129 30.238C15.7129 29.4972 15.7505 28.7188 15.8029 27.9946Z" fill="#A2A7B4"/>
<path fill-rule="evenodd" clip-rule="evenodd" d="M23.8094 30.8311C24.2934 30.5511 24.619 30.0279 24.619 29.4286C24.619 28.5344 23.8941 27.8096 22.9999 27.8096C22.1057 27.8096 21.3809 28.5344 21.3809 29.4286C21.3809 30.0279 21.7064 30.5511 22.1904 30.8311V31.8572C22.1904 32.3043 22.5528 32.6667 22.9999 32.6667C23.447 32.6667 23.8094 32.3043 23.8094 31.8572V30.8311Z" fill="#A2A7B4"/>
<path fill-rule="evenodd" clip-rule="evenodd" d="M18.9512 22.1423C18.9512 19.9069 20.7634 18.0947 22.9988 18.0947C25.2342 18.0947 27.0464 19.9069 27.0464 22.1423V25.3804C27.0464 25.8275 26.684 26.19 26.2369 26.19C25.7898 26.19 25.4274 25.8275 25.4274 25.3804V22.1423C25.4274 20.8011 24.3401 19.7138 22.9988 19.7138C21.6575 19.7138 20.5702 20.8011 20.5702 22.1423V25.3804C20.5702 25.8275 20.2078 26.19 19.7607 26.19C19.3136 26.19 18.9512 25.8275 18.9512 25.3804V22.1423Z" fill="#A2A7B4"/>
</svg>
