<svg width="72" height="73" viewBox="0 0 72 73" fill="none" xmlns="http://www.w3.org/2000/svg">
<g filter="url(#filter0_d_123_3760)">
<rect x="14" width="44" height="44" rx="6" fill="#FFFBE9"/>
</g>
<path d="M46.9533 16.4584H26.0461C28.1366 12.8503 32.0304 10.4167 36.5 10.4167C40.9697 10.4167 44.8635 12.8503 46.9533 16.4584ZM36.5 34.5834C40.9697 34.5834 44.8635 32.1498 46.9533 28.5417H26.0467C28.1372 32.1498 32.0304 34.5834 36.5 34.5834Z" fill="url(#paint0_linear_123_3760)"/>
<path d="M48.5833 22.4999C48.5833 20.2965 47.984 18.2369 46.9539 16.4583H26.0461C25.016 18.2369 24.4166 20.2965 24.4166 22.4999C24.4166 24.7033 25.016 26.7629 26.0467 28.5416H46.9539C47.984 26.7629 48.5833 24.7033 48.5833 22.4999Z" fill="url(#paint1_linear_123_3760)"/>
<defs>
<filter id="filter0_d_123_3760" x="0" y="0" width="72" height="73" filterUnits="userSpaceOnUse" color-interpolation-filters="sRGB">
<feFlood flood-opacity="0" result="BackgroundImageFix"/>
<feColorMatrix in="SourceAlpha" type="matrix" values="0 0 0 0 0 0 0 0 0 0 0 0 0 0 0 0 0 0 127 0" result="hardAlpha"/>
<feMorphology radius="10" operator="erode" in="SourceAlpha" result="effect1_dropShadow_123_3760"/>
<feOffset dy="15"/>
<feGaussianBlur stdDeviation="12"/>
<feComposite in2="hardAlpha" operator="out"/>
<feColorMatrix type="matrix" values="0 0 0 0 0.137255 0 0 0 0 0.0705882 0 0 0 0 0.458824 0 0 0 0.24 0"/>
<feBlend mode="normal" in2="BackgroundImageFix" result="effect1_dropShadow_123_3760"/>
<feBlend mode="normal" in="SourceGraphic" in2="effect1_dropShadow_123_3760" result="shape"/>
</filter>
<linearGradient id="paint0_linear_123_3760" x1="27.8931" y1="13.8931" x2="44.9233" y2="30.9234" gradientUnits="userSpaceOnUse">
<stop stop-color="#F44F5A"/>
<stop offset="0.443" stop-color="#EE3D4A"/>
<stop offset="1" stop-color="#E52030"/>
</linearGradient>
<linearGradient id="paint1_linear_123_3760" x1="28.0821" y1="14.0821" x2="44.8103" y2="30.8096" gradientUnits="userSpaceOnUse">
<stop stop-color="#FEDE00"/>
<stop offset="1" stop-color="#FFD000"/>
</linearGradient>
</defs>
</svg>
