<svg width="34" height="34" viewBox="0 0 34 34" fill="none" xmlns="http://www.w3.org/2000/svg">
<path d="M23.5115 32.6992C32.1859 29.1061 36.305 19.1613 32.7119 10.487C29.1188 1.81263 19.1741 -2.30652 10.4998 1.28658C1.8254 4.87969 -2.29375 14.8244 1.29935 23.4988C4.89246 32.1731 14.8372 36.2923 23.5115 32.6992Z" fill="#EDFBFF"/>
<path d="M27.5311 27.5084C33.3436 21.6959 33.3436 12.2719 27.5311 6.45933C21.7185 0.646776 12.2945 0.646776 6.48195 6.45933C0.669402 12.2719 0.669402 21.6959 6.48195 27.5084C12.2945 33.321 21.7185 33.321 27.5311 27.5084Z" stroke="#45C7FC" stroke-width="1.45923"/>
<path d="M9.12024 16.7083L14.5923 22.1804L25.6095 10.9443" stroke="#36C0F4" stroke-width="3.51645"/>
</svg>
