<svg
  width="14"
  height="14"
  viewBox="0 0 14 14"
  fill="none"
  xmlns="http://www.w3.org/2000/svg"
>
  <path
    opacity="0.25"
    fill-rule="evenodd"
    clip-rule="evenodd"
    d="M7.00033 2.33329C4.423 2.33329 2.33366 4.42263 2.33366 6.99996C2.33366 9.57729 4.423 11.6666 7.00033 11.6666C7.74641 11.6666 8.45002 11.492 9.07406 11.1819C9.36256 11.0385 9.71267 11.1561 9.85604 11.4446C9.99942 11.7331 9.88177 12.0832 9.59326 12.2266C8.81151 12.6151 7.93056 12.8333 7.00033 12.8333C3.77866 12.8333 1.16699 10.2216 1.16699 6.99996C1.16699 3.7783 3.77866 1.16663 7.00033 1.16663C10.222 1.16663 12.8337 3.7783 12.8337 6.99996V7.00516C12.8337 7.16402 12.8338 7.82333 12.6214 8.46047C12.513 8.78562 12.3362 9.14662 12.0381 9.43147C11.7261 9.72959 11.3089 9.91663 10.792 9.91663C10.4698 9.91663 10.2087 9.65546 10.2087 9.33329C10.2087 9.01113 10.4698 8.74996 10.792 8.74996C11.0042 8.74996 11.1339 8.68179 11.2321 8.58798C11.3442 8.4809 11.4407 8.31326 11.5146 8.09154C11.6644 7.64213 11.667 7.1425 11.667 6.99996C11.667 4.42263 9.57765 2.33329 7.00033 2.33329Z"
    fill="#5E6278"
  />
  <path
    fill-rule="evenodd"
    clip-rule="evenodd"
    d="M8.74967 7.00004C8.74967 7.96654 7.96617 8.75004 6.99967 8.75004C6.03318 8.75004 5.24967 7.96654 5.24967 7.00004C5.24967 6.03354 6.03318 5.25004 6.99967 5.25004C7.96617 5.25004 8.74967 6.03354 8.74967 7.00004ZM9.18749 8.92893C8.65304 9.53465 7.87098 9.91671 6.99967 9.91671C5.38884 9.91671 4.08301 8.61087 4.08301 7.00004C4.08301 5.38921 5.38884 4.08337 6.99967 4.08337C7.65628 4.08337 8.26221 4.30034 8.74968 4.6665C8.74979 4.34443 9.01091 4.08337 9.33301 4.08337C9.65518 4.08337 9.91635 4.34454 9.91635 4.66671C9.91635 6.15601 9.91996 7.24215 10.0841 7.96451C10.1644 8.31786 10.2682 8.50724 10.3652 8.60644C10.4425 8.68542 10.5558 8.75004 10.7913 8.75004C11.1135 8.75004 11.3747 9.01121 11.3747 9.33337C11.3747 9.65554 11.1135 9.91671 10.7913 9.91671C10.2977 9.91671 9.86415 9.76258 9.53126 9.42228C9.38968 9.27756 9.27742 9.11027 9.18749 8.92893Z"
    fill="#5E6278"
  />
</svg>
