<svg width="23" height="23" viewBox="0 0 23 23" fill="none" xmlns="http://www.w3.org/2000/svg">
<g clip-path="url(#clip0_109_1621)">
<path d="M21.0213 15.4626L21.021 13.7392L21.0207 12.0159L21.0205 10.2926L21.0202 8.56921L21.02 6.84586L21.0199 6.34409C21.0199 5.86131 20.7932 5.41095 20.4154 5.12251C20.3633 5.08277 20.3085 5.04595 20.2509 5.01266L17.4552 3.39916L14.469 1.6758L11.9214 0.205605C11.6566 0.0527985 11.3576 -0.0146506 11.0626 0.00264741C10.8275 0.0164597 10.5948 0.0840395 10.3839 0.205866L7.83875 1.6758L4.85499 3.39916L2.05612 5.01571C2.00161 5.04717 1.76432 5.23518 1.76432 5.23518C1.46393 5.5218 1.28751 5.92179 1.2876 6.3474L1.28764 6.54142L1.28768 6.8459L1.28773 7.26833L1.28795 8.56925V8.58869L1.28808 9.31533L1.28825 10.2926L1.28847 11.5108L1.2886 12.0159L1.28886 13.7392L1.28912 15.4626L1.28917 15.9643C1.2893 16.4471 1.51583 16.8975 1.89368 17.1859C1.94575 17.2257 2.00056 17.2625 2.05816 17.2958L4.85391 18.9093L7.83997 20.6326L10.3875 22.1029C10.8632 22.3775 11.4493 22.3773 11.925 22.1027L14.4701 20.6327L17.4539 18.9093L20.2527 17.2928C20.3088 17.2604 20.3622 17.2246 20.413 17.186C20.7932 16.8976 21.0214 16.4457 21.0213 15.9612L21.0213 15.4626Z" fill="#F5F5F5"/>
<path d="M11.0642 1.67585H14.4687L11.9212 0.205605C11.6565 0.0527985 11.3575 -0.0146506 11.0624 0.00264741C11.0631 0.0140632 11.0642 0.0253483 11.0642 0.0369384V1.67585Z" fill="#FF4B55"/>
<path d="M11.0643 8.56905H21.0201L21.0198 6.8457H11.0643V8.56905Z" fill="#FF4B55"/>
<path d="M11.0643 5.12252H20.4153C20.3632 5.08278 20.3084 5.04597 20.2508 5.01268L17.455 3.39917H11.0644V5.12252H11.0643Z" fill="#FF4B55"/>
<path d="M11.0643 10.9214C11.0643 11.247 10.8003 11.511 10.4747 11.511H1.28839L1.28852 12.0161H21.0206L21.0204 10.2927H11.0643V10.9214Z" fill="#FF4B55"/>
<path d="M2.05816 17.2956L4.8539 18.9091H17.4539L20.2527 17.2926C20.3088 17.2602 20.3622 17.2244 20.413 17.1858H1.89368C1.94579 17.2255 2.00056 17.2623 2.05816 17.2956Z" fill="#FF4B55"/>
<path d="M10.3875 22.1028C10.8633 22.3774 11.4494 22.3772 11.9251 22.1025L14.4702 20.6326H7.84003L10.3875 22.1028Z" fill="#FF4B55"/>
<path d="M1.28912 15.4626H21.0213L21.021 13.7393H1.28882L1.28912 15.4626Z" fill="#FF4B55"/>
<path d="M11.0626 0.00244141C10.8275 0.0162537 10.5948 0.0838335 10.3839 0.20566L7.83875 1.6756L4.85499 3.39895L2.05612 5.01551C2.00161 5.04697 1.76432 5.23498 1.76432 5.23498C1.46393 5.52159 1.28751 5.92158 1.2876 6.34719L1.28764 6.54122L1.28768 6.8457L1.28773 7.26813L1.28795 8.56905V8.58848L1.28808 9.31513L1.28825 10.2924L1.28847 11.5106H10.4748C10.8004 11.5106 11.0644 11.2467 11.0644 10.9211V10.2924V8.56901V6.84565V5.1223V3.39895V1.6756V0.0367324C11.0643 0.0251423 11.0632 0.0138572 11.0626 0.00244141Z" fill="#41479B"/>
<path d="M3.70828 5.93472L3.29575 5.9315L3.16525 5.54009C3.16194 5.5302 3.15614 5.52279 3.14939 5.51674C3.12865 5.498 3.09636 5.498 3.07553 5.51674C3.06882 5.52279 3.06303 5.5302 3.05967 5.54009L2.92918 5.9315L2.5166 5.93472C2.46318 5.93511 2.441 6.00326 2.48396 6.03502L2.81585 6.28012L2.69145 6.67348C2.67533 6.72438 2.73332 6.76655 2.77676 6.73549L3.1124 6.49558L3.44803 6.73549C3.49147 6.76651 3.54947 6.72438 3.53334 6.67348L3.40895 6.28012L3.74083 6.03502C3.78379 6.00335 3.7617 5.93516 3.70828 5.93472Z" fill="#F5F5F5"/>
<path d="M3.70826 7.98216L3.29572 7.97894L3.16522 7.58753C3.14836 7.5369 3.07664 7.5369 3.05974 7.58753L2.92924 7.97894L2.51666 7.98216C2.46324 7.98256 2.44106 8.0507 2.48402 8.08247L2.81591 8.32756L2.69151 8.72092C2.67539 8.7719 2.73338 8.81399 2.77682 8.78293L3.11246 8.54302L3.44809 8.78293C3.49153 8.81395 3.54953 8.77186 3.5334 8.72092L3.40901 8.32756L3.74089 8.08247C3.78377 8.05075 3.76168 7.9826 3.70826 7.98216Z" fill="#F5F5F5"/>
<path d="M3.70826 10.0293L3.29572 10.0261L3.16522 9.63469C3.14836 9.58401 3.07664 9.58401 3.05974 9.63469L2.92924 10.0261L2.51666 10.0293C2.46324 10.0298 2.44106 10.0979 2.48402 10.1296L2.81591 10.3747L2.71713 10.6868L2.69142 10.768C2.6753 10.819 2.7333 10.8611 2.77674 10.83L2.97712 10.6868L3.11241 10.5901L3.24766 10.6868L3.44805 10.83C3.49149 10.861 3.54948 10.8189 3.53336 10.768L3.50765 10.6868L3.40888 10.3747L3.74076 10.1296C3.78377 10.0979 3.76168 10.0297 3.70826 10.0293Z" fill="#F5F5F5"/>
<path d="M5.29741 4.8911L4.88483 4.88788L4.75433 4.49647C4.73747 4.44584 4.66575 4.44584 4.64885 4.49647L4.51835 4.88788L4.10577 4.8911C4.05235 4.89149 4.03017 4.95964 4.07313 4.9914L4.40502 5.23649L4.31639 5.5167L4.28058 5.62986C4.26446 5.68075 4.32245 5.72293 4.36589 5.69186L4.61098 5.5167L4.70153 5.45196L4.79207 5.5167L5.03716 5.69186C5.0806 5.72289 5.13859 5.6808 5.12247 5.62986L5.08666 5.5167L4.99803 5.23649L5.32992 4.9914C5.37292 4.95964 5.35083 4.89145 5.29741 4.8911Z" fill="#F5F5F5"/>
<path d="M5.32999 7.0388C5.37295 7.00703 5.35077 6.93893 5.29735 6.93849L4.88477 6.93527L4.75427 6.54386C4.73741 6.49319 4.66569 6.49319 4.64879 6.54386L4.51829 6.93527L4.10571 6.93849C4.05229 6.93893 4.03011 7.00703 4.07307 7.0388L4.3457 7.2401L4.40496 7.28389L4.28052 7.67726C4.2644 7.72823 4.32239 7.77032 4.36583 7.73926L4.70146 7.49935L5.0371 7.73926C5.08054 7.77028 5.13853 7.72819 5.12241 7.67726L4.99797 7.28389L5.05723 7.2401L5.32999 7.0388Z" fill="#F5F5F5"/>
<path d="M5.29741 8.98581L4.88483 8.98259L4.87847 8.96346L4.75433 8.59123C4.73747 8.54055 4.66575 8.54055 4.64885 8.59123L4.52471 8.96346L4.51835 8.98259L4.10577 8.98581C4.05235 8.98625 4.03017 9.05435 4.07313 9.08612L4.40502 9.33121L4.28062 9.72457C4.2645 9.77555 4.32249 9.81764 4.36594 9.78658L4.70157 9.54667L5.0372 9.78658C5.08064 9.8176 5.13864 9.77551 5.12252 9.72457L4.99812 9.33121L5.33 9.08612C5.37292 9.0544 5.35083 8.98625 5.29741 8.98581Z" fill="#F5F5F5"/>
<path d="M6.88637 3.88718L6.47379 3.88396L6.4435 3.79315L6.34325 3.4926C6.32638 3.44192 6.25466 3.44192 6.23776 3.4926L6.1375 3.79315L6.10722 3.88396L5.69464 3.88718C5.64122 3.88757 5.61904 3.95572 5.662 3.98748L5.99389 4.23258L5.86949 4.62594C5.85337 4.67683 5.91136 4.71901 5.9548 4.68794L6.29044 4.44804L6.62607 4.68794C6.66951 4.71897 6.72751 4.67683 6.71139 4.62594L6.58699 4.23258L6.91887 3.98748C6.96192 3.95576 6.93979 3.88762 6.88637 3.88718Z" fill="#F5F5F5"/>
<path d="M6.88637 5.93472L6.47379 5.9315L6.34329 5.54009C6.33998 5.5302 6.33414 5.52279 6.32743 5.51674C6.30669 5.498 6.2744 5.498 6.25358 5.51674C6.24687 5.52279 6.24107 5.5302 6.23772 5.54009L6.10722 5.9315L5.69464 5.93472C5.64122 5.93511 5.61904 6.00326 5.662 6.03502L5.99389 6.28012L5.86949 6.67348C5.85337 6.72438 5.91136 6.76655 5.9548 6.73549L6.29044 6.49558L6.62607 6.73549C6.66951 6.76651 6.72751 6.72438 6.71139 6.67348L6.58699 6.28012L6.91887 6.03502C6.96192 6.00335 6.93979 5.93516 6.88637 5.93472Z" fill="#F5F5F5"/>
<path d="M6.8864 7.98216L6.47382 7.97894L6.34332 7.58753C6.32646 7.5369 6.25474 7.5369 6.23784 7.58753L6.10734 7.97894L5.69476 7.98216C5.64134 7.98256 5.61916 8.0507 5.66212 8.08247L5.99401 8.32756L5.86961 8.72092C5.85349 8.7719 5.91148 8.81399 5.95492 8.78293L6.29056 8.54302L6.62619 8.78293C6.66963 8.81395 6.72763 8.77186 6.7115 8.72092L6.58711 8.32756L6.91899 8.08247C6.96195 8.05075 6.93982 7.9826 6.8864 7.98216Z" fill="#F5F5F5"/>
<path d="M6.8864 10.0293L6.47382 10.0261L6.34332 9.63469C6.32646 9.58401 6.25474 9.58401 6.23784 9.63469L6.10734 10.0261L5.69476 10.0293C5.64134 10.0298 5.61916 10.0979 5.66212 10.1296L5.99401 10.3747L5.89523 10.6868L5.86952 10.768C5.8534 10.819 5.9114 10.8611 5.95484 10.83L6.15522 10.6868L6.29052 10.5901L6.42576 10.6868L6.62615 10.83C6.66959 10.861 6.72758 10.8189 6.71146 10.768L6.68576 10.6868L6.58702 10.3747L6.91891 10.1296C6.96196 10.0979 6.93982 10.0297 6.8864 10.0293Z" fill="#F5F5F5"/>
<path d="M7.583 3.18913L7.4586 3.5825C7.44248 3.63339 7.50048 3.67557 7.54392 3.6445L7.87955 3.40459L8.21519 3.6445C8.25863 3.67552 8.31662 3.63339 8.3005 3.5825L8.17606 3.18913L8.50795 2.94404C8.55091 2.91227 8.52873 2.84417 8.47531 2.84374L8.06273 2.84051L7.93223 2.44911C7.91537 2.39848 7.84365 2.39848 7.82674 2.44911L7.69625 2.84051L7.28366 2.84374C7.23024 2.84413 7.20807 2.91227 7.25112 2.94404L7.583 3.18913Z" fill="#F5F5F5"/>
<path d="M8.47543 4.8911L8.06285 4.88788L7.93235 4.49647C7.91549 4.44584 7.84377 4.44584 7.82686 4.49647L7.69637 4.88788L7.28379 4.8911C7.23037 4.89149 7.20819 4.95964 7.25124 4.9914L7.58312 5.23649L7.4945 5.5167L7.45868 5.62986C7.44256 5.68075 7.50056 5.72293 7.544 5.69186L7.78909 5.5167L7.87963 5.45196L7.97017 5.5167L8.21526 5.69186C8.25871 5.72289 8.3167 5.6808 8.30058 5.62986L8.26476 5.5167L8.17614 5.23649L8.50802 4.9914C8.55099 4.95964 8.52885 4.89145 8.47543 4.8911Z" fill="#F5F5F5"/>
<path d="M8.50795 7.0388C8.55091 7.00703 8.52873 6.93893 8.47531 6.93849L8.06273 6.93527L7.93223 6.54386C7.91537 6.49319 7.84365 6.49319 7.82674 6.54386L7.69625 6.93527L7.28366 6.93849C7.23024 6.93893 7.20807 7.00703 7.25112 7.0388L7.52374 7.2401L7.583 7.28389L7.4586 7.67726C7.44248 7.72823 7.50048 7.77032 7.54392 7.73926L7.87955 7.49935L8.21519 7.73926C8.25863 7.77028 8.31662 7.72819 8.3005 7.67726L8.1761 7.28389L8.23536 7.2401L8.50795 7.0388Z" fill="#F5F5F5"/>
<path d="M8.47543 8.98581L8.06285 8.98259L8.05649 8.96346L7.93235 8.59123C7.91549 8.54055 7.84377 8.54055 7.82687 8.59123L7.70273 8.96346L7.69637 8.98259L7.28379 8.98581C7.23037 8.98625 7.20819 9.05435 7.25124 9.08612L7.58312 9.33121L7.45873 9.72457C7.44261 9.77555 7.5006 9.81764 7.54404 9.78658L7.87968 9.54667L8.21531 9.78658C8.25875 9.8176 8.31674 9.77551 8.30062 9.72457L8.17618 9.33121L8.50807 9.08612C8.55099 9.0544 8.52885 8.98625 8.47543 8.98581Z" fill="#F5F5F5"/>
<path d="M10.0644 1.83986L9.65186 1.83664L9.52136 1.44523C9.5045 1.39456 9.43278 1.39456 9.41588 1.44523L9.28538 1.83664L8.8728 1.83986C8.81938 1.84025 8.7972 1.9084 8.84016 1.94016L9.01571 2.06979L9.17205 2.18521L9.04765 2.57858C9.03153 2.62947 9.08952 2.67165 9.13296 2.64054L9.4686 2.40063L9.80423 2.64054C9.84767 2.67165 9.90567 2.62947 9.88955 2.57858L9.76506 2.18521L9.9214 2.06979L10.0969 1.94016C10.14 1.90844 10.1179 1.84025 10.0644 1.83986Z" fill="#F5F5F5"/>
<path d="M10.0645 3.88718L9.65189 3.88396L9.62161 3.79315L9.52135 3.4926C9.50448 3.44192 9.43277 3.44192 9.41586 3.4926L9.3156 3.79315L9.28532 3.88396L8.87274 3.88718C8.81932 3.88757 8.79714 3.95572 8.8401 3.98748L9.17199 4.23258L9.04759 4.62594C9.03147 4.67683 9.08946 4.71901 9.1329 4.68794L9.46854 4.44804L9.80417 4.68794C9.84761 4.71897 9.90561 4.67683 9.88949 4.62594L9.765 4.23258L10.0969 3.98748C10.1401 3.95576 10.1179 3.88762 10.0645 3.88718Z" fill="#F5F5F5"/>
<path d="M10.0645 5.93472L9.65189 5.9315L9.52139 5.54009C9.51808 5.5302 9.51228 5.52279 9.50553 5.51674C9.48479 5.498 9.4525 5.498 9.43168 5.51674C9.42497 5.52279 9.41917 5.5302 9.41582 5.54009L9.28532 5.9315L8.87274 5.93472C8.81932 5.93511 8.79714 6.00326 8.8401 6.03502L9.17199 6.28012L9.04759 6.67348C9.03147 6.72438 9.08946 6.76655 9.1329 6.73549L9.46854 6.49558L9.80417 6.73549C9.84761 6.76651 9.90561 6.72438 9.88949 6.67348L9.765 6.28012L10.0969 6.03502C10.1401 6.00335 10.1179 5.93516 10.0645 5.93472Z" fill="#F5F5F5"/>
<path d="M9.17221 8.32756L9.04782 8.72092C9.03169 8.7719 9.08969 8.81399 9.13313 8.78293L9.46876 8.54302L9.80439 8.78293C9.84784 8.81395 9.90583 8.77186 9.88971 8.72092L9.76522 8.32756L10.0971 8.08247C10.1401 8.0507 10.1179 7.98256 10.0646 7.98216L9.65198 7.97894L9.52148 7.58753C9.50462 7.5369 9.4329 7.5369 9.416 7.58753L9.2855 7.97894L8.87292 7.98216C8.8195 7.98256 8.79732 8.0507 8.84028 8.08247L9.17221 8.32756Z" fill="#F5F5F5"/>
<path d="M10.0644 10.0293L9.65186 10.0261L9.52136 9.63469C9.5045 9.58401 9.43278 9.58401 9.41588 9.63469L9.28538 10.0261L8.8728 10.0293C8.81938 10.0298 8.7972 10.0979 8.84016 10.1296L9.17205 10.3747L9.07331 10.6868L9.04761 10.768C9.03149 10.819 9.08948 10.8611 9.13292 10.83L9.33331 10.6868L9.46855 10.5901L9.6038 10.6868L9.80419 10.83C9.84763 10.861 9.90562 10.8189 9.8895 10.768L9.86379 10.6868L9.76502 10.3747L10.0969 10.1296C10.14 10.0979 10.1179 10.0297 10.0644 10.0293Z" fill="#F5F5F5"/>
</g>
<defs>
<clipPath id="clip0_109_1621">
<rect width="22.3088" height="22.3088" fill="white"/>
</clipPath>
</defs>
</svg>
