<svg width="21" height="21" viewBox="0 0 21 21" fill="none" xmlns="http://www.w3.org/2000/svg">
<path d="M8.82113 3.25867C9.5243 1.89383 11.4757 1.89383 12.1789 3.25867C12.6014 4.07878 13.5546 4.47361 14.4333 4.19247C15.8956 3.7246 17.2754 5.10445 16.8075 6.56674C16.5264 7.44542 16.9212 8.39861 17.7413 8.82113C19.1062 9.5243 19.1062 11.4757 17.7413 12.1789C16.9212 12.6014 16.5264 13.5546 16.8075 14.4333C17.2754 15.8956 15.8956 17.2754 14.4333 16.8075C13.5546 16.5264 12.6014 16.9212 12.1789 17.7413C11.4757 19.1062 9.5243 19.1062 8.82113 17.7413C8.39861 16.9212 7.44542 16.5264 6.56674 16.8075C5.10445 17.2754 3.7246 15.8956 4.19247 14.4333C4.47361 13.5546 4.07878 12.6014 3.25867 12.1789C1.89383 11.4757 1.89383 9.5243 3.25867 8.82113C4.07878 8.39861 4.47361 7.44542 4.19247 6.56674C3.7246 5.10445 5.10445 3.7246 6.56674 4.19247C7.44542 4.47361 8.39861 4.07878 8.82113 3.25867Z" fill="#00A3FF"/>
<path d="M13.1873 7.80685C13.3661 7.58649 13.643 7.5761 13.8534 7.76341C14.0638 7.95071 14.0331 8.24126 13.8542 8.46162L10.5682 12.8155C10.3866 13.0393 10.0647 13.0629 9.85505 12.8677L7.60505 10.7731C7.39866 10.5809 7.38007 10.25 7.56353 10.0338C7.74699 9.81764 8.06302 9.79817 8.26942 9.99031L10.1373 11.7293L13.1873 7.80685Z" fill="white"/>
</svg>
