<svg width="72" height="73" viewBox="0 0 72 73" fill="none" xmlns="http://www.w3.org/2000/svg">
<g filter="url(#filter0_d_123_3780)">
<rect x="14" width="44" height="44" rx="6" fill="#FFEEE9"/>
</g>
<g clip-path="url(#clip0_123_3780)">
<path d="M47.4113 19.8364C47.4113 19.8364 47.4938 25.0329 41.6618 29.34C35.8298 33.647 30.8874 32.0396 30.8874 32.0396L24.7858 23.7776C24.7858 23.7776 28.0384 25.1308 34.8423 20.106C41.6463 15.0811 41.3097 11.5744 41.3097 11.5744L47.4113 19.8364Z" fill="#CC5E3D"/>
<path d="M41.6618 29.3398C37.9424 32.0866 33.5119 32.8779 30.4667 32.4868L31.7512 34.2262C33.1499 36.1201 38.3014 35.5769 43.4564 31.7698C48.6113 27.9628 50.6459 23.1991 49.2476 21.3056L47.963 19.5663C47.4406 22.5913 45.3811 26.593 41.6618 29.3398Z" fill="#C54A24"/>
<path d="M39.6099 9.07435C40.752 10.6208 37.7081 14.3281 33.0926 17.7367C28.4771 21.1453 24.0385 22.964 22.8964 21.4175C21.7543 19.8711 24.8435 16.2242 29.4586 12.816C34.0736 9.40767 38.4678 7.52791 39.6099 9.07435Z" fill="#E0E0E0"/>
<path d="M34.7112 11.2838C34.7112 11.2838 34.3728 12.097 33.6887 12.6961C31.2995 14.788 27.9125 17.8414 28.7484 18.9733C29.0176 19.3378 29.9896 18.6199 30.2588 18.9844C30.9318 19.8957 24.0596 22.7943 22.9911 21.3475C21.9837 19.9833 25.9476 16.5639 29.6904 14.1468C32.6154 12.2577 34.7112 11.2838 34.7112 11.2838Z" fill="#B0BEC5"/>
<path d="M40.5292 10.4157C40.2877 10.5941 39.9465 10.5419 39.767 10.2989C39.1604 9.47754 35.9659 10.2633 30.5353 14.2738C25.1048 18.2844 23.4141 21.1065 24.021 21.9283C24.2004 22.1713 24.15 22.5128 23.9084 22.6912C23.6669 22.8695 23.3256 22.8174 23.1462 22.5744C21.844 20.8112 22.8976 17.6612 29.4586 12.8158C36.0195 7.97045 39.34 7.8901 40.6422 9.65331C40.8216 9.89631 40.7708 10.2373 40.5292 10.4157Z" fill="#6D534B"/>
<path d="M41.8087 11.2328L40.0694 8.87769C39.8712 8.60942 39.4942 8.55141 39.2269 8.74882C38.9596 8.94622 38.9041 9.32367 39.1022 9.59194C39.1022 9.59194 41.2636 11.6084 33.0473 17.6762C24.831 23.7441 23.54 21.0849 23.54 21.0849C23.3419 20.8166 22.9649 20.7586 22.6976 20.956C22.4303 21.1534 22.3753 21.5305 22.5734 21.7987L24.3127 24.1539C27.0298 23.7651 30.9544 22.9772 34.8424 20.1059C38.7304 17.2345 40.6378 13.7154 41.8087 11.2328Z" fill="#C54A24"/>
<path d="M42.0207 29.8258C36.3584 34.0076 30.9155 33.0161 30.3928 32.3867L31.6339 34.0673C34.2257 34.48 38.5658 33.8795 42.7386 30.7978C46.9114 27.7162 48.762 23.7448 49.1299 21.1462L47.8877 19.4642C48.3366 20.1504 47.6831 25.6441 42.0207 29.8258Z" fill="#FFECB3"/>
<path d="M39.5065 9.1326C40.6432 10.6718 37.6107 14.306 33.0477 17.6759C28.4847 21.0457 24.1192 22.875 22.9825 21.3358C21.8458 19.7967 24.8955 16.1858 29.4585 12.8159C34.0216 9.44599 38.3701 7.59393 39.5065 9.1326Z" stroke="#E06944" stroke-width="2" stroke-miterlimit="10"/>
<path d="M41.3029 28.8538C36.8458 32.1455 32.5247 32.2317 30.6325 31.8123C30.3561 31.7513 30.1498 32.0577 30.3177 32.2851L30.9161 33.0953C33.5078 33.508 37.8479 32.9075 42.0207 29.8258C46.1935 26.7441 48.0441 22.7728 48.412 20.1742L47.8133 19.3636C47.6454 19.1361 47.2919 19.2432 47.2689 19.5253C47.1135 21.4577 45.76 25.5622 41.3029 28.8538Z" fill="#B0BEC5"/>
<path d="M40.0018 27.0921C39.0536 27.7924 38.1782 28.161 37.6819 28.333C37.4339 28.4193 37.1605 28.3298 37.0047 28.1189L35.2837 25.7885C35.0856 25.5202 35.1425 25.1417 35.4108 24.9436C35.4108 24.9436 35.9865 24.7062 37.4445 23.6294C38.9025 22.5526 39.2988 22.0722 39.2988 22.0722C39.5671 21.8741 39.9456 21.931 40.1437 22.1993L41.8647 24.5297C42.0205 24.7406 42.0256 25.0282 41.8702 25.2399C41.5598 25.6636 40.95 26.3919 40.0018 27.0921Z" fill="#5D4037"/>
<path d="M34.4834 19.6199C29.8742 23.0239 25.9009 24.4464 23.8005 23.4604L24.5424 24.465C24.7825 24.7901 25.1671 24.9733 25.5716 24.9585C28.0936 24.8639 31.4474 23.3642 35.2013 20.5919C38.9551 17.8197 41.375 15.0554 42.2073 12.6727C42.3408 12.291 42.2789 11.8696 42.0384 11.544L41.2965 10.5394C41.621 12.8368 39.0927 16.216 34.4834 19.6199Z" fill="#B0BEC5"/>
<path d="M25.6906 26.0198L26.1766 25.6609L31.7846 33.2546L31.2986 33.6135L25.6906 26.0198Z" fill="#FFECB3"/>
<path d="M48.1291 20.8084L39.4704 15.186L37.6758 12.756L39.4704 15.186L44.9366 27.6725L34.4834 19.6201L32.6888 17.1901L34.4834 19.6201L39.1046 31.9795L28.7785 23.0822L26.9839 20.6522L28.7785 23.0822L31.6051 33.0116L33.3997 35.4416M46.3723 29.6165L44.9366 27.6725M40.5403 33.9235L39.1046 31.9795" stroke="#FFECB3" stroke-width="2" stroke-miterlimit="10" stroke-linecap="round" stroke-linejoin="round"/>
<path d="M42.7454 13.5183L48.0394 20.6868L47.5534 21.0457L49.4378 23.5972C49.6359 23.8655 50.0139 23.9227 50.2827 23.7243C50.5514 23.5258 50.6079 23.1476 50.4098 22.8793L43.2314 13.1594L42.7454 13.5183Z" fill="#FFECB3"/>
<path d="M28.5096 24.3442L29.1361 26.5441C29.5077 26.4401 29.8908 26.3141 30.285 26.1665L31.0658 25.8498C31.4557 25.6812 31.8547 25.4932 32.2626 25.2858L30.3052 23.5995C29.6843 23.8958 29.0849 24.1439 28.5096 24.3442ZM39.5163 16.7969L40.5523 19.1638C40.8708 18.8354 41.1678 18.5094 41.4433 18.1858L41.9757 17.5327C42.2328 17.1994 42.4659 16.8703 42.6745 16.5457L40.7563 15.2998C40.3951 15.7911 39.9816 16.291 39.5163 16.7969ZM34.4133 21.1574C34.674 20.9754 34.9364 20.7876 35.2012 20.592C35.4661 20.3964 35.7227 20.2009 35.9734 20.0053L37.9459 21.525C37.6302 21.7799 37.2993 22.0356 36.9601 22.2913L36.3069 22.7737C35.9628 23.0226 35.6216 23.2633 35.2846 23.4904L34.4133 21.1574ZM42.2073 12.6728C42.1982 12.6982 42.1866 12.7241 42.1776 12.7496L43.6132 14.6936C43.6222 14.6681 43.6339 14.6422 43.6429 14.6168C43.7764 14.2351 43.7145 13.8137 43.474 13.488L42.0383 11.544C42.2788 11.8697 42.3407 12.2911 42.2073 12.6728ZM25.5715 24.9586C25.1669 24.9742 24.7828 24.7907 24.5424 24.4651L25.978 26.4091C26.2181 26.7342 26.6027 26.9173 27.0072 26.9026C27.0336 26.9018 27.0623 26.8979 27.0893 26.8968L25.6536 24.9528C25.6266 24.9539 25.598 24.9578 25.5715 24.9586Z" fill="#5D4037"/>
</g>
<defs>
<filter id="filter0_d_123_3780" x="0" y="0" width="72" height="73" filterUnits="userSpaceOnUse" color-interpolation-filters="sRGB">
<feFlood flood-opacity="0" result="BackgroundImageFix"/>
<feColorMatrix in="SourceAlpha" type="matrix" values="0 0 0 0 0 0 0 0 0 0 0 0 0 0 0 0 0 0 127 0" result="hardAlpha"/>
<feMorphology radius="10" operator="erode" in="SourceAlpha" result="effect1_dropShadow_123_3780"/>
<feOffset dy="15"/>
<feGaussianBlur stdDeviation="12"/>
<feComposite in2="hardAlpha" operator="out"/>
<feColorMatrix type="matrix" values="0 0 0 0 0.137255 0 0 0 0 0.0705882 0 0 0 0 0.458824 0 0 0 0.24 0"/>
<feBlend mode="normal" in2="BackgroundImageFix" result="effect1_dropShadow_123_3780"/>
<feBlend mode="normal" in="SourceGraphic" in2="effect1_dropShadow_123_3780" result="shape"/>
</filter>
<clipPath id="clip0_123_3780">
<rect width="29" height="29" fill="white" transform="translate(16 19) rotate(-36.4465)"/>
</clipPath>
</defs>
</svg>
