<svg width="19" height="18" viewBox="0 0 19 18" fill="none" xmlns="http://www.w3.org/2000/svg">
<g id="vuesax/linear/devices">
<g id="devices">
<path id="Vector" d="M13.2575 9.54735C13.7007 9.54735 14.0599 9.18805 14.0599 8.74484C14.0599 8.30163 13.7007 7.94238 13.2575 7.94238C12.8143 7.94238 12.455 8.30163 12.455 8.74484C12.455 9.18805 12.8143 9.54735 13.2575 9.54735Z" stroke="#171717" stroke-width="1.5" stroke-linecap="round" stroke-linejoin="round"/>
<path id="Vector_2" d="M15.5 4.5V5.84248C15.3125 5.81998 15.095 5.80499 14.8625 5.80499H11.6525C10.0475 5.80499 9.51499 6.33752 9.51499 7.94252V11.775H5C2.6 11.775 2 11.175 2 8.77501V4.5C2 2.1 2.6 1.5 5 1.5H12.5C14.9 1.5 15.5 2.1 15.5 4.5Z" stroke="#171717" stroke-width="1.5" stroke-linecap="round" stroke-linejoin="round"/>
<path id="Vector_3" d="M7.25 11.7749V14.9999" stroke="#171717" stroke-width="1.5" stroke-linecap="round" stroke-linejoin="round"/>
<path id="Vector_4" d="M2 8.9248H9.5" stroke="#171717" stroke-width="1.5" stroke-linecap="round" stroke-linejoin="round"/>
<path id="Vector_5" d="M4.96252 15H9.50002" stroke="#171717" stroke-width="1.5" stroke-linecap="round" stroke-linejoin="round"/>
<g id="Group">
<path id="Vector_6" d="M13.2576 9.54784C13.7008 9.54784 14.0601 9.18854 14.0601 8.74533C14.0601 8.30212 13.7008 7.94287 13.2576 7.94287C12.8144 7.94287 12.4551 8.30212 12.4551 8.74533C12.4551 9.18854 12.8144 9.54784 13.2576 9.54784Z" stroke="#171717" stroke-width="1.5" stroke-miterlimit="10" stroke-linecap="round" stroke-linejoin="round"/>
<path id="Vector_7" d="M15.5 5.84267C15.3125 5.82017 15.095 5.80518 14.8625 5.80518H11.6525C10.0475 5.80518 9.51501 6.3377 9.51501 7.9427V14.3627C9.51501 15.9677 10.0475 16.5002 11.6525 16.5002H14.8625C16.4675 16.5002 17 15.9677 17 14.3627V7.9427C17 6.5702 16.61 5.98517 15.5 5.84267ZM13.2575 7.9427C13.7 7.9427 14.06 8.30266 14.06 8.74516C14.06 9.18766 13.7 9.54767 13.2575 9.54767C12.815 9.54767 12.455 9.18766 12.455 8.74516C12.455 8.30266 12.815 7.9427 13.2575 7.9427ZM13.2575 14.3627C12.3725 14.3627 11.6525 13.6427 11.6525 12.7577C11.6525 12.3902 11.78 12.0452 11.99 11.7752C12.2825 11.4002 12.74 11.1527 13.2575 11.1527C13.6625 11.1527 14.03 11.3027 14.3075 11.5427C14.645 11.8427 14.8625 12.2777 14.8625 12.7577C14.8625 13.6427 14.1425 14.3627 13.2575 14.3627Z" stroke="#171717" stroke-width="1.5" stroke-miterlimit="10" stroke-linecap="round" stroke-linejoin="round"/>
<path id="Vector_8" d="M14.8625 12.7578C14.8625 13.6428 14.1425 14.3629 13.2575 14.3629C12.3725 14.3629 11.6525 13.6428 11.6525 12.7578C11.6525 12.3903 11.78 12.0453 11.99 11.7753C12.2825 11.4003 12.74 11.1528 13.2575 11.1528C13.6625 11.1528 14.03 11.3028 14.3075 11.5428C14.645 11.8428 14.8625 12.2778 14.8625 12.7578Z" stroke="#171717" stroke-width="1.5" stroke-miterlimit="10" stroke-linecap="round" stroke-linejoin="round"/>
<path id="Vector_9" d="M13.2576 9.54784C13.7008 9.54784 14.0601 9.18854 14.0601 8.74533C14.0601 8.30212 13.7008 7.94287 13.2576 7.94287C12.8144 7.94287 12.4551 8.30212 12.4551 8.74533C12.4551 9.18854 12.8144 9.54784 13.2576 9.54784Z" stroke="#171717" stroke-width="1.5" stroke-miterlimit="10" stroke-linecap="round" stroke-linejoin="round"/>
</g>
</g>
</g>
</svg>
