<svg width="32" height="32" viewBox="0 0 32 32" fill="none" xmlns="http://www.w3.org/2000/svg">
<g id="vuesax/bulk/document-text">
<g id="document-text">
<path id="Vector" opacity="0.4" d="M27.3334 13.5865H23.48C20.32 13.5865 17.7467 11.0132 17.7467 7.85317V3.99984C17.7467 3.2665 17.1467 2.6665 16.4134 2.6665H10.76C6.65337 2.6665 3.33337 5.33317 3.33337 10.0932V21.9065C3.33337 26.6665 6.65337 29.3332 10.76 29.3332H21.24C25.3467 29.3332 28.6667 26.6665 28.6667 21.9065V14.9198C28.6667 14.1865 28.0667 13.5865 27.3334 13.5865Z" fill="#3198F5"/>
<path id="Vector_2" d="M21.0667 2.94682C20.52 2.40015 19.5734 2.77349 19.5734 3.53349V8.18682C19.5734 10.1335 21.2267 11.7468 23.24 11.7468C24.5067 11.7602 26.2667 11.7602 27.7734 11.7602C28.5334 11.7602 28.9334 10.8668 28.4 10.3335C26.48 8.40015 23.04 4.92015 21.0667 2.94682Z" fill="#3198F5"/>
<path id="Vector_3" d="M18 18.3335H10C9.45333 18.3335 9 17.8802 9 17.3335C9 16.7868 9.45333 16.3335 10 16.3335H18C18.5467 16.3335 19 16.7868 19 17.3335C19 17.8802 18.5467 18.3335 18 18.3335Z" fill="#3198F5"/>
<path id="Vector_4" d="M15.3333 23.6665H10C9.45333 23.6665 9 23.2132 9 22.6665C9 22.1198 9.45333 21.6665 10 21.6665H15.3333C15.88 21.6665 16.3333 22.1198 16.3333 22.6665C16.3333 23.2132 15.88 23.6665 15.3333 23.6665Z" fill="#3198F5"/>
</g>
</g>
</svg>
