<svg width="18" height="18" viewBox="0 0 18 18" fill="none" xmlns="http://www.w3.org/2000/svg">
<g id="vuesax/linear/heart-tick">
<g id="heart-tick">
<g id="Group">
<path id="Vector" d="M16.5 12.8998C16.5 13.5748 16.3125 14.2123 15.975 14.7523C15.3525 15.7948 14.2125 16.4998 12.9 16.4998C11.5875 16.4998 10.44 15.7948 9.82505 14.7523C9.49505 14.2123 9.30005 13.5748 9.30005 12.8998C9.30005 10.9123 10.9125 9.2998 12.9 9.2998C14.8875 9.2998 16.5 10.9123 16.5 12.8998Z" stroke="#171717" stroke-width="1.5" stroke-miterlimit="10" stroke-linecap="round" stroke-linejoin="round"/>
<path id="Vector_2" d="M11.4976 12.8996L12.3826 13.7846L14.3026 12.0146" stroke="#171717" stroke-width="1.5" stroke-linecap="round" stroke-linejoin="round"/>
</g>
<g id="Group_2">
<path id="Vector_3" d="M16.5 6.51772C16.5 7.99522 16.1175 9.30019 15.5175 10.4327C14.8575 9.73519 13.9275 9.30023 12.9 9.30023C10.9125 9.30023 9.3 10.9127 9.3 12.9002C9.3 13.8227 9.6525 14.6627 10.2225 15.3002C9.945 15.4277 9.69 15.5327 9.465 15.6077C9.21 15.6977 8.79 15.6977 8.535 15.6077C6.36 14.8652 1.5 11.7677 1.5 6.51772C1.5 4.20022 3.3675 2.3252 5.67 2.3252C7.0275 2.3252 8.2425 2.98523 9 3.99773C9.7575 2.98523 10.9725 2.3252 12.33 2.3252C14.6325 2.3252 16.5 4.20022 16.5 6.51772Z" stroke="#171717" stroke-width="1.5" stroke-linecap="round" stroke-linejoin="round"/>
</g>
</g>
</g>
</svg>
