<svg width="19" height="18" viewBox="0 0 19 18" fill="none" xmlns="http://www.w3.org/2000/svg">
<g id="iconoir:gym" clip-path="url(#clip0_3502_29097)">
<g id="Group">
<path id="Vector" d="M6.05 5.25H3.95C3.83065 5.25 3.71619 5.29741 3.6318 5.3818C3.54741 5.46619 3.5 5.58065 3.5 5.7V12.3C3.5 12.3591 3.51164 12.4176 3.53425 12.4722C3.55687 12.5268 3.59002 12.5764 3.6318 12.6182C3.67359 12.66 3.7232 12.6931 3.77779 12.7157C3.83239 12.7384 3.89091 12.75 3.95 12.75H6.05C6.10909 12.75 6.16761 12.7384 6.22221 12.7157C6.2768 12.6931 6.32641 12.66 6.3682 12.6182C6.40998 12.5764 6.44313 12.5268 6.46575 12.4722C6.48836 12.4176 6.5 12.3591 6.5 12.3V5.7C6.5 5.58065 6.45259 5.46619 6.3682 5.3818C6.28381 5.29741 6.16935 5.25 6.05 5.25ZM15.05 5.25H12.95C12.8307 5.25 12.7162 5.29741 12.6318 5.3818C12.5474 5.46619 12.5 5.58065 12.5 5.7V12.3C12.5 12.3591 12.5116 12.4176 12.5343 12.4722C12.5569 12.5268 12.59 12.5764 12.6318 12.6182C12.6736 12.66 12.7232 12.6931 12.7778 12.7157C12.8324 12.7384 12.8909 12.75 12.95 12.75H15.05C15.1091 12.75 15.1676 12.7384 15.2222 12.7157C15.2768 12.6931 15.3264 12.66 15.3682 12.6182C15.41 12.5764 15.4431 12.5268 15.4657 12.4722C15.4884 12.4176 15.5 12.3591 15.5 12.3V5.7C15.5 5.58065 15.4526 5.46619 15.3682 5.3818C15.2838 5.29741 15.1693 5.25 15.05 5.25Z" stroke="#171717" stroke-width="1.5" stroke-linecap="round" stroke-linejoin="round"/>
<path id="Vector_2" d="M6.5 9H12.5M1.25 10.8V7.2C1.25 7.08065 1.29741 6.96619 1.3818 6.8818C1.46619 6.79741 1.58065 6.75 1.7 6.75H3.05C3.16935 6.75 3.28381 6.79741 3.3682 6.8818C3.45259 6.96619 3.5 7.08065 3.5 7.2V10.8C3.5 10.9193 3.45259 11.0338 3.3682 11.1182C3.28381 11.2026 3.16935 11.25 3.05 11.25H1.7C1.58065 11.25 1.46619 11.2026 1.3818 11.1182C1.29741 11.0338 1.25 10.9193 1.25 10.8ZM17.75 10.8V7.2C17.75 7.08065 17.7026 6.96619 17.6182 6.8818C17.5338 6.79741 17.4193 6.75 17.3 6.75H15.95C15.8307 6.75 15.7162 6.79741 15.6318 6.8818C15.5474 6.96619 15.5 7.08065 15.5 7.2V10.8C15.5 10.9193 15.5474 11.0338 15.6318 11.1182C15.7162 11.2026 15.8307 11.25 15.95 11.25H17.3C17.4193 11.25 17.5338 11.2026 17.6182 11.1182C17.7026 11.0338 17.75 10.9193 17.75 10.8Z" stroke="#171717" stroke-width="1.5" stroke-linecap="round" stroke-linejoin="round"/>
</g>
</g>
<defs>
<clipPath id="clip0_3502_29097">
<rect width="18" height="18" fill="white" transform="translate(0.5)"/>
</clipPath>
</defs>
</svg>
