<svg width="20" height="20" viewBox="0 0 20 20" fill="none" xmlns="http://www.w3.org/2000/svg">
<g id="mage:verified-check-fill">
<path id="Vector" d="M18.35 9.30339C18.2392 9.08161 18.0762 8.89003 17.875 8.74506L16.7667 7.91173C16.7091 7.87197 16.6677 7.81282 16.65 7.74506C16.6252 7.67784 16.6252 7.60394 16.65 7.53672L17.1084 6.17839C17.1819 5.93546 17.199 5.67894 17.1584 5.42839C17.1199 5.17323 17.0166 4.9322 16.8584 4.72839C16.7059 4.52454 16.5056 4.36139 16.2751 4.25339C16.0546 4.14751 15.811 4.0988 15.5667 4.11172H14.3167C14.2428 4.11083 14.1711 4.08597 14.1125 4.0409C14.0539 3.99582 14.0115 3.93295 13.9917 3.86172L13.6334 2.61172C13.5643 2.35813 13.4324 2.126 13.25 1.93672C13.0681 1.75189 12.8455 1.61207 12.6 1.52839C12.3519 1.45225 12.0893 1.43512 11.8334 1.47839C11.5795 1.52797 11.3419 1.63962 11.1417 1.80339L10.1917 2.55339C10.1391 2.60085 10.0709 2.62751 10 2.62839C9.93605 2.6345 9.87179 2.6199 9.81672 2.58672L8.87505 1.83672C8.68174 1.67875 8.45297 1.57008 8.20838 1.52006C7.96742 1.46172 7.71601 1.46172 7.47505 1.52006C7.23341 1.58719 7.01081 1.7099 6.82505 1.87839C6.63499 2.06252 6.48961 2.28772 6.40005 2.53672L6.04172 3.79506C6.02352 3.86924 5.97913 3.93436 5.91672 3.97839C5.85084 4.02353 5.77123 4.04417 5.69172 4.03672H4.50838C4.25272 4.02671 3.99839 4.07814 3.76672 4.18672C3.53165 4.29109 3.32776 4.45477 3.17505 4.66172C3.02166 4.86525 2.91884 5.10232 2.87505 5.35339C2.83338 5.59756 2.85005 5.84923 2.92505 6.08672L3.33338 7.49423C3.35487 7.56114 3.35519 7.63305 3.33431 7.70016C3.31344 7.76727 3.27237 7.82631 3.21672 7.86923L2.10838 8.70256C1.90672 8.85256 1.74172 9.04589 1.62505 9.26923C1.51557 9.49078 1.45862 9.73459 1.45862 9.98172C1.45862 10.2289 1.51557 10.4727 1.62505 10.6942C1.74135 10.9172 1.90659 11.1109 2.10838 11.2609L3.21672 12.0942C3.27237 12.1371 3.31344 12.1962 3.33431 12.2633C3.35519 12.3304 3.35487 12.4023 3.33338 12.4692L2.87505 13.8276C2.79742 14.0725 2.77745 14.332 2.81672 14.5859C2.85838 14.8342 2.96172 15.0692 3.11672 15.2692C3.26922 15.4776 3.47338 15.6442 3.70838 15.7526C3.92922 15.8576 4.17255 15.9059 4.41672 15.8942H5.65838C5.73354 15.891 5.8074 15.9146 5.86672 15.9609C5.92662 16.0021 5.96839 16.0648 5.98338 16.1359L6.34172 17.3942C6.41578 17.6433 6.54705 17.8716 6.72505 18.0609C6.99682 18.3439 7.36445 18.5153 7.75595 18.5415C8.14746 18.5677 8.53466 18.4469 8.84172 18.2026L9.80005 17.4442C9.85786 17.3975 9.92992 17.3721 10.0042 17.3721C10.0785 17.3721 10.1506 17.3975 10.2084 17.4442L11.1501 18.1942C11.35 18.3626 11.5917 18.4751 11.85 18.5192C11.9442 18.5276 12.0392 18.5276 12.1334 18.5192C12.2974 18.5194 12.4605 18.4941 12.6167 18.4442C12.8641 18.3664 13.0881 18.2281 13.2685 18.0418C13.449 17.8556 13.5801 17.6273 13.65 17.3776L14.0167 16.1109C14.0317 16.0398 14.0735 15.9771 14.1334 15.9359C14.1978 15.8871 14.2778 15.8634 14.3584 15.8692H15.55C15.8049 15.8794 16.0586 15.8309 16.2917 15.7276C16.5215 15.6179 16.7216 15.4547 16.8753 15.2517C17.029 15.0487 17.1318 14.8118 17.175 14.5609C17.2182 14.3044 17.1982 14.0412 17.1167 13.7942L16.6667 12.4442C16.6418 12.377 16.6418 12.3031 16.6667 12.2359C16.6843 12.1681 16.7257 12.109 16.7834 12.0692L17.8917 11.2359C18.0932 11.0878 18.2561 10.8935 18.3667 10.6692C18.4831 10.4484 18.5433 10.2022 18.5417 9.95256C18.526 9.72451 18.4606 9.50349 18.35 9.30339ZM13.8167 8.66922L10.1334 12.3526C9.99065 12.4921 9.82415 12.6049 9.64172 12.6859C9.45672 12.7609 9.25838 12.8009 9.05838 12.8026C8.85449 12.8037 8.65273 12.7611 8.46672 12.6776C8.27993 12.6001 8.11008 12.4868 7.96672 12.3442L6.15005 10.5192C6.01353 10.3598 5.94219 10.1547 5.95029 9.94501C5.95839 9.73528 6.04534 9.53633 6.19375 9.38792C6.34216 9.23951 6.54111 9.15257 6.75084 9.14447C6.96057 9.13636 7.16563 9.2077 7.32505 9.34423L9.05838 11.0776L12.6417 7.48589C12.7979 7.33068 13.0091 7.24356 13.2292 7.24356C13.4494 7.24356 13.6606 7.33068 13.8167 7.48589C13.9002 7.56371 13.9668 7.65788 14.0123 7.76254C14.0578 7.86719 14.0813 7.9801 14.0813 8.09423C14.0813 8.20835 14.0578 8.32126 14.0123 8.42591C13.9668 8.53057 13.9002 8.62474 13.8167 8.70256V8.66922Z" fill="#3198F5"/>
</g>
</svg>
