<svg width="32" height="32" viewBox="0 0 32 32" fill="none" xmlns="http://www.w3.org/2000/svg">
<g id="mdi:handshake">
<path id="Vector" d="M6.66664 14.6667V20L3.61331 23.0533C3.36497 23.3032 3.22559 23.6411 3.22559 23.9933C3.22559 24.3456 3.36497 24.6835 3.61331 24.9333L7.05331 28.3867C7.17726 28.5116 7.32473 28.6108 7.48721 28.6785C7.64969 28.7462 7.82396 28.7811 7.99998 28.7811C8.17599 28.7811 8.35027 28.7462 8.51275 28.6785C8.67522 28.6108 8.82269 28.5116 8.94664 28.3867L14.6666 22.6667H20C20.3536 22.6667 20.6927 22.5262 20.9428 22.2761C21.1928 22.0261 21.3333 21.687 21.3333 21.3333V20H22.6666C23.0203 20 23.3594 19.8595 23.6095 19.6095C23.8595 19.3594 24 19.0203 24 18.6667V17.3333H25.3333C25.6869 17.3333 26.0261 17.1929 26.2761 16.9428C26.5262 16.6928 26.6666 16.3536 26.6666 16V14.6667H17.3333V16C17.3333 16.7072 17.0524 17.3855 16.5523 17.8856C16.0522 18.3857 15.3739 18.6667 14.6666 18.6667H12C11.2927 18.6667 10.6145 18.3857 10.1144 17.8856C9.61426 17.3855 9.33331 16.7072 9.33331 16V12L6.66664 14.6667Z" fill="#3198F5"/>
<path id="Vector_2" opacity="0.4" d="M18.6667 7.99996H14.6667C13.9594 7.99996 13.2811 8.28092 12.781 8.78101C12.281 9.28111 12 9.95939 12 10.6666V14.6666C12 15.0203 12.1405 15.3594 12.3905 15.6094C12.6406 15.8595 12.9797 16 13.3333 16C13.687 16 14.0261 15.8595 14.2761 15.6094C14.5262 15.3594 14.6667 15.0203 14.6667 14.6666V12H20H25.3333L28.3867 8.9333C28.635 8.68348 28.7744 8.34555 28.7744 7.9933C28.7744 7.64105 28.635 7.30311 28.3867 7.0533L24.9467 3.59996C24.8227 3.47499 24.6752 3.3758 24.5128 3.30811C24.3503 3.24042 24.176 3.20557 24 3.20557C23.824 3.20557 23.6497 3.24042 23.4872 3.30811C23.3248 3.3758 23.1773 3.47499 23.0533 3.59996L18.6667 7.99996Z" fill="#3198F5"/>
</g>
</svg>
