<svg width="19" height="18" viewBox="0 0 19 18" fill="none" xmlns="http://www.w3.org/2000/svg">
<g id="mynaui:academic-hat">
<g id="Group">
<path id="Vector" d="M17 6.37509V10.1251M11.1627 2.62509C10.6431 2.37845 10.0752 2.25049 9.5 2.25049C8.92483 2.25049 8.35686 2.37845 7.83725 2.62509L2.819 4.97784C1.727 5.48934 1.727 7.26084 2.819 7.77234L7.8365 10.1251C8.35621 10.3719 8.92431 10.4999 9.49962 10.4999C10.0749 10.4999 10.643 10.3719 11.1627 10.1251L16.181 7.77234C17.273 7.26084 17.273 5.48934 16.181 4.97784L11.1627 2.62509Z" stroke="#171717" stroke-width="1.5" stroke-linecap="round" stroke-linejoin="round"/>
<path id="Vector_2" d="M4.25 8.625V12.4688C4.25 14.6572 7.7705 15.75 9.5 15.75C11.2295 15.75 14.75 14.6572 14.75 12.4688V8.625" stroke="#171717" stroke-width="1.5" stroke-linecap="round" stroke-linejoin="round"/>
</g>
</g>
</svg>
