<svg width="18" height="18" viewBox="0 0 18 18" fill="none" xmlns="http://www.w3.org/2000/svg">
<g id="mynaui:music">
<path id="Vector" d="M6.46875 13.2377C6.46875 14.4182 5.52375 15.3752 4.35975 15.3752C3.19425 15.3752 2.25 14.4182 2.25 13.2377C2.25 12.0579 3.195 11.1009 4.35975 11.1009C5.5245 11.1009 6.46875 12.0572 6.46875 13.2377ZM6.46875 13.2377V4.0967C6.46875 3.7067 6.76425 3.3812 7.1505 3.34595L14.9318 2.62895C15.0358 2.61966 15.1407 2.63219 15.2397 2.66573C15.3387 2.69927 15.4296 2.75309 15.5066 2.82374C15.5836 2.89439 15.645 2.98032 15.6869 3.07605C15.7288 3.17178 15.7503 3.27519 15.75 3.3797V12.3827M15.75 12.3827C15.75 13.5624 14.805 14.5202 13.641 14.5202C12.4755 14.5202 11.5312 13.5624 11.5312 12.3827C11.5312 11.2022 12.4762 10.2452 13.641 10.2452C14.8057 10.2452 15.75 11.2022 15.75 12.3827Z" stroke="#171717" stroke-width="1.5" stroke-linecap="round" stroke-linejoin="round"/>
</g>
</svg>
