<svg width="17" height="17" viewBox="0 0 17 17" fill="none" xmlns="http://www.w3.org/2000/svg">
<g id="Iconly/Curved/Light/Star">
<g id="Star">
<path id="Stroke 1" fill-rule="evenodd" clip-rule="evenodd" d="M8.5 2.5C7.14256 2.5 7.01423 4.86435 6.20608 5.69972C5.39792 6.53508 2.88547 5.57995 2.53639 7.06269C2.18805 8.54618 4.44824 9.04953 4.72691 10.3223C5.00705 11.595 3.62615 13.3833 4.80611 14.2732C5.98607 15.1624 7.25623 13.1498 8.5 13.1498C9.74376 13.1498 11.0139 15.1624 12.1939 14.2732C13.3738 13.3833 11.9937 11.595 12.2731 10.3223C12.5525 9.04953 14.8119 8.54618 14.4636 7.06269C14.1153 5.57995 11.6021 6.53508 10.7946 5.69972C9.9865 4.86435 9.85743 2.5 8.5 2.5Z" fill="#F5AA00"/>
</g>
</g>
</svg>
