<svg width="108" height="20" viewBox="0 0 108 20" fill="none" xmlns="http://www.w3.org/2000/svg">
<g id="stars-5 1" clip-path="url(#clip0_731_11595)">
<g id="Trustpilot ratings 5star RGB">
<g id="Group">
<path id="Rectangle path" d="M20.5 0H0.5V20H20.5V0Z" fill="#219653"/>
<path id="Rectangle path_2" d="M42.1666 0H22.1666V20H42.1666V0Z" fill="#219653"/>
<path id="Rectangle path_3" d="M63.8334 0H43.8334V20H63.8334V0Z" fill="#219653"/>
<path id="Rectangle path_4" d="M85.5 0H65.5V20H85.5V0Z" fill="#219653"/>
<path id="Rectangle path_5" d="M107.167 0H87.1666V20H107.167V0Z" fill="#219653"/>
<path id="Shape" d="M10.4998 13.4792L13.5414 12.7083L14.8123 16.625L10.4998 13.4792ZM17.4998 8.41667H12.1456L10.4998 3.375L8.85392 8.41667H3.49976L7.83309 11.5417L6.18726 16.5833L10.5206 13.4583L13.1873 11.5417L17.4998 8.41667Z" fill="white"/>
<path id="Shape_2" d="M32.1664 13.4792L35.208 12.7083L36.4789 16.625L32.1664 13.4792ZM39.1664 8.41667H33.8122L32.1664 3.375L30.5205 8.41667H25.1664L29.4997 11.5417L27.8539 16.5833L32.1872 13.4583L34.8539 11.5417L39.1664 8.41667Z" fill="white"/>
<path id="Shape_3" d="M53.833 13.4792L56.8747 12.7083L58.1455 16.625L53.833 13.4792ZM60.833 8.41667H55.4788L53.833 3.375L52.1872 8.41667H46.833L51.1663 11.5417L49.5205 16.5833L53.8538 13.4583L56.5205 11.5417L60.833 8.41667Z" fill="white"/>
<path id="Shape_4" d="M75.4998 13.4792L78.5414 12.7083L79.8123 16.625L75.4998 13.4792ZM82.4998 8.41667H77.1456L75.4998 3.375L73.8539 8.41667H68.4998L72.8331 11.5417L71.1873 16.5833L75.5206 13.4583L78.1873 11.5417L82.4998 8.41667Z" fill="white"/>
<path id="Shape_5" d="M97.1664 13.4792L100.208 12.7083L101.479 16.625L97.1664 13.4792ZM104.166 8.41667H98.8122L97.1664 3.375L95.5206 8.41667H90.1664L94.4997 11.5417L92.8539 16.5833L97.1872 13.4583L99.8539 11.5417L104.166 8.41667Z" fill="white"/>
</g>
</g>
</g>
<defs>
<clipPath id="clip0_731_11595">
<rect width="106.667" height="20" fill="white" transform="translate(0.5)"/>
</clipPath>
</defs>
</svg>
