<svg width="19" height="18" viewBox="0 0 19 18" fill="none" xmlns="http://www.w3.org/2000/svg">
<g id="streamline:hand-held-tablet-drawing" clip-path="url(#clip0_3502_29174)">
<g id="Group">
<path id="Vector" d="M2.42859 13.5002H16.5714M15.2857 0.643066H3.7143C3.37331 0.643066 3.04628 0.778525 2.80517 1.01964C2.56405 1.26076 2.42859 1.58779 2.42859 1.92878V16.0716C2.42859 16.4126 2.56405 16.7397 2.80517 16.9808C3.04628 17.2219 3.37331 17.3574 3.7143 17.3574H15.2857C15.6267 17.3574 15.9538 17.2219 16.1949 16.9808C16.436 16.7397 16.5714 16.4126 16.5714 16.0716V1.92878C16.5714 1.58779 16.436 1.26076 16.1949 1.01964C15.9538 0.778525 15.6267 0.643066 15.2857 0.643066Z" stroke="#171717" stroke-width="1.5" stroke-linecap="round" stroke-linejoin="round"/>
<path id="Vector_2" d="M5.64282 5.1431C6.39497 4.07981 7.84139 2.84167 8.85711 3.85738C10.1428 5.1431 6.02211 8.66981 7.57139 9.6431C9.26339 10.7064 11.768 5.36938 13.3571 6.42881C14.9463 7.48824 11.4285 9.6431 13.3571 10.9288" stroke="#171717" stroke-width="1.5" stroke-linecap="round" stroke-linejoin="round"/>
</g>
</g>
<defs>
<clipPath id="clip0_3502_29174">
<rect width="18" height="18" fill="white" transform="translate(0.5)"/>
</clipPath>
</defs>
</svg>
