<svg width="17" height="17" viewBox="0 0 17 17" fill="none" xmlns="http://www.w3.org/2000/svg">
<path d="M16.9844 0H0V16.9844H16.9844V0Z" fill="#F5F5F5"/>
<path d="M15.6938 0H1.30621C0.58481 0 0 0.58481 0 1.30621H17C17 0.58481 16.4152 0 15.6938 0Z" fill="#FF4B55"/>
<path d="M17 5.22461H0V6.53082H17V5.22461Z" fill="#FF4B55"/>
<path d="M17 2.61182H0V3.91803H17V2.61182Z" fill="#FF4B55"/>
<path d="M17 7.8374H0V9.14361H17V7.8374Z" fill="#FF4B55"/>
<path d="M17 13.063H0V14.3692H17V13.063Z" fill="#FF4B55"/>
<path d="M17 15.6763H0C0 16.3977 0.584812 16.9825 1.30621 16.9825H15.6938C16.4152 16.9825 17 16.3977 17 15.6763Z" fill="#FF4B55"/>
<path d="M17 10.4507H0V11.7569H17V10.4507Z" fill="#FF4B55"/>
<path d="M9.14547 0H1C0.447715 0 0 0.447714 0 0.999999V9.14547H9.14547V0Z" fill="#41479B"/>
<path d="M1.16912 0.681652L1.23958 0.892957L1.4623 0.894684C1.49112 0.894916 1.50311 0.931705 1.4799 0.948838L1.30074 1.08115L1.36791 1.29352C1.37661 1.32101 1.34533 1.34376 1.32182 1.32699L1.1406 1.19746L0.959376 1.32699C0.935935 1.34379 0.904624 1.32101 0.91329 1.29352L0.98046 1.08115L0.801296 0.948838C0.778121 0.931705 0.79004 0.894916 0.818894 0.894684L1.04162 0.892957L1.11208 0.681652C1.12131 0.654293 1.16002 0.654293 1.16912 0.681652Z" fill="#F5F5F5"/>
<path d="M1.16912 2.44437L1.23958 2.65568L1.4623 2.6574C1.49112 2.65764 1.50311 2.69443 1.4799 2.71156L1.30074 2.84387L1.36791 3.05624C1.37661 3.08373 1.34533 3.10648 1.32182 3.08971L1.1406 2.96018L0.959376 3.08971C0.935935 3.10651 0.904624 3.08373 0.91329 3.05624L0.98046 2.84387L0.801296 2.71156C0.778121 2.69443 0.79004 2.65764 0.818894 2.6574L1.04162 2.65568L1.11208 2.44437C1.12131 2.41698 1.16002 2.41698 1.16912 2.44437Z" fill="#F5F5F5"/>
<path d="M1.16912 4.39943L1.23958 4.61073L1.4623 4.61246C1.49112 4.61269 1.50311 4.64948 1.4799 4.66665L1.30074 4.79896L1.36791 5.01133C1.37661 5.03882 1.34533 5.06156 1.32182 5.0448L1.1406 4.91527L0.959376 5.0448C0.935935 5.0616 0.904624 5.03882 0.91329 5.01133L0.98046 4.79896L0.801296 4.66665C0.778121 4.64951 0.79004 4.61269 0.818894 4.61246L1.04162 4.61073L1.11208 4.39943C1.12131 4.37207 1.16002 4.37207 1.16912 4.39943Z" fill="#F5F5F5"/>
<path d="M1.16912 6.19532L1.23958 6.40663L1.4623 6.40836C1.49112 6.40859 1.50311 6.44538 1.4799 6.46251L1.30074 6.59482L1.36791 6.80719C1.37661 6.83468 1.34533 6.85743 1.32182 6.84066L1.1406 6.71113L0.959376 6.84066C0.935935 6.85746 0.904624 6.83468 0.91329 6.80719L0.98046 6.59482L0.801296 6.46251C0.778121 6.44538 0.79004 6.40859 0.818894 6.40836L1.04162 6.40663L1.11208 6.19532C1.12131 6.16796 1.16002 6.16796 1.16912 6.19532Z" fill="#F5F5F5"/>
<path d="M1.16912 7.83009L1.23958 8.04139L1.4623 8.04312C1.49112 8.04335 1.50311 8.08014 1.4799 8.09728L1.30074 8.22959L1.36791 8.44196C1.37661 8.46945 1.34533 8.49219 1.32182 8.47543L1.1406 8.3459L0.959376 8.47543C0.935935 8.49223 0.904624 8.46945 0.91329 8.44196L0.98046 8.22959L0.801296 8.09728C0.778121 8.08014 0.79004 8.04332 0.818894 8.04312L1.04162 8.04139L1.11208 7.83009C1.12131 7.80273 1.16002 7.80273 1.16912 7.83009Z" fill="#F5F5F5"/>
<path d="M2.02703 1.51613L2.09749 1.72743L2.32021 1.72916C2.34903 1.72939 2.36102 1.76618 2.33781 1.78331L2.15865 1.91563L2.22582 2.12799C2.23452 2.15548 2.20324 2.17823 2.17973 2.16146L1.99851 2.03194L1.81729 2.16146C1.79385 2.17826 1.76253 2.15548 1.7712 2.12799L1.83837 1.91563L1.65921 1.78331C1.63603 1.76618 1.64795 1.72939 1.6768 1.72916L1.89953 1.72743L1.96999 1.51613C1.97922 1.48877 2.01793 1.48877 2.02703 1.51613Z" fill="#F5F5F5"/>
<path d="M2.02703 3.4712L2.09749 3.68251L2.32021 3.68423C2.34903 3.68447 2.36102 3.72126 2.33781 3.73839L2.15865 3.8707L2.22582 4.08307C2.23452 4.11056 2.20324 4.13331 2.17973 4.11654L1.99851 3.98701L1.81729 4.11654C1.79385 4.13334 1.76253 4.11056 1.7712 4.08307L1.83837 3.8707L1.65921 3.73839C1.63603 3.72126 1.64795 3.68447 1.6768 3.68423L1.89953 3.68251L1.96999 3.4712C1.97922 3.44384 2.01793 3.44384 2.02703 3.4712Z" fill="#F5F5F5"/>
<path d="M2.02703 5.3286L2.09749 5.5399L2.32021 5.54163C2.34903 5.54186 2.36102 5.57865 2.33781 5.59579L2.15865 5.7281L2.22582 5.94047C2.23452 5.96796 2.20324 5.9907 2.17973 5.97394L1.99851 5.84441L1.81729 5.97394C1.79385 5.99074 1.76253 5.96796 1.7712 5.94047L1.83837 5.7281L1.65921 5.59579C1.63603 5.57865 1.64795 5.54186 1.6768 5.54163L1.89953 5.5399L1.96999 5.3286C1.97922 5.30127 2.01793 5.30127 2.02703 5.3286Z" fill="#F5F5F5"/>
<path d="M2.02703 6.99662L2.09749 7.20792L2.32021 7.20965C2.34903 7.20988 2.36102 7.24667 2.33781 7.2638L2.15865 7.39612L2.22582 7.60849C2.23452 7.63598 2.20324 7.65872 2.17973 7.64196L1.99851 7.51243L1.81729 7.64196C1.79385 7.65876 1.76253 7.63598 1.7712 7.60849L1.83837 7.39612L1.65921 7.2638C1.63603 7.24667 1.64795 7.20988 1.6768 7.20965L1.89953 7.20792L1.96999 6.99662C1.97922 6.96923 2.01793 6.96923 2.02703 6.99662Z" fill="#F5F5F5"/>
<path d="M2.88494 0.681652L2.9554 0.892957L3.17812 0.894684C3.20695 0.894916 3.21893 0.931705 3.19572 0.948838L3.01656 1.08115L3.08373 1.29352C3.09243 1.32101 3.06115 1.34376 3.03764 1.32699L2.85642 1.19746L2.6752 1.32699C2.65176 1.34379 2.62044 1.32101 2.62911 1.29352L2.69628 1.08115L2.51712 0.948838C2.49394 0.931705 2.50586 0.894916 2.53471 0.894684L2.75744 0.892957L2.8279 0.681652C2.83713 0.654293 2.87581 0.654293 2.88494 0.681652Z" fill="#F5F5F5"/>
<path d="M2.88494 2.44437L2.9554 2.65568L3.17812 2.6574C3.20695 2.65764 3.21893 2.69443 3.19572 2.71156L3.01656 2.84387L3.08373 3.05624C3.09243 3.08373 3.06115 3.10648 3.03764 3.08971L2.85642 2.96018L2.6752 3.08971C2.65176 3.10651 2.62044 3.08373 2.62911 3.05624L2.69628 2.84387L2.51712 2.71156C2.49394 2.69443 2.50586 2.65764 2.53471 2.6574L2.75744 2.65568L2.8279 2.44437C2.83713 2.41698 2.87581 2.41698 2.88494 2.44437Z" fill="#F5F5F5"/>
<path d="M2.88494 4.39943L2.9554 4.61073L3.17812 4.61246C3.20695 4.61269 3.21893 4.64948 3.19572 4.66665L3.01656 4.79896L3.08373 5.01133C3.09243 5.03882 3.06115 5.06156 3.03764 5.0448L2.85642 4.91527L2.6752 5.0448C2.65176 5.0616 2.62044 5.03882 2.62911 5.01133L2.69628 4.79896L2.51712 4.66665C2.49394 4.64951 2.50586 4.61269 2.53471 4.61246L2.75744 4.61073L2.8279 4.39943C2.83713 4.37207 2.87581 4.37207 2.88494 4.39943Z" fill="#F5F5F5"/>
<path d="M2.88487 6.19533L2.95533 6.40663L3.17806 6.40836C3.20688 6.40859 3.21886 6.44538 3.19566 6.46251L3.01649 6.59483L3.08366 6.80719C3.09236 6.83469 3.06108 6.85743 3.03758 6.84066L2.85642 6.71111L2.6752 6.84063C2.65176 6.85743 2.62044 6.83465 2.62911 6.80716L2.69628 6.59479L2.51712 6.46248C2.49394 6.44535 2.50586 6.40856 2.53471 6.40833L2.75744 6.4066L2.8279 6.1953C2.83706 6.16797 2.87574 6.16797 2.88487 6.19533Z" fill="#F5F5F5"/>
<path d="M2.88494 7.83009L2.9554 8.04139L3.17812 8.04312C3.20695 8.04335 3.21893 8.08014 3.19572 8.09728L3.01656 8.22959L3.08373 8.44196C3.09243 8.46945 3.06115 8.49219 3.03764 8.47543L2.85642 8.3459L2.6752 8.47543C2.65176 8.49223 2.62044 8.46945 2.62911 8.44196L2.69628 8.22959L2.51712 8.09728C2.49394 8.08014 2.50586 8.04332 2.53471 8.04312L2.75744 8.04139L2.8279 7.83009C2.83713 7.80273 2.87581 7.80273 2.88494 7.83009Z" fill="#F5F5F5"/>
<path d="M3.74285 1.51613L3.81331 1.72743L4.03603 1.72916C4.06485 1.72939 4.07684 1.76618 4.05363 1.78331L3.87447 1.91563L3.94164 2.12799C3.95034 2.15548 3.91906 2.17823 3.89555 2.16146L3.71433 2.03194L3.53311 2.16146C3.50967 2.17826 3.47835 2.15548 3.48702 2.12799L3.55419 1.91563L3.37503 1.78331C3.35185 1.76618 3.36377 1.72939 3.39262 1.72916L3.61545 1.72743L3.68591 1.51613C3.69504 1.48877 3.73372 1.48877 3.74285 1.51613Z" fill="#F5F5F5"/>
<path d="M3.74285 3.4712L3.81331 3.68251L4.03603 3.68423C4.06485 3.68447 4.07684 3.72126 4.05363 3.73839L3.87447 3.8707L3.94164 4.08307C3.95034 4.11056 3.91906 4.13331 3.89555 4.11654L3.71433 3.98701L3.53311 4.11654C3.50967 4.13334 3.47835 4.11056 3.48702 4.08307L3.55419 3.8707L3.37503 3.73839C3.35185 3.72126 3.36377 3.68447 3.39262 3.68423L3.61535 3.68251L3.68581 3.4712C3.69504 3.44384 3.73372 3.44384 3.74285 3.4712Z" fill="#F5F5F5"/>
<path d="M3.74285 5.3286L3.81331 5.5399L4.03603 5.54163C4.06485 5.54186 4.07684 5.57865 4.05363 5.59579L3.87447 5.7281L3.94164 5.94047C3.95034 5.96796 3.91906 5.9907 3.89555 5.97394L3.71433 5.84441L3.53311 5.97394C3.50967 5.99074 3.47835 5.96796 3.48702 5.94047L3.55419 5.7281L3.37503 5.59579C3.35185 5.57865 3.36377 5.54186 3.39262 5.54163L3.61535 5.5399L3.68581 5.3286C3.69504 5.30127 3.73372 5.30127 3.74285 5.3286Z" fill="#F5F5F5"/>
<path d="M3.74285 6.99662L3.81331 7.20792L4.03603 7.20965C4.06485 7.20988 4.07684 7.24667 4.05363 7.2638L3.87447 7.39612L3.94164 7.60849C3.95034 7.63598 3.91906 7.65872 3.89555 7.64196L3.71433 7.51243L3.53311 7.64196C3.50967 7.65876 3.47835 7.63598 3.48702 7.60849L3.55419 7.39612L3.37503 7.2638C3.35185 7.24667 3.36377 7.20988 3.39262 7.20965L3.61535 7.20792L3.68581 6.99662C3.69504 6.96923 3.73372 6.96923 3.74285 6.99662Z" fill="#F5F5F5"/>
<path d="M4.60076 0.681652L4.67122 0.892957L4.89395 0.894684C4.92277 0.894916 4.93475 0.931705 4.91154 0.948838L4.73238 1.08115L4.79955 1.29352C4.80825 1.32101 4.77697 1.34376 4.75346 1.32699L4.57224 1.19746L4.39102 1.32699C4.36758 1.34379 4.33627 1.32101 4.34493 1.29352L4.4121 1.08115L4.23294 0.948838C4.20976 0.931705 4.22168 0.894916 4.25053 0.894684L4.47326 0.892957L4.54372 0.681652C4.55295 0.654293 4.59163 0.654293 4.60076 0.681652Z" fill="#F5F5F5"/>
<path d="M4.60076 2.44437L4.67122 2.65568L4.89395 2.6574C4.92277 2.65764 4.93475 2.69443 4.91154 2.71156L4.73238 2.84387L4.79955 3.05624C4.80825 3.08373 4.77697 3.10648 4.75346 3.08971L4.57224 2.96018L4.39102 3.08971C4.36758 3.10651 4.33627 3.08373 4.34493 3.05624L4.4121 2.84387L4.23294 2.71156C4.20976 2.69443 4.22168 2.65764 4.25053 2.6574L4.47326 2.65568L4.54372 2.44437C4.55295 2.41698 4.59163 2.41698 4.60076 2.44437Z" fill="#F5F5F5"/>
<path d="M4.60076 4.39943L4.67122 4.61073L4.89395 4.61246C4.92277 4.61269 4.93475 4.64948 4.91154 4.66665L4.73238 4.79896L4.79955 5.01133C4.80825 5.03882 4.77697 5.06156 4.75346 5.0448L4.57224 4.91527L4.39102 5.0448C4.36758 5.0616 4.33627 5.03882 4.34493 5.01133L4.4121 4.79896L4.23294 4.66665C4.20976 4.64951 4.22168 4.61269 4.25053 4.61246L4.47326 4.61073L4.54372 4.39943C4.55295 4.37207 4.59163 4.37207 4.60076 4.39943Z" fill="#F5F5F5"/>
<path d="M4.60076 6.19532L4.67122 6.40663L4.89395 6.40836C4.92277 6.40859 4.93475 6.44538 4.91154 6.46251L4.73238 6.59482L4.79955 6.80719C4.80825 6.83468 4.77697 6.85743 4.75346 6.84066L4.57224 6.71113L4.39102 6.84066C4.36758 6.85746 4.33627 6.83468 4.34493 6.80719L4.4121 6.59482L4.23294 6.46251C4.20976 6.44538 4.22168 6.40859 4.25053 6.40836L4.47326 6.40663L4.54372 6.19532C4.55295 6.16796 4.59163 6.16796 4.60076 6.19532Z" fill="#F5F5F5"/>
<path d="M4.60076 7.83009L4.67122 8.04139L4.89395 8.04312C4.92277 8.04335 4.93475 8.08014 4.91154 8.09728L4.73238 8.22959L4.79955 8.44196C4.80825 8.46945 4.77697 8.49219 4.75346 8.47543L4.57224 8.3459L4.39102 8.47543C4.36758 8.49223 4.33627 8.46945 4.34493 8.44196L4.4121 8.22959L4.23294 8.09728C4.20976 8.08014 4.22168 8.04332 4.25053 8.04312L4.47326 8.04139L4.54372 7.83009C4.55295 7.80273 4.59163 7.80273 4.60076 7.83009Z" fill="#F5F5F5"/>
<path d="M5.45867 1.51613L5.52913 1.72743L5.75185 1.72916C5.78067 1.72939 5.79266 1.76618 5.76945 1.78331L5.59029 1.91563L5.65746 2.12799C5.66616 2.15548 5.63488 2.17823 5.61137 2.16146L5.43015 2.03194L5.24893 2.16146C5.22549 2.17826 5.19418 2.15548 5.20284 2.12799L5.27001 1.91563L5.09085 1.78331C5.06767 1.76618 5.07959 1.72939 5.10841 1.72916L5.33114 1.72743L5.4016 1.51613C5.41086 1.48877 5.44954 1.48877 5.45867 1.51613Z" fill="#F5F5F5"/>
<path d="M5.45867 3.4712L5.52913 3.68251L5.75185 3.68423C5.78067 3.68447 5.79266 3.72126 5.76945 3.73839L5.59029 3.8707L5.65746 4.08307C5.66616 4.11056 5.63488 4.13331 5.61137 4.11654L5.43015 3.98701L5.24893 4.11654C5.22549 4.13334 5.19418 4.11056 5.20284 4.08307L5.27001 3.8707L5.09085 3.73839C5.06767 3.72126 5.07959 3.68447 5.10841 3.68423L5.33114 3.68251L5.4016 3.4712C5.41086 3.44384 5.44954 3.44384 5.45867 3.4712Z" fill="#F5F5F5"/>
<path d="M5.45867 5.3286L5.52913 5.5399L5.75185 5.54163C5.78067 5.54186 5.79266 5.57865 5.76945 5.59579L5.59029 5.7281L5.65746 5.94047C5.66616 5.96796 5.63488 5.9907 5.61137 5.97394L5.43015 5.84441L5.24893 5.97394C5.22549 5.99074 5.19418 5.96796 5.20284 5.94047L5.27001 5.7281L5.09085 5.59579C5.06767 5.57865 5.07959 5.54186 5.10841 5.54163L5.33114 5.5399L5.4016 5.3286C5.41086 5.30127 5.44954 5.30127 5.45867 5.3286Z" fill="#F5F5F5"/>
<path d="M5.45867 6.99662L5.52913 7.20792L5.75185 7.20965C5.78067 7.20988 5.79266 7.24667 5.76945 7.2638L5.59029 7.39612L5.65746 7.60849C5.66616 7.63598 5.63488 7.65872 5.61137 7.64196L5.43015 7.51243L5.24893 7.64196C5.22549 7.65876 5.19418 7.63598 5.20284 7.60849L5.27001 7.39612L5.09085 7.2638C5.06767 7.24667 5.07959 7.20988 5.10841 7.20965L5.33114 7.20792L5.4016 6.99662C5.41086 6.96923 5.44954 6.96923 5.45867 6.99662Z" fill="#F5F5F5"/>
<path d="M6.31658 0.681652L6.38704 0.892957L6.60976 0.894684C6.63858 0.894916 6.65057 0.931705 6.62736 0.948838L6.4482 1.08115L6.51537 1.29352C6.52407 1.32101 6.49279 1.34376 6.46928 1.32699L6.28806 1.19746L6.10684 1.32699C6.0834 1.34379 6.05209 1.32101 6.06075 1.29352L6.12792 1.08115L5.94876 0.948838C5.92558 0.931705 5.9375 0.894916 5.96635 0.894684L6.18908 0.892957L6.25954 0.681652C6.26877 0.654293 6.30745 0.654293 6.31658 0.681652Z" fill="#F5F5F5"/>
<path d="M6.31658 2.44437L6.38704 2.65568L6.60976 2.6574C6.63858 2.65764 6.65057 2.69443 6.62736 2.71156L6.4482 2.84387L6.51537 3.05624C6.52407 3.08373 6.49279 3.10648 6.46928 3.08971L6.28806 2.96018L6.10684 3.08971C6.0834 3.10651 6.05209 3.08373 6.06075 3.05624L6.12792 2.84387L5.94876 2.71156C5.92558 2.69443 5.9375 2.65764 5.96635 2.6574L6.18908 2.65568L6.25954 2.44437C6.26877 2.41698 6.30745 2.41698 6.31658 2.44437Z" fill="#F5F5F5"/>
<path d="M6.31658 4.39943L6.38704 4.61073L6.60976 4.61246C6.63858 4.61269 6.65057 4.64948 6.62736 4.66665L6.4482 4.79896L6.51537 5.01133C6.52407 5.03882 6.49279 5.06156 6.46928 5.0448L6.28806 4.91527L6.10684 5.0448C6.0834 5.0616 6.05209 5.03882 6.06075 5.01133L6.12792 4.79896L5.94876 4.66665C5.92558 4.64951 5.9375 4.61269 5.96635 4.61246L6.18908 4.61073L6.25954 4.39943C6.26877 4.37207 6.30745 4.37207 6.31658 4.39943Z" fill="#F5F5F5"/>
<path d="M6.31658 6.19532L6.38704 6.40663L6.60976 6.40836C6.63858 6.40859 6.65057 6.44538 6.62736 6.46251L6.4482 6.59482L6.51537 6.80719C6.52407 6.83468 6.49279 6.85743 6.46928 6.84066L6.28806 6.71113L6.10684 6.84066C6.0834 6.85746 6.05209 6.83468 6.06075 6.80719L6.12792 6.59482L5.94876 6.46251C5.92558 6.44538 5.9375 6.40859 5.96635 6.40836L6.18908 6.40663L6.25954 6.19532C6.26877 6.16796 6.30745 6.16796 6.31658 6.19532Z" fill="#F5F5F5"/>
<path d="M6.31658 7.83009L6.38704 8.04139L6.60976 8.04312C6.63858 8.04335 6.65057 8.08014 6.62736 8.09728L6.4482 8.22959L6.51537 8.44196C6.52407 8.46945 6.49279 8.49219 6.46928 8.47543L6.28806 8.3459L6.10684 8.47543C6.0834 8.49223 6.05209 8.46945 6.06075 8.44196L6.12792 8.22959L5.94876 8.09728C5.92558 8.08014 5.9375 8.04332 5.96635 8.04312L6.18908 8.04139L6.25954 7.83009C6.26877 7.80273 6.30745 7.80273 6.31658 7.83009Z" fill="#F5F5F5"/>
<path d="M7.17498 1.51613L7.24544 1.72743L7.46816 1.72916C7.49698 1.72939 7.50897 1.76618 7.48576 1.78331L7.3066 1.91563L7.37377 2.12799C7.38247 2.15548 7.35119 2.17823 7.32768 2.16146L7.14646 2.03194L6.96524 2.16146C6.94179 2.17826 6.91048 2.15548 6.91915 2.12799L6.98632 1.91563L6.80716 1.78331C6.78398 1.76618 6.7959 1.72939 6.82475 1.72916L7.04748 1.72743L7.11794 1.51613C7.12713 1.48877 7.16585 1.48877 7.17498 1.51613Z" fill="#F5F5F5"/>
<path d="M7.17498 3.4712L7.24544 3.68251L7.46816 3.68423C7.49698 3.68447 7.50897 3.72126 7.48576 3.73839L7.3066 3.8707L7.37377 4.08307C7.38247 4.11056 7.35119 4.13331 7.32768 4.11654L7.14646 3.98701L6.96524 4.11654C6.94179 4.13334 6.91048 4.11056 6.91915 4.08307L6.98632 3.8707L6.80716 3.73839C6.78398 3.72126 6.7959 3.68447 6.82475 3.68423L7.04748 3.68251L7.11794 3.4712C7.12713 3.44384 7.16585 3.44384 7.17498 3.4712Z" fill="#F5F5F5"/>
<path d="M7.17498 5.3286L7.24544 5.5399L7.46816 5.54163C7.49698 5.54186 7.50897 5.57865 7.48576 5.59579L7.3066 5.7281L7.37377 5.94047C7.38247 5.96796 7.35119 5.9907 7.32768 5.97394L7.14646 5.84441L6.96524 5.97394C6.94179 5.99074 6.91048 5.96796 6.91915 5.94047L6.98632 5.7281L6.80716 5.59579C6.78398 5.57865 6.7959 5.54186 6.82475 5.54163L7.04748 5.5399L7.11794 5.3286C7.12713 5.30127 7.16585 5.30127 7.17498 5.3286Z" fill="#F5F5F5"/>
<path d="M7.17498 6.99662L7.24544 7.20792L7.46816 7.20965C7.49698 7.20988 7.50897 7.24667 7.48576 7.2638L7.3066 7.39612L7.37377 7.60849C7.38247 7.63598 7.35119 7.65872 7.32768 7.64196L7.14646 7.51243L6.96524 7.64196C6.94179 7.65876 6.91048 7.63598 6.91915 7.60849L6.98632 7.39612L6.80716 7.2638C6.78398 7.24667 6.7959 7.20988 6.82475 7.20965L7.04748 7.20792L7.11794 6.99662C7.12713 6.96923 7.16585 6.96923 7.17498 6.99662Z" fill="#F5F5F5"/>
<path d="M8.0324 0.681652L8.10286 0.892957L8.32559 0.894684C8.35441 0.894916 8.36639 0.931705 8.34318 0.948838L8.16402 1.08115L8.23119 1.29352C8.23989 1.32101 8.20861 1.34376 8.1851 1.32699L8.00388 1.19746L7.82266 1.32699C7.79922 1.34379 7.76791 1.32101 7.77657 1.29352L7.84374 1.08115L7.66458 0.948838C7.6414 0.931705 7.65332 0.894916 7.68218 0.894684L7.9049 0.892957L7.97536 0.681652C7.98456 0.654293 8.02327 0.654293 8.0324 0.681652Z" fill="#F5F5F5"/>
<path d="M8.0324 2.44437L8.10286 2.65568L8.32559 2.6574C8.35441 2.65764 8.36639 2.69443 8.34318 2.71156L8.16402 2.84387L8.23119 3.05624C8.23989 3.08373 8.20861 3.10648 8.1851 3.08971L8.00388 2.96018L7.82266 3.08971C7.79922 3.10651 7.76791 3.08373 7.77657 3.05624L7.84374 2.84387L7.66458 2.71156C7.6414 2.69443 7.65332 2.65764 7.68218 2.6574L7.9049 2.65568L7.97536 2.44437C7.98456 2.41698 8.02327 2.41698 8.0324 2.44437Z" fill="#F5F5F5"/>
<path d="M8.0324 4.39943L8.10286 4.61073L8.32559 4.61246C8.35441 4.61269 8.36639 4.64948 8.34318 4.66665L8.16402 4.79896L8.23119 5.01133C8.23989 5.03882 8.20861 5.06156 8.1851 5.0448L8.00388 4.91527L7.82266 5.0448C7.79922 5.0616 7.76791 5.03882 7.77657 5.01133L7.84374 4.79896L7.66458 4.66665C7.6414 4.64951 7.65332 4.61269 7.68218 4.61246L7.9049 4.61073L7.97536 4.39943C7.98456 4.37207 8.02327 4.37207 8.0324 4.39943Z" fill="#F5F5F5"/>
<path d="M8.0324 6.19532L8.10286 6.40663L8.32559 6.40836C8.35441 6.40859 8.36639 6.44538 8.34318 6.46251L8.16402 6.59482L8.23119 6.80719C8.23989 6.83468 8.20861 6.85743 8.1851 6.84066L8.00388 6.71113L7.82266 6.84066C7.79922 6.85746 7.76791 6.83468 7.77657 6.80719L7.84374 6.59482L7.66458 6.46251C7.6414 6.44538 7.65332 6.40859 7.68218 6.40836L7.9049 6.40663L7.97536 6.19532C7.98456 6.16796 8.02327 6.16796 8.0324 6.19532Z" fill="#F5F5F5"/>
<path d="M8.0324 7.83009L8.10286 8.04139L8.32559 8.04312C8.35441 8.04335 8.36639 8.08014 8.34318 8.09728L8.16402 8.22959L8.23119 8.44196C8.23989 8.46945 8.20861 8.49219 8.1851 8.47543L8.00388 8.3459L7.82266 8.47543C7.79922 8.49223 7.76791 8.46945 7.77657 8.44196L7.84374 8.22959L7.66458 8.09728C7.6414 8.08014 7.65332 8.04332 7.68218 8.04312L7.9049 8.04139L7.97536 7.83009C7.98456 7.80273 8.02327 7.80273 8.0324 7.83009Z" fill="#F5F5F5"/>
</svg>
