<svg width="28" height="28" viewBox="0 0 28 28" fill="none" xmlns="http://www.w3.org/2000/svg">
<g clip-path="url(#clip0_976_7707)">
<path d="M19.25 0H8.75C3.91825 0 0 3.91825 0 8.75V19.25C0 24.0817 3.91825 28 8.75 28H19.25C24.0817 28 28 24.0817 28 19.25V8.75C28 3.91825 24.0817 0 19.25 0ZM25.375 19.25C25.375 22.6275 22.6275 25.375 19.25 25.375H8.75C5.3725 25.375 2.625 22.6275 2.625 19.25V8.75C2.625 5.3725 5.3725 2.625 8.75 2.625H19.25C22.6275 2.625 25.375 5.3725 25.375 8.75V19.25Z" fill="url(#paint0_linear_976_7707)"/>
<path d="M14 7C10.1342 7 7 10.1342 7 14C7 17.8658 10.1342 21 14 21C17.8658 21 21 17.8658 21 14C21 10.1342 17.8658 7 14 7ZM14 18.375C11.5885 18.375 9.625 16.4115 9.625 14C9.625 11.5868 11.5885 9.625 14 9.625C16.4115 9.625 18.375 11.5868 18.375 14C18.375 16.4115 16.4115 18.375 14 18.375Z" fill="url(#paint1_linear_976_7707)"/>
<path d="M21.5255 7.40749C22.0407 7.40749 22.4583 6.98988 22.4583 6.47474C22.4583 5.9596 22.0407 5.54199 21.5255 5.54199C21.0104 5.54199 20.5928 5.9596 20.5928 6.47474C20.5928 6.98988 21.0104 7.40749 21.5255 7.40749Z" fill="url(#paint2_linear_976_7707)"/>
</g>
<defs>
<linearGradient id="paint0_linear_976_7707" x1="2.56314" y1="25.437" x2="25.4369" y2="2.56296" gradientUnits="userSpaceOnUse">
<stop stop-color="#FFC107"/>
<stop offset="0.507" stop-color="#F44336"/>
<stop offset="0.99" stop-color="#9C27B0"/>
</linearGradient>
<linearGradient id="paint1_linear_976_7707" x1="9.05039" y1="18.9496" x2="18.9496" y2="9.05039" gradientUnits="userSpaceOnUse">
<stop stop-color="#FFC107"/>
<stop offset="0.507" stop-color="#F44336"/>
<stop offset="0.99" stop-color="#9C27B0"/>
</linearGradient>
<linearGradient id="paint2_linear_976_7707" x1="20.866" y1="7.1344" x2="22.185" y2="5.81525" gradientUnits="userSpaceOnUse">
<stop stop-color="#FFC107"/>
<stop offset="0.507" stop-color="#F44336"/>
<stop offset="0.99" stop-color="#9C27B0"/>
</linearGradient>
<clipPath id="clip0_976_7707">
<rect width="28" height="28" fill="white"/>
</clipPath>
</defs>
</svg>
