<svg width="18" height="18" viewBox="0 0 18 18" fill="none" xmlns="http://www.w3.org/2000/svg">
<path fill-rule="evenodd" clip-rule="evenodd" d="M0.877786 6.10545C0.329648 6.17301 -0.0599417 6.67212 0.00761202 7.22026C0.518918 11.369 3.8305 14.5924 7.93203 15.0481V15.9999H6.93203C5.82746 15.9999 4.93203 16.8953 4.93203 17.9999H12.932C12.932 16.8953 12.0366 15.9999 10.932 15.9999H9.93203V15.0483C14.0792 14.5885 17.4145 11.2999 17.8728 7.09425C17.9326 6.54522 17.536 6.05164 16.987 5.99181C16.438 5.93198 15.9444 6.32856 15.8845 6.8776C15.5003 10.4042 12.5097 13.1034 8.93288 13.1034C5.39255 13.1034 2.42173 10.4577 1.99259 6.97563C1.92504 6.42749 1.42592 6.0379 0.877786 6.10545Z" fill="#4A4B68"/>
<path opacity="0.3" fill-rule="evenodd" clip-rule="evenodd" d="M14.9321 6C14.9321 9.31371 12.2458 12 8.93213 12C5.61842 12 2.93213 9.31371 2.93213 6C2.93213 2.68629 5.61842 0 8.93213 0C12.2458 0 14.9321 2.68629 14.9321 6ZM5.04769 5.1919C5.40924 5.16662 5.72283 5.43922 5.74812 5.80078C5.83543 7.0495 6.38815 7.98539 7.43952 8.66477C7.74393 8.86147 7.83124 9.26771 7.63454 9.57212C7.43783 9.87654 7.03159 9.96385 6.72718 9.76714C5.32883 8.86355 4.55495 7.55317 4.43881 5.89233C4.41353 5.53078 4.68613 5.21719 5.04769 5.1919Z" fill="#4A4B68"/>
</svg>
