<svg width="18" height="18" viewBox="0 0 18 18" fill="none" xmlns="http://www.w3.org/2000/svg">
<path fill-rule="evenodd" clip-rule="evenodd" d="M4 0C1.79086 0 0 1.79086 0 4C0 6.20914 1.79086 8 4 8H14C16.2091 8 18 6.20914 18 4C18 1.79086 16.2091 0 14 0H4ZM6 4C6 5.10457 5.10457 6 4 6C2.89543 6 2 5.10457 2 4C2 2.89543 2.89543 2 4 2C5.10457 2 6 2.89543 6 4Z" fill="#4A4B68"/>
<path opacity="0.3" fill-rule="evenodd" clip-rule="evenodd" d="M4 10C1.79086 10 0 11.7909 0 14C0 16.2091 1.79086 18 4 18H14C16.2091 18 18 16.2091 18 14C18 11.7909 16.2091 10 14 10H4ZM16 14C16 15.1046 15.1046 16 14 16C12.8954 16 12 15.1046 12 14C12 12.8954 12.8954 12 14 12C15.1046 12 16 12.8954 16 14Z" fill="#4A4B68"/>
</svg>
