<svg width="18" height="18" viewBox="0 0 18 18" fill="none" xmlns="http://www.w3.org/2000/svg">
<path opacity="0.3" fill-rule="evenodd" clip-rule="evenodd" d="M9.7037 12.0898L12.6667 8.05985H10.4444V4.02992L6 10.0748H8.22222V12.0898H3C2.44772 12.0898 2 11.6387 2 11.0823V1.00748C2 0.451065 2.44772 0 3 0H15C15.5523 0 16 0.451065 16 1.00748V11.0823C16 11.6387 15.5523 12.0898 15 12.0898H9.7037Z" fill="#4A4B68"/>
<path fill-rule="evenodd" clip-rule="evenodd" d="M6.80429 8.98128L6 10.0752H8.22222V14.1051L12.6667 8.06023H12.4615L17.2073 4.60712C17.4311 4.44424 17.7437 4.49502 17.9053 4.72056C17.9669 4.80641 18 4.9096 18 5.0155V15.1126C18 16.2254 17.1046 17.1276 16 17.1276H2C0.89543 17.1276 0 16.2254 0 15.1126V5.0155C0 4.73729 0.223858 4.51176 0.5 4.51176C0.605106 4.51176 0.707538 4.54513 0.792745 4.60712L6.80429 8.98128Z" fill="#4A4B68"/>
</svg>
