<svg width="28" height="24" viewBox="0 0 28 24" fill="none" xmlns="http://www.w3.org/2000/svg">
<path d="M28 3.26843C26.9587 3.72087 25.8492 4.02076 24.6925 4.16638C25.8825 3.46258 26.7908 2.35661 27.2178 1.02356C26.1083 1.67882 24.8832 2.14166 23.5777 2.39995C22.5243 1.28878 21.0227 0.600586 19.3848 0.600586C16.2067 0.600586 13.6482 3.15575 13.6482 6.28817C13.6482 6.73888 13.6868 7.17225 13.7812 7.58482C9.009 7.35427 4.78625 5.08859 1.9495 1.63721C1.45425 2.48836 1.16375 3.46258 1.16375 4.51134C1.16375 6.48059 2.1875 8.22621 3.7135 9.23684C2.79125 9.2195 1.8865 8.95428 1.12 8.53651C1.12 8.55384 1.12 8.57638 1.12 8.59891C1.12 11.3621 3.10975 13.6572 5.719 14.186C5.25175 14.3125 4.7425 14.3732 4.214 14.3732C3.8465 14.3732 3.4755 14.3524 3.12725 14.2761C3.871 16.5279 5.9815 18.1834 8.491 18.2371C6.538 19.7505 4.05825 20.6623 1.37375 20.6623C0.903 20.6623 0.4515 20.6415 0 20.5843C2.54275 22.2085 5.55625 23.136 8.806 23.136C19.369 23.136 25.144 14.4685 25.144 6.95556C25.144 6.70421 25.1353 6.46152 25.123 6.22056C26.2622 5.41969 27.2195 4.41947 28 3.26843Z" fill="#03A9F4"/>
</svg>
