<svg width="44" height="44" viewBox="0 0 44 44" fill="none" xmlns="http://www.w3.org/2000/svg">
<rect width="44" height="44" rx="6" fill="#FFE2E5"/>
<path opacity="0.3" fill-rule="evenodd" clip-rule="evenodd" d="M11.6854 20.6603C11.0996 21.2461 11.0996 22.1958 11.6854 22.7816L14.1603 25.2565C14.7461 25.8423 15.6958 25.8423 16.2816 25.2565L18.7565 22.7816C19.3423 22.1958 19.3423 21.2461 18.7565 20.6603L16.2816 18.1854C15.6958 17.5996 14.7461 17.5996 14.1603 18.1854L11.6854 20.6603ZM24.6854 20.6603C24.0996 21.2461 24.0996 22.1958 24.6854 22.7816L27.1603 25.2565C27.7461 25.8423 28.6958 25.8423 29.2816 25.2565L31.7565 22.7816C32.3423 22.1958 32.3423 21.2461 31.7565 20.6603L29.2816 18.1854C28.6958 17.5996 27.7461 17.5996 27.1603 18.1854L24.6854 20.6603Z" fill="#F65464"/>
<path fill-rule="evenodd" clip-rule="evenodd" d="M18.1854 14.1603C17.5996 14.7461 17.5996 15.6958 18.1854 16.2816L20.6603 18.7565C21.2461 19.3423 22.1958 19.3423 22.7816 18.7565L25.2565 16.2816C25.8423 15.6958 25.8423 14.7461 25.2565 14.1603L22.7816 11.6854C22.1958 11.0996 21.2461 11.0996 20.6603 11.6854L18.1854 14.1603ZM18.1854 27.1603C17.5996 27.7461 17.5996 28.6958 18.1854 29.2816L20.6603 31.7565C21.2461 32.3423 22.1958 32.3423 22.7816 31.7565L25.2565 29.2816C25.8423 28.6958 25.8423 27.7461 25.2565 27.1603L22.7816 24.6854C22.1958 24.0996 21.2461 24.0996 20.6603 24.6854L18.1854 27.1603Z" fill="#F65464"/>
</svg>
