<svg width="44" height="44" viewBox="0 0 44 44" fill="none" xmlns="http://www.w3.org/2000/svg">
<rect width="44" height="44" rx="6" fill="#EEE5FF"/>
<rect opacity="0.3" x="13.166" y="14.166" width="8.33333" height="16.6667" fill="#8950FC"/>
<path fill-rule="evenodd" clip-rule="evenodd" d="M27.7493 16.2493H24.6243C24.6243 16.2493 23.5827 16.0706 23.5827 15.2077C23.5827 14.3447 24.6243 14.166 24.6243 14.166H29.8327V19.3743C29.8327 19.3743 29.8327 20.416 28.791 20.416C27.7493 20.416 27.7493 19.3743 27.7493 19.3743V16.2493ZM27.7493 25.6243L27.7493 28.7493H24.6243C24.6243 28.7493 23.5827 28.7493 23.5827 29.791C23.5827 30.8327 24.6243 30.8327 24.6243 30.8327H29.8327V25.6243C29.8327 25.6243 29.654 24.5827 28.791 24.5827C27.9281 24.5827 27.7493 25.6243 27.7493 25.6243ZM18.3743 28.7494H15.2493V25.6244C15.2493 25.6244 15.2493 24.5827 14.2077 24.5827C13.166 24.5827 13.166 25.6244 13.166 25.6244V30.8327H18.3743C18.3743 30.8327 19.416 30.654 19.416 29.791C19.416 28.9281 18.3743 28.7494 18.3743 28.7494ZM15.2493 19.3743V16.2493H18.3743C18.3743 16.2493 19.416 16.2493 19.416 15.2077C19.416 14.166 18.3743 14.166 18.3743 14.166H13.166V19.3743C13.166 19.3743 13.3447 20.416 14.2077 20.416C15.0706 20.416 15.2493 19.3743 15.2493 19.3743Z" fill="#8950FC"/>
</svg>
