<svg width="44" height="44" viewBox="0 0 44 44" fill="none" xmlns="http://www.w3.org/2000/svg">
<rect width="44" height="44" rx="6" fill="#D7F9EF"/>
<rect x="13.334" y="13.334" width="7.58333" height="7.58333" rx="1.5" fill="#5BD090"/>
<path opacity="0.3" fill-rule="evenodd" clip-rule="evenodd" d="M23.084 14.834C23.084 14.0056 23.7556 13.334 24.584 13.334H29.1673C29.9957 13.334 30.6673 14.0056 30.6673 14.834V19.4173C30.6673 20.2457 29.9957 20.9173 29.1673 20.9173H24.584C23.7556 20.9173 23.084 20.2457 23.084 19.4173V14.834ZM13.334 24.584C13.334 23.7556 14.0056 23.084 14.834 23.084H19.4173C20.2457 23.084 20.9173 23.7556 20.9173 24.584V29.1673C20.9173 29.9957 20.2457 30.6673 19.4173 30.6673H14.834C14.0056 30.6673 13.334 29.9957 13.334 29.1673V24.584ZM24.584 23.084C23.7556 23.084 23.084 23.7556 23.084 24.584V29.1673C23.084 29.9957 23.7556 30.6673 24.584 30.6673H29.1673C29.9957 30.6673 30.6673 29.9957 30.6673 29.1673V24.584C30.6673 23.7556 29.9957 23.084 29.1673 23.084H24.584Z" fill="#50CD89"/>
</svg>
