<svg width="32" height="32" viewBox="0 0 32 32" fill="none" xmlns="http://www.w3.org/2000/svg">
<path d="M7.99967 19.3333C7.99967 19.687 7.8592 20.0261 7.60915 20.2761C7.3591 20.5262 7.01996 20.6667 6.66634 20.6667C6.31272 20.6667 5.97358 20.5262 5.72353 20.2761C5.47348 20.0261 5.33301 19.687 5.33301 19.3333V13.3333C5.33301 12.9797 5.47348 12.6406 5.72353 12.3905C5.97358 12.1405 6.31272 12 6.66634 12C7.01996 12 7.3591 12.1405 7.60915 12.3905C7.8592 12.6406 7.99967 12.9797 7.99967 13.3333V19.3333ZM26.6663 19.3333C26.6663 19.687 26.5259 20.0261 26.2758 20.2761C26.0258 20.5262 25.6866 20.6667 25.333 20.6667C24.9794 20.6667 24.6402 20.5262 24.3902 20.2761C24.1401 20.0261 23.9997 19.687 23.9997 19.3333V13.3333C23.9997 12.9797 24.1401 12.6406 24.3902 12.3905C24.6402 12.1405 24.9794 12 25.333 12C25.6866 12 26.0258 12.1405 26.2758 12.3905C26.5259 12.6406 26.6663 12.9797 26.6663 13.3333V19.3333ZM14.6663 26.666C14.6663 27.0196 14.5259 27.3588 14.2758 27.6088C14.0258 27.8589 13.6866 27.9993 13.333 27.9993C12.9794 27.9993 12.6402 27.8589 12.3902 27.6088C12.1401 27.3588 11.9997 27.0196 11.9997 26.666V20.666C11.9997 20.3124 12.1401 19.9732 12.3902 19.7232C12.6402 19.4731 12.9794 19.3327 13.333 19.3327C13.6866 19.3327 14.0258 19.4731 14.2758 19.7232C14.5259 19.9732 14.6663 20.3124 14.6663 20.666V26.666ZM19.9997 26.666C19.9997 27.0196 19.8592 27.3588 19.6091 27.6088C19.3591 27.8589 19.02 27.9993 18.6663 27.9993C18.3127 27.9993 17.9736 27.8589 17.7235 27.6088C17.4735 27.3588 17.333 27.0196 17.333 26.666V20.666C17.333 20.3124 17.4735 19.9732 17.7235 19.7232C17.9736 19.4731 18.3127 19.3327 18.6663 19.3327C19.02 19.3327 19.3591 19.4731 19.6091 19.7232C19.8592 19.9732 19.9997 20.3124 19.9997 20.666V26.666Z" fill="#B5B5C3"/>
<path d="M9.33301 12.0013V22.0007C9.33301 22.3543 9.47348 22.6934 9.72353 22.9435C9.97358 23.1935 10.3127 23.334 10.6663 23.334H21.333C21.6866 23.334 22.0258 23.1935 22.2758 22.9435C22.5259 22.6934 22.6663 22.3543 22.6663 22.0007V12.0013H9.33301ZM15.9997 5.33398C11.9997 5.33398 9.56301 7.76398 9.33301 10.6673H22.6663C22.4357 7.76398 19.9997 5.33398 15.9997 5.33398ZM13.333 9.06598C13.1562 9.06598 12.9866 8.99575 12.8616 8.87072C12.7366 8.7457 12.6663 8.57613 12.6663 8.39932C12.6663 8.22251 12.7366 8.05294 12.8616 7.92791C12.9866 7.80289 13.1562 7.73265 13.333 7.73265C13.5098 7.73265 13.6794 7.80289 13.8044 7.92791C13.9294 8.05294 13.9997 8.22251 13.9997 8.39932C13.9997 8.57613 13.9294 8.7457 13.8044 8.87072C13.6794 8.99575 13.5098 9.06598 13.333 9.06598ZM18.6663 9.06598C18.4895 9.06598 18.32 8.99575 18.1949 8.87072C18.0699 8.7457 17.9997 8.57613 17.9997 8.39932C17.9997 8.22251 18.0699 8.05294 18.1949 7.92791C18.32 7.80289 18.4895 7.73265 18.6663 7.73265C18.8432 7.73265 19.0127 7.80289 19.1377 7.92791C19.2628 8.05294 19.333 8.22251 19.333 8.39932C19.333 8.57613 19.2628 8.7457 19.1377 8.87072C19.0127 8.99575 18.8432 9.06598 18.6663 9.06598Z" fill="#B5B5C3"/>
<path d="M20 4.66602L18.8893 6.33202M12 4.66602L12.8887 6.05402" stroke="#B5B5C3" stroke-width="2" stroke-linecap="round"/>
</svg>
