<svg width="9" height="6" viewBox="0 0 9 6" fill="none" xmlns="http://www.w3.org/2000/svg">
<path d="M3.80308 1.13164L0.131798 4.84773C0.0468167 4.93368 0 5.04841 0 5.17075C0 5.29308 0.0468167 5.40782 0.131798 5.49377L0.4021 5.76743C0.578233 5.94551 0.864499 5.94551 1.04036 5.76743L4.12329 2.64694L7.20963 5.77089C7.29462 5.85684 7.4079 5.9043 7.5287 5.9043C7.64963 5.9043 7.76292 5.85684 7.84797 5.77089L8.1182 5.49723C8.20318 5.41121 8.25 5.29655 8.25 5.17421C8.25 5.05187 8.20318 4.93714 8.1182 4.85119L4.44356 1.13164C4.35831 1.04549 4.24449 0.998172 4.12349 0.998443C4.00202 0.998172 3.88827 1.04549 3.80308 1.13164Z" fill="#80808F"/>
</svg>
