<svg width="24" height="24" viewBox="0 0 24 24" fill="none" xmlns="http://www.w3.org/2000/svg">
<path d="M7.50107 6.08514C4.98551 7.38359 3.39313 9.5472 2.60186 10.8666C2.17959 11.5708 2.17959 12.4292 2.60186 13.1334C3.79014 15.1148 6.78504 19 12.0001 19C14.6127 19 16.6682 18.0248 18.2184 16.8025L7.50107 6.08514Z" fill="#E4E6EF"/>
<path d="M19.6823 15.438C20.4495 14.6012 21.0169 13.7693 21.3983 13.1334C21.8205 12.4292 21.8205 11.5708 21.3983 10.8666C20.21 8.88521 17.2151 5 12.0001 5C11.1203 5 10.3037 5.11057 9.54829 5.30393L19.6823 15.438Z" fill="#E4E6EF"/>
<path d="M10.7077 9.29102C9.69769 9.77385 9 10.805 9 11.9992C9 13.656 10.3431 14.9992 12 14.9992C13.1941 14.9992 14.2253 14.3015 14.7081 13.2915L10.7077 9.29102Z" fill="#B5B5C3"/>
<path fill-rule="evenodd" clip-rule="evenodd" d="M2.29289 2.29289C2.68342 1.90237 3.31658 1.90237 3.70711 2.29289L21.7071 20.2929C22.0976 20.6834 22.0976 21.3166 21.7071 21.7071C21.3166 22.0976 20.6834 22.0976 20.2929 21.7071L2.29289 3.70711C1.90237 3.31658 1.90237 2.68342 2.29289 2.29289Z" fill="#B5B5C3"/>
</svg>
