<svg width="32" height="32" viewBox="0 0 32 32" fill="none" xmlns="http://www.w3.org/2000/svg">
<path d="M14.0003 26.6673H18.0003C18.1781 26.6673 18.3337 26.6007 18.467 26.4673C18.6003 26.334 18.667 26.1784 18.667 26.0007C18.667 25.8229 18.6003 25.6673 18.467 25.534C18.3337 25.4007 18.1781 25.334 18.0003 25.334H14.0003C13.8225 25.334 13.667 25.4007 13.5337 25.534C13.4003 25.6673 13.3337 25.8229 13.3337 26.0007C13.3337 26.1784 13.4003 26.334 13.5337 26.4673C13.667 26.6007 13.8225 26.6673 14.0003 26.6673ZM9.33366 30.6673C8.60033 30.6673 7.97277 30.4064 7.45099 29.8847C6.92833 29.362 6.66699 28.734 6.66699 28.0007V4.00065C6.66699 3.26732 6.92833 2.63932 7.45099 2.11665C7.97277 1.59487 8.60033 1.33398 9.33366 1.33398H22.667C23.4003 1.33398 24.0283 1.59487 24.551 2.11665C25.0728 2.63932 25.3337 3.26732 25.3337 4.00065V28.0007C25.3337 28.734 25.0728 29.362 24.551 29.8847C24.0283 30.4064 23.4003 30.6673 22.667 30.6673H9.33366ZM9.33366 21.334H22.667V8.00065H9.33366V21.334Z" fill="#B5B5C3"/>
</svg>
