<svg width="24" height="24" viewBox="0 0 24 24" fill="none" xmlns="http://www.w3.org/2000/svg">
<g clip-path="url(#clip0_2531_50938)">
<path opacity="0.25" d="M21.3905 19.5809L19.4856 21.4858C19.4856 21.4858 14.5358 23.6071 7.46477 16.5361C0.393706 9.46499 2.51503 4.51525 2.51503 4.51525L4.41996 2.61032C5.28058 1.7497 6.70391 1.85085 7.43417 2.82453L9.25245 5.24889C9.84963 6.04514 9.77044 7.15932 9.06666 7.86311L7.46477 9.46499C7.46477 9.46499 7.46477 10.8792 10.2932 13.7076C13.1216 16.5361 14.5358 16.5361 14.5358 16.5361L16.1377 14.9342C16.8415 14.2304 17.9557 14.1512 18.7519 14.7484L21.1763 16.5667C22.15 17.2969 22.2511 18.7203 21.3905 19.5809Z" fill="#12131A"/>
<path d="M4.41995 2.61024L3.92923 3.10096L8.17188 8.75781L9.06665 7.86303C9.77044 7.15925 9.84962 6.04506 9.25244 5.24882L7.43417 2.82445C6.70391 1.85077 5.28057 1.74962 4.41995 2.61024Z" fill="#12131A"/>
<path d="M21.3898 19.58L20.899 20.0708L15.2422 15.8281L16.137 14.9333C16.8408 14.2296 17.9549 14.1504 18.7512 14.7476L21.1755 16.5658C22.1492 17.2961 22.2504 18.7194 21.3898 19.58Z" fill="#12131A"/>
</g>
<defs>
<clipPath id="clip0_2531_50938">
<rect width="24" height="24" fill="white"/>
</clipPath>
</defs>
</svg>
