<svg width="20" height="20" viewBox="0 0 20 20" fill="none" xmlns="http://www.w3.org/2000/svg">
<path opacity="0.25" fill-rule="evenodd" clip-rule="evenodd" d="M5.45152 1.97351C3.62086 2.21529 2.21593 3.62022 1.97415 5.45088C1.80793 6.70942 1.66666 8.28374 1.66666 9.99935C1.66666 11.715 1.80793 13.2893 1.97415 14.5478C2.21593 16.3785 3.62086 17.7834 5.45152 18.0252C6.71006 18.1914 8.28439 18.3327 9.99999 18.3327C11.7156 18.3327 13.2899 18.1914 14.5485 18.0252C16.3791 17.7834 17.7841 16.3785 18.0258 14.5478C18.192 13.2893 18.3333 11.715 18.3333 9.99935C18.3333 8.28374 18.192 6.70942 18.0258 5.45088C17.7841 3.62022 16.3791 2.21529 14.5485 1.97351C13.2899 1.80729 11.7156 1.66602 9.99999 1.66602C8.28439 1.66602 6.71006 1.80729 5.45152 1.97351Z" fill="white"/>
<path fill-rule="evenodd" clip-rule="evenodd" d="M10 14.1673C10.4602 14.1673 10.8333 13.7942 10.8333 13.334V10.834H13.3333C13.7936 10.834 14.1667 10.4609 14.1667 10.0007C14.1667 9.54041 13.7936 9.16732 13.3333 9.16732H10.8333V6.66732C10.8333 6.20708 10.4602 5.83398 10 5.83398C9.53977 5.83398 9.16668 6.20708 9.16668 6.66732V9.16732H6.66668C6.20644 9.16732 5.83334 9.54041 5.83334 10.0007C5.83334 10.4609 6.20644 10.834 6.66668 10.834H9.16668V13.334C9.16668 13.7942 9.53977 14.1673 10 14.1673Z" fill="white"/>
</svg>
