<svg width="32" height="32" viewBox="0 0 32 32" fill="none" xmlns="http://www.w3.org/2000/svg">
<path opacity="0.3" d="M19.0585 22.2761C18.5378 21.7554 18.5378 20.9112 19.0585 20.3905C19.5792 19.8698 20.4234 19.8698 20.9441 20.3905L26.2774 25.7239C26.7981 26.2446 26.7981 27.0888 26.2774 27.6095C25.7567 28.1302 24.9125 28.1302 24.3918 27.6095L19.0585 22.2761Z" fill="#5E6278"/>
<path fill-rule="evenodd" clip-rule="evenodd" d="M5.33203 14.6673C5.33203 19.822 9.51071 24.0007 14.6654 24.0007C19.82 24.0007 23.9987 19.822 23.9987 14.6673C23.9987 9.51266 19.82 5.33398 14.6654 5.33398C9.51071 5.33398 5.33203 9.51266 5.33203 14.6673ZM21.333 14.6668C21.333 18.3487 18.3482 21.3335 14.6663 21.3335C10.9844 21.3335 7.99964 18.3487 7.99964 14.6668C7.99964 10.9849 10.9844 8.00018 14.6663 8.00018C18.3482 8.00018 21.333 10.9849 21.333 14.6668Z" fill="#5E6278"/>
</svg>
